<?xml version="1.0" encoding="UTF-8" standalone="no"?>
<!-- Created with Inkscape (http://www.inkscape.org/) -->
<svg
   xmlns:svg="http://www.w3.org/2000/svg"
   xmlns="http://www.w3.org/2000/svg"
   version="1.0"
   width="672"
   height="280"
   id="svg2"
   xml:space="preserve"><defs
     id="defs5" /><g
     transform="matrix(1.25,0,0,-1.25,-65.168592,425.16574)"
     id="g11"><path
       d="M 333.374,285.22408 C 300.50678,286.76529 129.14685,291.12085 52.849853,258.08554 C 73.492399,245.88995 95.582603,233.26997 121.58685,219.55552 C 197.1332,254.9138 295.25231,267.71247 385.38249,272.62644 L 385.38249,274.90474 C 367.90335,277.07135 348.494,280.80151 333.374,285.22408 z M 410.42163,271.35327 C 342.75698,264.60773 222.9766,244.9965 154.72216,202.49062 C 179.54683,190.027 205.49746,177.63038 231.39447,166.10487 C 303.29486,227.35087 398.30419,254.53408 495.19011,273.5869 L 495.19011,275.82052 C 470.57991,272.91681 433.36971,271.15225 410.42163,271.35327 z M 267.10339,150.75987 C 299.86338,137.22411 333.6957,124.76048 362.54165,116.45139 C 397.28547,185.51507 460.12459,240.30589 575.93731,290.49544 L 575.93731,292.77374 C 427.20375,252.09943 334.12464,222.97296 267.10339,150.75987"
       id="path97"
       style="fill:#04507c;fill-opacity:1;fill-rule:evenodd;stroke:none" /><path
       d="M 285.4404,306.77856 L 280.34679,328.06501 L 268.28296,306.77856 L 253.80637,306.77856 L 241.5817,328.06501 L 236.48808,306.77856 L 221.31447,306.77856 L 231.28723,339.7692 L 248.06935,339.7692 L 261.04467,317.18726 L 274.0736,339.7692 L 290.69487,339.7692 L 300.66763,306.77856"
       id="path99"
       style="fill:#04507c;fill-opacity:1;fill-rule:nonzero;stroke:none" /><path
       d="M 171.71874,339.7692 L 149.30684,306.77856 L 164.42683,306.77856 L 167.85832,312.47431 L 191.28895,312.47431 L 194.66682,306.77856 L 211.34171,306.77856 L 188.9298,339.7692 L 171.71874,339.7692 z M 171.66513,318.88481 L 179.54683,332.13021 L 187.48214,318.88481"
       id="path101"
       style="fill:#04507c;fill-opacity:1;fill-rule:nonzero;stroke:none" /><path
       d="M 463.87778,339.7692 L 441.46588,306.77856 L 456.58587,306.77856 L 459.96374,312.47431 L 483.44799,312.47431 L 486.82586,306.77856 L 503.50075,306.77856 L 481.08884,339.7692 L 463.87778,339.7692 z M 463.82417,318.88481 L 471.70587,332.13021 L 479.64118,318.88481"
       id="path103"
       style="fill:#04507c;fill-opacity:1;fill-rule:nonzero;stroke:none" /><path
       d="M 549.87945,306.77856 L 531.81052,322.36926 L 531.81052,306.77856 L 516.36883,306.77856 L 516.36883,339.7692 L 531.81052,339.7692 L 531.81052,325.31765 L 549.87945,339.7692 L 568.59179,339.7692 L 547.78839,323.99981 L 570.03944,306.77856"
       id="path105"
       style="fill:#04507c;fill-opacity:1;fill-rule:nonzero;stroke:none" /><path
       d="M 413.4778,306.77856 L 430.95694,306.77856 L 419.37567,319.39854 C 425.7561,320.98442 428.43695,324.78158 428.43695,329.09248 C 428.43695,334.1628 424.84461,336.88783 419.75099,338.27267 C 414.44291,339.72453 407.41908,339.7692 400.77057,339.7692 C 387.90249,339.7692 377.12548,339.7692 377.12548,339.7692 L 377.12548,306.77856 L 392.40632,306.77856 L 392.40632,316.69586 L 405.5961,316.69586 L 413.4778,306.77856 z M 392.40632,333.22468 C 392.40632,333.22468 399.591,333.22468 402.05738,333.22468 C 409.93908,333.22468 413.1561,331.70582 413.1561,328.35538 C 413.1561,325.67503 411.01142,324.04448 408.33057,323.4414 C 406.34674,322.99468 404.57738,322.90533 401.52121,322.90533 C 399.10845,322.90533 392.40632,322.90533 392.40632,322.90533"
       id="path107"
       style="fill:#04507c;fill-opacity:1;fill-rule:nonzero;stroke:none" /><path
       d="M 343.1323,332.21955 L 343.1323,306.77856 L 327.63698,306.77856 L 327.63698,332.21955 L 307.63784,332.21955 L 309.35359,339.7692 L 363.39952,339.7692 L 361.68378,332.21955"
       id="path109"
       style="fill:#04507c;fill-opacity:1;fill-rule:nonzero;stroke:none" /><path
       d="M 580.70923,338.67473 C 582.69306,338.67473 584.4088,337.95997 585.80284,336.55278 C 587.19689,335.16793 587.89391,333.47038 587.89391,331.48245 C 587.89391,329.49453 587.19689,327.79697 585.80284,326.38979 C 584.4088,324.98261 582.69306,324.26785 580.70923,324.26785 C 578.67178,324.26785 577.00966,324.98261 575.562,326.38979 C 574.16795,327.79697 573.47093,329.49453 573.47093,331.48245 C 573.47093,333.47038 574.16795,335.16793 575.61561,336.55278 C 577.00966,337.95997 578.7254,338.67473 580.70923,338.67473 z M 589.01986,331.50479 C 589.01986,333.80542 588.21561,335.77101 586.6071,337.37922 C 584.94497,339.00977 583.01476,339.81387 580.65561,339.81387 C 578.4037,339.81387 576.41987,339.00977 574.81136,337.37922 C 573.14923,335.74868 572.34498,333.78309 572.34498,331.50479 C 572.34498,329.18182 573.14923,327.21623 574.75774,325.58568 C 576.41987,323.95514 578.35008,323.1287 580.65561,323.1287 C 583.01476,323.1287 584.94497,323.95514 586.6071,325.58568 C 588.21561,327.21623 589.01986,329.18182 589.01986,331.50479 z M 582.85391,333.29169 C 582.85391,332.59927 582.53221,332.13021 581.8888,331.88451 C 581.5671,331.75049 581.03093,331.68348 580.33391,331.68348 L 578.88625,331.68348 L 578.88625,334.94457 L 580.28029,334.94457 C 581.19178,334.94457 581.83519,334.83289 582.26412,334.60953 C 582.63944,334.38617 582.85391,333.93944 582.85391,333.29169 z M 577.33136,336.08372 L 577.33136,326.9482 L 578.88625,326.9482 L 578.88625,330.54433 L 580.17306,330.54433 C 581.03093,330.54433 581.62072,330.43265 581.94242,330.25396 C 582.53221,329.89658 582.80029,329.20416 582.80029,328.15435 L 582.80029,327.43959 L 582.85391,327.14922 C 582.85391,327.10455 582.85391,327.05988 582.85391,327.03754 C 582.85391,327.0152 582.90753,326.99287 582.90753,326.9482 L 584.46242,326.9482 L 584.35518,327.05988 C 584.35518,327.12689 584.30157,327.30558 584.30157,327.55127 C 584.24795,327.77464 584.24795,327.998 584.24795,328.22136 L 584.24795,328.89145 C 584.24795,329.33817 584.0871,329.80724 583.7654,330.29863 C 583.4437,330.79003 582.90753,331.0804 582.2105,331.19208 C 582.80029,331.28143 583.22923,331.43778 583.55093,331.63881 C 584.14072,332.01852 584.46242,332.6216 584.46242,333.44804 C 584.46242,334.58719 583.97987,335.36896 583.01476,335.74868 C 582.47859,335.97204 581.67433,336.08372 580.49476,336.08372"
       id="path111"
       style="fill:#04507c;fill-opacity:1;fill-rule:nonzero;stroke:none" /></g></svg>