<?xml version="1.0" encoding="UTF-8" standalone="no"?>
<!-- Created with Inkscape (http://www.inkscape.org/) -->

<svg
   width="84.02504mm"
   height="84.025017mm"
   viewBox="0 0 84.02504 84.025017"
   version="1.1"
   id="svg4741"
   xmlns="http://www.w3.org/2000/svg"
   xmlns:svg="http://www.w3.org/2000/svg">
  <defs
     id="defs4738" />
  <g
     id="layer1"
     transform="translate(-35.545632,-110.53081)">
    <path
       d="m 119.50817,152.54331 v -0.6 l -0.025,-0.575 -0.025,-0.575 -0.025,-0.6 -0.025,-0.57499 -0.05,-0.57501 -0.05,-0.6 -0.075,-0.575 -0.05,-0.575 -0.075,-0.57499 -0.1,-0.57501 -0.1,-0.57499 -0.1,-0.57501 -0.1,-0.57499 -0.125,-0.57501 -0.125,-0.57499 -0.125,-0.57501 -0.15,-0.57499 -0.15,-0.55001 -0.15,-0.575 -0.15,-0.54999 -0.175,-0.55001 -0.19999,-0.575 -0.17501,-0.54999 -0.2,-0.55001 -0.2,-0.55 -0.2,-0.55 -0.225,-0.525 -0.225,-0.54999 -0.25,-0.525 -0.225,-0.55 -0.25,-0.525 -0.25,-0.525 -0.275,-0.525 -0.275,-0.50001 -0.275,-0.525 -0.275,-0.5 -0.3,-0.525 -0.3,-0.49999 -0.3,-0.50001 -0.325,-0.47499 -0.3,-0.5 -0.325,-0.475 -0.35,-0.5 -0.325,-0.475 -0.35,-0.47501 -0.35,-0.45 -0.375,-0.47499 -0.35,-0.45 -0.375,-0.45001 -0.375,-0.45 -0.4,-0.42499 -0.375,-0.45001 -0.4,-0.42499 -0.4,-0.425 -0.4,-0.425 -0.425,-0.40001 -0.425,-0.39999 -0.425,-0.40001 -0.425,-0.4 -0.45,-0.4 -0.425,-0.375 -0.45,-0.37499 -0.45,-0.375 -0.45,-0.37501 -0.475,-0.35 -0.475,-0.35 -0.475,-0.35 -0.475,-0.32499 -0.475,-0.325 -0.475,-0.32501 -0.5,-0.32499 -0.500001,-0.325 -0.499995,-0.3 -0.500003,-0.30001 -0.500002,-0.275 -0.524997,-0.27499 -0.499999,-0.3 -0.525,-0.25 -0.525001,-0.275 -0.525,-0.25 -0.525,-0.25 -0.525001,-0.22501 -0.549998,-0.24999 -0.550001,-0.225 -0.525001,-0.2 -0.550002,-0.22501 -0.549998,-0.19999 -0.549998,-0.17501 -0.549998,-0.19999 -0.575003,-0.175 -0.549998,-0.175 -0.549999,-0.15 -0.575003,-0.15001 -0.575003,-0.14999 -0.549998,-0.15 -0.574996,-0.12501 -0.575003,-0.12499 -0.574999,-0.125 -0.575,-0.10001 -0.575,-0.1 -0.575003,-0.1 -0.574996,-0.075 -0.575003,-0.075 -0.574996,-0.075 -0.600001,-0.05 -0.575003,-0.05 -0.574996,-0.05 -0.600001,-0.025 -0.575003,-0.025 -0.574999,-0.025 h -0.600001 -0.574996 -0.600001 -0.575003 l -0.574996,0.025 -0.600001,0.05 -0.575003,0.025 -0.574996,0.05"
       style="fill:none;stroke:#005f7f;stroke-width:0.124996;stroke-linecap:round;stroke-linejoin:bevel;stroke-miterlimit:1.41499;stroke-dasharray:none;stroke-opacity:1"
       id="path1490" />
    <path
       d="m 73.908171,110.74332 -0.575003,0.05 -0.599998,0.075 -0.575003,0.075 -0.575003,0.075 -0.574996,0.075 -0.575003,0.1 -0.574996,0.1 -0.575003,0.125 -0.574996,0.10001 -0.575003,0.12499 -0.574996,0.15001 -0.550002,0.14999 -0.574999,0.15 -0.550002,0.15001 -0.575,0.17499 -0.550001,0.17501 -0.549999,0.175 -0.575003,0.175 -0.549998,0.2 -0.525,0.225 -0.549998,0.2 -0.549998,0.22499 -0.525001,0.22501 -0.549998,0.225 -0.525,0.24999 -0.525001,0.25 -0.525,0.25 -0.525,0.275 -0.525001,0.27501 -0.500002,0.27499 -0.525001,0.30001 -0.500002,0.275 -0.499996,0.29999 -0.500002,0.325 -0.474998,0.3 -0.499999,0.325 -0.475001,0.32501 -0.499999,0.35 -0.45,0.32499 -0.474997,0.35 -0.475005,0.35 -0.45,0.37501 -0.45,0.35 -0.449999,0.375 -0.45,0.39999 -0.449996,0.37501 -0.425002,0.39999 -0.425002,0.40001 -0.425002,0.4 -0.424999,0.4 -0.399997,0.425 -0.400004,0.42499 -0.399997,0.42501 -0.400001,0.42499 -0.399997,0.42501 -0.375006,0.45 -0.374999,0.45 -0.374996,0.44999 -0.350001,0.47501 -0.350002,0.45 -0.349998,0.47499 -0.350001,0.475 -0.350002,0.47501 -0.325,0.47499 -0.324996,0.50001 -0.300002,0.47499 -0.324997,0.50001 -0.300006,0.5 -0.299995,0.49999 -0.275001,0.525 -0.274997,0.50001 -0.275008,0.525 -0.274997,0.525 -0.250003,0.525 -0.249993,0.52499 -0.250003,0.52501 -0.249999,0.525 -0.225002,0.55 -0.224998,0.55 -0.2,0.525 -0.225002,0.54999 -0.199997,0.55 -0.175002,0.55001 -0.199997,0.55 -0.174999,0.57499 -0.150004,0.55001 -0.174999,0.57499 -0.150002,0.55 -0.150001,0.575 -0.124999,0.55 -0.124997,0.57501 -0.125003,0.57499 -0.124996,0.575 -0.100002,0.575 -0.1,0.57501 -0.075,0.57499 -0.1,0.57501 -0.075,0.6 -0.05,0.57499 -0.075,0.57501 -0.02501,0.57499 -0.05,0.6 -0.02501,0.57501 -0.02501,0.575 -0.02501,0.6 v 0.57499 0.6 0.57501 l 0.02501,0.57499 0.02501,0.6 0.02501,0.57501 0.05,0.57499 0.02501,0.6 0.075,0.575 0.05,0.57501 0.075,0.57499 0.1,0.57501 0.075,0.6 0.1,0.57499"
       style="fill:none;stroke:#005f7f;stroke-width:0.124996;stroke-linecap:round;stroke-linejoin:bevel;stroke-miterlimit:1.41499;stroke-dasharray:none;stroke-opacity:1"
       id="path1492" />
    <path
       d="m 36.23317,159.81831 0.100002,0.57501 0.124996,0.57499 0.125003,0.55001 0.124997,0.57499 0.124999,0.57501 0.150001,0.575 0.150002,0.54999 0.174999,0.57501 0.150004,0.54999 0.174999,0.55 0.199997,0.57501 0.175002,0.54999 0.199997,0.55 0.225002,0.525 0.2,0.55001 0.224998,0.55 0.225002,0.525 0.249999,0.54999 0.250003,0.525 0.249993,0.52501 0.250003,0.525 0.274997,0.525 0.275008,0.49999 0.274997,0.525 0.275001,0.5 0.299995,0.50001 0.300006,0.49999 0.324997,0.5 0.300002,0.50001 0.324996,0.47499 0.325,0.5 0.350002,0.475 0.350001,0.47501 0.349998,0.47499 0.350002,0.45 0.350001,0.45 0.374996,0.47501 0.374999,0.44999 0.375006,0.425 0.399997,0.45001 0.400001,0.42499 0.399997,0.425 0.400004,0.425 0.399997,0.425 0.424999,0.4 0.425002,0.4 0.425002,0.4 0.425002,0.40001 0.449996,0.37499 0.45,0.375 0.449999,0.37501 0.45,0.37499 0.45,0.35 0.475005,0.375 0.474997,0.35 0.45,0.325 0.499999,0.35001 0.475001,0.325 0.499999,0.29999 0.474998,0.325 0.500002,0.3 0.499996,0.3 0.500002,0.3 0.525001,0.3 0.500002,0.275 0.525001,0.275 0.525,0.25 0.525,0.275 0.525001,0.25 0.525,0.22501 0.549998,0.25 0.525001,0.22499 0.549998,0.22501 0.549998,0.19999 0.525,0.2 0.549998,0.20001 0.575003,0.19999 0.549999,0.17501 0.550001,0.17499 0.575,0.175 0.550002,0.15 0.574999,0.15 0.550002,0.15 0.574996,0.125 0.575003,0.12501 0.574996,0.12499 0.575003,0.12501 0.574996,0.1 0.575003,0.10001 0.574996,0.075 0.575003,0.075 0.575003,0.075 0.599998,0.075 0.575003,0.05 0.574996,0.05 0.575003,0.025 0.600001,0.025 0.574996,0.025 0.575003,0.025 h 0.600001 0.574996 0.600001 l 0.574999,-0.025 0.575003,-0.025 0.600001,-0.05 0.574996,-0.025 0.575003,-0.05 0.600001,-0.075 0.574996,-0.05 0.575003,-0.075 0.574996,-0.1 0.575003,-0.075 0.575,-0.1 0.574999,-0.125 0.575,-0.1 0.575003,-0.125 0.574996,-0.125 0.549998,-0.15 0.575003,-0.15"
       style="fill:none;stroke:#005f7f;stroke-width:0.124996;stroke-linecap:round;stroke-linejoin:bevel;stroke-miterlimit:1.41499;stroke-dasharray:none;stroke-opacity:1"
       id="path1494" />
    <path
       d="m 88.383168,193.06831 0.575003,-0.15 0.549999,-0.17499 0.549998,-0.15001 0.575003,-0.2 0.549998,-0.17499 0.549998,-0.20001 0.549998,-0.2 0.550002,-0.2 0.525,-0.225 0.550002,-0.225 0.549998,-0.225 0.525001,-0.25 0.525,-0.22499 0.525,-0.27501 0.525001,-0.25 0.525,-0.275 0.499999,-0.27499 0.524997,-0.275 0.500002,-0.30001 0.500003,-0.3 0.499995,-0.3 0.500005,-0.3 0.5,-0.325 0.475,-0.32499 0.475,-0.32501 0.475,-0.34999 0.475,-0.32501 0.475,-0.35 0.475,-0.37499 0.45,-0.35001 0.45,-0.375 0.45,-0.375 0.425,-0.4 0.45,-0.37499 0.425,-0.40001 0.425,-0.4 0.425,-0.4 0.425,-0.425 0.4,-0.4 0.4,-0.425 0.4,-0.44999 0.375,-0.42501 0.4,-0.45 0.375,-0.425 0.375,-0.45 0.35,-0.47499 0.375,-0.45001 0.35,-0.475 0.35,-0.47499 0.325,-0.47501 0.35,-0.475 0.325,-0.47499 0.3,-0.50001 0.325,-0.5 0.3,-0.49999 0.3,-0.50001 0.3,-0.5 0.275,-0.49999 0.275,-0.525 0.27499,-0.52501 0.27501,-0.49999 0.24999,-0.55001 0.25001,-0.525 0.225,-0.525 0.25,-0.525 0.225,-0.54999 0.225,-0.55001 0.2,-0.525 0.2,-0.55 0.2,-0.55 0.175,-0.575 0.2,-0.55 0.175,-0.55 0.15,-0.575 0.15,-0.55 0.15,-0.57499 0.15,-0.55001 0.125,-0.57499 0.12499,-0.57501 0.12501,-0.57499 0.1,-0.57501 0.1,-0.575 0.1,-0.575 0.1,-0.575 0.075,-0.575 0.05,-0.57499 0.075,-0.60001 0.05,-0.575 0.05,-0.57499 0.025,-0.60001 0.025,-0.575 0.025,-0.57499 0.025,-0.60001 v -0.575"
       style="fill:none;stroke:#005f7f;stroke-width:0.124996;stroke-linecap:round;stroke-linejoin:bevel;stroke-miterlimit:1.41499;stroke-dasharray:none;stroke-opacity:1"
       id="path1496" />
    <path
       d="m 83.358166,128.04331 h 1.525002"
       style="fill:none;stroke:#005f7f;stroke-width:0.124996;stroke-linecap:round;stroke-linejoin:bevel;stroke-miterlimit:1.41499;stroke-dasharray:none;stroke-opacity:1"
       id="path1498" />
    <path
       d="m 70.083167,128.04331 h 1.425004"
       style="fill:none;stroke:#005f7f;stroke-width:0.124996;stroke-linecap:round;stroke-linejoin:bevel;stroke-miterlimit:1.41499;stroke-dasharray:none;stroke-opacity:1"
       id="path1500" />
    <path
       d="m 63.883168,146.04331 v -2.49999"
       style="fill:none;stroke:#005f7f;stroke-width:0.124996;stroke-linecap:round;stroke-linejoin:bevel;stroke-miterlimit:1.41499;stroke-dasharray:none;stroke-opacity:1"
       id="path1502" />
    <path
       d="m 91.133166,146.04331 v -2.49999"
       style="fill:none;stroke:#005f7f;stroke-width:0.124996;stroke-linecap:round;stroke-linejoin:bevel;stroke-miterlimit:1.41499;stroke-dasharray:none;stroke-opacity:1"
       id="path1504" />
    <path
       d="m 79.633168,177.36831 h -4.199999 v 0 1.65 0 h 4.199999 v 0 -1.65"
       style="fill:#005f7f;fill-opacity:1;fill-rule:evenodd;stroke:#005f7f;stroke-width:0.264583;stroke-linecap:round;stroke-linejoin:bevel;stroke-miterlimit:1.41499;stroke-dasharray:none;stroke-opacity:1"
       id="path1506" />
    <path
       d="M 91.383169,147.49332 H 63.558172 v 0 l 3.074994,15.22499 v 0 l 21.750002,-0.025 v 0 l 3.000001,-15.19999"
       style="fill:#005f7f;fill-opacity:1;fill-rule:evenodd;stroke:#005f7f;stroke-width:0.264583;stroke-linecap:round;stroke-linejoin:bevel;stroke-miterlimit:1.41499;stroke-dasharray:none;stroke-opacity:1"
       id="path1508" />
    <path
       d="m 57.658172,143.76831 v 3.95 0 h 3.074994 v 0 15.95 0 l -3.074994,-1.05 v 0 2.325 0 l 2.974996,1.375 v 0 h 10.525001 v 0 2.2 0 h -10.375 v 0 l -3.124997,-1.3 v 0 5.475 0 l 3.074994,1.35001 v 0 0.72499 0 H 73.10817 v 0 6.125 0 H 60.733166 v 0 -2.225 0 l -4.274996,3.8 v 0 0 0 l -0.175002,0.075 -0.199997,0.05 -0.200004,0.025 -0.175003,-0.025 -0.199996,-0.075 -0.174999,-0.1 -0.149998,-0.12501 -0.125003,-0.15 v 0 0 0 -39.32499 0 l 2.600004,0.94999"
       style="fill:#005f7f;fill-opacity:1;fill-rule:evenodd;stroke:#005f7f;stroke-width:0.264583;stroke-linecap:round;stroke-linejoin:bevel;stroke-miterlimit:1.41499;stroke-dasharray:none;stroke-opacity:1"
       id="path1510" />
    <path
       d="m 97.333165,143.71832 v 3.99999 0 h -2.849996 v 0 15.9 0 l 2.849996,-1.025 v 0 2.47501 0 l -3.274998,1.24999 v 0 H 83.808166 v 0 2.2 0 h 10.425 v 0 l 3.099999,-1.275 v 0 5.45 0 l -2.849996,1.35001 v 0 0.72499 0 H 81.93317 v 0 6.125 0 h 12.549999 v 0 -2.2 0 l 4.324999,3.85 v 0 0 0 l 0.150001,0.075 0.174999,0.025 h 0.175002 l 0.150001,-0.05 0.149994,-0.075 0.150001,-0.1 0.100002,-0.125 0.075,-0.15001 v 0 h 0.02501 v 0 -39.32499 0 l -2.625002,0.9"
       style="fill:#005f7f;fill-opacity:1;fill-rule:evenodd;stroke:#005f7f;stroke-width:0.264583;stroke-linecap:round;stroke-linejoin:bevel;stroke-miterlimit:1.41499;stroke-dasharray:none;stroke-opacity:1"
       id="path1512" />
    <path
       d="m 67.333166,138.14332 h -7.624995 v 0 l 1.374997,2.27499 v 0 h 7.849997 v 0 l -1.599999,-2.27499"
       style="fill:#005f7f;fill-opacity:1;fill-rule:evenodd;stroke:#005f7f;stroke-width:0.264583;stroke-linecap:round;stroke-linejoin:bevel;stroke-miterlimit:1.41499;stroke-dasharray:none;stroke-opacity:1"
       id="path1514" />
    <path
       d="m 55.058168,142.81832 4.650003,-4.675 v 0 l 1.374997,2.27499 v 0 l -3.424996,3.35 v 0 l -2.600004,-0.94999"
       style="fill:#005f7f;fill-opacity:1;fill-rule:evenodd;stroke:#005f7f;stroke-width:0.264583;stroke-linecap:round;stroke-linejoin:bevel;stroke-miterlimit:1.41499;stroke-dasharray:none;stroke-opacity:1"
       id="path1516" />
    <path
       d="m 67.333166,138.14332 4.575002,-5.725 v 0 l 1.425,2.09999 v 0 l -4.400003,5.9 v 0 l -1.599999,-2.27499"
       style="fill:#005f7f;fill-opacity:1;fill-rule:evenodd;stroke:#005f7f;stroke-width:0.264583;stroke-linecap:round;stroke-linejoin:bevel;stroke-miterlimit:1.41499;stroke-dasharray:none;stroke-opacity:1"
       id="path1518" />
    <path
       d="m 71.908168,132.41832 h 11.100001 v 0 l -1.400003,2.09999 v 0 h -8.274998 v 0 l -1.425,-2.09999"
       style="fill:#005f7f;fill-opacity:1;fill-rule:evenodd;stroke:#005f7f;stroke-width:0.264583;stroke-linecap:round;stroke-linejoin:bevel;stroke-miterlimit:1.41499;stroke-dasharray:none;stroke-opacity:1"
       id="path1520" />
    <path
       d="m 86.00817,140.41831 -4.400004,-5.9 v 0 l 1.400003,-2.09999 v 0 l 4.599999,5.725 v 0 l -1.599998,2.27499"
       style="fill:#005f7f;fill-opacity:1;fill-rule:evenodd;stroke:#005f7f;stroke-width:0.264583;stroke-linecap:round;stroke-linejoin:bevel;stroke-miterlimit:1.41499;stroke-dasharray:none;stroke-opacity:1"
       id="path1522" />
    <path
       d="m 86.00817,140.41831 h 8.049997 v 0 l 1.125001,-2.27499 v 0 h -7.575 v 0 l -1.599998,2.27499"
       style="fill:#005f7f;fill-opacity:1;fill-rule:evenodd;stroke:#005f7f;stroke-width:0.264583;stroke-linecap:round;stroke-linejoin:bevel;stroke-miterlimit:1.41499;stroke-dasharray:none;stroke-opacity:1"
       id="path1524" />
    <path
       d="m 97.333165,143.71832 -3.274998,-3.30001 v 0 l 1.125001,-2.27499 v 0 l 4.774999,4.675 v 0 l -2.625002,0.9"
       style="fill:#005f7f;fill-opacity:1;fill-rule:evenodd;stroke:#005f7f;stroke-width:0.264583;stroke-linecap:round;stroke-linejoin:bevel;stroke-miterlimit:1.41499;stroke-dasharray:none;stroke-opacity:1"
       id="path1526" />
    <path
       d="m 67.208169,123.76832 -2.824998,2.75 v 0 l -0.950002,-0.95001 v 0 l 3.624999,-3.575 v 0 l 20.850003,0.025 v 0 l 3.574997,3.54999 v 0 l -0.975,0.95001 v 0 l -2.749998,-2.825 v 0 l -1.425,-0.425 v 0 h -17.625 v 0 l -1.500001,0.5"
       style="fill:#005f7f;fill-opacity:1;fill-rule:evenodd;stroke:#005f7f;stroke-width:0.264583;stroke-linecap:round;stroke-linejoin:bevel;stroke-miterlimit:1.41499;stroke-dasharray:none;stroke-opacity:1"
       id="path1528" />
    <path
       d="m 57.658172,172.69331 h 39.674993 v 0 l -2.849996,1.35001 v 0 H 60.733166 v 0 l -3.074994,-1.35001"
       style="fill:#005f7f;fill-opacity:1;fill-rule:evenodd;stroke:#005f7f;stroke-width:0.264583;stroke-linecap:round;stroke-linejoin:bevel;stroke-miterlimit:1.41499;stroke-dasharray:none;stroke-opacity:1"
       id="path1530" />
    <path
       d="m 63.883168,143.54332 h 27.249998 v 0 2.49999 0 H 63.883168 v 0 -2.49999"
       style="fill:#005f7f;fill-opacity:1;fill-rule:evenodd;stroke:#005f7f;stroke-width:0.264583;stroke-linecap:round;stroke-linejoin:bevel;stroke-miterlimit:1.41499;stroke-dasharray:none;stroke-opacity:1"
       id="path1532" />
    <path
       d="m 67.208169,123.76832 4.300002,4.27499 v 0 h -1.425004 v 0 0.85001 0 h 2.300005 v 0 l 3.549996,3.49999 v 0 l 1.199998,-0.55 v 0 l -2.899995,-2.94999 v 0 l -0.850001,-0.85001 v 0 l -4.675,-4.77499 v 0 l -1.500001,0.5"
       style="fill:#005f7f;fill-opacity:1;fill-rule:evenodd;stroke:#005f7f;stroke-width:0.264583;stroke-linecap:round;stroke-linejoin:bevel;stroke-miterlimit:1.41499;stroke-dasharray:none;stroke-opacity:1"
       id="path1534" />
    <path
       d="m 73.38317,128.04331 h 8.149996 v 0 l -0.849997,0.85001 v 0 H 77.78317 v 0 h -0.650004 v 0 h -2.899995 v 0 l -0.850001,-0.85001"
       style="fill:#005f7f;fill-opacity:1;fill-rule:evenodd;stroke:#005f7f;stroke-width:0.264583;stroke-linecap:round;stroke-linejoin:bevel;stroke-miterlimit:1.41499;stroke-dasharray:none;stroke-opacity:1"
       id="path1536" />
    <path
       d="m 77.133166,128.89332 v 2.94999 0 l -1.199998,0.55 v 0 h 3.150002 v 0 l -1.3,-0.55 v 0 -2.94999 0 h -0.650004"
       style="fill:#005f7f;fill-opacity:1;fill-rule:evenodd;stroke:#005f7f;stroke-width:0.264583;stroke-linecap:round;stroke-linejoin:bevel;stroke-miterlimit:1.41499;stroke-dasharray:none;stroke-opacity:1"
       id="path1538" />
    <path
       d="m 87.75817,123.69332 -4.400004,4.34999 v 0 h 1.525002 v 0 0.85001 0 h -2.324999 v 0 l -3.474999,3.49999 v 0 l -1.3,-0.55 v 0 l 2.899999,-2.94999 v 0 l 0.849997,-0.85001 v 0 l 4.800004,-4.77499 v 0 l 1.425,0.425"
       style="fill:#005f7f;fill-opacity:1;fill-rule:evenodd;stroke:#005f7f;stroke-width:0.264583;stroke-linecap:round;stroke-linejoin:bevel;stroke-miterlimit:1.41499;stroke-dasharray:none;stroke-opacity:1"
       id="path1540" />
    <path
       style="fill:#005f7f;fill-opacity:1;stroke-width:0.108733"
       d="m 157.28258,115.83782 c -1.10057,-0.18745 -1.39071,-0.28677 -2.43037,-0.83192 -0.9332,-0.48932 -1.39651,-0.82233 -2.21093,-1.58908 -0.93926,-0.88429 -1.08374,-1.07649 -1.63479,-2.17465 -0.52909,-1.0544 -0.63455,-1.37651 -0.84562,-2.58278 l -0.24115,-1.37814 0.24162,-1.39454 c 0.20852,-1.20346 0.32182,-1.55859 0.82687,-2.59179 0.53473,-1.09392 0.67437,-1.28266 1.6182,-2.18717 0.86124,-0.82536 1.24083,-1.09758 2.28338,-1.637497 1.153,-0.597111 1.35227,-0.662939 2.55742,-0.844839 1.28633,-0.194152 1.32773,-0.193763 2.61818,0.02464 1.15054,0.194723 1.46334,0.298141 2.55302,0.844075 1.0567,0.529411 1.38529,0.761931 2.20409,1.559671 0.85936,0.83726 1.03289,1.07704 1.62272,2.24231 0.62496,1.23467 0.67036,1.37784 0.84483,2.66395 0.17502,1.29017 0.17451,1.42681 -0.01,2.69212 -0.18042,1.23719 -0.23854,1.41687 -0.80893,2.50085 -0.50765,0.96474 -0.78818,1.34437 -1.61271,2.18238 -0.89289,0.9075 -1.1318,1.08191 -2.26544,1.65384 -1.11715,0.56361 -1.42129,0.66562 -2.5673,0.86115 -0.71501,0.12199 -1.34351,0.21696 -1.39667,0.21105 -0.0532,-0.006 -0.65904,-0.10655 -1.34641,-0.22363 z"
       id="path8741"
       transform="matrix(0.26458333,0,0,0.26458333,35.545632,110.53081)" />
  </g>
</svg>
