<?xml version="1.0" encoding="UTF-8" standalone="no"?>
<svg
   xmlns:dc="http://purl.org/dc/elements/1.1/"
   xmlns:cc="http://creativecommons.org/ns#"
   xmlns:rdf="http://www.w3.org/1999/02/22-rdf-syntax-ns#"
   xmlns:svg="http://www.w3.org/2000/svg"
   xmlns="http://www.w3.org/2000/svg"
   xmlns:sodipodi="http://sodipodi.sourceforge.net/DTD/sodipodi-0.dtd"
   xmlns:inkscape="http://www.inkscape.org/namespaces/inkscape"
   sodipodi:docname="Bart-logo.svg"
   inkscape:version="1.0 (4035a4fb49, 2020-05-01)"
   id="svg8"
   version="1.1"
   viewBox="0 0 434.475 264.585"
   height="1000.0063"
   width="1642.1102">
  <defs
     id="defs2" />
  <sodipodi:namedview
     inkscape:pagecheckerboard="true"
     inkscape:document-rotation="0"
     units="px"
     inkscape:window-maximized="1"
     inkscape:window-y="-8"
     inkscape:window-x="-8"
     inkscape:window-height="961"
     inkscape:window-width="1280"
     showgrid="false"
     inkscape:current-layer="layer1"
     inkscape:document-units="mm"
     inkscape:cy="135.41018"
     inkscape:cx="1036.6277"
     inkscape:zoom="0.35355339"
     inkscape:pageshadow="2"
     inkscape:pageopacity="0.0"
     borderopacity="1.0"
     bordercolor="#666666"
     pagecolor="#ffffff"
     id="base" />
  <metadata
     id="metadata5">
    <rdf:RDF>
      <cc:Work
         rdf:about="">
        <dc:format>image/svg+xml</dc:format>
        <dc:type
           rdf:resource="http://purl.org/dc/dcmitype/StillImage" />
        <dc:title></dc:title>
      </cc:Work>
    </rdf:RDF>
  </metadata>
  <g
     transform="translate(-93.614813,-159.24067)"
     id="layer1"
     inkscape:groupmode="layer"
     inkscape:label="Layer 1">
    <g
       transform="matrix(6.0903726,0,0,6.0903943,0.60264313,69.486534)"
       id="g829">
      <path
         id="path825"
         d="m 74.332,27.302 c 0,0 0,1.196 0,1.792 -2.5,-1.438 -5.694,-2.163 -9.521,-2.15 h -0.179 c -2.016,-0.005 -8.597,0.291 -13.172,4.059 3.236,2.587 5.344,6.391 5.344,11.5 0,5.337 -2.356,8.805 -5.437,11.067 0.975,0.922 2.094,1.719 3.365,2.376 3.896,2.019 8.176,2.234 9.831,2.234 2.74,0 4.957,-0.192 9.77,-2.612 0,0.526 0,1.655 0,1.655 H 86.485 V 27.302 Z m -8.661,23.424 c -4.651,0 -8.425,-3.787 -8.425,-8.461 0,-4.676 3.772,-8.465 8.425,-8.465 4.653,0 8.425,3.789 8.425,8.465 0,4.674 -3.772,8.461 -8.425,8.461 z"
         inkscape:connector-curvature="0"
         style="fill:#0099d8" />
      <path
         id="path827"
         d="m 38.131,26.825 c -7.659,0 -9.813,1.915 -10.891,2.513 0,-2.393 0,-14.601 0,-14.601 H 15.272 V 56.985 H 26.88 v -2.036 c 3.95,2.274 8.378,2.632 11.25,2.632 4.429,0 18.67,-1.914 18.67,-15.078 C 56.802,31.852 47.706,26.825 38.131,26.825 Z m 0.053,23.901 c -4.675,0 -8.463,-3.787 -8.463,-8.461 0,-4.676 3.788,-8.465 8.463,-8.465 4.674,0 8.463,3.789 8.463,8.465 0,4.674 -3.789,8.461 -8.463,8.461 z"
         inkscape:connector-curvature="0" />
    </g>
    <g
       transform="translate(0,46.56669)"
       style="font-size:58.2083px;line-height:1.25;font-family:Univers-Black;-inkscape-font-specification:Univers-Black;stroke-width:0.264583"
       id="text16"
       aria-label="B">
      <path
         id="path32"
         style="font-size:58.2083px;stroke-width:0.264583"
         d="m 220.59878,114.56761 h 18.80128 q 0.52387,0.11641 1.33879,0.17462 0.81492,0 1.92088,0.0582 1.10595,0.0582 2.21191,0.29104 1.16417,0.17463 2.38654,0.52388 1.51342,0.40746 2.91042,1.22237 1.4552,0.75671 2.73579,1.80446 1.33879,1.10596 2.03729,2.73579 0.7567,1.62983 0.93133,3.84175 0,0.0582 0,0.11641 0,0.0582 0,0.11642 0,0.0582 0,0.11642 0,0 0.0582,0.0582 0,0.0582 0,0.11641 0,0.0582 0,0.11642 0,0.0582 0,0.11642 0,0 0,0.0582 0,1.74625 -0.64029,3.25967 -0.64029,1.51341 -1.86267,2.73579 -1.28058,1.22237 -2.96862,1.92087 -1.62983,0.6985 -3.72533,0.87313 0,0 0,0 0,0 0.0582,0 0,0.0582 0,0.0582 0,0 0,0 0,0 0,0 0.0582,0 0.11642,0 1.86267,0.52387 3.55071,1.39699 1.68804,0.81492 3.25966,1.97909 1.51342,1.16416 2.27013,2.96862 0.81491,1.74625 0.81491,4.13279 0,3.08504 -1.10596,5.29696 -1.10595,2.1537 -3.31787,3.49249 -2.15371,1.28059 -5.41337,1.92088 -3.25967,0.64029 -7.56708,0.64029 h -18.80128 v -42.14281 0 z m 11.9327,33.87723 h 6.40291 q 1.33879,0.11642 2.27013,-0.11642 0.98954,-0.23283 1.57162,-0.7567 0.64029,-0.52388 0.98954,-1.10596 0.34925,-0.58209 0.52388,-1.16417 0,-0.0582 0,-0.11642 0,-0.0582 0.0582,-0.11641 0,0 0,-0.0582 0,-0.0582 0,-0.11642 0,-0.0582 0,-0.11641 0,-0.0582 0.0582,-0.11642 0,-0.0582 0,-0.11642 0,-0.0582 0,-0.11641 0,-0.11642 0,-0.17463 0,-0.11641 0,-0.17462 -0.0582,-0.11642 -0.0582,-0.17463 0,-0.11641 0,-0.17462 -0.0582,-0.17463 -0.11642,-0.34925 0,-0.23284 -0.11642,-0.46567 -0.23283,-0.52387 -0.64029,-1.04775 -0.34925,-0.52387 -0.93133,-0.98954 -0.58208,-0.46567 -1.397,-0.6985 -0.75671,-0.29104 -1.74625,-0.29104 l -6.86858,-0.11642 v 8.67304 0 z m 0,-17.40428 h 5.93725 q 1.33879,0.11641 2.32833,-0.11642 0.98954,-0.29104 1.57162,-0.81492 0.58209,-0.52387 0.87313,-1.28058 0.29104,-0.75671 0.29104,-1.80446 0,-0.81491 -0.34925,-1.57162 -0.34925,-0.75671 -0.98954,-1.33879 -0.6985,-0.64029 -1.62983,-0.93133 -0.93134,-0.29104 -2.0955,-0.29104 l -5.93725,-0.11642 z" />
    </g>
    <g
       transform="translate(33.803121,46.41766)"
       style="font-size:58.2083px;line-height:1.25;font-family:Univers-Black;-inkscape-font-specification:Univers-Black;stroke-width:0.264583"
       id="text20"
       aria-label="A">
      <path
         id="path35"
         style="font-size:58.2083px;stroke-width:0.264583"
         d="m 287.82424,114.71661 h 14.20282 l 16.53116,42.14281 h -13.27149 l -2.794,-7.79991 h -16.47295 l -2.73579,7.79991 h -12.39837 z m 11.46703,25.66986 -5.00591,-16.99682 -5.52979,16.99682 z" />
    </g>
    <g
       transform="translate(62.399265,47.211411)"
       style="font-size:58.2083px;line-height:1.25;font-family:Univers-Black;-inkscape-font-specification:Univers-Black;stroke-width:0.264583"
       id="text24"
       aria-label="R">
      <path
         id="path38"
         style="font-size:58.2083px;stroke-width:0.264583"
         d="m 337.05793,113.92286 h 18.80128 q 0.11642,0.11642 0.23284,0.11642 0.17462,0 0.29104,0 0.11642,0 0.23283,0 0.17463,0 0.34925,0 2.96862,0.0582 5.64621,0.64029 2.73579,0.58208 5.23874,1.62983 2.44475,1.10596 3.66713,3.31788 1.28058,2.1537 1.28058,5.41337 0,2.56116 -0.75671,4.48204 -0.6985,1.86266 -2.21191,3.02683 -1.45521,1.16417 -3.25967,1.92087 -1.80446,0.75671 -3.84175,1.10596 3.08504,0.11642 5.00592,1.16417 1.92087,1.04775 2.67758,3.02683 0.75671,1.97908 1.22237,4.13279 0.52388,2.15371 0.75671,4.48204 0,0.0582 0,0.11641 0,0.0582 0,0.11642 0,0.0582 0,0.11642 0,0.0582 0.0582,0.11641 0.11642,0.93134 0.17462,1.92088 0.11642,0.93133 0.23284,1.92087 0.11641,0.93134 0.34925,1.80446 0.23283,0.81492 0.52387,1.57162 h -12.80582 q -0.23284,-0.46566 -0.40746,-1.10595 -0.11642,-0.6403 -0.23284,-1.397 -0.0582,-0.75671 -0.11641,-1.51342 -0.0582,-0.81492 -0.11642,-1.62983 0,-0.11642 0,-0.17463 0,-0.0582 0,-0.17462 -0.0582,-0.0582 -0.0582,-0.11642 0,-0.11641 0,-0.17462 0,-0.17463 0,-0.34925 0,-0.17463 0,-0.34925 -0.11641,-1.68804 -0.40745,-3.20146 -0.29105,-1.57162 -0.75671,-2.96862 -0.46567,-1.397 -1.57163,-2.0955 -1.10595,-0.6985 -2.794,-0.6985 l -5.47158,-0.11642 v 16.06549 h -11.9327 z m 11.9327,8.67304 v 9.19691 h 4.59846 q 0.11642,0.11642 0.23283,0.11642 0.17463,0 0.29104,0 0.11642,0 0.23284,0 0.17462,0 0.34925,0 1.04775,-0.0582 2.03729,-0.29104 0.98954,-0.29104 1.92087,-0.6985 0.87313,-0.46567 1.33879,-1.33879 0.46567,-0.87313 0.46567,-2.27013 0,-1.16416 -0.46567,-2.03729 -0.46566,-0.87312 -1.397,-1.45521 -0.93133,-0.52387 -2.09549,-0.81491 -1.16417,-0.29104 -2.50296,-0.29104 z" />
    </g>
    <g
       transform="translate(94.726134,47.211411)"
       style="font-size:58.2083px;line-height:1.25;font-family:Univers-Black;-inkscape-font-specification:Univers-Black;stroke-width:0.264583"
       id="text28"
       aria-label="T">
      <path
         id="path41"
         style="font-size:58.2083px;stroke-width:0.264583"
         d="m 395.1763,113.92286 h 38.01002 v 8.67304 h -13.27149 v 33.46977 H 408.44779 V 122.5959 H 395.1763 Z" />
    </g>
  </g>
</svg>
