<?xml version="1.0" encoding="utf-8"?>
<!DOCTYPE svg PUBLIC "-//W3C//DTD SVG 1.1//EN" "http://www.w3.org/Graphics/SVG/1.1/DTD/svg11.dtd">
<svg xmlns="http://www.w3.org/2000/svg" width="500" height="500">
<title>AMTRAK logo</title>
<g stroke="none" fill="#007397" transform="scale (2.08333) translate (0,80)">
 <path d="M 126.93,3.414 C 112.08,2.715,34.512,0.744,0,15.695 c 9.334,5.514,19.346,11.234,31.1,17.434 C 65.303,17.127,109.676,11.34,150.484,9.113V8.076 C 142.549,7.107,133.789,5.412,126.93,3.414 L 126.93,3.414 z" />
 <path d="M 161.801,9.686 C 131.182,12.742,76.979,21.619,46.094,40.85 c 11.23,5.65,22.973,11.244,34.705,16.471 c 32.518 -27.723,75.531 -40.018,119.363 -48.635V7.67 C 189.025,8.98,172.199,9.781,161.801,9.686 L 161.801,9.686 z" />
 <path d="M 96.949,64.266 c 14.814,6.125,30.139,11.758,43.193,15.523 c 15.729 -31.266,44.164 -56.051,96.57 -78.764 V 0 C 169.398,18.406,127.275,31.594,96.949,64.266 L 96.949,64.266 z" />
</g>
</svg>