<?xml version="1.0" encoding="utf-8"?>
<!-- Generator: Adobe Illustrator 15.0.2, SVG Export Plug-In . SVG Version: 6.00 Build 0)  -->
<!DOCTYPE svg PUBLIC "-//W3C//DTD SVG 1.1//EN" "http://www.w3.org/Graphics/SVG/1.1/DTD/svg11.dtd">
<svg version="1.1" id="Layer_1" xmlns="http://www.w3.org/2000/svg" xmlns:xlink="http://www.w3.org/1999/xlink" x="0px" y="0px"
	 width="200px" height="113.088px" viewBox="0 0 200 113.088" enable-background="new 0 0 200 113.088" xml:space="preserve">
<polyline fill="#010202" points="74.686,72.818 63.827,72.818 71.143,35.188 82.001,35.188 74.686,72.818 "/>
<path fill="#010202" d="M51.347,72.818c-0.029-1.263,0.119-2.579,0.372-3.894c-2.821,3.235-6.185,4.442-10.023,4.442
	c-5.212,0-9.211-2.855-8.122-8.449c0.862-4.445,4.896-7.405,9.024-8.613c3.778-1.095,7.65-1.536,11.368-1.756l0.042-0.216
	c0.493-2.525,0.024-3.511-2.607-3.511c-2.141,0-4.292,0.946-5.08,3.306l-8.331,0.008c1.524-7.289,8.331-9.896,15.019-9.896
	c3.292,0,7.429,0.435,9.788,2.413c3.177,2.578,2.03,6.2,1.255,10.202l-1.909,9.82c-0.406,2.085-0.756,4.171-0.319,6.146H51.347
	 M52.963,59.708c-2.687,0.274-7.234,1.097-7.896,4.498c-0.351,1.809,0.651,2.576,2.352,2.576c4.112,0,4.84-3.456,5.436-6.527
	L52.963,59.708z"/>
<path fill="#E31837" d="M85.378,57.216c-0.512,2.657-1.031,5.336-1.031,5.336l-0.042,0.221c-0.306,1.563-0.656,3.04-0.601,4.403
	c0.005,0.129-0.023,0.234-0.145,0.255c-0.016-0.074-0.026-0.15-0.04-0.224c0,0.005,0,0.011,0,0.013
	c-0.646-3.396-0.988-6.901-0.988-10.487c0-1.623,0.071-3.229,0.208-4.816h3.926L85.378,57.216 M133.002,64.205
	c-0.355,1.809,0.649,2.578,2.35,2.578c4.115,0,4.84-3.456,5.438-6.527l0.108-0.551C138.212,59.982,133.661,60.804,133.002,64.205z
	 M84.121,69.478c0.011,0.111,0.056,0.248,0.143,0.469c0.105,0.192,0.227,0.382,0.361,0.564c1.695,2.307,4.31,3.238,7.292,2.855
	l6.577-0.825l1.524-7.84c-1.094,0.271-2.18,0.493-3.222,0.493c-2.578,0-2.051-1.592-1.655-3.623l1.879-9.654h5.484l1.387-7.134
	h-5.597l1.824-9.601H90.88l-2.399,9.601h-4.667c5.473-25.092,27.818-43.889,54.552-43.889c26.742,0,49.093,18.802,54.558,43.904
	c-1.139-0.39-2.409-0.562-3.633-0.562c-3.4,0-6.894,1.316-8.831,4.498h-0.105l0.764-3.952h-10.258l-5.446,28.034h10.859
	l3.145-16.182c0.448-2.304,1.224-4.882,4.242-4.882c2.359,0,1.9,2.357,1.571,4.06l-3.307,17.004h9.926
	c-6.907,22.996-28.237,39.752-53.484,39.752c-26.041,0-47.922-17.83-54.096-41.951c-0.166-0.556-0.324-1.078-0.398-1.292
	C83.984,69.301,84.086,69.364,84.121,69.478z M157.707,42.1h10.861l1.452-7.461h-10.863L157.707,42.1z M120.944,54.111
	c0.714,0,1.373,0,2.235,0.016l1.911-9.778l-1.46-0.111c-4.271-0.33-6.831,2.413-8.523,6.309h-0.11l1.12-5.763h-9.27l-5.449,28.034
	h10.862l2.367-12.18c0.318-1.645,0.672-3.454,1.705-4.824C117.522,54.222,119.191,54.111,120.944,54.111z M150.075,66.672
	l1.908-9.817c0.778-4.004,1.919-7.626-1.252-10.205c-2.359-1.972-6.499-2.413-9.791-2.413c-6.686,0-13.492,2.607-15.017,9.896
	l8.331-0.008c0.788-2.356,2.939-3.306,5.08-3.306c2.631,0,3.098,0.986,2.607,3.511l-0.043,0.216
	c-3.717,0.223-7.59,0.661-11.367,1.758c-4.128,1.208-8.162,4.168-9.026,8.61c-1.086,5.594,2.91,8.449,8.125,8.449
	c3.838,0,7.199-1.208,10.022-4.445c-0.255,1.318-0.403,2.634-0.374,3.896h10.479C149.321,70.84,149.669,68.758,150.075,66.672z
	 M162.597,72.818l5.449-28.034h-10.861l-5.449,28.034H162.597z"/>
<path fill="#010202" d="M22.016,34.639c-11.847,0-18.81,8.995-20.921,19.856c-2.08,10.695,2.257,18.871,13.556,18.871
	c8.668,0,16.063-5.597,18.749-14.948H22.812c-1.163,3.578-3.108,6.282-6.422,6.282c-5.209,0-4.181-6.422-3.448-10.205
	c0.693-3.564,2.438-11.41,7.54-11.41c3.648,0,4.255,3.512,3.601,7.334h10.703l0.119-0.696h0.032
	C35.991,40.342,31.614,34.639,22.016,34.639"/>
<path fill="#E31837" d="M191.954,75.952c0-2.111,1.711-3.667,3.733-3.667c2.001,0,3.712,1.556,3.712,3.667
	c0,2.125-1.711,3.68-3.712,3.68C193.665,79.632,191.954,78.077,191.954,75.952 M195.688,79.021c1.661,0,2.971-1.302,2.971-3.069
	c0-1.743-1.31-3.055-2.971-3.055c-1.682,0-2.995,1.313-2.995,3.055C192.692,77.719,194.006,79.021,195.688,79.021z M194.91,78.077
	h-0.644v-4.236h1.616c1.002,0,1.494,0.369,1.494,1.205c0,0.759-0.475,1.089-1.099,1.168l1.207,1.864h-0.723l-1.114-1.835h-0.738
	V78.077z M195.677,75.696c0.546,0,1.031-0.037,1.031-0.69c0-0.525-0.478-0.62-0.923-0.62h-0.875v1.31H195.677z"/>
</svg>
