<?xml version="1.0" encoding="utf-8"?>
<!-- Generator: Adobe Illustrator 13.0.0, SVG Export Plug-In . SVG Version: 6.00 Build 14948)  -->
<!DOCTYPE svg PUBLIC "-//W3C//DTD SVG 1.1//EN" "http://www.w3.org/Graphics/SVG/1.1/DTD/svg11.dtd">
<svg version="1.1" id="Layer_1" xmlns="http://www.w3.org/2000/svg" xmlns:xlink="http://www.w3.org/1999/xlink" x="0px" y="0px"
	 width="398.025px" height="44.511px" viewBox="0 0 398.025 44.511" enable-background="new 0 0 398.025 44.511"
	 xml:space="preserve">
<g>
	<path fill="#0055A4" d="M63.986,16.151l0.032,6.664c-0.017,9.537,2.121,9.547,19.36,9.521c16.882-0.026,18.94,0.016,18.94-9.521
		c0-11.165-2.14-11.121-18.865-11.121L63.986,11.65l-11.702,0.032C55.904-0.394,68.771,0.046,82.97,0.046
		c17.128,0,31.095-0.997,31.095,20.604c0,24.547-13.558,23.632-30.686,23.632c-17.126,0-31.175,0.915-31.175-23.632
		c0-3.692,0-1.555,0-4.468L63.986,16.151z"/>
	<path fill="#0055A4" d="M50.205,44.298c-3.237,0-18.675-0.017-18.865-0.016C14.099,44.39,0,45.116,0,20.569
		c0-3.692,0-1.473,0-4.386l11.784-0.032l0.031,6.91c0,9.373,4.902,9.301,19.116,9.275c0,0,13.909,0.016,19.292,0.035L50.205,44.298z
		"/>
	<path fill="#0055A4" d="M0,11.682C3.62-0.394,16.486,0.046,30.685,0.046c7.728,0,18.752-0.015,19.479-0.046l0.034,11.687L0,11.682z
		"/>
	<path fill="#0055A4" d="M168.629,20.664C168.654,20.078,168.629,20.664,168.629,20.664c-0.025-4.537-0.209-9.003-6.788-8.97
		l-31.577-0.043l-11.783,0.032c3.619-12.076,16.485-11.636,30.685-11.636c17.127,0,31.176,0.148,31.176,20.604
		c0,11.279,0.018,18.82,0.018,23.75l-11.701,0.016c0,1.437,0.031-13.947,0.031-12.052l-38.414,0.005l0.051,11.992l-12.046,0.063
		l0.036-28.243l11.947-0.032l0.033,4.537L168.629,20.664z"/>
	<path fill="#0055A4" d="M219.714,32.383c-0.002-0.031,2.955,0.061,2.941-2.134c-0.012-2.062-2.943-2.07-2.941-2.035l-3.547,0.013
		c-14.118-0.038-28.519-0.038-31.305-12.046l34.836,0.014c9.27-0.034,16.037,3.883,15.836,13.87
		c-0.209,10.223-6.566,14.243-15.836,14.363l-34.801-0.047l-0.035-12.013l31.317-0.017L219.714,32.383z"/>
	<rect x="239.908" y="0.032" fill="#0055A4" width="50.322" height="11.619"/>
	<rect x="259.054" y="16.151" fill="#0055A4" width="11.783" height="28.147"/>
	<path fill="#0055A4" d="M342.462,44.428c-3.238,0-11.797-0.082-18.785-0.098c-16.904-0.032-31.338,0.835-31.338-23.713
		c0-3.691,0-1.555,0-4.468l11.865,0.049l-0.053,6.911c0,9.373,9.789,9.373,18.953,9.275c0,0,13.789-0.023,19.377-0.046
		L342.462,44.428z"/>
	<path fill="#0055A4" d="M292.339,11.649c3.619-12.076,16.566-11.636,30.766-11.636c8.219,0,12.52,0.035,19.398,0.035l0.033,11.605
		L292.339,11.649z"/>
	<rect x="308.478" y="16.151" fill="#0055A4" width="34.037" height="9.492"/>
	<path fill="#0055A4" d="M235.423,0.032l-19.18,0.005c-14.199,0.041-27.859,0.005-31.34,11.634l50.526,0.005L235.423,0.032z"/>
	<path fill="#0055A4" d="M391.433,25.688c4.703-2.572,6.592-7.264,6.592-11.975c0-7.541-6.277-13.542-13.814-13.651l-3.35,0.015
		c-4.854-0.035-8.209-0.035-7.121-0.028l-26.725-0.017V11.65l35.889,0.048c-0.033,0.033,2.951-0.057,2.951,2.028
		c0,2.171-2.984,2.505-2.951,2.468l-35.879-0.045l0.045,28.243l12.127,0.018l0.031-18.784l20.053-0.016
		c4.908,2.578,6.514,18.596,6.545,18.738l12.197,0.01c-0.031-0.143-1.887-16.17-6.584-18.698L391.433,25.688z"/>
</g>
</svg>
