<?xml version="1.0" encoding="UTF-8" standalone="no"?>
<!-- Created with Inkscape (http://www.inkscape.org/) -->

<svg
   xmlns:dc="http://purl.org/dc/elements/1.1/"
   xmlns:cc="http://creativecommons.org/ns#"
   xmlns:rdf="http://www.w3.org/1999/02/22-rdf-syntax-ns#"
   xmlns:svg="http://www.w3.org/2000/svg"
   xmlns="http://www.w3.org/2000/svg"
   xmlns:sodipodi="http://sodipodi.sourceforge.net/DTD/sodipodi-0.dtd"
   xmlns:inkscape="http://www.inkscape.org/namespaces/inkscape"
   width="103.52106"
   height="98.57299"
   id="svg9922"
   version="1.1"
   inkscape:version="0.48.5 r10040"
   sodipodi:docname="New document 3">
  <defs
     id="defs3" />
  <sodipodi:namedview
     inkscape:document-units="mm"
     id="base"
     pagecolor="#ffffff"
     bordercolor="#666666"
     borderopacity="1.0"
     inkscape:pageopacity="0.0"
     inkscape:pageshadow="2"
     inkscape:zoom="7.9195959"
     inkscape:cx="47.018255"
     inkscape:cy="50.034785"
     inkscape:current-layer="layer1"
     showgrid="false"
     units="mm"
     fit-margin-top="0.2"
     fit-margin-left="0.1"
     fit-margin-right="0.1"
     fit-margin-bottom="0.1"
     inkscape:window-width="1920"
     inkscape:window-height="1017"
     inkscape:window-x="-8"
     inkscape:window-y="-8"
     inkscape:window-maximized="1" />
  <metadata
     id="metadata4">
    <rdf:RDF>
      <cc:Work
         rdf:about="">
        <dc:format>image/svg+xml</dc:format>
        <dc:type
           rdf:resource="http://purl.org/dc/dcmitype/StillImage" />
        <dc:title></dc:title>
      </cc:Work>
    </rdf:RDF>
  </metadata>
  <g
     inkscape:label="Layer 1"
     inkscape:groupmode="layer"
     id="layer1"
     transform="translate(-208.23947,-317.18424)">
    <g
       id="g4870"
       transform="matrix(1.25,0,0,-1.25,230.03245,415.0554)">
      <path
         d="M 0,0 24.522,38.562 0,77.73 40.719,77.73 65.099,38.562 40.719,0 0,0 z"
         style="fill:#fcd006;fill-opacity:1;fill-rule:nonzero;stroke:none"
         id="path4872"
         inkscape:connector-curvature="0" />
    </g>
    <g
       id="g4874"
       transform="matrix(1.25,0,0,-1.25,272.71735,372.60915)">
      <path
         d="m 0,0 16.323,0 0,-4.856 -5.702,0 0,-10.934 -4.905,0 0,10.934 L 0,-4.856 0,0 z"
         style="fill:#173a79;fill-opacity:1;fill-rule:nonzero;stroke:none"
         id="path4876"
         inkscape:connector-curvature="0" />
    </g>
    <g
       id="g4878"
       transform="matrix(1.25,0,0,-1.25,208.5938,392.36253)">
      <path
         d="m 0,0 0,15.836 9.795,0 c 4.518,0 8.15,-3.548 8.15,-7.927 0,-4.377 -3.632,-7.896 -8.111,-7.896 L 0,0 z m 4.903,4.712 0,6.198 4.886,0 c 1.801,0 3.229,-1.394 3.229,-3.115 0,-1.722 -1.428,-3.086 -3.19,-3.086 L 4.903,4.712 z"
         style="fill:#173a79;fill-opacity:1;fill-rule:evenodd;stroke:none"
         id="path4880"
         inkscape:connector-curvature="0" />
    </g>
    <path
       d="m 264.00815,381.79003 -6.52,0 0,-3.1125 6.51,0 c 0.89125,0 1.605,0.69625 1.605,1.55625 0,0.865 -0.71375,1.55625 -1.595,1.55625 m 9.46,10.61875 -4.4575,-5.85625 c 2.01125,-1.66 2.8675,-3.60875 2.8675,-6.03375 0,-4.38875 -3.64125,-7.94625 -8.1675,-7.94625 l -12.36875,0 0,17.4775 -11.12875,-17.45375 -12.5425,19.75 6.805,0 5.7375,-9.045 2.1075,3.315 -2.34625,0 -3.64625,5.73 21.16,-10e-4 0,-10.35875 7.82,10.4225 8.16,0 z"
       style="fill:#173a79;fill-opacity:1;fill-rule:evenodd;stroke:none"
       id="path4884"
       inkscape:connector-curvature="0" />
    <g
       id="g4886"
       transform="matrix(1.25,0,0,-1.25,293.33315,410.2154)">
      <path
         d="m 0,0 c -0.125,0.051 -0.301,0.073 -0.524,0.073 l -0.222,0 0,-1.002 0.352,0 c 0.212,0 0.375,0.043 0.493,0.129 0.121,0.084 0.18,0.22 0.18,0.409 C 0.279,-0.2 0.184,-0.072 0,0 m -1.646,-2.769 0,3.447 c 0.216,0 0.534,0 0.961,-0.004 0.425,0 0.664,-0.002 0.711,-0.005 C 0.299,0.649 0.528,0.59 0.707,0.492 1.014,0.324 1.167,0.048 1.167,-0.329 1.167,-0.62 1.084,-0.827 0.922,-0.959 0.761,-1.086 0.563,-1.165 0.324,-1.19 0.542,-1.235 0.703,-1.303 0.813,-1.389 1.014,-1.554 1.116,-1.812 1.116,-2.16 l 0,-0.311 c 0,-0.034 0.002,-0.067 0.008,-0.101 0.003,-0.032 0.013,-0.069 0.027,-0.103 l 0.036,-0.094 -0.867,0 c -0.028,0.109 -0.047,0.266 -0.058,0.475 -0.011,0.208 -0.03,0.349 -0.057,0.421 -0.045,0.121 -0.129,0.205 -0.255,0.253 -0.067,0.029 -0.169,0.046 -0.305,0.055 l -0.199,0.012 -0.192,0 0,-1.216 -0.9,0 z m -0.456,3.528 c -0.493,-0.505 -0.74,-1.104 -0.74,-1.796 0,-0.722 0.251,-1.333 0.753,-1.835 0.499,-0.505 1.101,-0.758 1.808,-0.758 0.703,0 1.304,0.255 1.804,0.76 0.499,0.509 0.748,1.118 0.748,1.833 0,0.687 -0.247,1.288 -0.744,1.796 C 1.025,1.278 0.422,1.535 -0.281,1.535 -0.993,1.535 -1.6,1.278 -2.102,0.759 M 1.89,-3.272 C 1.285,-3.859 0.563,-4.15 -0.285,-4.15 c -0.874,0 -1.612,0.3 -2.211,0.898 -0.599,0.599 -0.9,1.337 -0.9,2.211 0,0.907 0.323,1.665 0.973,2.266 0.608,0.561 1.32,0.842 2.138,0.842 0.856,0 1.589,-0.301 2.195,-0.908 0.609,-0.61 0.912,-1.34 0.912,-2.2 0,-0.882 -0.311,-1.628 -0.932,-2.231"
         style="fill:#173a79;fill-opacity:1;fill-rule:nonzero;stroke:none"
         id="path4888"
         inkscape:connector-curvature="0" />
    </g>
  </g>
</svg>
