<?xml version="1.0" encoding="UTF-8" standalone="no"?>
<!-- Generator: Adobe Illustrator 13.0.0, SVG Export Plug-In . SVG Version: 6.00 Build 14948)  -->

<svg
   xmlns:dc="http://purl.org/dc/elements/1.1/"
   xmlns:cc="http://creativecommons.org/ns#"
   xmlns:rdf="http://www.w3.org/1999/02/22-rdf-syntax-ns#"
   xmlns:svg="http://www.w3.org/2000/svg"
   xmlns="http://www.w3.org/2000/svg"
   xmlns:xlink="http://www.w3.org/1999/xlink"
   xmlns:sodipodi="http://sodipodi.sourceforge.net/DTD/sodipodi-0.dtd"
   xmlns:inkscape="http://www.inkscape.org/namespaces/inkscape"
   version="1.1"
   id="Layer_1"
   x="0px"
   y="0px"
   width="112.517"
   height="10.035001"
   viewBox="0 0 112.517 10.035001"
   enable-background="new 0 0 115.333 16.833"
   xml:space="preserve"
   inkscape:version="0.47 r22583"
   sodipodi:docname="Ride_Guide_090801.svg"><metadata
   id="metadata35"><rdf:RDF><cc:Work
       rdf:about=""><dc:format>image/svg+xml</dc:format><dc:type
         rdf:resource="http://purl.org/dc/dcmitype/StillImage" /></cc:Work></rdf:RDF></metadata><defs
   id="defs33"><inkscape:perspective
     sodipodi:type="inkscape:persp3d"
     inkscape:vp_x="0 : 8.4165001 : 1"
     inkscape:vp_y="0 : 1000 : 0"
     inkscape:vp_z="115.333 : 8.4165001 : 1"
     inkscape:persp3d-origin="57.6665 : 5.6110001 : 1"
     id="perspective37" /></defs><sodipodi:namedview
   pagecolor="#ffffff"
   bordercolor="#666666"
   borderopacity="1"
   objecttolerance="10"
   gridtolerance="10"
   guidetolerance="10"
   inkscape:pageopacity="0"
   inkscape:pageshadow="2"
   inkscape:window-width="640"
   inkscape:window-height="483"
   id="namedview31"
   showgrid="false"
   inkscape:zoom="4.6820944"
   inkscape:cx="56.2725"
   inkscape:cy="2.6535004"
   inkscape:window-x="0"
   inkscape:window-y="0"
   inkscape:window-maximized="0"
   inkscape:current-layer="Layer_1" />
<g
   id="g3"
   transform="translate(-1.3940001,-1.0350001)">
	<defs
   id="defs5">
		<rect
   id="SVGID_1_"
   x="1.3940001"
   y="1.035"
   width="112.518"
   height="15.078" />
	</defs>
	<clipPath
   id="SVGID_2_">
		<use
   xlink:href="#SVGID_1_"
   overflow="visible"
   id="use9"
   style="overflow:visible"
   x="0"
   y="0"
   width="115.333"
   height="16.833" />
	</clipPath>
	<path
   clip-path="url(#SVGID_2_)"
   d="M 7.993,10.076 3.824,4.828 C 3.592,4.516 3.378,4.185 3.223,3.796 3.26,4.205 3.282,4.536 3.282,4.866 V 11.07 H 1.394 V 1.036 h 1.888 l 4.725,6.067 4.628,-6.067 h 1.867 V 11.07 H 12.344 V 4.866 c 0,-0.194 0.02,-0.545 0.078,-1.07 -0.215,0.448 -0.409,0.818 -0.583,1.051"
   id="path11" />
	<polyline
   clip-path="url(#SVGID_2_)"
   points="16.894,1.036 27.161,1.036 27.161,2.747 19.227,2.747 19.227,4.982 23.855,4.982    23.855,6.694 19.227,6.694 19.227,9.184 27.259,9.184 27.259,11.069 16.894,11.069  "
   id="polyline13" />
	<polyline
   clip-path="url(#SVGID_2_)"
   points="35.659,11.07 33.326,11.07 33.326,2.825 28.716,2.825 28.716,1.036 40.287,1.036    40.287,2.825 35.659,2.825  "
   id="polyline15" />
	<path
   clip-path="url(#SVGID_2_)"
   d="m 48.668,7.278 h 1.323 c 1.537,0 2.254,-0.546 2.254,-1.945 V 2.98 c 0,-1.402 -0.717,-1.945 -2.254,-1.945 H 41.396 V 11.07 H 43.69 V 2.766 h 5.25 c 0.721,0 1.051,0.136 1.051,0.797 v 1.206 c 0,0.661 -0.33,0.796 -1.051,0.796 h -4.858 l 5.871,5.505 h 3.344"
   id="path17" />
	<path
   clip-path="url(#SVGID_2_)"
   d="m 57.906,1.036 h 7.389 c 1.887,0 2.49,0.485 2.49,2.371 v 5.29 c 0,1.886 -0.604,2.373 -2.49,2.373 h -7.389 c -1.888,0 -2.489,-0.487 -2.489,-2.373 v -5.29 c 0,-1.886 0.602,-2.371 2.489,-2.371 m 7.545,1.788 H 57.75 v 6.359 h 7.701 V 2.824 z"
   id="path19" />
	<polyline
   clip-path="url(#SVGID_2_)"
   points="70.564,1.036 72.897,1.036 72.897,9.184 80.424,9.184 80.424,11.069 70.564,11.069     "
   id="polyline21" />
	<rect
   x="82.486"
   y="1.036"
   clip-path="url(#SVGID_2_)"
   width="2.3340001"
   height="10.034"
   id="rect23" />
	<path
   clip-path="url(#SVGID_2_)"
   d="m 87.407,1.036 h 1.594 l 7.058,5.912 c 0.409,0.331 0.798,0.68 1.148,1.088 C 97.148,7.2 97.109,6.617 97.109,6.306 v -5.27 h 2.1 V 11.07 H 97.616 L 90.247,4.867 C 89.953,4.614 89.682,4.361 89.409,4.05 c 0.078,0.778 0.097,1.303 0.097,1.594 v 5.426 h -2.099"
   id="path25" />
	<rect
   x="101.796"
   y="1.036"
   clip-path="url(#SVGID_2_)"
   width="2.3540001"
   height="10.034"
   id="rect27" />
	<polyline
   clip-path="url(#SVGID_2_)"
   points="107.494,5.761 113.095,1.036 109.712,1.036 104.698,5.773 110.159,11.07    113.911,11.07  "
   id="polyline29" />
</g>
</svg>