<?xml version="1.0" encoding="utf-8"?>
<!-- Generator: Adobe Illustrator 13.0.0, SVG Export Plug-In . SVG Version: 6.00 Build 14948)  -->
<!DOCTYPE svg PUBLIC "-//W3C//DTD SVG 1.1//EN" "http://www.w3.org/Graphics/SVG/1.1/DTD/svg11.dtd">
<svg version="1.1" id="Layer_1" xmlns="http://www.w3.org/2000/svg" xmlns:xlink="http://www.w3.org/1999/xlink" x="0px" y="0px"
	 width="406.226px" height="44.363px" viewBox="0 0 406.226 44.363" enable-background="new 0 0 406.226 44.363"
	 xml:space="preserve">
<g>
	<path fill="#0055A4" d="M399.672,25.65c4.675-2.566,6.554-7.244,6.554-11.939c0-7-5.42-12.668-12.233-13.521l0,0
		c0,0-0.806-0.121-1.465-0.177c-0.008,0-0.022,0.004-0.031,0.004V0.014h-37.211l0.009,11.596h35.843
		c-0.036,0.034,2.939,0.034,2.939,2.114c0,1.701-1.83,2.271-2.604,2.419h-36.168v28.219h12.33V25.609l19.875-0.02
		c4.903,2.576,6.504,18.568,6.539,18.713l12.178,0.01C406.194,44.167,404.344,28.209,399.672,25.65z"/>
	<path fill="#0055A4" d="M156.641,25.65c4.676-2.566,6.558-7.244,6.558-11.939c0-7-5.424-12.668-12.237-13.521l0,0
		c0,0-0.804-0.121-1.464-0.177c-0.008,0-0.021,0.004-0.028,0.004V0.014h-37.211l0.011,11.596h35.839
		c-0.033,0.034,2.938,0.034,2.938,2.114c0,1.701-1.826,2.271-2.601,2.419h-36.167v28.219h12.326V25.607l19.878-0.018
		c4.9,2.576,6.505,18.568,6.536,18.713l12.179,0.01C163.164,44.167,161.316,28.209,156.641,25.65z"/>
	<g>
		<rect x="246.458" fill="#0055A4" width="50.246" height="11.602"/>
		<rect x="265.573" y="16.144" fill="#0055A4" width="11.77" height="28.219"/>
	</g>
	<g>
		<path fill="#0055A4" d="M34.802,32.332c-0.001-0.029,2.95,0.063,2.938-2.127c-0.013-2.061-2.939-2.069-2.938-2.032l-3.542,0.014
			C17.161,28.144,2.782,28.144,0,16.154l34.785,0.013c9.258-0.033,16.017,3.879,15.814,13.856
			c-0.208,10.205-6.556,14.219-15.814,14.34l-34.75-0.047L0,32.321l31.272-0.019L34.802,32.332z"/>
		<path fill="#0055A4" d="M50.486,0.027L31.335,0.032C17.156,0.074,3.518,0.037,0.042,11.652l50.45,0.005L50.486,0.027z"/>
	</g>
	<g>
		<rect x="168.373" y="0.06" fill="#0055A4" width="11.767" height="44.303"/>
	</g>
	<g>
		<path fill="#0055A4" d="M100.458,1.832c-1.199-0.667-2.489-1.244-3.878-1.683c-0.89-0.032-1.905-0.057-3.092-0.074L56.349,0.046
			v11.601l35.841,0.002c-0.034,0.035,2.942-0.011,2.942,2.07c0,2.17-2.982,2.503-2.948,2.463l-35.827-0.043L56.4,44.344
			l12.111,0.019l0.028-16.765h22.825c6.21-0.528,11.506-3.319,14.416-7.264c1.524-2.067,2.401-4.441,2.401-6.972
			C108.181,8.63,105.135,4.445,100.458,1.832z"/>
	</g>
	<g>
		<path fill="#0055A4" d="M350.217,44.363c-3.232,0-11.779-0.084-18.753-0.1c-16.879-0.03-31.29,0.832-31.29-23.677
			c0-3.687-0.005-1.55-0.005-4.461l11.85,0.051l-0.05,6.898c0,9.357,9.772,9.357,18.922,9.264c0,0,13.768-0.024,19.345-0.049
			L350.217,44.363z"/>
		<path fill="#0055A4" d="M300.169,11.633c3.617-12.061,16.543-11.62,30.722-11.62c8.204,0,12.498,0.037,19.367,0.037l0.036,11.588
			L300.169,11.633z"/>
		<rect x="316.286" y="16.126" fill="#0055A4" width="33.985" height="9.479"/>
	</g>
	<g>
		<polygon fill="#0055A4" points="198.197,0.625 198.074,0.504 198.074,0.514 		"/>
		<polygon fill="#0055A4" points="229.252,0.009 229.252,28.77 198.197,0.625 198.074,0.514 198.074,0.504 197.968,0.393 
			197.592,0.014 186.309,0.014 186.307,1.08 186.311,1.08 186.326,44.363 198.091,44.363 198.083,16.398 229.252,44.351 
			241.016,44.351 241.016,0.009 		"/>
	</g>
</g>
</svg>
