<?xml version="1.0" encoding="utf-8"?>
<!-- Generator: Adobe Illustrator 21.0.0, SVG Export Plug-In . SVG Version: 6.00 Build 0)  -->
<svg version="1.1" id="_x35_0-Top" xmlns="http://www.w3.org/2000/svg" xmlns:xlink="http://www.w3.org/1999/xlink" x="0px" y="0px"
	 viewBox="0 0 390 498.7" style="enable-background:new 0 0 390 498.7;" xml:space="preserve">
<style type="text/css">
	.st0{fill-rule:evenodd;clip-rule:evenodd;fill:#231F20;stroke:#231F20;stroke-width:0.2868;stroke-miterlimit:3.8637;}
	.st1{fill-rule:evenodd;clip-rule:evenodd;fill:#FFFFFF;}
</style>
<path class="st0" d="M0,15C0,6.7,6.7,0,15,0H375c8.3,0,15,6.7,15,15v468.8c0,8.3-6.7,15-15,15H15c-8.3,0-15-6.7-15-15V15z"/>
<path class="st1" d="M32.4,453h17v-36c0-12.1,8.2-14.3,11.5-14.3c10.8,0,10.3,8.3,10.3,15.5V453h17v-34.6c0-7.8,1.8-15.7,11.4-15.7
	c9.7,0,10.4,6.8,10.4,15.1V453h17v-41.5c0-16.1-9.5-22.2-22.7-22.2c-8.6,0-15.1,4.9-18.7,10.3c-3.4-7.4-10.3-10.3-18.1-10.3
	c-8,0-14.5,3.7-19,10.1h-0.2V391H32.4V453z"/>
<path class="st1" d="M199.3,426.1c1.2-19.1-9-36.8-30.1-36.8c-18.8,0-31.7,14.2-31.7,32.8c0,19.2,12.1,32.6,31.7,32.6
	c14,0,24.2-6.2,29-20.9h-15c-1.1,3.8-6.6,8-13.4,8c-9.5,0-14.8-4.9-15.2-15.7H199.3z M154.6,415.3c0.2-4.8,3.4-13.2,14.2-13.2
	c8.3,0,12,4.6,13.6,13.2H154.6z"/>
<path class="st1" d="M231,372.4h-17V391h-10.3v11.4h10.3V439c0,12.4,9.1,14.8,19.6,14.8c3.4,0,7.1-0.1,10-0.6v-13.3
	c-1.8,0.4-3.5,0.5-5.3,0.5c-5.8,0-7.2-1.4-7.2-7.2v-30.7h12.5V391H231V372.4z"/>
<path class="st1" d="M251.5,453h17v-28c0-10.9,4.3-19.9,16.8-19.9c2,0,4.6,0.2,6.1,0.6v-15.8c-1.1-0.4-2.5-0.6-3.7-0.6
	c-8.3,0-16.7,5.4-19.8,13.2h-0.2V391h-16.2V453z"/>
<path class="st1" d="M294.1,422c0,19.7,12.6,32.6,32,32.6c19.6,0,32.2-13,32.2-32.6c0-19.8-12.6-32.8-32.2-32.8
	C306.7,389.3,294.1,402.2,294.1,422z M311.1,422c0-10,3.5-19.9,15-19.9c11.6,0,15.1,10,15.1,19.9c0,9.8-3.5,19.8-15.1,19.8
	C314.6,441.8,311.1,431.9,311.1,422z"/>
<polygon class="st1" points="32.4,356.5 96.5,356.5 96.5,144.5 97.4,144.5 164.4,356.5 225.6,356.5 292.6,142.4 293.5,142.4 
	293.5,356.5 357.6,356.5 357.6,30.2 261.2,30.2 197.3,249.1 196.5,249.1 128.8,30.2 32.4,30.2 "/>
</svg>
