<?xml version="1.0" encoding="UTF-8"?>
<svg width="1528pt" height="204pt" version="1.1" viewBox="0 0 1528 204" xmlns="http://www.w3.org/2000/svg"><g fill="#0075de"><path d="m736 32.9c14.32-12.8 32.93-20.72 52.09-22.07 11.36-0.64 22.93-0.34 33.95 2.76 19.95 5.28 37.79 17.96 49.44 34.98 7.81 11.28 12.82 24.45 14.68 38.03-10.54 1.61-21.05 3.36-31.6 4.88-1.39-13.72-7.64-26.91-17.63-36.44-11.29-11.02-27.18-17.07-42.94-16.35-14.37 0.41-28.57 6.41-38.59 16.77-9.55 9.66-15.23 22.73-16.87 36.14-10.45-1.68-20.9-3.32-31.37-4.88 2.79-20.61 13.21-40.08 28.84-53.82z"/><path d="m916.96 13.54c15.97-0.01 31.93-0.02 47.9 0-0.01 43.62-0.01 87.24 0 130.86 27.93 0.01 55.87 0 83.8 0-0.01 14 0.02 28-0.01 42.01-43.9-0.02-87.79 0-131.69-0.01-0.01-57.62-0.01-115.24 0-172.86z"/><path d="m1076.2 13.54c16.06-0.01 32.13-0.01 48.19 0 0.01 57.62 0.01 115.24 0 172.86h-48.19v-172.86z"/><path d="m1153.9 13.54c14.93 0.01 29.86-0.06 44.79 0.03 23.65 30.52 47.5 60.88 71.12 91.41-0.02-30.48-0.01-60.96-0.01-91.44 15.8-0.01 31.6-0.01 47.4 0 0 57.62 0 115.24-0.01 172.86-14.01-0.01-28.02 0.03-42.03-0.02-24.55-31.61-49.15-63.19-73.76-94.75-0.02 31.59 0 63.18-0.01 94.77h-47.49c-0.01-57.62-0.01-115.24 0-172.86z"/><path d="m1346.2 13.54c16-0.02 32-0.01 48 0 0.01 23.38-0.01 46.77 0.01 70.16 19.84-23.39 39.65-46.81 59.52-70.18 18.91 0.04 37.82 0 56.73 0.02-21.8 24.8-43.63 49.57-65.45 74.35 22.56 32.84 45.13 65.67 67.71 98.5-19.18 0.01-38.36 0.02-57.53 0-14.47-21.41-28.98-42.8-43.49-64.19-5.72 6.66-12.03 12.9-17.42 19.78-0.2 14.8-0.01 29.61-0.08 44.42h-48c0-57.62 0.01-115.24 0-172.86z"/></g><g fill="#003d73"><path d="m15.44 186.5c-0.28-57.66-0.07-115.32-0.11-172.98 10.81 0.07 21.61-0.08 32.41 0.08 15.42 24.15 31.02 48.18 46.51 72.29 2.06 3.11 3.91 6.37 6.22 9.31 17.36-27.29 34.97-54.43 52.43-81.67 10.77 0.01 21.54-0.01 32.31 0.01 0.01 57.62 0.01 115.24 0 172.85-10.09 0.01-20.19 0.01-30.28 0-0.02-42.05 0-84.11-0.02-126.16-18.31 28.03-36.55 56.12-54.86 84.16-0.74-0.75-1.42-1.54-2.06-2.36-17.57-26.38-35.16-52.75-52.77-79.09-0.03 41.15 0 82.3-0.02 123.45-9.92 0.07-19.84-0.12-29.76 0.11z"/><path d="m213.53 13.54c42.7-0.05 85.4 0.07 128.11-0.06 0.19 9.06 0.03 18.12 0.08 27.19-32.6 0-65.2-0.01-97.79 0 0 15-0.04 30 0.01 45 28.89-0.01 57.77 0.01 86.65-0.01 0.08 9.04 0.01 18.09 0.04 27.13-28.9 0.02-57.8 0-86.7 0.01-0.02 15.51-0.01 31.02-0.01 46.53 33.03 0.01 66.05 0.01 99.08 0 0.06 9.02 0.01 18.04 0.02 27.06-43.16 0.01-86.33 0.01-129.49 0-0.01-57.61-0.01-115.23 0-172.85z"/><path d="m366.73 13.54c46.77-0.01 93.53-0.01 140.3 0-0.02 9.38 0.06 18.76-0.04 28.14-18.29-0.03-36.57-0.01-54.86-0.01 0 48.24 0.01 96.48 0 144.72-10.2 0.01-20.4 0.01-30.6 0-0.02-48.24 0.02-96.48-0.01-144.73-18.28-0.05-36.57 0.13-54.84-0.09 0.11-9.34 0.01-18.69 0.05-28.03z"/><path d="m535.39 186.43c-0.11-57.64-0.04-115.27-0.03-172.9 25.21 0.01 50.42 0.01 75.64 0 10.18-0.14 20.46 1.09 30.11 4.44 10.48 3.63 20.36 10.01 26.54 19.4 9.26 13.6 10.96 31.35 6.95 47.05-3.33 12.87-12.38 23.88-23.97 30.25-4.78 2.77-9.99 4.69-15.24 6.37 15.52 21.8 31.12 43.55 46.64 65.36-11.97 0-23.94 0.02-35.9-0.01-12.46-17.71-24.94-35.4-37.42-53.1-7.9-11.4-16.5-22.35-23.98-34.03 9.41-0.2 18.82 0.11 28.23-0.16 9.6-0.4 19.74-3.42 26.28-10.83 10.44-11.91 8.42-33.65-5.83-41.75-7.29-4.35-15.99-5.45-24.34-5.39-14.47 0.01-28.95 0-43.42 0 0.06 48.4 0.06 96.81 0.12 145.21-10.12 0.16-20.25-0.02-30.38 0.09z"/><path d="m708.04 118.2c10.49-1.62 20.99-3.17 31.47-4.91 2.92 17.42 14.1 33.28 29.77 41.51 13.23 7.27 29.36 8.91 43.82 4.62 20.92-5.86 37.35-24.49 40.86-45.9 10.47 1.46 20.9 3.22 31.36 4.75-3.35 17.18-12.02 33.27-24.48 45.56-13.74 13.69-32.14 22.6-51.39 24.92-16.77 1.77-34.23 0.53-49.78-6.38-26.47-11.05-46.5-35.95-51.63-64.17z"/></g></svg>
