<?xml version="1.0" encoding="utf-8"?>
<!-- Generator: Adobe Illustrator 15.0.0, SVG Export Plug-In . SVG Version: 6.00 Build 0)  -->
<!DOCTYPE svg PUBLIC "-//W3C//DTD SVG 1.1//EN" "http://www.w3.org/Graphics/SVG/1.1/DTD/svg11.dtd">
<svg version="1.1" id="Layer_1" xmlns="http://www.w3.org/2000/svg" xmlns:xlink="http://www.w3.org/1999/xlink" x="0px" y="0px"
	 width="9.504px" height="9.378px" viewBox="0 0 9.504 9.378" enable-background="new 0 0 9.504 9.378" xml:space="preserve">
<g>
	<path fill="#05A1B0" d="M0.127,4.687c0-2.519,2.07-4.559,4.625-4.559s4.624,2.04,4.624,4.559c0,2.521-2.068,4.563-4.624,4.563
		S0.127,7.207,0.127,4.687"/>
	<ellipse fill="none" stroke="#FFFFFF" stroke-width="0.255" cx="4.752" cy="4.687" rx="4.624" ry="4.559"/>
	<path fill="#FFFFFF" d="M5.016,1.366c0,0,0.627,0,1.104,0.217c0,0,0.36,0.137,0.36,0.576v0.782c0,0,0.582,0.011,0.591,0.589v2.685
		c0,0,0.022,0.607-0.508,0.607H6.241H6.216v0.271h0.307l0.116,0.283H6.35l0.163,0.346h0.285l0.136,0.281H6.628l0.17,0.336h-0.35
		l-0.16-0.336H5.176H4.498H3.383L3.224,8.34H2.875l0.169-0.336H2.736l0.14-0.281h0.285l0.16-0.346H3.034l0.115-0.283h0.309V6.822
		H3.421H3.106c-0.529,0-0.508-0.607-0.508-0.607V3.53c0.011-0.578,0.595-0.589,0.595-0.589V2.159c0-0.439,0.359-0.576,0.359-0.576
		C4.03,1.366,4.656,1.366,4.656,1.366H5.016z"/>
	<polygon fill="#00A0AF" points="4.46,7.707 3.504,7.707 3.664,7.361 4.502,7.361 5.159,7.361 5.996,7.361 6.155,7.707 5.202,7.707 
			"/>
	<polygon fill="#00A0AF" points="5,7.078 5.882,7.078 5.882,6.817 4.969,6.817 4.693,6.817 3.778,6.817 3.778,7.078 4.663,7.078 	
		"/>
	<path fill="#00A0AF" d="M4.833,3.414c0.201,0,0.363-0.163,0.363-0.357c0-0.201-0.162-0.36-0.363-0.36
		c-0.2,0-0.365,0.159-0.365,0.36C4.469,3.251,4.633,3.414,4.833,3.414"/>
	<path fill="#FFFFFF" d="M4.529,1.231c0.1,0,0.183-0.082,0.183-0.183c0-0.1-0.083-0.18-0.183-0.18c-0.103,0-0.185,0.08-0.185,0.18
		C4.344,1.149,4.426,1.231,4.529,1.231"/>
	<path fill="#FFFFFF" d="M5.164,1.231c0.102,0,0.186-0.082,0.186-0.183c0-0.1-0.084-0.18-0.186-0.18c-0.099,0-0.182,0.08-0.182,0.18
		C4.982,1.149,5.065,1.231,5.164,1.231"/>
	<path fill="#00A0AF" d="M4.667,1.687c0,0-0.775,0-1.179,0.243v0.543c0,0,0.798-0.231,1.179-0.219V1.687z"/>
	<path fill="#00A0AF" d="M5.007,1.687c0,0,0.771,0,1.176,0.243v0.543c0,0-0.796-0.231-1.176-0.219V1.687z"/>
</g>
</svg>
