<?xml version="1.0" encoding="UTF-8" standalone="no"?>
<!-- Generator: Adobe Illustrator 22.0.1, SVG Export Plug-In . SVG Version: 6.00 Build 0)  -->

<svg
   xmlns:dc="http://purl.org/dc/elements/1.1/"
   xmlns:cc="http://creativecommons.org/ns#"
   xmlns:rdf="http://www.w3.org/1999/02/22-rdf-syntax-ns#"
   xmlns:svg="http://www.w3.org/2000/svg"
   xmlns="http://www.w3.org/2000/svg"
   xmlns:sodipodi="http://sodipodi.sourceforge.net/DTD/sodipodi-0.dtd"
   xmlns:inkscape="http://www.inkscape.org/namespaces/inkscape"
   version="1.1"
   id="Layer_1"
   x="0px"
   y="0px"
   width="276px"
   height="72px"
   viewBox="0 0 276 72"
   style="enable-background:new 0 0 276 72;"
   xml:space="preserve"
   inkscape:version="0.91+devel r14842"
   sodipodi:docname="logo_ct_rail_blksvg.svg"><metadata
     id="metadata40"><rdf:RDF><cc:Work
         rdf:about=""><dc:format>image/svg+xml</dc:format><dc:type
           rdf:resource="http://purl.org/dc/dcmitype/StillImage" /><dc:title></dc:title></cc:Work></rdf:RDF></metadata><defs
     id="defs38" /><sodipodi:namedview
     pagecolor="#ffffff"
     bordercolor="#666666"
     borderopacity="1"
     objecttolerance="10"
     gridtolerance="10"
     guidetolerance="10"
     inkscape:pageopacity="0"
     inkscape:pageshadow="2"
     inkscape:window-width="1303"
     inkscape:window-height="863"
     id="namedview36"
     showgrid="false"
     inkscape:zoom="1.115942"
     inkscape:cx="138"
     inkscape:cy="36"
     inkscape:window-x="0"
     inkscape:window-y="0"
     inkscape:window-maximized="0"
     inkscape:current-layer="Layer_1" /><style
     type="text/css"
     id="style2">
	.st0{fill:#FFFFFF;}
	.st1{fill:#EF3E42;}
</style><g
     id="mark"><path
       class="st0"
       d="M30,62.5c-3.9-4-7.1-10.8-9-19.7c-2.2,2.6-4.4,5.4-6.6,8.4c-1.5,2-3,4.1-4.4,6.2c3.1,3.6,7.9,5.8,14,5.8   C25.9,63.1,27.9,62.9,30,62.5"
       id="path4"
       style="fill:#000000" /><path
       class="st0"
       d="M21.2,20.2c0,1.9,0.1,3.8,0.2,5.7c0.3,4,0.8,7.7,1.5,11c8.9-10.4,17.6-18.1,24.9-22.5   c-2.1-0.7-4.5-1.1-7.1-1.1C34,13.4,27.1,16,21.2,20.2"
       id="path6"
       style="fill:#000000" /><path
       class="st1"
       d="m 47.5,50.9 c 4.4,-4.1 7.9,-9.2 9.7,-14.7 2,-6 1.7,-11.6 -0.4,-15.9 -6.4,-4.8 -19.4,2.1 -33.2,17.4 4.2,15.2 13.6,20.8 23.9,13.2"
       id="path8"
       inkscape:connector-curvature="0"
       style="fill:#ef3e42" /><path
       class="st0"
       d="M18.9,28.1c-0.1-2-0.2-3.9-0.2-5.9c-5.1,4.3-9.2,9.9-11.3,16.1C5.1,45,5.8,51.1,8.6,55.6   c1.5-2.2,3.1-4.4,4.7-6.6c2.4-3.2,4.7-6.2,7.1-9.1C19.7,36.3,19.2,32.4,18.9,28.1"
       id="path10"
       style="fill:#000000" /></g><g
     id="text"
     style="fill:#000000"><path
       class="st0"
       d="M111.9,24.8c-3.8-3.9-9-6.3-14.6-6.3c-10.6,0-19.2,9.2-19.2,19.7S86.8,58,97.5,58c5.4,0,10.6-2.5,14.4-6.3v6.6   c-4.1,3-9.2,4.7-14.2,4.7c-13.5,0-24.9-10.9-24.9-24.5c0-13.7,11.2-24.9,24.9-24.9c5.3,0,10,1.5,14.2,4.7V24.8z"
       id="path22"
       style="fill:#000000" /><polygon
       class="st0"
       points="133.6,62.1 128.2,62.1 128.2,19.3 116.7,19.3 116.7,14.4 145.2,14.4 145.2,19.3 133.6,19.3  "
       id="polygon24"
       style="fill:#000000" /><path
       class="st0"
       d="M174.9,34.9h0.1c2.8-4,6.9-5.8,11.4-5.8h2.2l-1.8,11.1c-1.4-0.9-2.9-1.1-4.7-1.1c-6.4,0-8.6,4.2-9.5,9.8   l-2.1,13.1h-11.5l5.1-32.5h11.5L174.9,34.9z"
       id="path26"
       style="fill:#000000" /><path
       class="st0"
       d="M223.3,62.1h-11.5l0.6-3.6h-0.1c-2.5,3.2-6.8,4.7-10.5,4.7c-9.6,0-15.1-8-13.6-17.3c1.5-9.3,9.4-17.3,19-17.3   c3.7,0,7.4,1.4,9.4,4.2l0.5-3.2h11.5L223.3,62.1z M199.9,45.9c-0.7,4.1,1.6,7.3,6.2,7.3c4.7,0,7.9-3.2,8.6-7.3   c0.6-4-1.6-7.3-6.2-7.3C203.8,38.5,200.5,41.9,199.9,45.9"
       id="path28"
       style="fill:#000000" /><path
       class="st0"
       d="M242.4,62.1h-11.5l5.1-32.5h11.5L242.4,62.1z M250.2,17.2c-0.6,3.5-3.9,6.5-7.5,6.5c-3.5,0-6-2.9-5.4-6.5   c0.6-3.5,3.9-6.5,7.5-6.5C248.3,10.7,250.8,13.6,250.2,17.2"
       id="path30"
       style="fill:#000000" /><polygon
       class="st0"
       points="261.5,62.1 250,62.1 258.3,9.6 269.8,9.6  "
       id="polygon32"
       style="fill:#000000" /></g></svg>