<?xml version="1.0" encoding="UTF-8" standalone="no"?>
<!-- Generator: Adobe Illustrator 22.0.1, SVG Export Plug-In . SVG Version: 6.00 Build 0)  -->

<svg
   version="1.1"
   id="Layer_1"
   x="0px"
   y="0px"
   width="56.028603"
   height="53.226665"
   viewBox="0 0 52.526816 49.899997"
   xml:space="preserve"
   xmlns="http://www.w3.org/2000/svg"
   xmlns:svg="http://www.w3.org/2000/svg"
   xmlns:rdf="http://www.w3.org/1999/02/22-rdf-syntax-ns#"
   xmlns:cc="http://creativecommons.org/ns#"
   xmlns:dc="http://purl.org/dc/elements/1.1/"><metadata
     id="metadata40"><rdf:RDF><cc:Work
         rdf:about=""><dc:format>image/svg+xml</dc:format><dc:type
           rdf:resource="http://purl.org/dc/dcmitype/StillImage" /></cc:Work></rdf:RDF></metadata><defs
     id="defs38" /><style
     type="text/css"
     id="style2">
	.st0{fill:#FFFFFF;}
	.st1{fill:#EF3E42;}
</style><g
     id="mark"
     transform="translate(-6.0218495,-13.3)"><path
       class="st0"
       d="m 30,62.5 c -3.9,-4 -7.1,-10.8 -9,-19.7 -2.2,2.6 -4.4,5.4 -6.6,8.4 -1.5,2 -3,4.1 -4.4,6.2 3.1,3.6 7.9,5.8 14,5.8 1.9,-0.1 3.9,-0.3 6,-0.7"
       id="path4"
       style="fill:#000000" /><path
       class="st0"
       d="m 21.2,20.2 c 0,1.9 0.1,3.8 0.2,5.7 0.3,4 0.8,7.7 1.5,11 C 31.8,26.5 40.5,18.8 47.8,14.4 45.7,13.7 43.3,13.3 40.7,13.3 34,13.4 27.1,16 21.2,20.2"
       id="path6"
       style="fill:#000000" /><path
       class="st1"
       d="m 47.5,50.9 c 4.4,-4.1 7.9,-9.2 9.7,-14.7 2,-6 1.7,-11.6 -0.4,-15.9 -6.4,-4.8 -19.4,2.1 -33.2,17.4 4.2,15.2 13.6,20.8 23.9,13.2"
       id="path8"
       style="fill:#ef3e42" /><path
       class="st0"
       d="M 18.9,28.1 C 18.8,26.1 18.7,24.2 18.7,22.2 13.6,26.5 9.5,32.1 7.4,38.3 5.1,45 5.8,51.1 8.6,55.6 10.1,53.4 11.7,51.2 13.3,49 15.7,45.8 18,42.8 20.4,39.9 19.7,36.3 19.2,32.4 18.9,28.1"
       id="path10"
       style="fill:#000000" /></g></svg>
