<?xml version="1.0" encoding="UTF-8" standalone="no"?>
<svg xmlns="http://www.w3.org/2000/svg" version="1.0" width="68.1" height="22.5">
<g style="fill:#000000">
  <path d="m 56.9,0 c -6.2,0 -11.2,5 -11.2,11.2 0,6.2 5,11.2 11.2,11.2 6.2,0 11.2,-5 11.2,-11.2 0,-6.2 -5.1,-11.2 -11.2,-11.2 z m 0,15.9 c -2.6,0 -4.6,-2.1 -4.6,-4.7 0,-2.6 2.1,-4.7 4.6,-4.7 2.6,0 4.6,2.1 4.6,4.7 0,2.6 -2.1,4.7 -4.6,4.7 z" />
  <path d="M 14.9,9 H 7.4 c -0.1,0 -0.2,-0.2 -0.1,-0.3 0.8,-1.3 2.3,-2.1 3.9,-2.1 1.6,0 3.1,0.9 3.9,2.1 0.1,0.1 0,0.3 -0.2,0.3 z m -0.3,5.5 c -0.1,0 -0.2,0.1 -0.2,0.1 -0.8,0.8 -2,1.3 -3.2,1.3 -1.6,0 -3.1,-0.9 -3.9,-2.1 -0.1,-0.1 0,-0.3 0.2,-0.3 h 7.5 7 c 0.1,0 0.2,-0.1 0.2,-0.2 0.2,-0.9 0.2,-1.8 0.2,-2.7 -0.4,-5.8 -5.1,-10.4 -10.9,-10.6 -6.4,-0.2 -11.6,5 -11.5,11.4 0.1,6 5,10.9 11,11 5,0.1 9.3,-3.2 10.7,-7.7 0,0 0,0 0,-0.1 0,-0.1 -0.1,-0.2 -0.2,-0.2 z" />
  <path d="m 39.5,11.2 c 0,0.1 0,0.1 0,0.1 v 0 l 6.7,9.9 c 0.1,0.1 0,0.3 -0.2,0.3 h -8.1 c -0.1,0 -0.1,0 -0.2,-0.1 l -3.6,-5.4 c 0,-0.1 -0.2,-0.1 -0.2,0 l -3.7,5.5 c 0,0 -0.1,0.1 -0.2,0.1 h -8.1 c -0.2,0 -0.3,-0.2 -0.2,-0.3 l 6.7,-9.9 c 0,0 0,0 0,-0.1 v 0 c 0,-0.1 0,-0.1 0,-0.1 l -6.7,-9.9 c -0.1,-0.1 0,-0.3 0.2,-0.3 h 8.1 c 0.1,0 0.1,0 0.2,0.1 l 3.7,5.5 c 0,0.1 0.2,0.1 0.2,0 l 3.7,-5.5 c 0,0 0.1,-0.1 0.2,-0.1 h 8.1 c 0.2,0 0.3,0.2 0.2,0.3 l -6.7,9.9 v 0 c -0.1,-0.1 -0.1,-0.1 -0.1,0 z" />
</g>
</svg>
