<?xml version="1.0" encoding="UTF-8"?>
<svg width="75" height="75" enable-background="new 0 0 199.999 90" overflow="visible" version="1.1" viewBox="0 0 75 75" xml:space="preserve" xmlns="http://www.w3.org/2000/svg">
<title>Los Angeles Metro M logo</title>
<path d="m1.12 38.1c0-20.2 16.4-36.6 36.6-36.6 20.2 0 36.6 16.4 36.6 36.6 0 20.2-16.4 36.6-36.6 36.6-20.2 0-36.6-16.4-36.6-36.6"/>

<path d="m59.9 16.3v43.9h-9.23v-24.8c-0.357 0.974-5.37 15.4-7.03 20.3l-4.12-12.3 9.07-27.2h11.3zm-32.6 0h-11.3v43.9h9.2v-24.8c0.459 1.26 8.66 24.8 8.66 24.8h8.23l-14.8-43.9z" style="fill:#fff"/>
<rect y="-15" width="200" height="90" style="fill:none"/>
</svg>
