<?xml version="1.0" encoding="iso-8859-1"?>
<!-- Generator: Adobe Illustrator 14.0.0, SVG Export Plug-In . SVG Version: 6.00 Build 43363)  -->
<!DOCTYPE svg PUBLIC "-//W3C//DTD SVG 1.1//EN" "http://www.w3.org/Graphics/SVG/1.1/DTD/svg11.dtd">
<svg version="1.1" id="Layer_1" xmlns="http://www.w3.org/2000/svg" xmlns:xlink="http://www.w3.org/1999/xlink" x="0px" y="0px"
	 width="250px" height="92px" viewBox="0 0 250 92" style="enable-background:new 0 0 250 92;" xml:space="preserve">
<path style="fill:#004F98;" d="M190.917,26.233c0,13.573-11.648,17.103-11.648,17.103l14.194,18.683h-16.951l-11.278-15.8h-0.093
	v15.884v-0.084h-13.968V5.97h21.642C191.623,5.97,190.917,26.233,190.917,26.233 M177.571,26.333c0-6.605-6.782-7.16-6.782-7.16
	h-5.648V34.41v-0.092h5.648C170.789,34.318,177.571,32.838,177.571,26.333"/>
<polygon style="fill:#004F98;" points="69.77,37.385 69.77,6.155 57.583,6.155 39.666,34.318 21.294,62.581 36.741,62.581 
	39.405,58.304 57.323,30.225 57.23,30.418 57.23,62.581 69.147,62.581 80.544,44.269 89.629,30.132 89.629,62.296 103.151,62.296 
	103.151,6.155 89.629,6.155 69.77,37.486 "/>
<path style="fill:#004F98;" d="M243.267,27.443c-2.823-12.648-13.682-22.027-26.565-22.027c-15.187,0-27.474,12.917-27.474,28.81
	c0,15.893,12.287,28.818,27.474,28.818c12.791,0,23.573-9.295,26.565-21.842h-14.909c-2.303,4.27-6.706,7.152-11.656,7.152
	c-7.514,0-13.506-6.32-13.506-14.127c0-7.807,5.992-14.127,13.506-14.127c5.018,0,9.539,2.983,11.824,7.345H243.267"/>
<path style="fill:#004F98;" d="M134.063,6.155h13.06v55.863h-12.9v-6.875h-15.271l-4.597,7.152H98.386l18.019-28.44L134.063,6.155z
	 M126.717,42.596h7.505V30.788L126.717,42.596z"/>
<polygon style="fill:#F26F21;" points="233.207,88.231 245.309,69.918 17.411,69.918 5.309,88.231 "/>
</svg>
