<?xml version="1.0" encoding="UTF-8" standalone="no"?>
<!-- Created with Inkscape (http://www.inkscape.org/) -->

<svg
   version="1.1"
   id="svg2"
   xml:space="preserve"
   width="200.63452"
   height="47.407997"
   viewBox="0 0 200.63452 47.407997"
   sodipodi:docname="Metro Minnesota.svg"
   inkscape:version="1.1.1 (3bf5ae0d25, 2021-09-20)"
   xmlns:inkscape="http://www.inkscape.org/namespaces/inkscape"
   xmlns:sodipodi="http://sodipodi.sourceforge.net/DTD/sodipodi-0.dtd"
   xmlns="http://www.w3.org/2000/svg"
   xmlns:svg="http://www.w3.org/2000/svg"><defs
     id="defs6"><clipPath
       clipPathUnits="userSpaceOnUse"
       id="clipPath64"><path
         d="m 25.124,1550.664 h 148.977 v 34.056 H 25.124 Z"
         id="path62" /></clipPath><clipPath
       clipPathUnits="userSpaceOnUse"
       id="clipPath122"><path
         d="M 0,0 H 1512 V 1620 H 0 Z"
         id="path120" /></clipPath><clipPath
       clipPathUnits="userSpaceOnUse"
       id="clipPath148"><path
         d="m 170.1,1411.236 h 44.1 v 36 h -44.1 z"
         id="path146" /></clipPath><clipPath
       clipPathUnits="userSpaceOnUse"
       id="clipPath216"><path
         d="M 0,0 H 1512 V 1620 H 0 Z"
         id="path214" /></clipPath><clipPath
       clipPathUnits="userSpaceOnUse"
       id="clipPath332"><path
         d="m 1417.147,323.416 -5.785,-41.868 c 0,0 -0.646,-4.679 3.954,-5.337 v 0 l 70.326,-10.052 c 0,0 4.6,-0.658 5.247,4.021 v 0 l 5.785,41.868 c 0,0 0.646,4.679 -3.954,5.336 v 0 l -70.326,10.053 c 0,0 -0.221,0.032 -0.574,0.032 v 0 c -1.255,0 -4.168,-0.401 -4.673,-4.053"
         id="path330" /></clipPath><clipPath
       clipPathUnits="userSpaceOnUse"
       id="clipPath346"><path
         d="M 0,0 H 1512 V 1620 H 0 Z"
         id="path344" /></clipPath><clipPath
       clipPathUnits="userSpaceOnUse"
       id="clipPath358"><path
         d="m 227.52,922.004 h 639.36 v 679.24 H 227.52 Z"
         id="path356" /></clipPath><clipPath
       clipPathUnits="userSpaceOnUse"
       id="clipPath480"><path
         d="m 227.52,922.004 h 639.36 v 679.24 H 227.52 Z"
         id="path478" /></clipPath><clipPath
       clipPathUnits="userSpaceOnUse"
       id="clipPath502"><path
         d="m 227.52,922.004 h 639.36 v 679.24 H 227.52 Z"
         id="path500" /></clipPath><clipPath
       clipPathUnits="userSpaceOnUse"
       id="clipPath574"><path
         d="m 227.52,922.004 h 639.36 v 679.24 H 227.52 Z"
         id="path572" /></clipPath><clipPath
       clipPathUnits="userSpaceOnUse"
       id="clipPath590"><path
         d="m 227.52,922.004 h 639.36 v 679.24 H 227.52 Z"
         id="path588" /></clipPath><clipPath
       clipPathUnits="userSpaceOnUse"
       id="clipPath706"><path
         d="m 227.52,922.004 h 639.36 v 679.24 H 227.52 Z"
         id="path704" /></clipPath><clipPath
       clipPathUnits="userSpaceOnUse"
       id="clipPath738"><path
         d="m 227.52,922.004 h 639.36 v 679.24 H 227.52 Z"
         id="path736" /></clipPath><clipPath
       clipPathUnits="userSpaceOnUse"
       id="clipPath770"><path
         d="m 227.52,922.004 h 639.36 v 679.24 H 227.52 Z"
         id="path768" /></clipPath><clipPath
       clipPathUnits="userSpaceOnUse"
       id="clipPath802"><path
         d="m 227.52,922.004 h 639.36 v 679.24 H 227.52 Z"
         id="path800" /></clipPath><clipPath
       clipPathUnits="userSpaceOnUse"
       id="clipPath834"><path
         d="m 227.52,922.004 h 639.36 v 679.24 H 227.52 Z"
         id="path832" /></clipPath><clipPath
       clipPathUnits="userSpaceOnUse"
       id="clipPath846"><path
         d="m 241.339,922.004 h 595.688 v 671.292 H 241.339 Z"
         id="path844" /></clipPath><clipPath
       clipPathUnits="userSpaceOnUse"
       id="clipPath862"><path
         d="m 227.52,922.004 h 639.36 v 679.24 H 227.52 Z"
         id="path860" /></clipPath><clipPath
       clipPathUnits="userSpaceOnUse"
       id="clipPath882"><path
         d="m 227.52,922.004 h 639.36 v 679.24 H 227.52 Z"
         id="path880" /></clipPath><clipPath
       clipPathUnits="userSpaceOnUse"
       id="clipPath910"><path
         d="m 227.52,922.004 h 639.36 v 679.24 H 227.52 Z"
         id="path908" /></clipPath><clipPath
       clipPathUnits="userSpaceOnUse"
       id="clipPath938"><path
         d="m 227.52,922.004 h 639.36 v 679.24 H 227.52 Z"
         id="path936" /></clipPath><clipPath
       clipPathUnits="userSpaceOnUse"
       id="clipPath1032"><path
         d="m 227.52,922.004 h 639.36 v 679.24 H 227.52 Z"
         id="path1030" /></clipPath><clipPath
       clipPathUnits="userSpaceOnUse"
       id="clipPath1056"><path
         d="m 227.52,922.004 h 639.36 v 679.24 H 227.52 Z"
         id="path1054" /></clipPath><clipPath
       clipPathUnits="userSpaceOnUse"
       id="clipPath1072"><path
         d="m 227.52,922.004 h 639.36 v 679.24 H 227.52 Z"
         id="path1070" /></clipPath><clipPath
       clipPathUnits="userSpaceOnUse"
       id="clipPath1088"><path
         d="m 227.52,922.004 h 639.36 v 679.24 H 227.52 Z"
         id="path1086" /></clipPath><clipPath
       clipPathUnits="userSpaceOnUse"
       id="clipPath1104"><path
         d="m 227.52,922.004 h 639.36 v 679.24 H 227.52 Z"
         id="path1102" /></clipPath><clipPath
       clipPathUnits="userSpaceOnUse"
       id="clipPath1124"><path
         d="m 227.52,922.004 h 639.36 v 679.24 H 227.52 Z"
         id="path1122" /></clipPath><clipPath
       clipPathUnits="userSpaceOnUse"
       id="clipPath1140"><path
         d="m 227.52,922.004 h 639.36 v 679.24 H 227.52 Z"
         id="path1138" /></clipPath><clipPath
       clipPathUnits="userSpaceOnUse"
       id="clipPath1156"><path
         d="m 227.52,922.004 h 639.36 v 679.24 H 227.52 Z"
         id="path1154" /></clipPath><clipPath
       clipPathUnits="userSpaceOnUse"
       id="clipPath1172"><path
         d="m 227.52,922.004 h 639.36 v 679.24 H 227.52 Z"
         id="path1170" /></clipPath><clipPath
       clipPathUnits="userSpaceOnUse"
       id="clipPath1188"><path
         d="m 227.52,922.004 h 639.36 v 679.24 H 227.52 Z"
         id="path1186" /></clipPath><clipPath
       clipPathUnits="userSpaceOnUse"
       id="clipPath1204"><path
         d="m 227.52,922.004 h 639.36 v 679.24 H 227.52 Z"
         id="path1202" /></clipPath><clipPath
       clipPathUnits="userSpaceOnUse"
       id="clipPath1224"><path
         d="m 227.52,922.004 h 639.36 v 679.24 H 227.52 Z"
         id="path1222" /></clipPath><clipPath
       clipPathUnits="userSpaceOnUse"
       id="clipPath1240"><path
         d="m 227.52,922.004 h 639.36 v 679.24 H 227.52 Z"
         id="path1238" /></clipPath><clipPath
       clipPathUnits="userSpaceOnUse"
       id="clipPath1260"><path
         d="m 227.52,922.004 h 639.36 v 679.24 H 227.52 Z"
         id="path1258" /></clipPath><clipPath
       clipPathUnits="userSpaceOnUse"
       id="clipPath1276"><path
         d="m 227.52,922.004 h 639.36 v 679.24 H 227.52 Z"
         id="path1274" /></clipPath><clipPath
       clipPathUnits="userSpaceOnUse"
       id="clipPath1292"><path
         d="m 227.52,922.004 h 639.36 v 679.24 H 227.52 Z"
         id="path1290" /></clipPath><clipPath
       clipPathUnits="userSpaceOnUse"
       id="clipPath1308"><path
         d="m 227.52,922.004 h 639.36 v 679.24 H 227.52 Z"
         id="path1306" /></clipPath><clipPath
       clipPathUnits="userSpaceOnUse"
       id="clipPath1324"><path
         d="m 227.52,922.004 h 639.36 v 679.24 H 227.52 Z"
         id="path1322" /></clipPath><clipPath
       clipPathUnits="userSpaceOnUse"
       id="clipPath1340"><path
         d="m 227.52,922.004 h 639.36 v 679.24 H 227.52 Z"
         id="path1338" /></clipPath><clipPath
       clipPathUnits="userSpaceOnUse"
       id="clipPath1356"><path
         d="m 227.52,922.004 h 639.36 v 679.24 H 227.52 Z"
         id="path1354" /></clipPath><clipPath
       clipPathUnits="userSpaceOnUse"
       id="clipPath1372"><path
         d="m 227.52,922.004 h 639.36 v 679.24 H 227.52 Z"
         id="path1370" /></clipPath><clipPath
       clipPathUnits="userSpaceOnUse"
       id="clipPath1388"><path
         d="m 227.52,922.004 h 639.36 v 679.24 H 227.52 Z"
         id="path1386" /></clipPath><clipPath
       clipPathUnits="userSpaceOnUse"
       id="clipPath1404"><path
         d="m 227.52,922.004 h 639.36 v 679.24 H 227.52 Z"
         id="path1402" /></clipPath><clipPath
       clipPathUnits="userSpaceOnUse"
       id="clipPath1420"><path
         d="m 227.52,922.004 h 639.36 v 679.24 H 227.52 Z"
         id="path1418" /></clipPath><clipPath
       clipPathUnits="userSpaceOnUse"
       id="clipPath1436"><path
         d="m 227.52,922.004 h 639.36 v 679.24 H 227.52 Z"
         id="path1434" /></clipPath><clipPath
       clipPathUnits="userSpaceOnUse"
       id="clipPath1464"><path
         d="m 227.52,922.004 h 639.36 v 679.24 H 227.52 Z"
         id="path1462" /></clipPath><clipPath
       clipPathUnits="userSpaceOnUse"
       id="clipPath1490"><path
         d="m 227.52,922.004 h 639.36 v 679.24 H 227.52 Z"
         id="path1488" /></clipPath><clipPath
       clipPathUnits="userSpaceOnUse"
       id="clipPath1536"><path
         d="m 241.339,922.004 h 595.688 v 671.292 H 241.339 Z"
         id="path1534" /></clipPath><clipPath
       clipPathUnits="userSpaceOnUse"
       id="clipPath1552"><path
         d="m 227.52,922.004 h 639.36 v 679.24 H 227.52 Z"
         id="path1550" /></clipPath><clipPath
       clipPathUnits="userSpaceOnUse"
       id="clipPath1572"><path
         d="m 241.339,922.004 h 595.688 v 671.292 H 241.339 Z"
         id="path1570" /></clipPath><clipPath
       clipPathUnits="userSpaceOnUse"
       id="clipPath1660"><path
         d="m 241.339,922.004 h 595.688 v 671.292 H 241.339 Z"
         id="path1658" /></clipPath><clipPath
       clipPathUnits="userSpaceOnUse"
       id="clipPath1748"><path
         d="m 241.339,922.004 h 595.688 v 671.292 H 241.339 Z"
         id="path1746" /></clipPath><clipPath
       clipPathUnits="userSpaceOnUse"
       id="clipPath1812"><path
         d="m 241.339,922.004 h 595.688 v 671.292 H 241.339 Z"
         id="path1810" /></clipPath><clipPath
       clipPathUnits="userSpaceOnUse"
       id="clipPath1876"><path
         d="m 241.339,922.004 h 595.688 v 671.292 H 241.339 Z"
         id="path1874" /></clipPath><clipPath
       clipPathUnits="userSpaceOnUse"
       id="clipPath1972"><path
         d="m 241.339,922.004 h 595.688 v 671.292 H 241.339 Z"
         id="path1970" /></clipPath><clipPath
       clipPathUnits="userSpaceOnUse"
       id="clipPath2056"><path
         d="m 241.339,922.004 h 595.688 v 671.292 H 241.339 Z"
         id="path2054" /></clipPath><clipPath
       clipPathUnits="userSpaceOnUse"
       id="clipPath2156"><path
         d="m 241.339,922.004 h 595.688 v 671.292 H 241.339 Z"
         id="path2154" /></clipPath><clipPath
       clipPathUnits="userSpaceOnUse"
       id="clipPath2276"><path
         d="m 241.339,922.004 h 595.688 v 671.292 H 241.339 Z"
         id="path2274" /></clipPath><clipPath
       clipPathUnits="userSpaceOnUse"
       id="clipPath2398"><path
         d="m 241.339,922.004 h 595.688 v 671.292 H 241.339 Z"
         id="path2396" /></clipPath><clipPath
       clipPathUnits="userSpaceOnUse"
       id="clipPath2518"><path
         d="m 241.339,922.004 h 595.688 v 671.292 H 241.339 Z"
         id="path2516" /></clipPath><clipPath
       clipPathUnits="userSpaceOnUse"
       id="clipPath2634"><path
         d="m 241.339,922.004 h 595.688 v 671.292 H 241.339 Z"
         id="path2632" /></clipPath><clipPath
       clipPathUnits="userSpaceOnUse"
       id="clipPath2754"><path
         d="m 241.339,922.004 h 595.688 v 671.292 H 241.339 Z"
         id="path2752" /></clipPath><clipPath
       clipPathUnits="userSpaceOnUse"
       id="clipPath2866"><path
         d="m 241.339,922.004 h 595.688 v 671.292 H 241.339 Z"
         id="path2864" /></clipPath><clipPath
       clipPathUnits="userSpaceOnUse"
       id="clipPath2934"><path
         d="m 227.52,922.004 h 639.36 v 679.24 H 227.52 Z"
         id="path2932" /></clipPath><clipPath
       clipPathUnits="userSpaceOnUse"
       id="clipPath2952"><path
         d="m 227.52,922.004 h 639.36 v 679.24 H 227.52 Z"
         id="path2950" /></clipPath><clipPath
       clipPathUnits="userSpaceOnUse"
       id="clipPath2970"><path
         d="m 227.52,922.004 h 639.36 v 679.24 H 227.52 Z"
         id="path2968" /></clipPath><clipPath
       clipPathUnits="userSpaceOnUse"
       id="clipPath2988"><path
         d="m 227.52,922.004 h 639.36 v 679.24 H 227.52 Z"
         id="path2986" /></clipPath><clipPath
       clipPathUnits="userSpaceOnUse"
       id="clipPath3006"><path
         d="m 227.52,922.004 h 639.36 v 679.24 H 227.52 Z"
         id="path3004" /></clipPath><clipPath
       clipPathUnits="userSpaceOnUse"
       id="clipPath3024"><path
         d="m 227.52,922.004 h 639.36 v 679.24 H 227.52 Z"
         id="path3022" /></clipPath><clipPath
       clipPathUnits="userSpaceOnUse"
       id="clipPath3042"><path
         d="m 227.52,922.004 h 639.36 v 679.24 H 227.52 Z"
         id="path3040" /></clipPath><clipPath
       clipPathUnits="userSpaceOnUse"
       id="clipPath3060"><path
         d="m 227.52,922.004 h 639.36 v 679.24 H 227.52 Z"
         id="path3058" /></clipPath><clipPath
       clipPathUnits="userSpaceOnUse"
       id="clipPath3078"><path
         d="m 227.52,922.004 h 639.36 v 679.24 H 227.52 Z"
         id="path3076" /></clipPath><clipPath
       clipPathUnits="userSpaceOnUse"
       id="clipPath3096"><path
         d="m 227.52,922.004 h 639.36 v 679.24 H 227.52 Z"
         id="path3094" /></clipPath><clipPath
       clipPathUnits="userSpaceOnUse"
       id="clipPath3114"><path
         d="m 227.52,922.004 h 639.36 v 679.24 H 227.52 Z"
         id="path3112" /></clipPath><clipPath
       clipPathUnits="userSpaceOnUse"
       id="clipPath3132"><path
         d="m 227.52,922.004 h 639.36 v 679.24 H 227.52 Z"
         id="path3130" /></clipPath><clipPath
       clipPathUnits="userSpaceOnUse"
       id="clipPath3150"><path
         d="m 227.52,922.004 h 639.36 v 679.24 H 227.52 Z"
         id="path3148" /></clipPath><clipPath
       clipPathUnits="userSpaceOnUse"
       id="clipPath3168"><path
         d="m 227.52,922.004 h 639.36 v 679.24 H 227.52 Z"
         id="path3166" /></clipPath><clipPath
       clipPathUnits="userSpaceOnUse"
       id="clipPath3186"><path
         d="m 227.52,922.004 h 639.36 v 679.24 H 227.52 Z"
         id="path3184" /></clipPath><clipPath
       clipPathUnits="userSpaceOnUse"
       id="clipPath3204"><path
         d="m 227.52,922.004 h 639.36 v 679.24 H 227.52 Z"
         id="path3202" /></clipPath><clipPath
       clipPathUnits="userSpaceOnUse"
       id="clipPath3222"><path
         d="m 227.52,922.004 h 639.36 v 679.24 H 227.52 Z"
         id="path3220" /></clipPath><clipPath
       clipPathUnits="userSpaceOnUse"
       id="clipPath3240"><path
         d="m 227.52,922.004 h 639.36 v 679.24 H 227.52 Z"
         id="path3238" /></clipPath><clipPath
       clipPathUnits="userSpaceOnUse"
       id="clipPath3258"><path
         d="m 227.52,922.004 h 639.36 v 679.24 H 227.52 Z"
         id="path3256" /></clipPath><clipPath
       clipPathUnits="userSpaceOnUse"
       id="clipPath3276"><path
         d="m 227.52,922.004 h 639.36 v 679.24 H 227.52 Z"
         id="path3274" /></clipPath><clipPath
       clipPathUnits="userSpaceOnUse"
       id="clipPath5230"><path
         d="m 241.339,922.004 h 595.688 v 671.292 H 241.339 Z"
         id="path5228" /></clipPath><clipPath
       clipPathUnits="userSpaceOnUse"
       id="clipPath5320"><path
         d="m 227.52,922.004 h 639.36 v 679.24 H 227.52 Z"
         id="path5318" /></clipPath><clipPath
       clipPathUnits="userSpaceOnUse"
       id="clipPath5384"><path
         d="m 241.339,922.004 h 595.688 v 671.292 H 241.339 Z"
         id="path5382" /></clipPath><clipPath
       clipPathUnits="userSpaceOnUse"
       id="clipPath5416"><path
         d="m 241.339,922.004 h 595.688 v 671.292 H 241.339 Z"
         id="path5414" /></clipPath><clipPath
       clipPathUnits="userSpaceOnUse"
       id="clipPath5484"><path
         d="m 241.339,922.004 h 595.688 v 671.292 H 241.339 Z"
         id="path5482" /></clipPath><clipPath
       clipPathUnits="userSpaceOnUse"
       id="clipPath5516"><path
         d="m 241.339,922.004 h 595.688 v 671.292 H 241.339 Z"
         id="path5514" /></clipPath><clipPath
       clipPathUnits="userSpaceOnUse"
       id="clipPath5574"><path
         d="m 227.52,922.004 h 639.36 v 679.24 H 227.52 Z"
         id="path5572" /></clipPath><clipPath
       clipPathUnits="userSpaceOnUse"
       id="clipPath5592"><path
         d="m 241.339,922.004 h 595.688 v 671.292 H 241.339 Z"
         id="path5590" /></clipPath><clipPath
       clipPathUnits="userSpaceOnUse"
       id="clipPath5680"><path
         d="m 241.339,922.004 h 595.688 v 671.292 H 241.339 Z"
         id="path5678" /></clipPath><clipPath
       clipPathUnits="userSpaceOnUse"
       id="clipPath5768"><path
         d="m 241.339,922.004 h 595.688 v 671.292 H 241.339 Z"
         id="path5766" /></clipPath><clipPath
       clipPathUnits="userSpaceOnUse"
       id="clipPath5854"><path
         d="m 227.52,922.004 h 639.36 v 679.24 H 227.52 Z"
         id="path5852" /></clipPath><clipPath
       clipPathUnits="userSpaceOnUse"
       id="clipPath5882"><path
         d="m 227.52,922.004 h 639.36 v 679.24 H 227.52 Z"
         id="path5880" /></clipPath><clipPath
       clipPathUnits="userSpaceOnUse"
       id="clipPath5900"><path
         d="m 227.52,922.004 h 639.36 v 679.24 H 227.52 Z"
         id="path5898" /></clipPath><clipPath
       clipPathUnits="userSpaceOnUse"
       id="clipPath5918"><path
         d="m 227.52,922.004 h 639.36 v 679.24 H 227.52 Z"
         id="path5916" /></clipPath><clipPath
       clipPathUnits="userSpaceOnUse"
       id="clipPath5936"><path
         d="m 227.52,922.004 h 639.36 v 679.24 H 227.52 Z"
         id="path5934" /></clipPath><clipPath
       clipPathUnits="userSpaceOnUse"
       id="clipPath5954"><path
         d="m 227.52,922.004 h 639.36 v 679.24 H 227.52 Z"
         id="path5952" /></clipPath><clipPath
       clipPathUnits="userSpaceOnUse"
       id="clipPath5972"><path
         d="m 227.52,922.004 h 639.36 v 679.24 H 227.52 Z"
         id="path5970" /></clipPath><clipPath
       clipPathUnits="userSpaceOnUse"
       id="clipPath6012"><path
         d="m 241.339,922.004 h 595.688 v 671.292 H 241.339 Z"
         id="path6010" /></clipPath><clipPath
       clipPathUnits="userSpaceOnUse"
       id="clipPath6112"><path
         d="m 241.339,922.004 h 595.688 v 671.292 H 241.339 Z"
         id="path6110" /></clipPath><clipPath
       clipPathUnits="userSpaceOnUse"
       id="clipPath6270"><path
         d="m 227.52,922.004 h 639.36 v 679.24 H 227.52 Z"
         id="path6268" /></clipPath><clipPath
       clipPathUnits="userSpaceOnUse"
       id="clipPath6298"><path
         d="m 227.52,922.004 h 639.36 v 679.24 H 227.52 Z"
         id="path6296" /></clipPath><clipPath
       clipPathUnits="userSpaceOnUse"
       id="clipPath6426"><path
         d="m 227.52,922.004 h 639.36 v 679.24 H 227.52 Z"
         id="path6424" /></clipPath><clipPath
       clipPathUnits="userSpaceOnUse"
       id="clipPath6448"><path
         d="m 227.52,922.004 h 639.36 v 679.24 H 227.52 Z"
         id="path6446" /></clipPath><clipPath
       clipPathUnits="userSpaceOnUse"
       id="clipPath6464"><path
         d="m 227.52,922.004 h 639.36 v 679.24 H 227.52 Z"
         id="path6462" /></clipPath><clipPath
       clipPathUnits="userSpaceOnUse"
       id="clipPath6480"><path
         d="m 227.52,922.004 h 639.36 v 679.24 H 227.52 Z"
         id="path6478" /></clipPath><clipPath
       clipPathUnits="userSpaceOnUse"
       id="clipPath6496"><path
         d="m 227.52,922.004 h 639.36 v 679.24 H 227.52 Z"
         id="path6494" /></clipPath><clipPath
       clipPathUnits="userSpaceOnUse"
       id="clipPath6512"><path
         d="m 227.52,922.004 h 639.36 v 679.24 H 227.52 Z"
         id="path6510" /></clipPath><clipPath
       clipPathUnits="userSpaceOnUse"
       id="clipPath6528"><path
         d="m 227.52,922.004 h 639.36 v 679.24 H 227.52 Z"
         id="path6526" /></clipPath><clipPath
       clipPathUnits="userSpaceOnUse"
       id="clipPath6544"><path
         d="m 227.52,922.004 h 639.36 v 679.24 H 227.52 Z"
         id="path6542" /></clipPath><clipPath
       clipPathUnits="userSpaceOnUse"
       id="clipPath6560"><path
         d="m 227.52,922.004 h 639.36 v 679.24 H 227.52 Z"
         id="path6558" /></clipPath><clipPath
       clipPathUnits="userSpaceOnUse"
       id="clipPath6576"><path
         d="m 227.52,922.004 h 639.36 v 679.24 H 227.52 Z"
         id="path6574" /></clipPath><clipPath
       clipPathUnits="userSpaceOnUse"
       id="clipPath6596"><path
         d="m 227.52,922.004 h 639.36 v 679.24 H 227.52 Z"
         id="path6594" /></clipPath><clipPath
       clipPathUnits="userSpaceOnUse"
       id="clipPath6844"><path
         d="m 1103.281,1601.219 c 0,0 -4.5,0 -4.5,-4.5 v 0 -498.478 c 0,0 0,-4.5 4.5,-4.5 v 0 h 385.438 c 0,0 4.5,0 4.5,4.5 v 0 498.478 c 0,0 0,4.5 -4.5,4.5 v 0 z"
         id="path6842" /></clipPath><clipPath
       clipPathUnits="userSpaceOnUse"
       id="clipPath7326"><path
         d="M 0,0 H 1512 V 1620 H 0 Z"
         id="path7324" /></clipPath><clipPath
       clipPathUnits="userSpaceOnUse"
       id="clipPath9296"><path
         d="M 0,0 H 1512 V 1620 H 0 Z"
         id="path9294" /></clipPath><clipPath
       clipPathUnits="userSpaceOnUse"
       id="clipPath9310"><path
         d="m 1319.017,870.12 h 71.213 V 936 h -71.213 z"
         id="path9308" /></clipPath><clipPath
       clipPathUnits="userSpaceOnUse"
       id="clipPath9382"><path
         d="m 1339.2,18 h 130.14 v 92.994 H 1339.2 Z"
         id="path9380" /></clipPath><clipPath
       clipPathUnits="userSpaceOnUse"
       id="clipPath9402"><path
         d="m 1457.585,71.892 h -21.845 v 0 c -0.536,0 -1.058,-0.362 -1.459,-1.017 v 0 c -0.4,-0.652 -0.657,-1.579 -0.656,-2.606 v 0 -6.762 c -10e-4,-1.027 0.256,-1.954 0.656,-2.607 v 0 c 0.401,-0.655 0.923,-1.017 1.459,-1.017 v 0 0 h 21.845 v 0 c 0.534,0 1.057,0.362 1.458,1.017 v 0 c 0.401,0.653 0.658,1.58 0.657,2.607 v 0 6.762 c 10e-4,1.027 -0.256,1.954 -0.657,2.606 v 0 c -0.401,0.655 -0.924,1.017 -1.458,1.017 z"
         id="path9400" /></clipPath><clipPath
       clipPathUnits="userSpaceOnUse"
       id="clipPath9414"><path
         d="m 1435.74,72.133 c -1.302,0 -2.36,-1.73 -2.36,-3.864 v 0 -6.762 c 0,-2.135 1.058,-3.865 2.36,-3.865 v 0 h 21.845 c 1.303,0 2.363,1.73 2.363,3.865 v 0 6.762 c 0,2.134 -1.06,3.864 -2.363,3.864 v 0 z M 1434.278,58.9 c -0.4,0.653 -0.657,1.58 -0.656,2.607 v 0 6.762 c -10e-4,1.027 0.256,1.954 0.656,2.606 v 0 c 0.401,0.655 0.923,1.017 1.459,1.017 v 0 0 h 21.845 v 0 c 0.534,0 1.057,-0.362 1.458,-1.017 v 0 c 0.401,-0.652 0.658,-1.579 0.657,-2.606 v 0 -6.762 c 0,-1.027 -0.256,-1.954 -0.657,-2.607 v 0 c -0.401,-0.655 -0.924,-1.017 -1.458,-1.017 v 0 0 h -21.845 v 0 c -0.536,0 -1.058,0.362 -1.459,1.017"
         id="path9412" /></clipPath><clipPath
       clipPathUnits="userSpaceOnUse"
       id="clipPath9654"><path
         d="m 1339.2,18 h 130.14 v 92.994 H 1339.2 Z"
         id="path9652" /></clipPath><clipPath
       clipPathUnits="userSpaceOnUse"
       id="clipPath9832"><path
         d="m 259.2,1383.4 h 87.2 v 87.2 h -87.2 z"
         id="path9830" /></clipPath><clipPath
       clipPathUnits="userSpaceOnUse"
       id="clipPath9844"><path
         d="M 0,0 H 1512 V 1620 H 0 Z"
         id="path9842" /></clipPath><clipPath
       clipPathUnits="userSpaceOnUse"
       id="clipPath9866"><path
         d="M 0,0 H 1512 V 1620 H 0 Z"
         id="path9864" /></clipPath></defs><sodipodi:namedview
     id="namedview4"
     pagecolor="#ffffff"
     bordercolor="#666666"
     borderopacity="1.0"
     inkscape:pageshadow="2"
     inkscape:pageopacity="0.0"
     inkscape:pagecheckerboard="0"
     showgrid="false"
     fit-margin-top="1"
     fit-margin-left="1"
     fit-margin-bottom="1"
     fit-margin-right="1"
     inkscape:zoom="5.12"
     inkscape:cx="88.964844"
     inkscape:cy="11.816406"
     inkscape:window-width="2560"
     inkscape:window-height="1017"
     inkscape:window-x="-8"
     inkscape:window-y="-8"
     inkscape:window-maximized="1"
     inkscape:current-layer="g8" /><g
     id="g8"
     inkscape:groupmode="layer"
     inkscape:label="BlueLine4_5_14"
     transform="matrix(1.3333333,0,0,-1.3333333,-32.498666,2113.9599)"><g
       id="g58"><g
         id="g60"
         clip-path="url(#clipPath64)"><g
           id="g66"
           transform="translate(85.4028,1557.7018)"><path
             d="m 0,0 v 11.358 l -4.298,-6.49 c -0.269,-0.421 -0.841,-0.962 -1.74,-0.962 -0.901,0 -1.471,0.571 -1.743,0.991 l -4.266,6.461 V 0 h -4.326 v 18.025 c 0,1.2 0.871,2.193 2.163,2.193 0.781,0 1.383,-0.329 1.773,-0.932 l 6.399,-9.643 6.398,9.643 c 0.39,0.603 1.022,0.932 1.831,0.932 1.203,0 2.104,-0.963 2.104,-2.163 L 4.295,0 Z"
             style="fill:#00539f;fill-opacity:1;fill-rule:nonzero;stroke:none"
             id="path68" /></g><g
           id="g70"
           transform="translate(97.3549,1557.7018)"><path
             d="m 0,0 c -1.231,0 -2.251,1.022 -2.251,2.253 v 15.501 c 0,1.232 1.02,2.254 2.251,2.254 H 12.438 V 16.13 H 2.253 v -3.993 h 7.299 c 1.083,0 1.952,-0.874 1.952,-1.953 0,-1.082 -0.869,-1.922 -1.952,-1.922 H 2.253 V 3.877 H 12.438 V 0 Z"
             style="fill:#00539f;fill-opacity:1;fill-rule:nonzero;stroke:none"
             id="path72" /></g><g
           id="g74"
           transform="translate(122.9447,1573.774)"><path
             d="M 0,0 V -16.072 H -4.505 V 0 h -6.548 V 3.935 H 6.58 V 0 Z"
             style="fill:#00539f;fill-opacity:1;fill-rule:nonzero;stroke:none"
             id="path76" /></g><g
           id="g78"
           transform="translate(142.8589,1574.0739)"><path
             d="M 0,0 H -5.826 V -5.678 H 0 c 1.563,0 2.883,1.202 2.883,2.885 C 2.883,-1.111 1.563,0 0,0 M 3.184,-16.372 -0.9,-9.19 h -4.926 v -7.182 h -4.507 V 1.381 c 0,1.233 1.022,2.255 2.251,2.255 h 9.014 c 3.817,0 6.579,-2.854 6.579,-6.429 0,-2.554 -1.502,-4.716 -3.696,-5.738 l 4.537,-7.841 z"
             style="fill:#00539f;fill-opacity:1;fill-rule:nonzero;stroke:none"
             id="path80" /></g><g
           id="g82"
           transform="translate(163.7949,1574.0151)"><path
             d="m 0,0 c -3.635,0 -5.829,-2.704 -5.829,-6.341 0,-3.631 2.194,-6.307 5.829,-6.307 3.635,0 5.825,2.676 5.825,6.307 C 5.825,-2.704 3.635,0 0,0 m 0,-16.643 c -6.128,0 -10.332,4.598 -10.332,10.302 0,5.71 4.204,10.333 10.332,10.333 6.127,0 10.305,-4.623 10.305,-10.333 0,-5.704 -4.178,-10.302 -10.305,-10.302"
             style="fill:#00539f;fill-opacity:1;fill-rule:nonzero;stroke:none"
             id="path84" /></g><g
           id="g86"
           transform="translate(42.1519,1584.72)"><path
             d="m 0,0 c -9.405,0 -17.028,-7.623 -17.028,-17.028 0,-9.405 7.623,-17.028 17.028,-17.028 9.405,0 17.028,7.623 17.028,17.028 C 17.028,-7.623 9.405,0 0,0"
             style="fill:#ed1c2e;fill-opacity:1;fill-rule:nonzero;stroke:none"
             id="path88" /></g><g
           id="g90"
           transform="translate(53.861,1570.0079)"><path
             d="m 0,0 h -8.667 v -14.821 h -6.218 V 0 h -8.931 V 6.217 H 0 Z"
             style="fill:#ffffff;fill-opacity:1;fill-rule:nonzero;stroke:none"
             id="path92" /></g></g></g><g
       id="g1484" /><g
       id="g9202"
       transform="translate(1040.3438,817.9005)" /></g></svg>
