<?xml version="1.0" encoding="UTF-8" standalone="no"?>
<!-- Generator: Adobe Illustrator 12.0.0, SVG Export Plug-In . SVG Version: 6.00 Build 51448)  -->

<svg
   version="1.1"
   id="Layer_1"
   width="616.56299"
   height="166.87601"
   viewBox="0 0 616.563 166.87601"
   overflow="visible"
   enable-background="new 0 0 617.683 254.157"
   xml:space="preserve"
   xmlns="http://www.w3.org/2000/svg"
   xmlns:svg="http://www.w3.org/2000/svg"><defs
   id="defs55" />


















<path
   fill="#0054a4"
   d="m 309.375,0 c 0,5.627 -1.251,11.877 -2.5,17.499 6.876,2.502 15,0.629 23.124,1.251 -1.874,6.25 0,16.876 -8.749,19.373 -7.499,0.628 -18.125,-3.125 -21.25,6.25 l -11.249,50.628 c 4.999,5.622 14.374,2.497 20.624,2.497 2.5,-1.245 3.125,-4.999 6.25,-4.999 -2.5,8.752 -0.625,23.126 -11.249,26.874 l -40.469,0.159 c -6.25,-3.748 -5.783,-12.659 -4.532,-18.28 l 15.619,-61.877 c -1.868,-1.874 -4.993,-1.874 -8.118,-1.251 -1.257,-5.622 1.248,-10.62 3.125,-15.625 13.748,-1.874 26.248,-9.375 34.375,-22.498 h 4.999"
   id="path38" />
<path
   fill="#0054a4"
   d="m 362.5,23.126 c 0,2.497 -1.251,4.999 -0.625,6.873 5.001,-15.625 19.687,-10.626 32.187,-11.871 2.502,4.999 -1.249,11.249 -2.499,16.87 -10.001,8.13 -27.188,-3.125 -33.438,11.255 l -15.625,67.499 2.502,4.376 h -28.125 l -1.876,-3.125 20.626,-91.254 c 0,-2.496 -3.751,-2.496 -1.876,-4.376 9.375,-1.874 17.501,0 26.876,0 l 1.873,3.753"
   id="path40" />
<path
   fill="#0054a4"
   d="m 168.75,24.377 -8.362,124.53 439.063,0.153 c 3.75,3.442 8.987,15.161 17.112,16.406 l -487.187,0.159 -3.125,-4.376 c 1.874,-31.25 8.124,-61.871 8.124,-92.499 -15,31.873 -28.906,65.155 -42.032,97.656 l -21.719,0.47 -1.874,-2.502 C 66.876,131.25 66.25,98.126 61.249,66.876 l -31.873,91.248 c -0.625,3.125 1.248,6.879 4.373,7.501 H 1.874 L 0,163.123 c 14.999,-45.624 33.749,-89.997 50,-135.62 0,-3.125 -1.874,-5.158 -4.376,-7.031 11.252,-2.502 23.752,0.152 35,-0.47 8.127,3.748 4.376,14.374 6.25,21.247 1.877,21.875 2.5,43.75 6.25,65.002 l 2.5,-3.125 31.875,-75.623 c 0,-3.125 -1.874,-3.754 -3.75,-6.25 3.125,-2.502 41.876,-0.629 41.876,-0.629 l 3.125,3.753"
   id="path42" />
<path
   fill="#0054a4"
   d="m 431.25,68.75 c -6.875,-0.623 -15,-0.623 -21.875,0.623 -8.75,4.376 -10.626,13.751 -10.626,23.126 5.627,6.879 18.127,4.376 26.876,3.754 L 431.25,68.75 m 23.126,-50 c 4.999,1.874 11.249,5.627 12.5,11.877 -3.125,28.125 -13.126,54.999 -17.501,83.746 0,1.251 2.499,1.874 2.499,3.754 h -28.125 c -3.125,-5.005 0,-10.004 0.626,-15.002 -6.876,4.999 -9.375,18.75 -21.25,16.248 -9.375,-0.623 -21.25,1.88 -28.125,-6.25 -8.75,-14.374 -1.874,-33.124 4.376,-46.247 C 390,45.624 416.25,55.627 435,51.251 c 3.751,-2.502 3.125,-6.878 3.751,-10.626 -0.626,-3.748 -4.376,-4.376 -8.126,-4.376 h -31.25 C 393.53,31.708 398.962,23.499 400,19.373 l 1.874,-1.245 z"
   id="path44" />
<path
   fill="#0054a4"
   d="m 543.439,125.702 c 5.624,4.37 7.031,16.174 16.406,16.645 H 168.75 c -6.25,-2.973 -0.47,-10.938 -0.47,-16.876 l 375.159,0.231"
   id="path46" />
<path
   fill="#0054a4"
   d="m 493.469,32.489 v -5.908 h 3.931 c 2.021,0 4.163,0.439 4.163,2.802 0,2.93 -2.188,3.106 -4.639,3.106 h -3.455 m 0,2.448 h 3.323 l 5.033,8.27 h 3.238 l -5.428,-8.398 c 2.803,-0.354 4.944,-1.837 4.944,-5.255 0,-3.76 -2.23,-5.42 -6.738,-5.42 h -7.26 v 19.073 h 2.887 v -8.27 z m 3.501,15.271 c 9.012,0 16.704,-7.001 16.704,-16.583 0,-9.491 -7.692,-16.492 -16.704,-16.492 -9.102,0 -16.801,7.001 -16.801,16.492 0,9.582 7.699,16.583 16.801,16.583 z M 483.493,33.624 c 0,-7.831 5.908,-13.739 13.477,-13.739 7.474,0 13.388,5.908 13.388,13.739 0,7.965 -5.914,13.825 -13.388,13.825 -7.569,0 -13.477,-5.86 -13.477,-13.825 z"
   id="path48" />
<path
   fill="#0054a4"
   d="m 210.233,41.327 c -3.125,3.748 -5.627,9.375 -4.376,13.745 h 31.25 c 4.376,-2.496 3.125,-9.375 2.5,-13.745 -5.626,-10.004 -23.124,-8.13 -29.374,0 m 51.248,-11.255 c 3.75,12.5 1.257,26.251 -3.125,37.5 l -5.625,3.754 -53.125,0.623 c -2.5,5.627 -4.376,13.128 -1.251,19.378 7.501,7.495 19.375,5.622 30.001,4.999 8.124,0 15,-3.754 21.25,-8.752 l 0.625,1.251 c -3.75,8.752 -1.251,21.875 -11.874,27.502 -18.127,3.125 -37.888,6.171 -57.501,-1.88 -19.607,-8.038 -6.25,-51.245 1.251,-73.12 7.498,-17.505 25.623,-25 43.124,-25.628 14.375,-10e-4 30,0.628 36.25,14.373 z"
   id="path50" />
</svg>
