<?xml version="1.0" encoding="utf-8"?>
<!-- Generator: Adobe Illustrator 12.0.0, SVG Export Plug-In . SVG Version: 6.00 Build 51448)  -->
<!DOCTYPE svg PUBLIC "-//W3C//DTD SVG 1.1//EN" "http://www.w3.org/Graphics/SVG/1.1/DTD/svg11.dtd" [
	<!ENTITY ns_svg "http://www.w3.org/2000/svg">
	<!ENTITY ns_xlink "http://www.w3.org/1999/xlink">
]>
<svg  version="1.1" id="Layer_1" xmlns="&ns_svg;" xmlns:xlink="&ns_xlink;" width="617.683" height="254.157"
	 viewBox="0 0 617.683 254.157" overflow="visible" enable-background="new 0 0 617.683 254.157" xml:space="preserve">
<polyline fill="#0054A4" points="15.088,240.784 5.713,240.784 13.565,203.845 0,203.845 1.688,195.905 38.189,195.905 
	36.502,203.845 22.94,203.845 15.088,240.784 "/>
<path fill="#0054A4" d="M63.589,240.784h-8.75l4.285-20.19c0.519-2.436,1.27-6.562-4.291-6.562c-3.876,0-7.434,2.625-8.508,7.685
	l-4.05,19.067h-8.75l9.537-44.879h8.749l-3.387,15.936h0.125c1.706-2.746,5.975-5.182,10.727-5.182c6.5,0,10.754,3.809,9.198,11.121
	L63.589,240.784"/>
<path fill="#0054A4" d="M93.344,231.03c-1.193,2.375-3.955,3.626-6.393,3.626c-7.062,0-6.369-5.628-6.088-8.124h22.815l0.33-1.563
	c3.232-15.186-5.17-18.311-11.731-18.311c-14.563,0-18.662,12.812-19.513,16.81c-2.905,13.689,3.327,18.188,12.702,18.188
	c5.686,0,12.869-2.625,16.879-10.627H93.344 M82.327,220.843c1.425-4.376,4.175-7.001,8.298-7.001c2.813,0,5.902,1.624,5.264,7.001
	H82.327z"/>
<polyline fill="#0054A4" points="158.27,240.784 149.276,240.784 149.24,216.528 149.115,216.528 138.775,240.784 129.776,240.784 
	127.463,207.532 136.776,207.532 136.89,231.409 137.015,231.409 146.777,207.532 155.588,207.532 155.515,231.409 155.64,231.409 
	165.902,207.532 174.902,207.532 158.27,240.784 "/>
<path fill="#0054A4" d="M204.608,216.278c1.737-8.185-6.519-9.619-11.206-9.619c-6.814,0-14.181,1.435-17.343,11.621h8.436
	c0.662-1.935,1.983-4.626,6.356-4.626c2.249,0,5.713,0.188,4.926,3.875c-0.4,1.874-2.207,2.441-3.62,2.625l-8.124,1.19
	c-5.737,0.812-10.568,4.126-11.951,10.626c-1.456,6.872,3.07,9.687,8.069,9.687c5.938,0,9.332-2.753,11.773-4.816
	c-0.21,1.88-0.192,2.381-0.024,3.943h9.439l0.274-1.313c-0.982-0.378-1.669-1.251-0.833-5.188L204.608,216.278 M193.368,228.845
	c-0.854,4.059-5.328,6.562-9.204,6.562c-1.688,0-3.863-0.94-3.213-3.998c0.775-3.626,3.632-4.438,7.007-5.005
	c3.745-0.562,5.301-1.123,6.317-1.813L193.368,228.845z"/>
<path fill="#0054A4" d="M225.519,240.216c-6.741,12.316-8.212,13.94-15.835,13.94c-1.187,0-2.676-0.062-3.913-0.129l1.486-6.994
	c0.363,0.061,0.913,0.122,1.663,0.122c3.187,0,5.033-0.439,6.812-4.999l-4.892-34.625h9.75l1.917,24.499h0.125l12.021-24.499h9.25
	L225.519,240.216"/>
<path fill="#0054A4" d="M276.221,207.532h5.438l-1.333,6.25h-5.435l-3.845,18.061c-0.406,1.94-0.507,2.691,3.055,2.691
	c0.564,0,1.208-0.067,1.846-0.128l-1.413,6.628c-1.389,0.062-2.777,0.122-4.15,0.122h-1.126c-7.562,0-8.325-2.875-7.413-7.189
	l4.294-20.185h-4.499l1.325-6.25h4.501l1.911-9.003h8.755L276.221,207.532"/>
<path fill="#0054A4" d="M315.744,224.158c2.551-12-4.344-17.499-13.281-17.499c-8.936,0-18.167,5.499-20.719,17.499
	c-2.548,11.999,4.346,17.499,13.281,17.499C303.964,241.657,313.195,236.157,315.744,224.158 M306.745,224.158
	c-0.907,4.248-3.406,10.126-10.151,10.126c-6.757,0-6.757-5.878-5.85-10.126c0.9-4.254,3.399-10.126,10.15-10.126
	S307.645,219.904,306.745,224.158z"/>
<path fill="#0054A4" d="M342.712,207.532h8.378l-1.221,5.749h0.125c2.527-3.375,5.218-6.622,10.531-6.622
	c0.565,0,1.114,0.062,1.664,0.122l-1.888,8.875c-0.725-0.122-1.662-0.122-2.474-0.122c-6.815,0-8.964,4.248-9.75,7.935
	l-3.685,17.315h-8.75L342.712,207.532"/>
<path fill="#0054A4" d="M381.659,231.03c-1.196,2.375-3.958,3.626-6.396,3.626c-7.067,0-6.367-5.628-6.086-8.124h22.813l0.329-1.563
	c3.232-15.186-5.166-18.311-11.73-18.311c-14.563,0-18.662,12.812-19.514,16.81c-2.904,13.689,3.327,18.188,12.702,18.188
	c5.688,0,12.868-2.625,16.882-10.627H381.659 M370.639,220.843c1.426-4.376,4.169-7.001,8.301-7.001
	c2.806,0,5.898,1.624,5.256,7.001H370.639z"/>
<path fill="#0054A4" d="M426.92,216.278c1.736-8.185-6.52-9.619-11.207-9.619c-6.811,0-14.181,1.435-17.342,11.621h8.438
	c0.661-1.935,1.979-4.626,6.354-4.626c2.252,0,5.707,0.188,4.926,3.875c-0.4,1.874-2.207,2.441-3.616,2.625l-8.134,1.19
	c-5.736,0.812-10.563,4.126-11.944,10.626c-1.462,6.872,3.07,9.687,8.069,9.687c5.938,0,9.332-2.753,11.777-4.816
	c-0.22,1.88-0.203,2.381-0.024,3.943h9.429l0.28-1.313c-0.979-0.378-1.669-1.251-0.83-5.188L426.92,216.278 M415.683,228.845
	c-0.864,4.059-5.332,6.562-9.206,6.562c-1.688,0-3.865-0.94-3.215-3.998c0.775-3.626,3.632-4.438,7.001-5.005
	c3.745-0.562,5.301-1.123,6.326-1.813L415.683,228.845z"/>
<polyline fill="#0054A4" points="438.52,240.784 429.77,240.784 439.313,195.905 448.065,195.905 438.52,240.784 "/>
<polyline fill="#0054A4" points="455.902,240.784 447.152,240.784 456.688,195.905 465.433,195.905 455.902,240.784 "/>
<path fill="#0054A4" d="M482.584,240.216c-6.745,12.316-8.212,13.94-15.846,13.94c-1.18,0-2.669-0.062-3.912-0.129l1.492-6.994
	c0.357,0.061,0.906,0.122,1.664,0.122c3.189,0,5.025-0.439,6.805-4.999l-4.885-34.625h9.75l1.916,24.499h0.126l12.021-24.499h9.249
	L482.584,240.216"/>
<path fill="#0054A4" d="M526.521,240.784h-8.75l5.737-27.002h-4.813l1.331-6.25h4.812l0.571-2.686
	c1.462-6.879,5.774-9.503,11.768-9.503c2.568,0,3.744,0.061,4.473,0.128l-1.497,7.062h-2.438c-3,0-3.263,0.934-3.843,3.687
	l-0.283,1.313h5.688l-1.325,6.25h-5.693L526.521,240.784"/>
<polyline fill="#0054A4" points="546.207,240.784 537.458,240.784 546.994,195.905 555.746,195.905 546.207,240.784 "/>
<path fill="#0054A4" d="M572.888,240.216c-6.738,12.316-8.212,13.94-15.835,13.94c-1.19,0-2.676-0.062-3.906-0.129l1.479-6.994
	c0.37,0.061,0.913,0.122,1.67,0.122c3.18,0,5.022-0.439,6.806-4.999l-4.89-34.625h9.751l1.919,24.499h0.125l12.019-24.499h9.25
	L572.888,240.216"/>
<polyline fill="#0054A4" points="598.645,240.784 589.27,240.784 591.214,231.659 600.589,231.659 598.645,240.784 "/>
<path fill="#0054A4" d="M310.495,0c0,5.627-1.251,11.877-2.5,17.499c6.876,2.502,15,0.629,23.124,1.251
	c-1.874,6.25,0,16.876-8.749,19.373c-7.499,0.628-18.125-3.125-21.25,6.25l-11.249,50.628c4.999,5.622,14.374,2.497,20.624,2.497
	c2.5-1.245,3.125-4.999,6.25-4.999c-2.5,8.752-0.625,23.126-11.249,26.874l-40.469,0.159c-6.25-3.748-5.783-12.659-4.532-18.28
	l15.619-61.877c-1.868-1.874-4.993-1.874-8.118-1.251c-1.257-5.622,1.248-10.62,3.125-15.625
	c13.748-1.874,26.248-9.375,34.375-22.498H310.495"/>
<path fill="#0054A4" d="M363.62,23.126c0,2.497-1.251,4.999-0.625,6.873c5.001-15.625,19.687-10.626,32.187-11.871
	c2.502,4.999-1.249,11.249-2.499,16.87c-10.001,8.13-27.188-3.125-33.438,11.255l-15.625,67.499l2.502,4.376h-28.125l-1.876-3.125
	l20.626-91.254c0-2.496-3.751-2.496-1.876-4.376c9.375-1.874,17.501,0,26.876,0L363.62,23.126"/>
<path fill="#0054A4" d="M169.87,24.377l-8.362,124.53l439.063,0.153c3.75,3.442,8.987,15.161,17.112,16.406l-487.187,0.159
	l-3.125-4.376c1.874-31.25,8.124-61.871,8.124-92.499c-15,31.873-28.906,65.155-42.032,97.656l-21.719,0.47l-1.874-2.502
	c-1.874-33.124-2.5-66.248-7.501-97.498l-31.873,91.248c-0.625,3.125,1.248,6.879,4.373,7.501H2.994l-1.874-2.502
	c14.999-45.624,33.749-89.997,50-135.62c0-3.125-1.874-5.158-4.376-7.031c11.252-2.502,23.752,0.152,35-0.47
	c8.127,3.748,4.376,14.374,6.25,21.247c1.877,21.875,2.5,43.75,6.25,65.002l2.5-3.125l31.875-75.623c0-3.125-1.874-3.754-3.75-6.25
	c3.125-2.502,41.876-0.629,41.876-0.629L169.87,24.377"/>
<path fill="#0054A4" d="M432.37,68.75c-6.875-0.623-15-0.623-21.875,0.623c-8.75,4.376-10.626,13.751-10.626,23.126
	c5.627,6.879,18.127,4.376,26.876,3.754L432.37,68.75 M455.496,18.75c4.999,1.874,11.249,5.627,12.5,11.877
	c-3.125,28.125-13.126,54.999-17.501,83.746c0,1.251,2.499,1.874,2.499,3.754h-28.125c-3.125-5.005,0-10.004,0.626-15.002
	c-6.876,4.999-9.375,18.75-21.25,16.248c-9.375-0.623-21.25,1.88-28.125-6.25c-8.75-14.374-1.874-33.124,4.376-46.247
	c10.624-21.252,36.874-11.249,55.624-15.625c3.751-2.502,3.125-6.878,3.751-10.626c-0.626-3.748-4.376-4.376-8.126-4.376h-31.25
	c-5.845-4.541-0.413-12.75,0.625-16.876l1.874-1.245L455.496,18.75z"/>
<path fill="#0054A4" d="M544.559,125.702c5.624,4.37,7.031,16.174,16.406,16.645H169.87c-6.25-2.973-0.47-10.938-0.47-16.876
	L544.559,125.702"/>
<path fill="#0054A4" d="M494.589,32.489v-5.908h3.931c2.021,0,4.163,0.439,4.163,2.802c0,2.93-2.188,3.106-4.639,3.106H494.589
	 M494.589,34.937h3.323l5.033,8.27h3.238l-5.428-8.398c2.803-0.354,4.944-1.837,4.944-5.255c0-3.76-2.23-5.42-6.738-5.42h-7.26
	v19.073h2.887V34.937z M498.09,50.208c9.012,0,16.704-7.001,16.704-16.583c0-9.491-7.692-16.492-16.704-16.492
	c-9.102,0-16.801,7.001-16.801,16.492C481.289,43.207,488.988,50.208,498.09,50.208z M484.613,33.624
	c0-7.831,5.908-13.739,13.477-13.739c7.474,0,13.388,5.908,13.388,13.739c0,7.965-5.914,13.825-13.388,13.825
	C490.521,47.449,484.613,41.589,484.613,33.624z"/>
<path fill="#0054A4" d="M211.353,41.327c-3.125,3.748-5.627,9.375-4.376,13.745h31.25c4.376-2.496,3.125-9.375,2.5-13.745
	C235.101,31.323,217.603,33.197,211.353,41.327 M262.601,30.072c3.75,12.5,1.257,26.251-3.125,37.5l-5.625,3.754l-53.125,0.623
	c-2.5,5.627-4.376,13.128-1.251,19.378c7.501,7.495,19.375,5.622,30.001,4.999c8.124,0,15-3.754,21.25-8.752l0.625,1.251
	c-3.75,8.752-1.251,21.875-11.874,27.502c-18.127,3.125-37.888,6.171-57.501-1.88c-19.607-8.038-6.25-51.245,1.251-73.12
	c7.498-17.505,25.623-25,43.124-25.628C240.726,15.698,256.351,16.327,262.601,30.072z"/>
</svg>
