<?xml version="1.0" encoding="UTF-8" standalone="no"?>
<!-- Created with Inkscape (http://www.inkscape.org/) -->

<svg
   xmlns:dc="http://purl.org/dc/elements/1.1/"
   xmlns:cc="http://creativecommons.org/ns#"
   xmlns:rdf="http://www.w3.org/1999/02/22-rdf-syntax-ns#"
   xmlns:svg="http://www.w3.org/2000/svg"
   xmlns="http://www.w3.org/2000/svg"
   xmlns:xlink="http://www.w3.org/1999/xlink"
   xmlns:sodipodi="http://sodipodi.sourceforge.net/DTD/sodipodi-0.dtd"
   xmlns:inkscape="http://www.inkscape.org/namespaces/inkscape"
   width="207.25911mm"
   height="136.2619mm"
   viewBox="0 0 734.38267 482.81777"
   id="svg2"
   version="1.1"
   inkscape:version="0.91 r13725"
   sodipodi:docname="Metrolink.svg">
  <defs
     id="defs4">
    <clipPath
       id="SVGID_2_">
      <use
         xlink:href="#SVGID_1_"
         overflow="visible"
         id="use9"
         style="overflow:visible"
         x="0"
         y="0"
         width="115.333"
         height="16.833" />
    </clipPath>
    <clipPath
       id="clipPath4158">
      <use
         xlink:href="#SVGID_1_"
         overflow="visible"
         id="use4160"
         style="overflow:visible"
         x="0"
         y="0"
         width="115.333"
         height="16.833" />
    </clipPath>
    <clipPath
       id="clipPath4162">
      <use
         xlink:href="#SVGID_1_"
         overflow="visible"
         id="use4164"
         style="overflow:visible"
         x="0"
         y="0"
         width="115.333"
         height="16.833" />
    </clipPath>
    <clipPath
       id="clipPath4166">
      <use
         xlink:href="#SVGID_1_"
         overflow="visible"
         id="use4168"
         style="overflow:visible"
         x="0"
         y="0"
         width="115.333"
         height="16.833" />
    </clipPath>
    <clipPath
       id="clipPath4170">
      <use
         xlink:href="#SVGID_1_"
         overflow="visible"
         id="use4172"
         style="overflow:visible"
         x="0"
         y="0"
         width="115.333"
         height="16.833" />
    </clipPath>
    <clipPath
       id="clipPath4174">
      <use
         xlink:href="#SVGID_1_"
         overflow="visible"
         id="use4176"
         style="overflow:visible"
         x="0"
         y="0"
         width="115.333"
         height="16.833" />
    </clipPath>
    <clipPath
       id="clipPath4178">
      <use
         xlink:href="#SVGID_1_"
         overflow="visible"
         id="use4180"
         style="overflow:visible"
         x="0"
         y="0"
         width="115.333"
         height="16.833" />
    </clipPath>
    <clipPath
       id="clipPath4182">
      <use
         xlink:href="#SVGID_1_"
         overflow="visible"
         id="use4184"
         style="overflow:visible"
         x="0"
         y="0"
         width="115.333"
         height="16.833" />
    </clipPath>
    <clipPath
       id="clipPath4186">
      <use
         xlink:href="#SVGID_1_"
         overflow="visible"
         id="use4188"
         style="overflow:visible"
         x="0"
         y="0"
         width="115.333"
         height="16.833" />
    </clipPath>
    <clipPath
       id="clipPath4190">
      <use
         xlink:href="#SVGID_1_"
         overflow="visible"
         id="use4192"
         style="overflow:visible"
         x="0"
         y="0"
         width="115.333"
         height="16.833" />
    </clipPath>
    <defs
       id="defs5">
      <rect
         height="15.078"
         width="112.518"
         y="1.035"
         x="1.3940001"
         id="SVGID_1_" />
    </defs>
    <clipPath
       id="clipPath4197">
      <use
         height="16.833"
         width="115.333"
         y="0"
         x="0"
         style="overflow:visible"
         id="use4199"
         overflow="visible"
         xlink:href="#SVGID_1_" />
    </clipPath>
  </defs>
  <sodipodi:namedview
     id="base"
     pagecolor="#ffffff"
     bordercolor="#666666"
     borderopacity="1.0"
     inkscape:pageopacity="0.0"
     inkscape:pageshadow="2"
     inkscape:zoom="0.98994949"
     inkscape:cx="333.41663"
     inkscape:cy="195.7943"
     inkscape:document-units="px"
     inkscape:current-layer="layer1"
     showgrid="false"
     fit-margin-top="15"
     fit-margin-left="15"
     fit-margin-right="15"
     fit-margin-bottom="15"
     borderlayer="true"
     inkscape:window-width="1436"
     inkscape:window-height="855"
     inkscape:window-x="4"
     inkscape:window-y="1"
     inkscape:window-maximized="1" />
  <metadata
     id="metadata7">
    <rdf:RDF>
      <cc:Work
         rdf:about="">
        <dc:format>image/svg+xml</dc:format>
        <dc:type
           rdf:resource="http://purl.org/dc/dcmitype/StillImage" />
        <dc:title />
      </cc:Work>
    </rdf:RDF>
  </metadata>
  <g
     inkscape:label="Layer 1"
     inkscape:groupmode="layer"
     id="layer1"
     transform="translate(27.367397,-209.46242)"
     sodipodi:insensitive="true">
    <g
       id="g4243">
      <path
         sodipodi:nodetypes="ccscccc"
         inkscape:connector-curvature="0"
         id="path4240"
         d="m 445.88764,404.85442 c -75.00052,8.16806 -148.93384,26.83907 -220.59,82.49695 0,0 -0.45606,0.25867 -0.49886,0.58061 -0.3939,2.96277 2.65203,5.84721 4.66551,8.18022 2.03241,2.11759 5.36838,2.98239 11.96428,0.71429 59.78551,-39.89327 128.36342,-63.02248 204.33894,-70.53572 z"
         style="fill:#005f63;fill-opacity:1;fill-rule:evenodd;stroke:#005f63;stroke-width:1px;stroke-linecap:butt;stroke-linejoin:miter;stroke-opacity:1" />
      <path
         sodipodi:nodetypes="ccscccc"
         inkscape:connector-curvature="0"
         id="path4240-4"
         d="m 445.81106,372.67345 c -76.37373,7.63767 -151.96888,25.09629 -224.93701,77.14007 0,0 -0.34071,0.28886 -0.50799,0.5429 -0.80291,1.21932 -0.17596,3.3872 1.22414,4.97048 2.06962,1.98008 7.54509,2.1963 9.97363,0.79418 59.6953,-42.43714 136.62259,-66.98503 214.07051,-73.65795 z"
         style="fill:#65666b;fill-opacity:1;fill-rule:evenodd;stroke:#65666b;stroke-width:1px;stroke-linecap:butt;stroke-linejoin:miter;stroke-opacity:1" />
      <path
         sodipodi:nodetypes="cccccc"
         inkscape:connector-curvature="0"
         id="path4259"
         d="m 445.69824,287.92926 0,77.15041 c -132.41786,10.84875 -198.8789,56.64854 -225.35872,77.78174 20.60962,-56.40533 45.24653,-101.937 75.37477,-132.64206 12.51867,-11.80169 29.68821,-16.52644 51.78571,-18.92858 30.55704,-2.36377 64.39017,-2.85548 98.19824,-3.36151 z"
         style="fill:#242021;fill-opacity:1;fill-rule:evenodd;stroke:#242021;stroke-width:1px;stroke-linecap:butt;stroke-linejoin:miter;stroke-opacity:1" />
      <path
         transform="matrix(5.3612457,0,0,5.4628177,18.308633,578.65721)"
         inkscape:connector-curvature="0"
         clip-path="url(#SVGID_2_)"
         d="M 7.993,10.076 3.824,4.828 C 3.592,4.516 3.378,4.185 3.223,3.796 3.26,4.205 3.282,4.536 3.282,4.866 l 0,6.204 -1.888,0 0,-10.034 1.888,0 4.725,6.067 4.628,-6.067 1.867,0 0,10.034 -2.158,0 0,-6.204 c 0,-0.194 0.02,-0.545 0.078,-1.07 -0.215,0.448 -0.409,0.818 -0.583,1.051"
         id="path11"
         style="fill:#015f62;fill-opacity:1" />
      <polyline
         transform="matrix(5.3612457,0,0,5.4628177,18.308633,578.65721)"
         clip-path="url(#SVGID_2_)"
         points="16.894,1.036 27.161,1.036 27.161,2.747 19.227,2.747 19.227,4.982 23.855,4.982    23.855,6.694 19.227,6.694 19.227,9.184 27.259,9.184 27.259,11.069 16.894,11.069  "
         id="polyline13"
         style="fill:#015f62;fill-opacity:1" />
      <polyline
         transform="matrix(5.3612457,0,0,5.4628177,18.308633,578.65721)"
         clip-path="url(#SVGID_2_)"
         points="35.659,11.07 33.326,11.07 33.326,2.825 28.716,2.825 28.716,1.036 40.287,1.036    40.287,2.825 35.659,2.825  "
         id="polyline15"
         style="fill:#015f62;fill-opacity:1" />
      <path
         transform="matrix(5.3612457,0,0,5.4628177,18.308633,578.65721)"
         inkscape:connector-curvature="0"
         clip-path="url(#SVGID_2_)"
         d="m 48.668,7.278 1.323,0 c 1.537,0 2.254,-0.546 2.254,-1.945 l 0,-2.353 c 0,-1.402 -0.717,-1.945 -2.254,-1.945 l -8.595,0 0,10.035 2.294,0 0,-8.304 5.25,0 c 0.721,0 1.051,0.136 1.051,0.797 l 0,1.206 c 0,0.661 -0.33,0.796 -1.051,0.796 l -4.858,0 5.871,5.505 3.344,0"
         id="path17"
         style="fill:#015f62;fill-opacity:1" />
      <path
         transform="matrix(5.3612457,0,0,5.4628177,18.308633,578.65721)"
         inkscape:connector-curvature="0"
         clip-path="url(#SVGID_2_)"
         d="m 57.906,1.036 7.389,0 c 1.887,0 2.49,0.485 2.49,2.371 l 0,5.29 c 0,1.886 -0.604,2.373 -2.49,2.373 l -7.389,0 c -1.888,0 -2.489,-0.487 -2.489,-2.373 l 0,-5.29 c 0,-1.886 0.602,-2.371 2.489,-2.371 m 7.545,1.788 -7.701,0 0,6.359 7.701,0 0,-6.359 z"
         id="path19"
         style="fill:#015f62;fill-opacity:1" />
      <polyline
         transform="matrix(5.3612457,0,0,5.4628177,18.308633,578.65721)"
         clip-path="url(#SVGID_2_)"
         points="70.564,1.036 72.897,1.036 72.897,9.184 80.424,9.184 80.424,11.069 70.564,11.069     "
         id="polyline21"
         style="fill:#015f62;fill-opacity:1" />
      <rect
         transform="matrix(5.3612457,0,0,5.4628177,18.308633,578.65721)"
         x="82.486"
         y="1.036"
         clip-path="url(#SVGID_2_)"
         width="2.3340001"
         height="10.034"
         id="rect23"
         style="fill:#015f62;fill-opacity:1" />
      <path
         transform="matrix(5.3612457,0,0,5.4628177,18.308633,578.65721)"
         inkscape:connector-curvature="0"
         clip-path="url(#SVGID_2_)"
         d="m 87.407,1.036 1.594,0 7.058,5.912 c 0.409,0.331 0.798,0.68 1.148,1.088 C 97.148,7.2 97.109,6.617 97.109,6.306 l 0,-5.27 2.1,0 0,10.034 -1.593,0 -7.369,-6.203 C 89.953,4.614 89.682,4.361 89.409,4.05 c 0.078,0.778 0.097,1.303 0.097,1.594 l 0,5.426 -2.099,0"
         id="path25"
         style="fill:#015f62;fill-opacity:1" />
      <rect
         transform="matrix(5.3612457,0,0,5.4628177,18.308633,578.65721)"
         x="101.796"
         y="1.036"
         clip-path="url(#SVGID_2_)"
         width="2.3540001"
         height="10.034"
         id="rect27"
         style="fill:#015f62;fill-opacity:1" />
      <polyline
         transform="matrix(5.3612457,0,0,5.4628177,18.308633,578.65721)"
         clip-path="url(#SVGID_2_)"
         points="107.494,5.761 113.095,1.036 109.712,1.036 104.698,5.773 110.159,11.07    113.911,11.07  "
         id="polyline29"
         style="fill:#015f62;fill-opacity:1" />
      <rect
         ry="17.739374"
         rx="17.703197"
         y="266.61203"
         x="202.07108"
         height="247.66895"
         width="247.16388"
         id="rect4238"
         style="opacity:1;fill:none;fill-opacity:1;fill-rule:nonzero;stroke:#66656b;stroke-width:8;stroke-linecap:butt;stroke-linejoin:miter;stroke-miterlimit:4;stroke-dasharray:none;stroke-dashoffset:0;stroke-opacity:1" />
      <g
         id="g4238">
        <path
           inkscape:connector-curvature="0"
           id="path4265"
           d="m 645.37159,622.14126 c -4.68664,0 -8.49407,3.80743 -8.49407,8.49407 0,4.68663 3.80743,8.49406 8.49407,8.49406 4.68663,0 8.49406,-3.80743 8.49406,-8.49406 0,-4.68664 -3.80742,-8.49407 -8.49406,-8.49407 z m 0,0.78551 c 4.26212,0 7.70855,3.44644 7.70855,7.70856 0,4.26211 -3.44644,7.70856 -7.70855,7.70856 -4.26212,0 -7.70856,-3.44645 -7.70856,-7.70856 0,-4.26212 3.44644,-7.70856 7.70856,-7.70856 z"
           style="color:#000000;font-style:normal;font-variant:normal;font-weight:normal;font-stretch:normal;font-size:medium;line-height:normal;font-family:sans-serif;text-indent:0;text-align:start;text-decoration:none;text-decoration-line:none;text-decoration-style:solid;text-decoration-color:#000000;letter-spacing:normal;word-spacing:normal;text-transform:none;direction:ltr;block-progression:tb;writing-mode:lr-tb;baseline-shift:baseline;text-anchor:start;white-space:normal;clip-rule:nonzero;display:inline;overflow:visible;visibility:visible;opacity:1;isolation:auto;mix-blend-mode:normal;color-interpolation:sRGB;color-interpolation-filters:linearRGB;solid-color:#000000;solid-opacity:1;fill:#015f62;fill-opacity:1;fill-rule:nonzero;stroke:#015f62;stroke-width:1.50000012;stroke-linecap:butt;stroke-linejoin:miter;stroke-miterlimit:4;stroke-dasharray:none;stroke-dashoffset:0;stroke-opacity:1;color-rendering:auto;image-rendering:auto;shape-rendering:auto;text-rendering:auto;enable-background:accumulate" />
        <text
           xml:space="preserve"
           style="font-style:normal;font-weight:normal;font-size:12.42776108px;line-height:125%;font-family:sans-serif;letter-spacing:0px;word-spacing:0px;fill:#015f62;fill-opacity:1;stroke:none;stroke-width:1px;stroke-linecap:butt;stroke-linejoin:miter;stroke-opacity:1"
           x="689.54547"
           y="590.92224"
           id="text4234"
           sodipodi:linespacing="125%"
           transform="scale(0.93006594,1.0751926)"><tspan
             sodipodi:role="line"
             id="tspan4236"
             x="689.54547"
             y="590.92224"
             style="font-style:normal;font-variant:normal;font-weight:bold;font-stretch:normal;font-family:Arial;-inkscape-font-specification:'Arial Bold';fill:#015f62;fill-opacity:1">R</tspan></text>
      </g>
    </g>
  </g>
</svg>
