<?xml version="1.0" encoding="UTF-8" standalone="no"?>
<!-- Generator: Adobe Illustrator 23.0.6, SVG Export Plug-In . SVG Version: 6.00 Build 0)  -->

<svg
   version="1.1"
   id="Layer_1"
   x="0px"
   y="0px"
   viewBox="0 0 253.2 253.2"
   style="enable-background:new 0 0 253.2 253.2;"
   xml:space="preserve"
   sodipodi:docname="Montreal_Metro_nomask.svg"
   inkscape:version="1.2.2 (b0a8486541, 2022-12-01)"
   xmlns:inkscape="http://www.inkscape.org/namespaces/inkscape"
   xmlns:sodipodi="http://sodipodi.sourceforge.net/DTD/sodipodi-0.dtd"
   xmlns="http://www.w3.org/2000/svg"
   xmlns:svg="http://www.w3.org/2000/svg"><sodipodi:namedview
   id="namedview14"
   pagecolor="#ffffff"
   bordercolor="#666666"
   borderopacity="1.0"
   inkscape:showpageshadow="2"
   inkscape:pageopacity="0.0"
   inkscape:pagecheckerboard="0"
   inkscape:deskcolor="#d1d1d1"
   showgrid="false"
   inkscape:zoom="0.93206952"
   inkscape:cx="40.769491"
   inkscape:cy="126.6"
   inkscape:window-width="1600"
   inkscape:window-height="1171"
   inkscape:window-x="0"
   inkscape:window-y="0"
   inkscape:window-maximized="1"
   inkscape:current-layer="Layer_1" /><defs
   id="defs24">
	
	
</defs>

<path
   id="path13"
   mask="url(#b_1_)"
   style="enable-background:new 0 0 253.2 253.2;display:inline;fill:#009ee0;fill-opacity:1"
   class="st2"
   d="M 10.5 0 C 4.7000058 0 0 4.7000058 0 10.5 L 0 242.69922 C 0 248.49921 4.7000058 253.19922 10.5 253.19922 L 242.59961 253.19922 C 248.4996 253.19922 253.19961 248.4996 253.09961 242.59961 L 253.09961 10.5 C 253.09961 4.7000058 248.3996 0 242.59961 0 L 10.5 0 z M 126.69922 31.599609 C 179.09917 31.599609 221.59961 74.100052 221.59961 126.5 C 221.59961 178.89995 179.09917 221.40039 126.69922 221.40039 C 74.299271 221.40039 31.800781 178.89995 31.800781 126.5 C 31.800781 74.100052 74.299271 31.599609 126.69922 31.599609 z M 114 56.5 C 80.800033 62.499994 55.599609 91.500035 55.599609 126.5 C 55.599609 165.69996 87.399258 197.59961 126.69922 197.59961 C 165.99918 197.59961 197.90078 165.79957 197.80078 126.59961 C 197.80078 91.399645 172.29919 62.199994 138.69922 56.5 L 138.69922 141.5 L 174.19922 106 L 193.59961 125.40039 L 126.69922 192.30078 L 60.099609 125 L 78.900391 105.90039 L 114 141.69922 L 114 56.5 z " /></svg>
