<?xml version="1.0" encoding="utf-8"?>
<!-- Generator: Adobe Illustrator 23.0.6, SVG Export Plug-In . SVG Version: 6.00 Build 0)  -->
<svg version="1.1" id="Layer_1" xmlns="http://www.w3.org/2000/svg" xmlns:xlink="http://www.w3.org/1999/xlink" x="0px" y="0px"
	 viewBox="0 0 253.2 253.2" style="enable-background:new 0 0 253.2 253.2;" xml:space="preserve">
<style type="text/css">
	.st0{filter:url(#Adobe_OpacityMaskFilter);}
	.st1{fill-rule:evenodd;clip-rule:evenodd;fill:#FFFFFF;}
	.st2{mask:url(#b_1_);fill-rule:evenodd;clip-rule:evenodd;fill:#009EE0;}
	.st3{fill-rule:evenodd;clip-rule:evenodd;fill:#FFFFFE;}
</style>
<g>
	<g>
		<defs>
			<filter id="Adobe_OpacityMaskFilter" filterUnits="userSpaceOnUse" x="0" y="0" width="253.2" height="253.2">
				<feColorMatrix  type="matrix" values="1 0 0 0 0  0 1 0 0 0  0 0 1 0 0  0 0 0 1 0"/>
			</filter>
		</defs>
		<mask maskUnits="userSpaceOnUse" x="0" y="0" width="253.2" height="253.2" id="b_1_">
			<g class="st0">
				<path id="a_1_" class="st1" d="M0,0h253.2v253.2H0V0z"/>
			</g>
		</mask>
		<path class="st2" d="M242.6,253.2H10.5c-5.8,0-10.5-4.7-10.5-10.5V10.5C0,4.7,4.7,0,10.5,0h232.1c5.8,0,10.5,4.7,10.5,10.5v232.1
			C253.2,248.5,248.5,253.2,242.6,253.2"/>
	</g>
	<path class="st3" d="M126.7,197.6c-39.3,0-71.1-31.9-71.1-71.1c0-35,25.2-64,58.4-70v85.2l-35.1-35.8L60.1,125l66.6,67.3l66.9-66.9
		l-19.4-19.4l-35.5,35.5v-85c33.6,5.7,59.1,34.9,59.1,70.1C197.9,165.8,166,197.6,126.7,197.6 M126.7,31.6
		c-52.4,0-94.9,42.5-94.9,94.9s42.5,94.9,94.9,94.9c52.4,0,94.9-42.5,94.9-94.9S179.1,31.6,126.7,31.6"/>
</g>
</svg>
