<?xml version="1.0" encoding="UTF-8"?>
<svg style="enable-background:new 0 0 455 500" version="1.1" viewBox="0 0 455 500" xml:space="preserve" xmlns="http://www.w3.org/2000/svg">
<title>MTA logo</title>
<style type="text/css">
	.st0{fill:#0039A6;}
	.st1{fill:#FFFFFF;}
</style>
<path class="st0" d="m0.4 107c45.2-64.6 120-107 205-107 138 0 250 112 250 250s-112 250-250 250c-81.4 0-154-39-199-99.2"/>
<path class="st1" d="m34 396s0-87.4-0.8-97.3c0-9.5-4.7-64.2-3.7-73.4l2.6 0.1 32.8 165 45.9-8.1 26.7-153h3c1.4 9.4-2.4 53.8-2.4 63.3-0.8 9.9-0.8 85-0.8 85l46.5-8.1v-230l-72.6-12.6-20.4 141c-0.7 0-20.6-148-20.6-148l-70.2-12.2 5.7 294"/>
<polygon class="st1" points="329 321 352 318 355 340 381 335 356 169 325 164 293 350 326 345"/>
<polygon class="st1" points="196 200 231 204 231 361 274 354 274 207 302 210 302 160 196 141"/>
<polygon class="st0" points="339 226 334 281 347 280 342 226"/>
</svg>
