<?xml version="1.0" encoding="utf-8"?>
<!DOCTYPE svg PUBLIC "-//W3C//DTD SVG 1.1//EN" "http://www.w3.org/Graphics/SVG/1.1/DTD/svg11.dtd">
<svg xmlns="http://www.w3.org/2000/svg" width="469" height="469" viewBox="76 167 67 67">
<g fill="#ee2621">
	<path d="M 109.42,167.131 c 18.27,0,33.07,14.819,33.07,33.08 c 0,18.27 -14.8,33.08 -33.07,33.08 s -33.08 -14.811 -33.08 -33.08 C 76.34,181.95,91.15,167.131,109.42,167.131 z
		M 127.03,213.08 v -15.47 v -12.979 c 0 -2.301 -2.66 -3.38 -2.66 -3.38s -3.88 -1.21 -7.19 -1.29 l -5.74 -0.15 l 1.86 -4.02 h 2.31 c 0.28,0,0.42,0.289,0.42,0.289 l 0.51,0.94 h 1.43 c 0,0 -0.37 -1.08 -0.66 -1.59 c -0.29 -0.5 -0.85 -0.93 -0.85 -0.93 l -1.09 -0.07 h -5.09 h -0.72 h -5.11 l -1.08,0.07 c 0,0 -0.57,0.43 -0.85,0.93 c -0.29,0.51 -0.66,1.59 -0.66,1.59 h 1.44 l 0.51 -0.94 c 0,0,0.13 -0.289,0.43 -0.289 h 2.3 l 2.05,4.02 h -0.18 l -4.67,0.15 c -3.95 -0.07 -8.11,1.22 -8.11,1.22 l -0.15,0.07 c 0,0 -2.66,1.079 -2.66,3.38 v 12.979 v 15.47 c 0,0,0.65,3.021,3.24,3.021 h 4.53 v 1.79 h -2.08 l -0.8,1.939 h 1.94 l -1.07,2.37 h -1.94 l -0.94,1.94 h 2.09 l -1.15,2.3 h 2.37 l 1.07 -2.3 h 7.55 h 4.6 h 7.54 l 1.07,2.3 h 2.38 l -1.15 -2.3 h 2.08 l -0.93 -1.94 h -1.95 l -1.08 -2.37 h 1.95 l -0.79 -1.939 h -2.08 v -1.79 h 4.53 C 126.38,216.101,127.03,213.08,127.03,213.08 z"/>
	<g fill="white">
		<path d="M 127.03,197.611 v 15.47 c 0,0 -0.65,3.021 -3.23,3.021 h -4.53 v 1.79 h 2.08 l 0.79,1.939 h -1.95 l 1.08,2.37 h 1.95 l 0.93,1.94 h -2.08 l 1.15,2.3 h -2.38 l -1.07 -2.3 h -7.54 h -4.6 h -7.55 l -1.07,2.3 h -2.37 l 1.15 -2.3 H 95.7 l 0.94 -1.94 h 1.94 l 1.07 -2.37 h -1.94 l 0.8 -1.939 h 2.08 v -1.79 h -4.53 c -2.59,0 -3.24 -3.021 -3.24 -3.021 v -15.47 h 1.73 c 0,1.141,0.92,2.07,2.07,2.07 h 26.65 c 1.13,0,2.07 -0.93,2.07 -2.07 H 127.03 z
			M 125.37,208.181 c 0 -1.36 -1.09 -2.46 -2.45 -2.46 c -1.37,0 -2.46,1.109 -2.46,2.46 c 0,1.36,1.09,2.46,2.46,2.46 C 124.28,210.641,125.37,209.541,125.37,208.181 z
			M 118.95,222.101 l -1.08 -2.37 h -5.67 h -4.47 h -5.67 l -1.08,2.37 h 6.46 h 5.04 H 118.95 z
			M 117.08,217.811 v -1.79 h -14.23 v 1.79 H 117.08 z
			M 99.48,208.181 c 0 -1.351 -1.1 -2.46 -2.47 -2.46 c -1.36,0 -2.46,1.1 -2.46,2.46s1.1,2.46,2.46,2.46 C 98.38,210.641,99.48,209.541,99.48,208.181 z"/>
		<path d="M 127.03,184.631 v 12.979 h -1.69 v -8.28 c 0 -1.14 -0.94 -2.06 -2.07 -2.06 H 96.62 c -1.14,0 -2.07,0.92 -2.07,2.06 v 8.28 h -1.73 v -12.979 c 0 -2.301,2.66 -3.38,2.66 -3.38 l 0.15 -0.07 c 0,0,4.16 -1.29,8.11 -1.22 l 4.67 -0.15 h 0.18 l -2.05 -4.02 h -2.3 c -0.3,0 -0.43,0.289 -0.43,0.289 l -0.51,0.94 h -1.44 c 0,0,0.37 -1.08,0.66 -1.59 c 0.28 -0.5,0.85 -0.93,0.85 -0.93 l 1.08 -0.07 h 5.11 h 0.72 h 5.09 l 1.09,0.07 c 0,0,0.56,0.43,0.85,0.93 c 0.29,0.51,0.66,1.59,0.66,1.59 h -1.43 l -0.51 -0.94 c 0,0 -0.14 -0.289 -0.42 -0.289 h -2.31 l -1.86,4.02 l 5.74,0.15 c 3.31,0.08,7.19,1.29,7.19,1.29S127.03,182.33,127.03,184.631 z
			M 118.15,183.62 c 0 -1.04 -0.85 -1.899 -1.9 -1.899 h -12.86 c -1.05,0 -1.91,0.859 -1.91,1.899 c 0,1.051,0.86,1.9,1.91,1.9 h 12.86 C 117.3,185.521,118.15,184.671,118.15,183.62 z
			M 110.11,179.491 l 1.73 -3.81 h -1.51 h -0.72 h -1.51 l 1.71,3.81 H 110.11 z"/>
	</g>
	<path fill="#ee2621" d="M 125.34,189.33 v 8.28 c 0,1.141 -0.94,2.07 -2.07,2.07 H 96.62 c -1.15,0 -2.07 -0.93 -2.07 -2.07 v -8.28 c 0 -1.14,0.93 -2.06,2.07 -2.06 h 26.65 C 124.4,187.271,125.34,188.191,125.34,189.33 z"/>
	<path d="M 122.92,205.721 c 1.36,0,2.45,1.1,2.45,2.46s -1.09,2.46 -2.45,2.46 c -1.37,0 -2.46 -1.1 -2.46 -2.46 C 120.46,206.83,121.55,205.721,122.92,205.721 z"/>
	<polygon points="117.87,219.731 118.95,222.101 112.48,222.101 107.44,222.101 100.98,222.101 102.06,219.731 107.73,219.731 112.2,219.731 "/>
	<path d="M 116.25,181.721 c 1.05,0,1.9,0.859,1.9,1.899 c 0,1.051 -0.85,1.9 -1.9,1.9 h -12.86 c -1.05,0 -1.91 -0.85 -1.91 -1.9 c 0 -1.04,0.86 -1.899,1.91 -1.899 H 116.25 z"/>
	<rect x="102.85" y="216.021" width="14.23" height="1.79"/>
	<polygon points="111.84,175.681 110.11,179.491 109.81,179.491 108.1,175.681 109.61,175.681 110.33,175.681"/>
	<path d="M 97.01,205.721 c 1.37,0,2.47,1.109,2.47,2.46 c 0,1.36 -1.1,2.46 -2.47,2.46 c -1.36,0 -2.46 -1.1 -2.46 -2.46 S95.65,205.721,97.01,205.721 z"/>
</g>
</svg> 