<?xml version="1.0" encoding="UTF-8" standalone="no"?>
<!-- Created using Karbon, part of Calligra: http://www.calligra.org/karbon -->

<svg
   width="45.727825pt"
   height="16.078802pt"
   version="1.1"
   id="svg14"
   sodipodi:docname="NMRX_logo.svg"
   inkscape:version="1.1.2 (0a00cf5339, 2022-02-04)"
   xmlns:inkscape="http://www.inkscape.org/namespaces/inkscape"
   xmlns:sodipodi="http://sodipodi.sourceforge.net/DTD/sodipodi-0.dtd"
   xmlns="http://www.w3.org/2000/svg"
   xmlns:svg="http://www.w3.org/2000/svg">
  <sodipodi:namedview
     id="namedview16"
     pagecolor="#ffffff"
     bordercolor="#666666"
     borderopacity="1.0"
     inkscape:pageshadow="2"
     inkscape:pageopacity="0.0"
     inkscape:pagecheckerboard="0"
     inkscape:document-units="pt"
     showgrid="false"
     inkscape:zoom="10.248358"
     inkscape:cx="28.882677"
     inkscape:cy="22.784138"
     inkscape:window-width="1462"
     inkscape:window-height="970"
     inkscape:window-x="5"
     inkscape:window-y="5"
     inkscape:window-maximized="0"
     inkscape:current-layer="svg14" />
  <defs
     id="defs2" />
  <g
     id="layer0"
     transform="translate(-33.533837,-32.677382)">
    <path
       id="shape0"
       transform="translate(33.7858,32.9295)"
       fill="#ffffff"
       d="M 60.4258,15.6308 C 59.6438,12.0732 45.5717,8.88686 43.4156,8.10275 42.5443,7.7851 39.2009,3.9754 36.5351,2.37429 32.7435,0.0932265 27.7081,-0.296876 26.7592,0.178593 28.8865,0.724538 30.3798,1.55239 31.5135,2.4269 26.6976,0.533953 21.1226,0.35131 19.9969,1.02233 22.3387,1.38464 24.3527,2.12414 25.079,2.51921 21.7287,2.19363 17.35,3.35103 16.9992,3.89797 19.0927,3.94959 21.8797,4.38138 22.446,4.53921 20.8812,4.5134 18.5701,5.45938 18.2501,5.99639 20.2393,6.01425 22.7719,6.20583 23.4694,6.56814 22.2493,7.76525 15.3697,10.5039 0,14.3205 c 0.813745,0.5271 1.60166,0.9202 2.40845,1.1981 H 2.40646 c 3.51132,1.7381 13.23654,-0.402 6.56659,2.5114 0.40837,0.2729 1.34035,0.6898 2.70255,0.8963 3.4845,0.9897 11.311,-0.9936 6.4176,1.5564 1.5341,0.4715 5.3285,1.2398 10.1902,-1.6934 2.7075,-1.6329 5.5084,-4.2723 9.7102,-6.9732 6.7226,0.2809 21.4316,1.8374 22.4729,4.0519 z" />
    <path
       id="shape1"
       transform="translate(33.7858,32.9295)"
       fill="none"
       stroke="#ffffff"
       stroke-width="0.504"
       stroke-linecap="round"
       stroke-linejoin="round"
       d="M 60.4258,15.6308 C 59.6438,12.0732 45.5717,8.88686 43.4156,8.10275 42.5443,7.7851 39.2009,3.9754 36.5351,2.37429 32.7435,0.0932265 27.7081,-0.296876 26.7592,0.178593 28.8865,0.724538 30.3798,1.55239 31.5135,2.4269 26.6976,0.533953 21.1226,0.35131 19.9969,1.02233 22.3387,1.38464 24.3527,2.12414 25.079,2.51921 21.7287,2.19363 17.35,3.35103 16.9992,3.89797 19.0927,3.94959 21.8797,4.38138 22.446,4.53921 20.8812,4.5134 18.5701,5.45938 18.2501,5.99639 20.2393,6.01425 22.7719,6.20583 23.4694,6.56814 22.2493,7.76525 15.3697,10.5039 0,14.3205 c 0.813745,0.5271 1.60166,0.9202 2.40845,1.1981 H 2.40646 c 3.51132,1.7381 13.23654,-0.402 6.56659,2.5114 0.40837,0.2729 1.34035,0.6898 2.70255,0.8963 3.4845,0.9897 11.311,-0.9936 6.4176,1.5564 1.5341,0.4715 5.3285,1.2398 10.1902,-1.6934 2.7075,-1.6329 5.5084,-4.2723 9.7102,-6.9732 6.7226,0.2809 21.4316,1.8374 22.4729,4.0519 z" />
    <path
       id="shape2"
       transform="translate(33.7859,32.9297)"
       fill="#a3221c"
       d="M 0,14.3209 C 15.3695,10.5043 22.249,7.76471 23.4691,6.56862 22.7706,6.20532 20.239,6.01474 18.2489,5.99687 18.5698,5.45887 20.8808,4.51292 22.4457,4.53972 21.8803,4.3809 19.0924,3.94911 16.9989,3.89849 17.3497,3.35156 21.7283,2.19318 25.0786,2.51975 24.3523,2.1237 22.3384,1.3842 19.9965,1.0219 21.1222,0.351884 26.6981,0.534524 31.514,2.42644 30.3793,1.55294 28.886,0.724113 26.7588,0.178177 c 0.9488,-0.474469 5.9832,-0.0853651 9.7757,2.195663 2.6657,1.60108 6.0091,5.41172 6.8804,5.72935 2.1561,0.78416 16.228,3.96941 17.0099,7.52801 l 0.0397,0.2362 c -1.0402,-2.2135 -15.749,-3.7699 -22.4715,-4.0518 -4.2018,2.7009 -7.0026,5.3412 -9.7101,6.974 -4.8615,2.9322 -8.657,2.1639 -10.19,1.6925 4.9082,-1.2468 12.4553,-7.3414 18.5409,-8.6953 -6.5178,0.4298 -16.4634,5.4037 -18.998,6.2981 -2.5803,0.9102 -3.6056,1.0899 -5.9028,0.8467 C 10.3718,18.7241 9.38126,18.3033 8.97191,18.0293 19.1709,15.0832 26.2679,10.6403 37.7754,10.7515 29.1205,9.86904 22.3612,11.8384 13.3774,14.1869 7.74088,15.6619 4.83569,16.2853 2.40741,15.519 h 10e-4 C 1.60262,15.2411 0.812738,14.848 0,14.3209" />
    <path
       id="shape3"
       transform="translate(36.2077,43.3386)"
       fill="#f9ae00"
       d="M 11.231,3.70194 C 20.4277,1.32029 27.3472,-0.676832 36.2083,0.218049 24.428,0.105308 17.1628,4.61092 6.72211,7.59956 13.55,4.64514 3.59448,6.81541 0,5.05182 2.48684,5.83094 5.46089,5.19778 11.231,3.70194" />
    <path
       id="shape4"
       transform="translate(45.5935,44.6398)"
       fill="#f9ae00"
       d="M 0,7.2044 C 2.31883,7.45166 3.35343,7.26947 5.95697,6.35153 8.5144,5.4486 18.5506,0.433445 25.1262,0 18.9867,1.3644 11.3716,7.51172 6.41813,8.76801 11.3555,6.19737 3.48476,8.22845 0,7.2044" />
    <path
       id="shape5"
       transform="translate(73.3785,41.3417)"
       fill="#f9ae00"
       d="M 4.53586,0 4.60858,0.0127642 C 14.3239,2.255 20.1518,5.03759 21.0903,7.07134 19.7374,4.17388 3.4918,2.33797 0,2.0529 1.30308,1.04453 3.71297,0.0244646 4.53586,0.00106368 Z" />
    <path
       id="shape6"
       transform="translate(64.3043,39.198)"
       fill="#ffffff"
       d="M 9.88434,1.76871 C 8.53222,2.16367 6.68301,2.27121 4.72245,1.99493 2.76089,1.71957 1.08467,1.11601 0,0.378018 1.35509,-0.0141564 3.20232,-0.121703 5.16387,0.152726 7.12344,0.429938 8.80265,1.03257 9.88434,1.76871" />
    <path
       id="shape7"
       transform="translate(67.6803,38.6623)"
       fill="#242928"
       d="M 0.00269426,1.51652 C 0.0510552,2.30849 0.737781,2.91291 1.53881,2.86897 2.33633,2.82611 2.94656,2.14774 2.89644,1.35684 2.84983,0.565942 2.16047,-0.0416982 1.36208,0.00224052 0.562802,0.0483226 -0.0456667,0.725622 0.00269426,1.51652" />
    <path
       id="shape8"
       transform="translate(69.0128,39.9401)"
       fill="#ffffff"
       d="m 3.70652e-4,0.298285 c 0.010999948,0.157 0.181000348,0.28 0.381000348,0.273 0.202,-0.007 0.357,-0.14 0.349,-0.298 -0.011,-0.157 -0.183,-0.28000041 -0.382,-0.273000406 C 0.147371,0.00728459 -0.00862935,0.142285 3.70652e-4,0.298285" />
  </g>
</svg>
