<svg xmlns="http://www.w3.org/2000/svg" width="228.645" height="75.185" viewBox="0 0 228.645 75.185"><defs><style>.a{fill:#000;}.b{fill:#ffb519;}.c{fill:#026937;}.d{fill:#891898;}</style></defs><g transform="translate(-96.385 -49.104)"><g transform="translate(96.385 64.038)"><path class="a" d="M105.655,61.8h22.659c8.24,0,14.419,2.06,14.419,11.329a12.235,12.235,0,0,1-10.3,12.36h0c4.12,1.029,4.634,5.149,4.634,9.269s-.514,8.755.515,11.33H124.193c-.515-1.03-.515-2.575-.515-4.635s.515-4.634.515-7.21c0-2.059-1.544-4.119-5.664-4.119h-5.664l-3.09,15.449H96.385Zm9.27,19.569h7.21c4.634,0,6.695-2.06,6.695-5.149,0-1.545-1.03-4.119-4.635-4.119h-7.21Z" transform="translate(-96.385 -61.804)"/><path class="a" d="M151.661,73.133H139.3L141.877,61.8h38.107l-2.575,11.329H165.05l-6.695,32.959H144.966Z" transform="translate(-88.835 -61.804)"/><path class="a" d="M190.888,61.8h13.389l6.695,44.288H197.583l-.515-6.181H182.648l-3.605,6.181h-13.9Zm-3.605,28.838h8.24l-1.545-13.389h0Z" transform="translate(-84.29 -61.804)"/></g><path class="b" d="M292.831,86.7,259.873,49.1H233.095L265.022,86.7,232.58,124.289h27.808Z" transform="translate(23.96)"/><path class="c" d="M296.139,84.385,276.571,62.242H260.607l19.569,22.143-19.569,22.143h16.479Z" transform="translate(28.89 2.311)"/><path class="d" d="M275.7,85.464,250.47,56.111H221.632L247.38,85.464l-25.233,29.353H250.47Z" transform="translate(22.034 1.233)"/></g></svg>