<?xml version="1.0" encoding="utf-8"?>
<!-- Generator: Adobe Illustrator 13.0.1,SVG Export Plug-In -->
<!DOCTYPE svg PUBLIC "-//W3C//DTD SVG 1.1//EN" "http://www.w3.org/Graphics/SVG/1.1/DTD/svg11.dtd">
<svg version="1.1" xmlns="http://www.w3.org/2000/svg" xmlns:xlink="http://www.w3.org/1999/xlink" width="500" height="500" viewBox="0 0 104 75">
<g stroke="#fff" stroke-width="1" fill="#0095D3">
 <path d="M 75.297,0.792 c 0,0 -0.994,4.245 -1.209,5.174 c -1.151,0 -50.824,0 -50.824,0  c -13.046,0 -15.146,9.957 -15.167,10.056 c 0.007,-0.029 -6.489,26.344 -6.489,26.344 l -0.292,1.187 L 32.517,35.9 l 0.094,-0.456  c 0.039 -0.179,3.719 -17.75,4.817 -21.155 c 0.621 -1.926,2.194 -2.02,3.75 -1.952 l 0.441,0.014 c 0,0,29.191,0,30.953,0  c -0.307,1.308 -1.475,6.282 -1.475,6.282 l 33.195,-9.055 L 75.479,0 L 75.297,0.792"/>
 <path d="M101.033,12.585 l -30.545,8.741 l -0.099,0.427 c -0.039,0.171 -4.016,17.456 -4.72,20.882  c -0.394,1.916 -1.588,2.02 -3.369,1.964 l -0.82,-0.007 c -0.57,0.02 -20.154,0.007 -31.235,0 c 0.333 -1.322,1.581 -6.279,1.581 -6.279 L 0,46.195  l 22.956,28.716 c 0,0,5.386 -22.943,5.64 -24.029 c 1.149,0,51.258,0,51.258,0 c 13.645,0,15.412 -9.248,15.537 -10.054  c 0.012 -0.053,6.861 -28.595,6.861 -28.595 L 101.033,12.585"/>
</g>
</svg>
