<?xml version="1.0" encoding="utf-8"?>
<!-- Generator: Adobe Illustrator 13.0.1, SVG Export Plug-In  -->
<!DOCTYPE svg PUBLIC "-//W3C//DTD SVG 1.1//EN" "http://www.w3.org/Graphics/SVG/1.1/DTD/svg11.dtd" [
	<!ENTITY ns_flows "http://ns.adobe.com/Flows/1.0/">
]>
<svg version="1.1"
	 xmlns="http://www.w3.org/2000/svg" xmlns:xlink="http://www.w3.org/1999/xlink" xmlns:a="http://ns.adobe.com/AdobeSVGViewerExtensions/3.0/"
	 x="0px" y="0px" width="200px" height="103px" viewBox="0 0 200 103" enable-background="new 0 0 200 103" xml:space="preserve">
<defs>
</defs>
<path fill="#0095D3" d="M64.013,88.406c4.438-0.118,5.136-0.479,6.043-4.363c0.724-3.084,0.275-4.047-4.079-4.047h-7.643
	l-1.967,8.41H64.013 M41.779,103.062l7.018-30.031h21.044c10.377,0,13.546,3.162,11.714,11.012
	c-1.974,8.447-5.271,11.331-16.937,11.331h-9.878l-1.795,7.688H41.779z"/>
<path fill="#0095D3" d="M104.494,79.038h-0.113l-8.121,13.013h10.385L104.494,79.038 M92.497,97.896l-3.272,5.167H77.612
	l19.577-30.031h16.968l5.708,30.031H108.48l-0.968-5.167H92.497z"/>
<polyline fill="#0095D3" points="141.19,103.062 130.026,103.062 135.415,79.996 124.698,79.996 126.324,73.031 159.479,73.031 
	157.847,79.996 146.577,79.996 141.19,103.062 "/>
<polyline fill="#0095D3" points="192.984,103.062 181.82,103.062 184.569,91.288 170,91.288 167.254,103.062 156.087,103.062 
	163.103,73.031 174.27,73.031 171.627,84.321 186.198,84.321 188.836,73.031 200,73.031 192.984,103.062 "/>
<path fill="#0095D3" d="M75.297,0.792c0,0-0.994,4.245-1.209,5.174c-1.151,0-50.824,0-50.824,0
	c-13.046,0-15.146,9.957-15.167,10.056c0.007-0.029-6.489,26.344-6.489,26.344l-0.292,1.187L32.517,35.9l0.094-0.456
	c0.039-0.179,3.719-17.75,4.817-21.155c0.621-1.926,2.194-2.02,3.75-1.952l0.441,0.014c0,0,29.191,0,30.953,0
	c-0.307,1.308-1.475,6.282-1.475,6.282l33.195-9.055L75.479,0L75.297,0.792"/>
<path fill="#0095D3" d="M101.033,12.585l-30.545,8.741l-0.099,0.427c-0.039,0.171-4.016,17.456-4.72,20.882
	c-0.394,1.916-1.588,2.02-3.369,1.964l-0.82-0.007c-0.57,0.02-20.154,0.007-31.235,0c0.333-1.322,1.581-6.279,1.581-6.279L0,46.195
	l22.956,28.716c0,0,5.386-22.943,5.64-24.029c1.149,0,51.258,0,51.258,0c13.645,0,15.412-9.248,15.537-10.054
	c0.012-0.053,6.861-28.595,6.861-28.595L101.033,12.585"/>
</svg>
