<?xml version="1.0" encoding="UTF-8" standalone="no"?>
<!-- Generator: Adobe Illustrator 13.0.1, SVG Export Plug-In  -->

<svg
   version="1.1"
   x="0px"
   y="0px"
   width="104.292"
   height="74.911003"
   viewBox="0 0 104.292 74.911003"
   enable-background="new 0 0 200 103"
   xml:space="preserve"
   id="svg16"
   xmlns="http://www.w3.org/2000/svg"
   xmlns:svg="http://www.w3.org/2000/svg">
<defs
   id="defs2">
</defs>




<path
   fill="#0095d3"
   d="m 75.297,0.792 c 0,0 -0.994,4.245 -1.209,5.174 -1.151,0 -50.824,0 -50.824,0 C 10.218,5.966 8.118,15.923 8.097,16.022 8.104,15.993 1.608,42.366 1.608,42.366 L 1.316,43.553 32.517,35.9 32.611,35.444 c 0.039,-0.179 3.719,-17.75 4.817,-21.155 0.621,-1.926 2.194,-2.02 3.75,-1.952 l 0.441,0.014 c 0,0 29.191,0 30.953,0 -0.307,1.308 -1.475,6.282 -1.475,6.282 L 104.292,9.578 75.479,0 75.297,0.792"
   id="path12" />
<path
   fill="#0095d3"
   d="m 101.033,12.585 -30.545,8.741 -0.099,0.427 c -0.039,0.171 -4.016,17.456 -4.72,20.882 -0.394,1.916 -1.588,2.02 -3.369,1.964 l -0.82,-0.007 c -0.57,0.02 -20.154,0.007 -31.235,0 0.333,-1.322 1.581,-6.279 1.581,-6.279 L 0,46.195 22.956,74.911 c 0,0 5.386,-22.943 5.64,-24.029 1.149,0 51.258,0 51.258,0 13.645,0 15.412,-9.248 15.537,-10.054 0.012,-0.053 6.861,-28.595 6.861,-28.595 l -1.219,0.352"
   id="path14" />
</svg>
