<?xml version="1.0" encoding="UTF-8" standalone="no"?>
<!-- Created with Inkscape (http://www.inkscape.org/) -->

<svg
   xmlns:dc="http://purl.org/dc/elements/1.1/"
   xmlns:cc="http://creativecommons.org/ns#"
   xmlns:rdf="http://www.w3.org/1999/02/22-rdf-syntax-ns#"
   xmlns:svg="http://www.w3.org/2000/svg"
   xmlns="http://www.w3.org/2000/svg"
   xmlns:sodipodi="http://sodipodi.sourceforge.net/DTD/sodipodi-0.dtd"
   xmlns:inkscape="http://www.inkscape.org/namespaces/inkscape"
   width="80.608749"
   height="83.758751"
   id="svg29911"
   version="1.1"
   inkscape:version="0.48.5 r10040"
   sodipodi:docname="New document 3">
  <defs
     id="defs29913" />
  <sodipodi:namedview
     id="base"
     pagecolor="#ffffff"
     bordercolor="#666666"
     borderopacity="1.0"
     inkscape:pageopacity="0.0"
     inkscape:pageshadow="2"
     inkscape:zoom="2.4748737"
     inkscape:cx="44.849799"
     inkscape:cy="47.022654"
     inkscape:current-layer="layer1"
     showgrid="true"
     inkscape:grid-bbox="true"
     inkscape:document-units="px"
     fit-margin-top="0"
     fit-margin-left="0"
     fit-margin-right="0"
     fit-margin-bottom="0"
     inkscape:window-width="463"
     inkscape:window-height="405"
     inkscape:window-x="104"
     inkscape:window-y="104"
     inkscape:window-maximized="0" />
  <metadata
     id="metadata29916">
    <rdf:RDF>
      <cc:Work
         rdf:about="">
        <dc:format>image/svg+xml</dc:format>
        <dc:type
           rdf:resource="http://purl.org/dc/dcmitype/StillImage" />
        <dc:title></dc:title>
      </cc:Work>
    </rdf:RDF>
  </metadata>
  <g
     id="layer1"
     inkscape:label="Layer 1"
     inkscape:groupmode="layer"
     transform="translate(17.878989,17.516945)">
    <g
       transform="matrix(1.25,0,0,-1.25,62.729761,12.464305)"
       id="g24066">
      <path
         inkscape:connector-curvature="0"
         id="path24068"
         style="fill:#343392;fill-opacity:1;fill-rule:nonzero;stroke:none"
         d="m 0,0 -4.592,0 c -0.219,0.633 -0.46,1.252 -0.724,1.875 -1.472,3.48 -3.579,6.597 -6.264,9.282 -2.684,2.684 -5.81,4.787 -9.289,6.259 -3.602,1.523 -7.428,2.293 -11.374,2.293 -3.947,0 -7.773,-0.773 -11.374,-2.296 -3.48,-1.472 -6.605,-3.58 -9.29,-6.264 C -55.591,8.464 -57.699,5.356 -59.171,1.876 -59.434,1.252 -59.676,0.633 -59.895,0 l -4.592,0 c 0.351,1.125 0.767,2.316 1.249,3.455 1.695,4.006 4.12,7.595 7.208,10.683 3.089,3.089 6.687,5.51 10.692,7.204 4.149,1.755 8.554,2.643 13.095,2.643 4.54,0 8.946,-0.891 13.094,-2.646 4.006,-1.694 7.604,-4.12 10.692,-7.209 C -5.368,11.042 -2.943,7.461 -1.249,3.455 -0.767,2.316 -0.351,1.125 0,0" />
    </g>
    <g
       transform="matrix(1.25,0,0,-1.25,62.729761,36.191805)"
       id="g24070">
      <path
         inkscape:connector-curvature="0"
         id="path24072"
         style="fill:#343392;fill-opacity:1;fill-rule:nonzero;stroke:none"
         d="m 0,0 c -0.351,-1.195 -0.767,-2.346 -1.249,-3.485 -1.694,-4.006 -4.119,-7.61 -7.208,-10.698 -3.088,-3.089 -6.686,-5.517 -10.692,-7.212 -4.148,-1.754 -8.554,-2.645 -13.094,-2.645 -4.541,0 -8.946,0.888 -13.095,2.643 -4.005,1.694 -7.603,4.12 -10.692,7.208 -3.088,3.088 -5.513,6.698 -7.208,10.704 -0.482,1.139 -0.898,2.29 -1.249,3.485 l 4.593,0 c 0.218,-0.633 0.46,-1.281 0.723,-1.906 1.472,-3.479 3.58,-6.611 6.264,-9.295 2.685,-2.685 5.81,-4.795 9.29,-6.266 3.601,-1.524 7.427,-2.298 11.374,-2.298 3.946,0 7.772,0.772 11.374,2.295 3.479,1.472 6.605,3.578 9.289,6.263 2.685,2.685 4.792,5.822 6.264,9.302 0.264,0.624 0.505,1.272 0.724,1.905 L 0,0 z" />
    </g>
    <g
       transform="matrix(1.25,0,0,-1.25,21.949136,17.35118)"
       id="g24074">
      <path
         inkscape:connector-curvature="0"
         id="path24076"
         style="fill:#80cc28;fill-opacity:1;fill-rule:nonzero;stroke:none"
         d="m 0,0 c 12.896,0 17.804,-9.237 18.137,-11.276 l -0.025,0 -17.416,0 c -12.58,0 -17.549,8.939 -18.046,11.16 -0.009,0.044 -0.018,0.085 -0.024,0.124 C -17.374,0.008 -0.503,0 0,0" />
    </g>
    <g
       transform="matrix(1.25,0,0,-1.25,44.706511,12.464305)"
       id="g24078">
      <path
         inkscape:connector-curvature="0"
         id="path24080"
         style="fill:#80cc28;fill-opacity:1;fill-rule:nonzero;stroke:none"
         d="m 0,0 0.001,0 -35.651,0 0,0 0,0 c 3.085,6.749 9.906,11.463 17.825,11.463 7.919,0 14.74,-4.714 17.826,-11.463 L 0,0 z" />
    </g>
    <g
       transform="matrix(1.25,0,0,-1.25,44.706511,36.191805)"
       id="g24082">
      <path
         inkscape:connector-curvature="0"
         id="path24084"
         style="fill:#80cc28;fill-opacity:1;fill-rule:nonzero;stroke:none"
         d="m 0,0 0.001,0 c -3.086,-6.749 -9.907,-11.463 -17.826,-11.463 -7.919,0 -14.74,4.714 -17.825,11.463 l 0,0 0,0 L 0.001,0 0,0 z" />
    </g>
  </g>
</svg>
