<svg xmlns="http://www.w3.org/2000/svg" viewBox="0 0 130 55.89"><defs><style>.cls-1{fill:#fff;}</style></defs><g id="Layer_2" data-name="Layer 2"><g id="Nav"><path class="cls-1" d="M43.05,37.48l-4.59,5.11-4.88-4.36a21.44,21.44,0,0,1-12.37,3.84C8.71,42.07,0,32.6,0,21.09A20.85,20.85,0,0,1,21.32,0C33.81,0,42.53,9.47,42.53,21A21,21,0,0,1,38.4,33.52ZM21.32,27.6l4.59-5.23,7,6.39A14,14,0,0,0,35,21.09c0-8-5.75-14.52-13.82-14.52S7.49,13,7.49,21,13.25,35.5,21.32,35.5a12.8,12.8,0,0,0,7-2Z"/><polygon class="cls-1" points="46.1 41.37 46.1 13.13 52.31 13.13 52.31 35.72 66.39 35.72 66.39 41.37 46.1 41.37"/><rect class="cls-1" x="69.43" y="13.13" width="6.21" height="28.24"/><polygon class="cls-1" points="99.31 41.37 85.63 23.41 85.63 41.37 79.5 41.37 79.5 13.13 85.22 13.13 98.46 30.52 98.46 13.13 104.59 13.13 104.59 41.37 99.31 41.37"/><polygon class="cls-1" points="108.5 41.37 108.5 13.13 129.8 13.13 129.8 18.65 114.67 18.65 114.67 24.38 127.98 24.38 127.98 29.91 114.67 29.91 114.67 35.84 130 35.84 130 41.37 108.5 41.37"/><path class="cls-1" d="M28.43,45.77h3.88a5,5,0,0,1,5.29,4.95v0a5,5,0,0,1-5.29,5H28.43Zm3.88,8a2.84,2.84,0,0,0,3-3v0a2.86,2.86,0,0,0-3-3H30.62v6Z"/><polygon class="cls-1" points="41.87 45.77 49.38 45.77 49.38 47.72 44.05 47.72 44.05 49.74 48.74 49.74 48.74 51.69 44.05 51.69 44.05 53.78 49.45 53.78 49.45 55.72 41.87 55.72 41.87 45.77"/><polygon class="cls-1" points="56.04 47.79 53.01 47.79 53.01 45.77 61.26 45.77 61.26 47.79 58.23 47.79 58.23 55.72 56.04 55.72 56.04 47.79"/><path class="cls-1" d="M65.26,45.77h4.55a4,4,0,0,1,2.9,1,3.16,3.16,0,0,1,.85,2.28v0a3.1,3.1,0,0,1-2.13,3.09l2.43,3.55H71.3l-2.13-3.18H67.45v3.18H65.26Zm4.41,4.84c1.06,0,1.67-.57,1.67-1.41v0c0-.94-.65-1.42-1.72-1.42H67.45v2.86Z"/><path class="cls-1" d="M77.42,50.78v0a5.15,5.15,0,0,1,5.31-5.15A5.1,5.1,0,0,1,88,50.72v0a5.29,5.29,0,0,1-10.58,0m8.29,0v0a3,3,0,0,0-3-3.13,3,3,0,0,0-3,3.1v0a3,3,0,0,0,3,3.13,3,3,0,0,0,3-3.1"/><rect class="cls-1" x="92.37" y="45.77" width="2.19" height="9.95"/><polygon class="cls-1" points="101.69 47.79 98.66 47.79 98.66 45.77 106.91 45.77 106.91 47.79 103.88 47.79 103.88 55.72 101.69 55.72 101.69 47.79"/></g></g></svg>