<?xml version="1.0" encoding="UTF-8" standalone="no"?>
<svg
   viewBox="0 0 130.00145 42.59533"
   version="1.1"
   id="svg32"
   width="130.00145"
   height="42.595329"
   xmlns="http://www.w3.org/2000/svg"
   xmlns:svg="http://www.w3.org/2000/svg">
  <defs
     id="defs4">
    <style
       id="style2">.cls-1{fill:#fff;}</style>
  </defs>
  <path
     class="cls-1"
     d="m 43.051443,37.485331 -4.59,5.11 -4.88,-4.36 a 21.44,21.44 0 0 1 -12.37,3.84 c -12.4999996,0 -21.20999961,-9.47 -21.20999961,-20.98 A 20.85,20.85 0 0 1 21.321443,0.00533063 c 12.49,0 21.21,9.46999997 21.21,21.00000037 a 21,21 0 0 1 -4.13,12.52 z m -21.73,-9.88 4.59,-5.23 7,6.39 a 14,14 0 0 0 2.09,-7.67 c 0,-8 -5.75,-14.5200004 -13.82,-14.5200004 -8.07,0 -13.6899996,6.4300004 -13.6899996,14.4300004 0,8 5.7599996,14.5 13.8299996,14.5 a 12.8,12.8 0 0 0 7,-2 z"
     id="path6"
     style="fill:#db001c;fill-opacity:1" />
  <polygon
     class="cls-1"
     points="46.1,41.37 46.1,13.13 52.31,13.13 52.31,35.72 66.39,35.72 66.39,41.37 "
     id="polygon8"
     style="fill:#db001c;fill-opacity:1"
     transform="translate(0.00144339,0.00533063)" />
  <rect
     class="cls-1"
     x="69.431442"
     y="13.135331"
     width="6.21"
     height="28.24"
     id="rect10"
     style="fill:#db001c;fill-opacity:1" />
  <polygon
     class="cls-1"
     points="98.46,30.52 98.46,13.13 104.59,13.13 104.59,41.37 99.31,41.37 85.63,23.41 85.63,41.37 79.5,41.37 79.5,13.13 85.22,13.13 "
     id="polygon12"
     style="fill:#db001c;fill-opacity:1"
     transform="translate(0.00144339,0.00533063)" />
  <polygon
     class="cls-1"
     points="127.98,24.38 127.98,29.91 114.67,29.91 114.67,35.84 130,35.84 130,41.37 108.5,41.37 108.5,13.13 129.8,13.13 129.8,18.65 114.67,18.65 114.67,24.38 "
     id="polygon14"
     style="fill:#db001c;fill-opacity:1"
     transform="translate(0.00144339,0.00533063)" />
</svg>
