<?xml version="1.0" encoding="UTF-8" standalone="no"?>
<svg
   xmlns:dc="http://purl.org/dc/elements/1.1/"
   xmlns:cc="http://creativecommons.org/ns#"
   xmlns:rdf="http://www.w3.org/1999/02/22-rdf-syntax-ns#"
   xmlns:svg="http://www.w3.org/2000/svg"
   xmlns="http://www.w3.org/2000/svg"
   viewBox="0 0 250 114.88454"
   height="114.88454"
   width="250"
   xml:space="preserve"
   version="1.1"
   id="svg2"><metadata
     id="metadata8"><rdf:RDF><cc:Work
         rdf:about=""><dc:format>image/svg+xml</dc:format><dc:type
           rdf:resource="http://purl.org/dc/dcmitype/StillImage" /><dc:title></dc:title></cc:Work></rdf:RDF></metadata><defs
     id="defs6"><clipPath
       id="clipPath2232"
       clipPathUnits="userSpaceOnUse"><path
         id="path2234"
         d="M 7.369,0 529,0 l 0,792 -521.631,0 0,-792 z" /></clipPath><clipPath
       id="clipPath4020"
       clipPathUnits="userSpaceOnUse"><path
         id="path4022"
         d="M 7.369,0 529,0 l 0,792 -521.631,0 0,-792 z" /></clipPath><clipPath
       id="clipPath23524"
       clipPathUnits="userSpaceOnUse"><path
         id="path23526"
         d="M 0,792 529,792 529,0 0,0 0,792 Z" /></clipPath><clipPath
       id="clipPath23544"
       clipPathUnits="userSpaceOnUse"><path
         id="path23546"
         d="M 0,792 529,792 529,0 0,0 0,792 Z" /></clipPath><clipPath
       id="clipPath23564"
       clipPathUnits="userSpaceOnUse"><path
         id="path23566"
         d="M 0,792 529,792 529,0 0,0 0,792 Z" /></clipPath><clipPath
       id="clipPath23584"
       clipPathUnits="userSpaceOnUse"><path
         id="path23586"
         d="M 7.369,0 529,0 l 0,792 -521.631,0 0,-792 z" /></clipPath><clipPath
       id="clipPath26132"
       clipPathUnits="userSpaceOnUse"><path
         id="path26134"
         d="M 0,792 529,792 529,0 0,0 0,792 Z" /></clipPath><clipPath
       id="clipPath26152"
       clipPathUnits="userSpaceOnUse"><path
         id="path26154"
         d="M 0,792 529,792 529,0 0,0 0,792 Z" /></clipPath><clipPath
       id="clipPath26168"
       clipPathUnits="userSpaceOnUse"><path
         id="path26170"
         d="M 0,792 529,792 529,0 0,0 0,792 Z" /></clipPath><clipPath
       id="clipPath26188"
       clipPathUnits="userSpaceOnUse"><path
         id="path26190"
         d="M 0,792 529,792 529,0 0,0 0,792 Z" /></clipPath><clipPath
       id="clipPath26204"
       clipPathUnits="userSpaceOnUse"><path
         id="path26206"
         d="M 0,792 529,792 529,0 0,0 0,792 Z" /></clipPath><clipPath
       id="clipPath26220"
       clipPathUnits="userSpaceOnUse"><path
         id="path26222"
         d="M 0,792 529,792 529,0 0,0 0,792 Z" /></clipPath><clipPath
       id="clipPath26240"
       clipPathUnits="userSpaceOnUse"><path
         id="path26242"
         d="M 0,792 529,792 529,0 0,0 0,792 Z" /></clipPath><clipPath
       id="clipPath26260"
       clipPathUnits="userSpaceOnUse"><path
         id="path26262"
         d="M 0,792 529,792 529,0 0,0 0,792 Z" /></clipPath><clipPath
       id="clipPath26280"
       clipPathUnits="userSpaceOnUse"><path
         id="path26282"
         d="M 0,792 529,792 529,0 0,0 0,792 Z" /></clipPath><clipPath
       id="clipPath26300"
       clipPathUnits="userSpaceOnUse"><path
         id="path26302"
         d="M 0,792 529,792 529,0 0,0 0,792 Z" /></clipPath><clipPath
       id="clipPath26360"
       clipPathUnits="userSpaceOnUse"><path
         id="path26362"
         d="M 0,792 529,792 529,0 0,0 0,792 Z" /></clipPath><clipPath
       id="clipPath26450"
       clipPathUnits="userSpaceOnUse"><path
         id="path26452"
         d="M 0,792 529,792 529,0 0,0 0,792 Z" /></clipPath><clipPath
       id="clipPath26478"
       clipPathUnits="userSpaceOnUse"><path
         id="path26480"
         d="M 0,792 529,792 529,0 0,0 0,792 Z" /></clipPath><clipPath
       id="clipPath26498"
       clipPathUnits="userSpaceOnUse"><path
         id="path26500"
         d="M 0,792 529,792 529,0 0,0 0,792 Z" /></clipPath><clipPath
       id="clipPath26518"
       clipPathUnits="userSpaceOnUse"><path
         id="path26520"
         d="M 0,792 529,792 529,0 0,0 0,792 Z" /></clipPath><clipPath
       id="clipPath26538"
       clipPathUnits="userSpaceOnUse"><path
         id="path26540"
         d="M 0,792 529,792 529,0 0,0 0,792 Z" /></clipPath><clipPath
       id="clipPath26558"
       clipPathUnits="userSpaceOnUse"><path
         id="path26560"
         d="M 0,792 529,792 529,0 0,0 0,792 Z" /></clipPath><clipPath
       id="clipPath26578"
       clipPathUnits="userSpaceOnUse"><path
         id="path26580"
         d="M 0,792 529,792 529,0 0,0 0,792 Z" /></clipPath><clipPath
       id="clipPath26598"
       clipPathUnits="userSpaceOnUse"><path
         id="path26600"
         d="M 0,792 529,792 529,0 0,0 0,792 Z" /></clipPath><clipPath
       id="clipPath26618"
       clipPathUnits="userSpaceOnUse"><path
         id="path26620"
         d="M 0,792 529,792 529,0 0,0 0,792 Z" /></clipPath><clipPath
       id="clipPath26638"
       clipPathUnits="userSpaceOnUse"><path
         id="path26640"
         d="M 0,792 529,792 529,0 0,0 0,792 Z" /></clipPath><clipPath
       id="clipPath26660"
       clipPathUnits="userSpaceOnUse"><path
         id="path26662"
         d="M 0,792 529,792 529,0 0,0 0,792 Z" /></clipPath><clipPath
       id="clipPath26680"
       clipPathUnits="userSpaceOnUse"><path
         id="path26682"
         d="M 0,792 529,792 529,0 0,0 0,792 Z" /></clipPath><clipPath
       id="clipPath26700"
       clipPathUnits="userSpaceOnUse"><path
         id="path26702"
         d="M 0,792 529,792 529,0 0,0 0,792 Z" /></clipPath><clipPath
       id="clipPath26720"
       clipPathUnits="userSpaceOnUse"><path
         id="path26722"
         d="M 0,792 529,792 529,0 0,0 0,792 Z" /></clipPath><clipPath
       id="clipPath26748"
       clipPathUnits="userSpaceOnUse"><path
         id="path26750"
         d="M 0,792 529,792 529,0 0,0 0,792 Z" /></clipPath><clipPath
       id="clipPath26770"
       clipPathUnits="userSpaceOnUse"><path
         id="path26772"
         d="M 0,792 529,792 529,0 0,0 0,792 Z" /></clipPath><clipPath
       id="clipPath26794"
       clipPathUnits="userSpaceOnUse"><path
         id="path26796"
         d="M 0,792 529,792 529,0 0,0 0,792 Z" /></clipPath><clipPath
       id="clipPath26828"
       clipPathUnits="userSpaceOnUse"><path
         id="path26830"
         d="M 0,792 529,792 529,0 0,0 0,792 Z" /></clipPath><clipPath
       id="clipPath27572"
       clipPathUnits="userSpaceOnUse"><path
         id="path27574"
         d="M 0,792 529,792 529,0 0,0 0,792 Z" /></clipPath><clipPath
       id="clipPath27688"
       clipPathUnits="userSpaceOnUse"><path
         id="path27690"
         d="M 0,792 529,792 529,0 0,0 0,792 Z" /></clipPath></defs><g
     transform="matrix(0.6238478,0,0,-0.6238478,-49.907821,314.51584)"
     id="g10"><g
       transform="matrix(9.5797182,0,0,9.5797182,-3280.0124,-6878.0898)"
       id="g43938"><g
         id="g43931"><path
           d="m 350.7423,751.38887 0,19.223 7.862,0 c 2.403,0 6.553,-1.795 6.553,-6.578 0,-2.957 -1.376,-3.916 -2.241,-4.874 0,0 4.175,-4.166 5.107,-5.103 l 0,11.727 -3.071,0 c 0,0 -0.558,1.673 -0.92,1.876 l 5.874,0 0.002,-16.257 -1.863,0 -8.181,8.176 c 0,0 3.416,0.902 3.416,4.49 0,3.591 -3.177,4.688 -4.697,4.688 l -5.968,0 0,-17.368 -1.873,0 z"
           style="fill:#d0202e;fill-opacity:1;fill-rule:nonzero;stroke:none"
           id="path27578" /><path
           d="m 353.6954,751.38887 0,8.049 4.787,0 8.049,-8.035 -2.616,0 -6.176,6.174 -2.167,0 0,-6.188 -1.877,0 z"
           style="fill:#d0202e;fill-opacity:1;fill-rule:nonzero;stroke:none"
           id="path27582" /><path
           d="m 363.1573,770.61147 0,-1.878 19.687,0 c 3.229,0 7.836,-2.247 7.836,-7.757 0,-5.107 -4.407,-7.714 -7.836,-7.714 l -4.913,0 0,14.398 -6.946,0 0,-16.272 1.874,0 0,14.395 3.194,0 0,-14.395 6.791,0 c 4.584,0 9.73,3.465 9.73,9.688 0,6.222 -5.375,9.535 -9.646,9.535 l -19.771,0 z"
           style="fill:#d0202e;fill-opacity:1;fill-rule:nonzero;stroke:none"
           id="path27586" /><path
           d="m 358.6046,767.66037 c 1.076,0 3.596,-0.91 3.596,-3.592 0,-2.671 -2.52,-3.551 -3.596,-3.551 l -4.909,0 0,7.143 4.909,0 z m -3.032,-1.876 0,-3.393 3.032,0 c 0.722,0 1.74,0.458 1.74,1.693 0,1.246 -0.941,1.7 -1.696,1.7 l -3.076,0 z"
           style="fill:#d0202e;fill-opacity:1;fill-rule:nonzero;stroke:none"
           id="path27590" /><path
           d="m 382.5216,765.78387 c 3.83,0 5.224,-2.475 5.224,-4.826 0,-3.512 -2.987,-4.746 -5.224,-4.746 l -1.639,0 0,9.572 1.639,0 z m -3.518,1.876 0,-13.322 3.434,0 c 3.394,0 7.165,2.051 7.165,6.681 0,4.786 -3.909,6.641 -7.102,6.641 l -3.497,0 z"
           style="fill:#d0202e;fill-opacity:1;fill-rule:nonzero;stroke:none"
           id="path27594" /></g></g></g></svg>