<?xml version="1.0" encoding="UTF-8" standalone="no"?>
<!-- Created with Inkscape (http://www.inkscape.org/) -->

<svg
   width="15.955638"
   height="24.48012"
   id="svg3663"
   version="1.1"
   xmlns="http://www.w3.org/2000/svg"
   xmlns:svg="http://www.w3.org/2000/svg"
   xmlns:rdf="http://www.w3.org/1999/02/22-rdf-syntax-ns#"
   xmlns:cc="http://creativecommons.org/ns#"
   xmlns:dc="http://purl.org/dc/elements/1.1/">
  <defs
     id="defs3665">
    <clipPath
       clipPathUnits="userSpaceOnUse"
       id="clipPath232">
      <path
         d="m 368.001,344.313 h 168.293 v 17.984 H 368.001 Z"
         id="path234" />
    </clipPath>
    <clipPath
       clipPathUnits="userSpaceOnUse"
       id="clipPath188">
      <path
         d="m 368.001,343.957 h 168.3 v 18.339 h -168.3 z"
         id="path190" />
    </clipPath>
  </defs>
  <metadata
     id="metadata3668">
    <rdf:RDF>
      <cc:Work
         rdf:about="">
        <dc:format>image/svg+xml</dc:format>
        <dc:type
           rdf:resource="http://purl.org/dc/dcmitype/StillImage" />
      </cc:Work>
    </rdf:RDF>
  </metadata>
  <g
     id="layer1"
     transform="translate(-788.32286,-160.12231)">
    <path
       d="m 792.75364,175.52593 c 0.47751,0 0.86501,0.3875 0.86501,0.865 0,0.4775 -0.3875,0.865 -0.86501,0.865 -0.47749,0 -0.865,-0.3875 -0.865,-0.865 0,-0.4775 0.38751,-0.865 0.865,-0.865 m 7.09501,0 c 0.47624,0 0.86375,0.3875 0.86375,0.865 0,0.4775 -0.38751,0.865 -0.86375,0.865 -0.47875,0 -0.865,-0.3875 -0.865,-0.865 0,-0.4775 0.38625,-0.865 0.865,-0.865 m -9.09375,2.08375 c 1.17625,0.77 3.22125,1.28 5.54625,1.28 2.325,0 4.36875,-0.51 5.54625,-1.28 0.36125,-0.2375 0.5775,-0.6425 0.57875,-1.075 l 0.009,-3.17375 c 0,-0.0475 -0.0562,-0.0725 -0.0912,-0.0387 -1.02625,0.98375 -3.345,1.66875 -6.0425,1.67 -2.6975,-0.001 -5.0175,-0.68625 -6.04375,-1.67 -0.0337,-0.0337 -0.0912,-0.009 -0.0912,0.0387 l 0.01,3.17375 c 0,0.4325 0.21625,0.8375 0.57875,1.075"
       style="fill:#2c7fcb;fill-opacity:1;fill-rule:nonzero;stroke:none;stroke-width:1.25"
       id="path222" />
    <path
       d="m 796.30065,174.03193 c 2.65999,0 4.95125,-0.6675 5.9975,-1.62875 0.025,-0.0225 0.0375,-0.055 0.035,-0.0888 l -0.53125,-7.3175 c -0.004,-0.0475 -0.0375,-0.0875 -0.0838,-0.0975 -1.22626,-0.2625 -3.385,-0.42875 -5.4175,-0.42875 -2.0325,0 -4.19125,0.16625 -5.4175,0.42875 -0.0462,0.01 -0.08,0.05 -0.0838,0.0975 l -0.52999,7.3175 c -0.004,0.0338 0.009,0.0663 0.0337,0.0888 1.04625,0.96125 3.33875,1.62875 5.9975,1.62875"
       style="fill:#2c7fcb;fill-opacity:1;fill-rule:nonzero;stroke:none;stroke-width:1.25"
       id="path224" />
    <path
       d="m 794.70114,161.95231 h 1.60001 1.59999 c 0.22125,0 0.4,0.17875 0.4,0.4 0,0.22125 -0.17875,0.40125 -0.4,0.40125 h -1.59999 -1.60001 c -0.22124,0 -0.39999,-0.18 -0.39999,-0.40125 0,-0.22125 0.17875,-0.4 0.39999,-0.4 m -3.64499,1.96625 c 1.23374,-0.24125 3.30624,-0.39375 5.245,-0.39375 1.93875,0 4.01,0.1525 5.245,0.39375 0.0725,0.015 0.1375,-0.0475 0.1275,-0.12125 l -0.2075,-1.47375 c -0.13125,-0.71 -0.5375,-1.20125 -1.20125,-1.20125 h -3.96375 -3.96501 c -0.66249,0 -1.06875,0.49125 -1.20124,1.20125 l -0.20626,1.47375 c -0.01,0.0737 0.0538,0.13625 0.1275,0.12125"
       style="fill:#2c7fcb;fill-opacity:1;fill-rule:nonzero;stroke:none;stroke-width:1.25"
       id="path226" />
    <path
       d="m 803.26452,183.47618 -2.9,-4.18125 c -0.03,-0.045 -0.0862,-0.0637 -0.1375,-0.0487 -1.42375,0.4225 -2.765,0.56625 -3.92625,0.5675 -1.16125,-0.001 -2.5025,-0.145 -3.92625,-0.5675 -0.0512,-0.015 -0.10625,0.004 -0.1375,0.0487 l -2.9,4.18125 c -0.0362,0.0538 10e-4,0.12625 0.0662,0.12625 h 1.54 c 0.0263,0 0.0512,-0.0137 0.0662,-0.035 l 1.50875,-2.21125 c 0.0237,-0.0337 0.0612,-0.0538 0.1025,-0.0538 h 3.68 3.68 c 0.0412,0 0.08,0.02 0.1025,0.0538 l 1.50875,2.21125 c 0.015,0.0213 0.04,0.035 0.0662,0.035 h 1.54 c 0.065,0 0.1025,-0.0725 0.0662,-0.12625"
       style="fill:#2c7fcb;fill-opacity:1;fill-rule:nonzero;stroke:none;stroke-width:1.25"
       id="path236" />
  </g>
</svg>
