<?xml version="1.0" encoding="UTF-8" standalone="no"?>
<!-- Created with Inkscape (http://www.inkscape.org/) -->

<svg
   width="87.604591"
   height="24.48012"
   id="svg3663"
   version="1.1"
   xmlns="http://www.w3.org/2000/svg"
   xmlns:svg="http://www.w3.org/2000/svg"
   xmlns:rdf="http://www.w3.org/1999/02/22-rdf-syntax-ns#"
   xmlns:cc="http://creativecommons.org/ns#"
   xmlns:dc="http://purl.org/dc/elements/1.1/">
  <defs
     id="defs3665">
    <clipPath
       clipPathUnits="userSpaceOnUse"
       id="clipPath232">
      <path
         d="m 368.001,344.313 h 168.293 v 17.984 H 368.001 Z"
         id="path234" />
    </clipPath>
    <clipPath
       clipPathUnits="userSpaceOnUse"
       id="clipPath188">
      <path
         d="m 368.001,343.957 h 168.3 v 18.339 h -168.3 z"
         id="path190" />
    </clipPath>
  </defs>
  <metadata
     id="metadata3668">
    <rdf:RDF>
      <cc:Work
         rdf:about="">
        <dc:format>image/svg+xml</dc:format>
        <dc:type
           rdf:resource="http://purl.org/dc/dcmitype/StillImage" />
      </cc:Work>
    </rdf:RDF>
  </metadata>
  <g
     id="layer1"
     transform="translate(-716.6739,-160.12231)">
    <path
       d="m 725.63015,169.05081 c 0,-0.80375 -0.43251,-2.35 -2.45251,-2.35 h -3.01 v 4.7 h 3.0925 c 1.9375,-0.0413 2.37001,-1.6075 2.37001,-2.35 m -5.46251,9.5025 c 0,0.185 -0.14374,0.32875 -0.32874,0.32875 h -1.835 c -0.18501,0 -0.33,-0.14375 -0.33,-0.32875 v -13.76875 c 0,-0.18625 0.14499,-0.33 0.33,-0.33 h 5.06999 c 3.91625,0 5.09125,2.72125 5.09125,4.59625 0,2.1025 -1.36,3.64875 -3.03,4.3075 0.7625,1.64875 1.69001,3.58625 2.45251,5.23625 0.0625,0.12375 -0.04,0.2875 -0.18501,0.2875 h -2.06125 c -0.20625,0 -0.39124,-0.12375 -0.47375,-0.2875 l -2.2875,-4.885 h -2.4125 z"
       style="fill:#24488a;fill-opacity:1;fill-rule:nonzero;stroke:none;stroke-width:1.25"
       id="path210" />
    <path
       d="m 733.50427,178.55281 c 0,0.185 -0.14375,0.33 -0.33,0.33 h -1.7925 c -0.18625,0 -0.33,-0.145 -0.33,-0.33 v -9.64625 c 0,-0.185 0.14375,-0.33 0.33,-0.33 h 1.7925 c 0.18625,0 0.33,0.145 0.33,0.33 z m -1.21625,-14.61375 c 0.78375,0 1.40125,0.61875 1.40125,1.40125 0,0.825 -0.6175,1.4025 -1.40125,1.4025 -0.80375,0 -1.40125,-0.5775 -1.40125,-1.4025 0,-0.7825 0.5975,-1.40125 1.40125,-1.40125"
       style="fill:#24488a;fill-opacity:1;fill-rule:nonzero;stroke:none;stroke-width:1.25"
       id="path212" />
    <path
       d="m 743.50114,171.09131 c -0.53624,-0.37125 -1.33999,-0.5775 -2.02,-0.5775 -2.41124,0 -2.885,2.2675 -2.885,3.21625 0,0.80375 0.32875,3.215 2.72,3.215 1.0925,0 1.79376,-0.515 2.185,-1.13375 z m 2.10251,-6.63625 c 0.185,0 0.33,0.14375 0.33,0.32875 v 13.76875 c 0,0.18625 -0.145,0.33 -0.33,0.33 h -0.92751 c -0.20625,0 -0.37125,-0.12375 -0.43249,-0.30875 l -0.18625,-0.495 c -0.82375,0.63875 -1.83375,0.96875 -2.84375,0.96875 -3.83375,0 -5.03,-3.1125 -5.03,-5.3175 0,-2.165 1.175,-5.31875 5.13249,-5.31875 0.82501,0 1.56625,0.165 2.185,0.3925 v -4.02 c 0,-0.185 0.14376,-0.32875 0.33,-0.32875 z"
       style="fill:#24488a;fill-opacity:1;fill-rule:nonzero;stroke:none;stroke-width:1.25"
       id="path214" />
    <path
       d="m 751.10714,172.49293 h 4.43126 c 0.0412,-0.865 -0.4125,-1.89625 -1.89625,-1.9575 -1.64876,0.02 -2.26751,0.96875 -2.53501,1.9575 m 6.16251,4.8025 c 0.10375,0.14375 0.0825,0.37125 -0.0612,0.47375 -1.0725,0.825 -2.16375,1.2375 -3.545,1.2375 -3.9575,0 -5.15375,-3.07125 -5.15375,-5.2975 0,-2.16375 1.19625,-5.27625 5.15375,-5.27625 2.7,0 4.20499,1.73125 4.20499,4.39 0,0.35 -0.0213,0.7825 -0.10375,1.2775 -0.0213,0.18625 -0.185,0.33 -0.37125,0.33 h -6.39 c 0.16625,1.01 0.76375,2.41125 2.66,2.41125 0.82375,0 1.66875,-0.22625 2.37,-0.68 0.14375,-0.0825 0.35,-0.0613 0.45375,0.0825 z"
       style="fill:#24488a;fill-opacity:1;fill-rule:nonzero;stroke:none;stroke-width:1.25"
       id="path216" />
    <path
       d="m 784.17352,176.41443 -0.008,-0.009 c -0.14625,-0.17 -0.285,-0.33 -0.42625,-0.51375 -0.0675,-0.08 -0.17,-0.1275 -0.2825,-0.1275 -0.085,0 -0.16625,0.0263 -0.2375,0.0775 -0.67875,0.52251 -2.0675,1.40125 -3.745,1.40125 -1.92125,0 -3.34,-0.76375 -4.21875,-2.26875 -0.64625,-1.10375 -0.87625,-2.45125 -0.87625,-3.345 0,-0.88875 0.23,-2.23624 0.87625,-3.3475 0.88,-1.51625 2.3,-2.285 4.21875,-2.285 1.4275,0 2.84875,0.75376 3.70375,1.45876 0.0712,0.06 0.165,0.0925 0.26625,0.0925 0.1,0 0.19625,-0.0337 0.27125,-0.0962 l 0.6175,-0.61874 c 0.1475,-0.14626 0.1475,-0.395 0,-0.54375 -1.33875,-1.29251 -2.8825,-1.89501 -4.85875,-1.89501 -2.41375,0 -4.2675,0.84625 -5.50875,2.5175 -0.93375,1.25625 -1.46875,2.97625 -1.46875,4.7175 0,1.77625 0.535,3.5175 1.46875,4.7775 1.2375,1.67125 3.09,2.51875 5.50875,2.51875 1.92125,0 3.46,-0.55875 4.83875,-1.7575 0.14875,-0.1475 0.1675,-0.3675 0.045,-0.5375 -0.0625,-0.075 -0.125,-0.14625 -0.185,-0.21625"
       style="fill:#24488a;fill-opacity:1;fill-rule:nonzero;stroke:none;stroke-width:1.25"
       id="path218" />
    <path
       d="m 771.69552,178.25156 -7.095,-6.83375 6.73125,-6.39 c 0.0775,-0.0775 0.1225,-0.1775 0.1225,-0.275 0,-0.1225 -0.0925,-0.215 -0.215,-0.215 h -1.58 c -0.2625,0 -0.4575,0.12125 -0.5775,0.22375 l -6.37,6.11875 v -5.965 c 0,-0.20125 -0.17625,-0.3775 -0.3775,-0.3775 h -1.11375 c -0.20125,0 -0.3775,0.17625 -0.3775,0.3775 v 13.57125 c 0,0.20125 0.17625,0.3775 0.3775,0.3775 h 1.11375 c 0.20125,0 0.3775,-0.17625 0.3775,-0.3775 v -6.4875 l 6.81875,6.64375 c 0.1175,0.10125 0.3125,0.22125 0.575,0.22125 h 1.49875 c 0.14125,0 0.255,-0.115 0.255,-0.25625 0,-0.15 -0.0563,-0.27 -0.16375,-0.35625"
       style="fill:#24488a;fill-opacity:1;fill-rule:nonzero;stroke:none;stroke-width:1.25"
       id="path220" />
    <path
       d="m 792.75364,175.52593 c 0.47751,0 0.86501,0.3875 0.86501,0.865 0,0.4775 -0.3875,0.865 -0.86501,0.865 -0.47749,0 -0.865,-0.3875 -0.865,-0.865 0,-0.4775 0.38751,-0.865 0.865,-0.865 m 7.09501,0 c 0.47624,0 0.86375,0.3875 0.86375,0.865 0,0.4775 -0.38751,0.865 -0.86375,0.865 -0.47875,0 -0.865,-0.3875 -0.865,-0.865 0,-0.4775 0.38625,-0.865 0.865,-0.865 m -9.09375,2.08375 c 1.17625,0.77 3.22125,1.28 5.54625,1.28 2.325,0 4.36875,-0.51 5.54625,-1.28 0.36125,-0.2375 0.5775,-0.6425 0.57875,-1.075 l 0.009,-3.17375 c 0,-0.0475 -0.0562,-0.0725 -0.0912,-0.0387 -1.02625,0.98375 -3.345,1.66875 -6.0425,1.67 -2.6975,-0.001 -5.0175,-0.68625 -6.04375,-1.67 -0.0337,-0.0337 -0.0912,-0.009 -0.0912,0.0387 l 0.01,3.17375 c 0,0.4325 0.21625,0.8375 0.57875,1.075"
       style="fill:#2c7fcb;fill-opacity:1;fill-rule:nonzero;stroke:none;stroke-width:1.25"
       id="path222" />
    <path
       d="m 796.30065,174.03193 c 2.65999,0 4.95125,-0.6675 5.9975,-1.62875 0.025,-0.0225 0.0375,-0.055 0.035,-0.0888 l -0.53125,-7.3175 c -0.004,-0.0475 -0.0375,-0.0875 -0.0838,-0.0975 -1.22626,-0.2625 -3.385,-0.42875 -5.4175,-0.42875 -2.0325,0 -4.19125,0.16625 -5.4175,0.42875 -0.0462,0.01 -0.08,0.05 -0.0838,0.0975 l -0.52999,7.3175 c -0.004,0.0338 0.009,0.0663 0.0337,0.0888 1.04625,0.96125 3.33875,1.62875 5.9975,1.62875"
       style="fill:#2c7fcb;fill-opacity:1;fill-rule:nonzero;stroke:none;stroke-width:1.25"
       id="path224" />
    <path
       d="m 794.70114,161.95231 h 1.60001 1.59999 c 0.22125,0 0.4,0.17875 0.4,0.4 0,0.22125 -0.17875,0.40125 -0.4,0.40125 h -1.59999 -1.60001 c -0.22124,0 -0.39999,-0.18 -0.39999,-0.40125 0,-0.22125 0.17875,-0.4 0.39999,-0.4 m -3.64499,1.96625 c 1.23374,-0.24125 3.30624,-0.39375 5.245,-0.39375 1.93875,0 4.01,0.1525 5.245,0.39375 0.0725,0.015 0.1375,-0.0475 0.1275,-0.12125 l -0.2075,-1.47375 c -0.13125,-0.71 -0.5375,-1.20125 -1.20125,-1.20125 h -3.96375 -3.96501 c -0.66249,0 -1.06875,0.49125 -1.20124,1.20125 l -0.20626,1.47375 c -0.01,0.0737 0.0538,0.13625 0.1275,0.12125"
       style="fill:#2c7fcb;fill-opacity:1;fill-rule:nonzero;stroke:none;stroke-width:1.25"
       id="path226" />
    <path
       d="m 803.26452,183.47618 -2.9,-4.18125 c -0.03,-0.045 -0.0862,-0.0637 -0.1375,-0.0487 -1.42375,0.4225 -2.765,0.56625 -3.92625,0.5675 -1.16125,-0.001 -2.5025,-0.145 -3.92625,-0.5675 -0.0512,-0.015 -0.10625,0.004 -0.1375,0.0487 l -2.9,4.18125 c -0.0362,0.0538 10e-4,0.12625 0.0662,0.12625 h 1.54 c 0.0263,0 0.0512,-0.0137 0.0662,-0.035 l 1.50875,-2.21125 c 0.0237,-0.0337 0.0612,-0.0538 0.1025,-0.0538 h 3.68 3.68 c 0.0412,0 0.08,0.02 0.1025,0.0538 l 1.50875,2.21125 c 0.015,0.0213 0.04,0.035 0.0662,0.035 h 1.54 c 0.065,0 0.1025,-0.0725 0.0662,-0.12625"
       style="fill:#2c7fcb;fill-opacity:1;fill-rule:nonzero;stroke:none;stroke-width:1.25"
       id="path236" />
  </g>
</svg>
