<?xml version="1.0" encoding="UTF-8" standalone="no"?>
<!-- Created with Inkscape (http://www.inkscape.org/) -->

<svg
   xmlns:dc="http://purl.org/dc/elements/1.1/"
   xmlns:cc="http://creativecommons.org/ns#"
   xmlns:rdf="http://www.w3.org/1999/02/22-rdf-syntax-ns#"
   xmlns:svg="http://www.w3.org/2000/svg"
   xmlns="http://www.w3.org/2000/svg"
   xmlns:sodipodi="http://sodipodi.sourceforge.net/DTD/sodipodi-0.dtd"
   xmlns:inkscape="http://www.inkscape.org/namespaces/inkscape"
   width="212.36626"
   height="24.47875"
   id="svg3663"
   version="1.1"
   inkscape:version="0.48.5 r10040"
   sodipodi:docname="New document 4">
  <defs
     id="defs3665">
    <clipPath
       clipPathUnits="userSpaceOnUse"
       id="clipPath232">
      <path
         inkscape:connector-curvature="0"
         d="m 368.001,344.313 168.293,0 0,17.984 -168.293,0 0,-17.984 z"
         id="path234" />
    </clipPath>
    <clipPath
       clipPathUnits="userSpaceOnUse"
       id="clipPath188">
      <path
         inkscape:connector-curvature="0"
         d="m 368.001,343.957 168.3,0 0,18.339 -168.3,0 0,-18.339 z"
         id="path190" />
    </clipPath>
  </defs>
  <sodipodi:namedview
     id="base"
     pagecolor="#ffffff"
     bordercolor="#666666"
     borderopacity="1.0"
     inkscape:pageopacity="0.0"
     inkscape:pageshadow="2"
     inkscape:zoom="2.8"
     inkscape:cx="89.359546"
     inkscape:cy="14.70996"
     inkscape:document-units="px"
     inkscape:current-layer="layer1"
     showgrid="false"
     fit-margin-top="1"
     fit-margin-left="1"
     fit-margin-right="1"
     fit-margin-bottom="1"
     inkscape:window-width="944"
     inkscape:window-height="1001"
     inkscape:window-x="0"
     inkscape:window-y="0"
     inkscape:window-maximized="0" />
  <metadata
     id="metadata3668">
    <rdf:RDF>
      <cc:Work
         rdf:about="">
        <dc:format>image/svg+xml</dc:format>
        <dc:type
           rdf:resource="http://purl.org/dc/dcmitype/StillImage" />
        <dc:title></dc:title>
      </cc:Work>
    </rdf:RDF>
  </metadata>
  <g
     inkscape:label="Layer 1"
     inkscape:groupmode="layer"
     id="layer1"
     transform="translate(-716.67402,-160.12281)">
    <g
       transform="matrix(1.25,0,0,-1.25,257.67277,613.99281)"
       id="g184">
      <g
         id="g186"
         clip-path="url(#clipPath188)">
        <path
           inkscape:connector-curvature="0"
           d="m 445.1109,355.0795 c 1.768,-0.6 4.022,-1.314 3.876,-3.747 -0.113,-1.848 -1.767,-3.26 -4.136,-3.26 -1.605,0 -2.854,0.357 -4.151,1.022 -0.13,0.065 -0.179,0.243 -0.114,0.373 l 0.746,1.411 c 0.065,0.13 0.244,0.195 0.373,0.13 1.006,-0.47 2.011,-0.811 3.033,-0.811 0.989,0 1.703,0.422 1.817,1.087 0.129,0.811 -0.714,1.249 -1.817,1.589 -1.719,0.535 -4.022,1.087 -4.022,3.552 0,2.076 1.541,3.309 3.681,3.309 0.617,0 2.093,-0.13 3.893,-0.925 0.13,-0.064 0.195,-0.227 0.13,-0.373 l -0.6,-1.411 c -0.065,-0.146 -0.227,-0.211 -0.373,-0.162 -0.665,0.276 -1.898,0.73 -2.887,0.73 -0.795,0 -1.509,-0.26 -1.541,-1.054 0.032,-0.763 0.973,-1.071 2.092,-1.46"
           style="fill:#2c7fcb;fill-opacity:1;fill-rule:nonzero;stroke:none"
           id="path192" />
        <path
           inkscape:connector-curvature="0"
           d="m 453.4309,357.4475 -2.79,0 c -0.146,0 -0.275,0.13 -0.275,0.276 l 0,1.557 c 0,0.146 0.129,0.275 0.275,0.275 l 7.932,0 c 0.145,0 0.275,-0.129 0.275,-0.275 l 0,-1.557 c 0,-0.146 -0.13,-0.276 -0.275,-0.276 l -2.823,0 0,-8.969 c 0,-0.146 -0.129,-0.276 -0.275,-0.276 l -1.768,0 c -0.146,0 -0.276,0.13 -0.276,0.276 l 0,8.969 z"
           style="fill:#2c7fcb;fill-opacity:1;fill-rule:nonzero;stroke:none"
           id="path194" />
        <path
           inkscape:connector-curvature="0"
           d="m 466.9241,355.8742 c 0,0.551 -0.292,1.589 -1.671,1.589 l -2.108,0 0,-3.195 2.173,0 c 1.314,0.033 1.606,1.103 1.606,1.606 m -3.779,-7.396 c 0,-0.146 -0.13,-0.276 -0.276,-0.276 l -1.719,0 c -0.146,0 -0.276,0.13 -0.276,0.276 l 0,10.802 c 0,0.146 0.13,0.276 0.276,0.276 l 4.022,0 c 3.114,0 4.055,-2.174 4.055,-3.682 0,-1.638 -0.957,-2.822 -2.238,-3.374 l 1.914,-4.054 c 0.048,-0.114 -0.033,-0.244 -0.163,-0.244 l -1.946,0 c -0.162,0 -0.324,0.098 -0.389,0.244 l -1.736,3.698 -1.524,0 0,-3.666 z"
           style="fill:#2c7fcb;fill-opacity:1;fill-rule:nonzero;stroke:none"
           id="path196" />
        <path
           inkscape:connector-curvature="0"
           d="m 473.9458,352.7439 0,-2.433 5.158,0 c 0.146,0 0.276,-0.13 0.276,-0.276 l 0,-1.557 c 0,-0.146 -0.13,-0.275 -0.276,-0.275 l -7.169,0 c -0.146,0 -0.276,0.129 -0.276,0.275 l 0,10.802 c 0,0.146 0.13,0.276 0.276,0.276 l 7.169,0 c 0.146,0 0.276,-0.13 0.276,-0.276 l 0,-1.557 c 0,-0.146 -0.13,-0.275 -0.276,-0.275 l -5.158,0 0,-2.595 3.974,0 c 0.146,0 0.276,-0.13 0.276,-0.276 l 0,-1.557 c 0,-0.146 -0.13,-0.276 -0.276,-0.276 l -3.974,0 z"
           style="fill:#2c7fcb;fill-opacity:1;fill-rule:nonzero;stroke:none"
           id="path198" />
        <path
           inkscape:connector-curvature="0"
           d="m 484.2603,352.7439 0,-2.433 5.158,0 c 0.146,0 0.275,-0.13 0.275,-0.276 l 0,-1.557 c 0,-0.146 -0.129,-0.275 -0.275,-0.275 l -7.169,0 c -0.146,0 -0.276,0.129 -0.276,0.275 l 0,10.802 c 0,0.146 0.13,0.276 0.276,0.276 l 7.169,0 c 0.146,0 0.275,-0.13 0.275,-0.276 l 0,-1.557 c 0,-0.146 -0.129,-0.275 -0.275,-0.275 l -5.158,0 0,-2.595 3.974,0 c 0.146,0 0.276,-0.13 0.276,-0.276 l 0,-1.557 c 0,-0.146 -0.13,-0.276 -0.276,-0.276 l -3.974,0 z"
           style="fill:#2c7fcb;fill-opacity:1;fill-rule:nonzero;stroke:none"
           id="path200" />
        <path
           inkscape:connector-curvature="0"
           d="m 494.4612,357.4475 -2.79,0 c -0.146,0 -0.275,0.13 -0.275,0.276 l 0,1.557 c 0,0.146 0.129,0.275 0.275,0.275 l 7.931,0 c 0.146,0 0.276,-0.129 0.276,-0.275 l 0,-1.557 c 0,-0.146 -0.13,-0.276 -0.276,-0.276 l -2.822,0 0,-8.969 c 0,-0.146 -0.13,-0.276 -0.275,-0.276 l -1.768,0 c -0.146,0 -0.276,0.13 -0.276,0.276 l 0,8.969 z"
           style="fill:#2c7fcb;fill-opacity:1;fill-rule:nonzero;stroke:none"
           id="path202" />
        <path
           inkscape:connector-curvature="0"
           d="m 509.6899,356.3283 c -0.097,-0.114 -0.276,-0.097 -0.373,0.016 -0.665,0.665 -1.784,1.233 -2.741,1.233 -2.903,0 -3.308,-2.757 -3.308,-3.682 0,-0.924 0.421,-3.665 3.324,-3.665 0.989,0 2.076,0.519 2.838,1.135 0.114,0.097 0.293,0.081 0.39,-0.032 l 0.941,-1.152 c 0.097,-0.114 0.097,-0.292 -0.017,-0.406 -1.135,-1.054 -2.449,-1.719 -4.168,-1.719 -4.33,0 -5.644,3.406 -5.644,5.839 0,2.368 1.314,5.823 5.644,5.823 1.849,0 3.147,-0.763 4.249,-1.93 0.098,-0.098 0.098,-0.276 -0.016,-0.39 l -1.119,-1.07 z"
           style="fill:#2c7fcb;fill-opacity:1;fill-rule:nonzero;stroke:none"
           id="path204" />
        <path
           inkscape:connector-curvature="0"
           d="m 516.5009,352.679 2.044,0 -1.022,2.546 -1.022,-2.546 z m 6.293,-4.233 c 0.049,-0.114 -0.033,-0.243 -0.162,-0.243 l -1.995,0 c -0.162,0 -0.325,0.097 -0.373,0.259 l -0.99,2.401 -3.503,0 -0.973,-2.401 c -0.065,-0.162 -0.211,-0.259 -0.373,-0.259 l -2.011,0 c -0.13,0 -0.211,0.129 -0.162,0.243 l 4.979,11.077 c 0.048,0.098 0.162,0.179 0.275,0.179 0.13,0 0.244,-0.081 0.292,-0.179 l 4.996,-11.077 z"
           style="fill:#2c7fcb;fill-opacity:1;fill-rule:nonzero;stroke:none"
           id="path206" />
        <path
           inkscape:connector-curvature="0"
           d="m 530.7402,355.8742 c 0,0.551 -0.292,1.589 -1.671,1.589 l -2.108,0 0,-3.195 2.173,0 c 1.314,0.033 1.606,1.103 1.606,1.606 m -3.779,-7.396 c 0,-0.146 -0.13,-0.276 -0.276,-0.276 l -1.719,0 c -0.146,0 -0.275,0.13 -0.275,0.276 l 0,10.802 c 0,0.146 0.129,0.276 0.275,0.276 l 4.022,0 c 3.114,0 4.055,-2.174 4.055,-3.682 0,-1.638 -0.957,-2.822 -2.238,-3.374 l 1.914,-4.054 c 0.048,-0.114 -0.033,-0.244 -0.163,-0.244 l -1.946,0 c -0.162,0 -0.324,0.098 -0.389,0.244 l -1.735,3.698 -1.525,0 0,-3.666 z"
           style="fill:#2c7fcb;fill-opacity:1;fill-rule:nonzero;stroke:none"
           id="path208" />
        <path
           inkscape:connector-curvature="0"
           d="m 374.3659,355.9536 c 0,0.643 -0.346,1.88 -1.962,1.88 l -2.408,0 0,-3.76 2.474,0 c 1.55,0.033 1.896,1.286 1.896,1.88 m -4.37,-7.602 c 0,-0.148 -0.115,-0.263 -0.263,-0.263 l -1.468,0 c -0.148,0 -0.264,0.115 -0.264,0.263 l 0,11.015 c 0,0.149 0.116,0.264 0.264,0.264 l 4.056,0 c 3.133,0 4.073,-2.177 4.073,-3.677 0,-1.682 -1.088,-2.919 -2.424,-3.446 0.61,-1.319 1.352,-2.869 1.962,-4.189 0.05,-0.099 -0.032,-0.23 -0.148,-0.23 l -1.649,0 c -0.165,0 -0.313,0.099 -0.379,0.23 l -1.83,3.908 -1.93,0 0,-3.875 z"
           style="fill:#24488a;fill-opacity:1;fill-rule:nonzero;stroke:none"
           id="path210" />
        <path
           inkscape:connector-curvature="0"
           d="m 380.6652,348.352 c 0,-0.148 -0.115,-0.264 -0.264,-0.264 l -1.434,0 c -0.149,0 -0.264,0.116 -0.264,0.264 l 0,7.717 c 0,0.148 0.115,0.264 0.264,0.264 l 1.434,0 c 0.149,0 0.264,-0.116 0.264,-0.264 l 0,-7.717 z m -0.973,11.691 c 0.627,0 1.121,-0.495 1.121,-1.121 0,-0.66 -0.494,-1.122 -1.121,-1.122 -0.643,0 -1.121,0.462 -1.121,1.122 0,0.626 0.478,1.121 1.121,1.121"
           style="fill:#24488a;fill-opacity:1;fill-rule:nonzero;stroke:none"
           id="path212" />
        <path
           inkscape:connector-curvature="0"
           d="m 388.6627,354.3212 c -0.429,0.297 -1.072,0.462 -1.616,0.462 -1.929,0 -2.308,-1.814 -2.308,-2.573 0,-0.643 0.263,-2.572 2.176,-2.572 0.874,0 1.435,0.412 1.748,0.907 l 0,3.776 z m 1.682,5.309 c 0.148,0 0.264,-0.115 0.264,-0.263 l 0,-11.015 c 0,-0.149 -0.116,-0.264 -0.264,-0.264 l -0.742,0 c -0.165,0 -0.297,0.099 -0.346,0.247 l -0.149,0.396 c -0.659,-0.511 -1.467,-0.775 -2.275,-0.775 -3.067,0 -4.024,2.49 -4.024,4.254 0,1.732 0.94,4.255 4.106,4.255 0.66,0 1.253,-0.132 1.748,-0.314 l 0,3.216 c 0,0.148 0.115,0.263 0.264,0.263 l 1.418,0 z"
           style="fill:#24488a;fill-opacity:1;fill-rule:nonzero;stroke:none"
           id="path214" />
        <path
           inkscape:connector-curvature="0"
           d="m 394.7475,353.1999 3.545,0 c 0.033,0.692 -0.33,1.517 -1.517,1.566 -1.319,-0.016 -1.814,-0.775 -2.028,-1.566 m 4.93,-3.842 c 0.083,-0.115 0.066,-0.297 -0.049,-0.379 -0.858,-0.66 -1.731,-0.99 -2.836,-0.99 -3.166,0 -4.123,2.457 -4.123,4.238 0,1.731 0.957,4.221 4.123,4.221 2.16,0 3.364,-1.385 3.364,-3.512 0,-0.28 -0.017,-0.626 -0.083,-1.022 -0.017,-0.149 -0.148,-0.264 -0.297,-0.264 l -5.112,0 c 0.133,-0.808 0.611,-1.929 2.128,-1.929 0.659,0 1.335,0.181 1.896,0.544 0.115,0.066 0.28,0.049 0.363,-0.066 l 0.626,-0.841 z"
           style="fill:#24488a;fill-opacity:1;fill-rule:nonzero;stroke:none"
           id="path216" />
        <path
           inkscape:connector-curvature="0"
           d="m 421.2006,350.0627 -0.006,0.007 c -0.117,0.136 -0.228,0.264 -0.341,0.411 -0.054,0.064 -0.136,0.102 -0.226,0.102 -0.068,0 -0.133,-0.021 -0.19,-0.062 -0.543,-0.418 -1.654,-1.121 -2.996,-1.121 -1.537,0 -2.672,0.611 -3.375,1.815 -0.517,0.883 -0.701,1.961 -0.701,2.676 0,0.711 0.184,1.789 0.701,2.678 0.704,1.213 1.84,1.828 3.375,1.828 1.142,0 2.279,-0.603 2.963,-1.167 0.057,-0.048 0.132,-0.074 0.213,-0.074 0.08,0 0.157,0.027 0.217,0.077 l 0.494,0.495 c 0.118,0.117 0.118,0.316 0,0.435 -1.071,1.034 -2.306,1.516 -3.887,1.516 -1.931,0 -3.414,-0.677 -4.407,-2.014 -0.747,-1.005 -1.175,-2.381 -1.175,-3.774 0,-1.421 0.428,-2.814 1.175,-3.822 0.99,-1.337 2.472,-2.015 4.407,-2.015 1.537,0 2.768,0.447 3.871,1.406 0.119,0.118 0.134,0.294 0.036,0.43 -0.05,0.06 -0.1,0.117 -0.148,0.173"
           style="fill:#24488a;fill-opacity:1;fill-rule:nonzero;stroke:none"
           id="path218" />
        <path
           inkscape:connector-curvature="0"
           d="m 411.2182,348.593 -5.676,5.467 5.385,5.112 c 0.062,0.062 0.098,0.142 0.098,0.22 0,0.098 -0.074,0.172 -0.172,0.172 l -1.264,0 c -0.21,0 -0.366,-0.097 -0.462,-0.179 l -5.096,-4.895 0,4.772 c 0,0.161 -0.141,0.302 -0.302,0.302 l -0.891,0 c -0.161,0 -0.302,-0.141 -0.302,-0.302 l 0,-10.857 c 0,-0.161 0.141,-0.302 0.302,-0.302 l 0.891,0 c 0.161,0 0.302,0.141 0.302,0.302 l 0,5.19 5.455,-5.315 c 0.094,-0.081 0.25,-0.177 0.46,-0.177 l 1.199,0 c 0.113,0 0.204,0.092 0.204,0.205 0,0.12 -0.045,0.216 -0.131,0.285"
           style="fill:#24488a;fill-opacity:1;fill-rule:nonzero;stroke:none"
           id="path220" />
        <path
           inkscape:connector-curvature="0"
           d="m 428.0647,350.7735 c 0.382,0 0.692,-0.31 0.692,-0.692 0,-0.382 -0.31,-0.692 -0.692,-0.692 -0.382,0 -0.692,0.31 -0.692,0.692 0,0.382 0.31,0.692 0.692,0.692 m 5.676,0 c 0.381,0 0.691,-0.31 0.691,-0.692 0,-0.382 -0.31,-0.692 -0.691,-0.692 -0.383,0 -0.692,0.31 -0.692,0.692 0,0.382 0.309,0.692 0.692,0.692 m -7.275,-1.667 c 0.941,-0.616 2.577,-1.024 4.437,-1.024 1.86,0 3.495,0.408 4.437,1.024 0.289,0.19 0.462,0.514 0.463,0.86 l 0.007,2.539 c 0,0.038 -0.045,0.058 -0.073,0.031 -0.821,-0.787 -2.676,-1.335 -4.834,-1.336 -2.158,0.001 -4.014,0.549 -4.835,1.336 -0.027,0.027 -0.073,0.007 -0.073,-0.031 l 0.008,-2.539 c 0,-0.346 0.173,-0.67 0.463,-0.86"
           style="fill:#2c7fcb;fill-opacity:1;fill-rule:nonzero;stroke:none"
           id="path222" />
        <path
           inkscape:connector-curvature="0"
           d="m 430.9023,351.9687 c 2.128,0 3.961,0.534 4.798,1.303 0.02,0.018 0.03,0.044 0.028,0.071 l -0.425,5.854 c -0.003,0.038 -0.03,0.07 -0.067,0.078 -0.981,0.21 -2.708,0.343 -4.334,0.343 -1.626,0 -3.353,-0.133 -4.334,-0.343 -0.037,-0.008 -0.064,-0.04 -0.067,-0.078 l -0.424,-5.854 c -0.003,-0.027 0.007,-0.053 0.027,-0.071 0.837,-0.769 2.671,-1.303 4.798,-1.303"
           style="fill:#2c7fcb;fill-opacity:1;fill-rule:nonzero;stroke:none"
           id="path224" />
        <path
           inkscape:connector-curvature="0"
           d="m 429.6227,361.6324 1.28,0 1.28,0 c 0.177,0 0.32,-0.143 0.32,-0.32 0,-0.177 -0.143,-0.321 -0.32,-0.321 l -1.28,0 -1.28,0 c -0.177,0 -0.32,0.144 -0.32,0.321 0,0.177 0.143,0.32 0.32,0.32 m -2.916,-1.573 c 0.987,0.193 2.645,0.315 4.196,0.315 1.551,0 3.208,-0.122 4.196,-0.315 0.058,-0.012 0.11,0.038 0.102,0.097 l -0.166,1.179 c -0.105,0.568 -0.43,0.961 -0.961,0.961 l -3.171,0 -3.172,0 c -0.53,0 -0.855,-0.393 -0.961,-0.961 l -0.165,-1.179 c -0.008,-0.059 0.043,-0.109 0.102,-0.097"
           style="fill:#2c7fcb;fill-opacity:1;fill-rule:nonzero;stroke:none"
           id="path226" />
      </g>
    </g>
    <g
       transform="matrix(1.25,0,0,-1.25,257.67277,613.99281)"
       id="g228">
      <g
         id="g230"
         clip-path="url(#clipPath232)">
        <path
           inkscape:connector-curvature="0"
           d="m 436.4734,344.4133 -2.32,3.345 c -0.024,0.036 -0.069,0.051 -0.11,0.039 -1.139,-0.338 -2.212,-0.453 -3.141,-0.454 -0.929,10e-4 -2.002,0.116 -3.141,0.454 -0.041,0.012 -0.085,-0.003 -0.11,-0.039 l -2.32,-3.345 c -0.029,-0.043 0.001,-0.101 0.053,-0.101 l 1.232,0 c 0.021,0 0.041,0.011 0.053,0.028 l 1.207,1.769 c 0.019,0.027 0.049,0.043 0.082,0.043 l 2.944,0 2.944,0 c 0.033,0 0.064,-0.016 0.082,-0.043 l 1.207,-1.769 c 0.012,-0.017 0.032,-0.028 0.053,-0.028 l 1.232,0 c 0.052,0 0.082,0.058 0.053,0.101"
           style="fill:#2c7fcb;fill-opacity:1;fill-rule:nonzero;stroke:none"
           id="path236" />
        <path
           inkscape:connector-curvature="0"
           d="m 535.5011,358.2844 c -0.004,-0.014 -0.018,-0.023 -0.036,-0.023 -0.013,0 -0.027,0.009 -0.032,0.023 l -0.338,0.807 -0.239,-0.749 c -0.013,-0.036 -0.049,-0.063 -0.09,-0.063 l -0.086,0 c -0.031,0 -0.058,0.032 -0.045,0.063 l 0.397,1.186 c 0.005,0.018 0.018,0.027 0.036,0.027 0.018,0 0.032,-0.009 0.036,-0.027 l 0.366,-0.843 0.365,0.848 c 0.004,0.013 0.018,0.022 0.031,0.022 0.014,0 0.027,-0.009 0.032,-0.022 l 0.401,-1.191 c 0.009,-0.031 -0.013,-0.063 -0.045,-0.063 l -0.081,0 c -0.041,0 -0.077,0.027 -0.09,0.063 l -0.244,0.749 -0.338,-0.807 z m -1.727,1.086 c -0.036,0 -0.068,0.032 -0.068,0.068 l 0,0.045 c 0,0.037 0.032,0.068 0.068,0.068 l 0.798,0 c 0.036,0 0.068,-0.031 0.068,-0.068 l 0,-0.045 c 0,-0.036 -0.032,-0.068 -0.068,-0.068 l -0.297,0 0,-1.023 c 0,-0.036 -0.032,-0.068 -0.068,-0.068 l -0.068,0 c -0.036,0 -0.067,0.032 -0.067,0.068 l 0,1.023 -0.298,0 z"
           style="fill:#2c7fcb;fill-opacity:1;fill-rule:nonzero;stroke:none"
           id="path238" />
      </g>
    </g>
  </g>
</svg>
