<?xml version="1.0" encoding="UTF-8" standalone="no"?>
<!-- Created with Inkscape (http://www.inkscape.org/) -->

<svg
   xmlns:dc="http://purl.org/dc/elements/1.1/"
   xmlns:cc="http://creativecommons.org/ns#"
   xmlns:rdf="http://www.w3.org/1999/02/22-rdf-syntax-ns#"
   xmlns:svg="http://www.w3.org/2000/svg"
   xmlns="http://www.w3.org/2000/svg"
   xmlns:sodipodi="http://sodipodi.sourceforge.net/DTD/sodipodi-0.dtd"
   xmlns:inkscape="http://www.inkscape.org/namespaces/inkscape"
   id="svg2"
   version="1.1"
   inkscape:version="0.48.4 r9939"
   width="428.29874"
   height="64.483749"
   xml:space="preserve"
   sodipodi:docname="ST Sounder.svg"><metadata
     id="metadata8"><rdf:RDF><cc:Work
         rdf:about=""><dc:format>image/svg+xml</dc:format><dc:type
           rdf:resource="http://purl.org/dc/dcmitype/StillImage" /><dc:title></dc:title></cc:Work></rdf:RDF></metadata><defs
     id="defs6"><clipPath
       clipPathUnits="userSpaceOnUse"
       id="clipPath12"><path
         d="M 0,0 612,0 612,792 0,792 0,0 z"
         id="path14"
         inkscape:connector-curvature="0" /></clipPath><clipPath
       clipPathUnits="userSpaceOnUse"
       id="clipPath24"><path
         d="m -1,793 614,0 0,-794 -614,0 0,794 z"
         id="path26"
         inkscape:connector-curvature="0" /></clipPath><clipPath
       clipPathUnits="userSpaceOnUse"
       id="clipPath32"><path
         d="m 0,792.06 612,0 0,-792 -612,0 0,792 z"
         id="path34"
         inkscape:connector-curvature="0" /></clipPath><clipPath
       clipPathUnits="userSpaceOnUse"
       id="clipPath64"><path
         d="m 288.6,624 50.4,0 0,-220.8 -50.4,0 0,220.8 z"
         clip-rule="evenodd"
         id="path66"
         inkscape:connector-curvature="0" /></clipPath><clipPath
       clipPathUnits="userSpaceOnUse"
       id="clipPath72"><path
         d="m -1,793 614,0 0,-794 -614,0 0,794 z"
         id="path74"
         inkscape:connector-curvature="0" /></clipPath><clipPath
       clipPathUnits="userSpaceOnUse"
       id="clipPath80"><path
         d="m 0,792.06 612,0 0,-792 -612,0 0,792 z"
         id="path82"
         inkscape:connector-curvature="0" /></clipPath><clipPath
       clipPathUnits="userSpaceOnUse"
       id="clipPath112"><path
         d="m 144.3,624 67.2,0 0,-324 -67.2,0 0,324 z"
         clip-rule="evenodd"
         id="path114"
         inkscape:connector-curvature="0" /></clipPath><clipPath
       clipPathUnits="userSpaceOnUse"
       id="clipPath120"><path
         d="m -1,793 614,0 0,-794 -614,0 0,794 z"
         id="path122"
         inkscape:connector-curvature="0" /></clipPath><clipPath
       clipPathUnits="userSpaceOnUse"
       id="clipPath128"><path
         d="m 0,792.06 612,0 0,-792 -612,0 0,792 z"
         id="path130"
         inkscape:connector-curvature="0" /></clipPath><clipPath
       clipPathUnits="userSpaceOnUse"
       id="clipPath172"><path
         d="m -1,793 614,0 0,-794 -614,0 0,794 z"
         id="path174"
         inkscape:connector-curvature="0" /></clipPath><clipPath
       clipPathUnits="userSpaceOnUse"
       id="clipPath180"><path
         d="m 0,792.06 612,0 0,-792 -612,0 0,792 z"
         id="path182"
         inkscape:connector-curvature="0" /></clipPath><clipPath
       clipPathUnits="userSpaceOnUse"
       id="clipPath212"><path
         d="m 416.4,624 51.6,0 0,-343.2 -51.6,0 0,343.2 z"
         clip-rule="evenodd"
         id="path214"
         inkscape:connector-curvature="0" /></clipPath><clipPath
       clipPathUnits="userSpaceOnUse"
       id="clipPath220"><path
         d="m -1,793 614,0 0,-794 -614,0 0,794 z"
         id="path222"
         inkscape:connector-curvature="0" /></clipPath><clipPath
       clipPathUnits="userSpaceOnUse"
       id="clipPath228"><path
         d="m 0,792.06 612,0 0,-792 -612,0 0,792 z"
         id="path230"
         inkscape:connector-curvature="0" /></clipPath><clipPath
       clipPathUnits="userSpaceOnUse"
       id="clipPath272"><path
         d="m -1,793 614,0 0,-794 -614,0 0,794 z"
         id="path274"
         inkscape:connector-curvature="0" /></clipPath><clipPath
       clipPathUnits="userSpaceOnUse"
       id="clipPath280"><path
         d="m 0,792.06 612,0 0,-792 -612,0 0,792 z"
         id="path282"
         inkscape:connector-curvature="0" /></clipPath><clipPath
       clipPathUnits="userSpaceOnUse"
       id="clipPath292"><path
         d="m 391.136,107.45 79.16,0 0,-89.45 -79.16,0 0,89.45 z"
         clip-rule="evenodd"
         id="path294"
         inkscape:connector-curvature="0" /></clipPath><clipPath
       clipPathUnits="userSpaceOnUse"
       id="clipPath300"><path
         d="m -1,793 614,0 0,-794 -614,0 0,794 z"
         id="path302"
         inkscape:connector-curvature="0" /></clipPath><clipPath
       clipPathUnits="userSpaceOnUse"
       id="clipPath308"><path
         d="m 0,792.06 612,0 0,-792 -612,0 0,792 z"
         id="path310"
         inkscape:connector-curvature="0" /></clipPath><clipPath
       clipPathUnits="userSpaceOnUse"
       id="clipPath372"><path
         d="m -1,793 614,0 0,-794 -614,0 0,794 z"
         id="path374"
         inkscape:connector-curvature="0" /></clipPath><clipPath
       clipPathUnits="userSpaceOnUse"
       id="clipPath380"><path
         d="m 0,792.06 612,0 0,-792 -612,0 0,792 z"
         id="path382"
         inkscape:connector-curvature="0" /></clipPath></defs><sodipodi:namedview
     pagecolor="#ffffff"
     bordercolor="#666666"
     borderopacity="1"
     objecttolerance="10"
     gridtolerance="10"
     guidetolerance="10"
     inkscape:pageopacity="0"
     inkscape:pageshadow="2"
     inkscape:window-width="708"
     inkscape:window-height="480"
     id="namedview4"
     showgrid="false"
     inkscape:zoom="0.30849673"
     inkscape:cx="284.485"
     inkscape:cy="-138.0075"
     inkscape:window-x="0"
     inkscape:window-y="0"
     inkscape:window-maximized="0"
     inkscape:current-layer="g10"
     fit-margin-top="0"
     fit-margin-left="0"
     fit-margin-right="0"
     fit-margin-bottom="0" /><g
     id="g10"
     inkscape:groupmode="layer"
     inkscape:label="Sound Transit Signage Design Manual, 2004"
     transform="matrix(0,-1.25,-1.25,0,779.485,584.99125)"
     clip-path="url(#clipPath12)"><g
       id="g16"
       transform="translate(594,784)"><path
         d="M 0,0 0,0"
         style="fill:#ffffff;fill-opacity:1;fill-rule:nonzero;stroke:none"
         id="path18"
         inkscape:connector-curvature="0" /></g><g
       id="g208"
       style="fill:#003e7e;fill-opacity:1"><g
         id="g210"
         clip-path="url(#clipPath212)"
         style="fill:#003e7e;fill-opacity:1"><g
           id="g216"
           style="fill:#003e7e;fill-opacity:1"><g
             id="g218"
             clip-path="url(#clipPath220)"
             style="fill:#003e7e;fill-opacity:1"><g
               id="g224"
               style="fill:#003e7e;fill-opacity:1"><g
                 id="g226"
                 clip-path="url(#clipPath228)"
                 style="fill:#003e7e;fill-opacity:1"><g
                   id="g232"
                   transform="translate(444.344,623.588)"
                   style="fill:#003e7e;fill-opacity:1"><path
                     d="m 0,0 22.738,-2.792 0,-66.508 -5.581,0.685 0,35.918 c 0,3.808 -3.088,7.275 -6.897,7.743 -3.809,0.467 -6.897,-2.241 -6.897,-6.05 l 0.018,-5.192 c 0,-0.933 -0.757,-1.597 -1.69,-1.482 -0.934,0.114 -1.69,0.964 -1.69,1.897 L 0,0"
                     style="fill:#003e7e;fill-opacity:1;fill-rule:evenodd;stroke:none"
                     id="path234"
                     inkscape:connector-curvature="0" /></g><g
                   id="g236"
                   transform="translate(439.138,604.292)"
                   style="fill:#003e7e;fill-opacity:1"><path
                     d="m 0,0 0,-15.845 c 0,-3.809 3.087,-7.276 6.897,-7.744 3.808,-0.468 6.896,2.241 6.896,6.05 0,3.809 -0.017,4.259 -0.017,5.192 0,0.933 0.757,1.597 1.69,1.482 0.933,-0.115 1.69,-0.964 1.69,-1.897 l 0,-35.917 -11.95,1.467 0,19.872 -27.04,3.32 0,26.765 L 0,0.064 0,0"
                     style="fill:#003e7e;fill-opacity:1;fill-rule:nonzero;stroke:none"
                     id="path238"
                     inkscape:connector-curvature="0" /></g><g
                   id="g240"
                   transform="translate(425.317,519.948)"
                   style="fill:#003e7e;fill-opacity:1"><path
                     d="m 0,0 c 0,-4.636 2.485,-7.506 5.627,-7.506 3.801,0 5.481,3.753 9.209,9.552 3.946,6.132 8.112,9.198 12.862,9.198 8.33,0 14.978,-7.227 14.978,-17.941 0,-4.529 -1.169,-9.052 -3.58,-13.796 l -8.986,1.68 c 2.485,4.523 3.727,8.389 3.727,11.822 0,4.489 -2.193,7.285 -5.043,7.285 -3.654,0 -4.969,-4.121 -8.916,-9.623 -4.092,-5.69 -7.381,-8.827 -13.154,-8.827 -9.135,0 -15.635,6.857 -15.635,17.052 0,5.851 1.68,11.18 5.113,16.657 L 4.97,13.947 C 1.754,8.47 0,4.017 0,0"
                     style="fill:#003e7e;fill-opacity:1;fill-rule:nonzero;stroke:none"
                     id="path242"
                     inkscape:connector-curvature="0" /></g><g
                   id="g244"
                   transform="translate(443.698,479.044)"
                   style="fill:#003e7e;fill-opacity:1"><path
                     d="m 0,0 c 0,-3.73 -3.077,-6.217 -7.913,-6.217 -6.521,0 -11.136,3.877 -11.136,8.338 0,3.875 3.004,6.362 7.913,6.362 C -4.616,8.483 0,4.461 0,0 z m -10.843,18.608 c -9.885,0 -16.306,-6.046 -16.306,-15.756 0,-10.963 8.319,-19.269 19.529,-19.269 9.153,0 15.795,6.339 15.795,15.758 0,10.963 -8.102,19.267 -19.018,19.267"
                     style="fill:#003e7e;fill-opacity:1;fill-rule:nonzero;stroke:none"
                     id="path246"
                     inkscape:connector-curvature="0" /></g><g
                   id="g248"
                   transform="translate(451.123,445.154)"
                   style="fill:#003e7e;fill-opacity:1"><path
                     d="m 0,0 -20.48,3.067 c -1.466,0.219 -2.419,0.293 -2.785,0.293 -2.565,0 -3.884,-1.169 -3.884,-2.922 0,-2.557 1.685,-5.552 5.075,-8.61 L 0,-11.459 l 0,-9.788 -33.824,5.04 0,9.788 3.764,-0.594 c -2.984,3.653 -4.439,7.159 -4.439,11.247 0,5.68 3.42,9.176 9.255,9.176 1.1,0 2.419,-0.073 3.738,-0.292 L 0,9.914 0,0"
                     style="fill:#003e7e;fill-opacity:1;fill-rule:nonzero;stroke:none"
                     id="path250"
                     inkscape:connector-curvature="0" /></g><g
                   id="g252"
                   transform="translate(451.13,416.477)"
                   style="fill:#003e7e;fill-opacity:1"><path
                     d="m 0,0 0,-9.715 -3.84,0.584 c 3.012,-3.652 4.501,-7.158 4.501,-11.246 0,-5.68 -3.48,-9.176 -9.318,-9.176 -1.096,0 -2.411,0.073 -3.727,0.292 l -21.447,3.204 0,9.914 20.424,-3.068 c 1.462,-0.219 2.485,-0.292 2.997,-0.292 2.338,0 3.653,1.242 3.653,2.922 0,2.556 -1.681,5.551 -5.042,8.619 l -22.032,3.287 0,9.715 L 0,0"
                     style="fill:#003e7e;fill-opacity:1;fill-rule:nonzero;stroke:none"
                     id="path254"
                     inkscape:connector-curvature="0" /></g><g
                   id="g256"
                   transform="translate(424.572,361.27)"
                   style="fill:#003e7e;fill-opacity:1"><path
                     d="m 0,0 c 0,0.511 -0.073,0.95 -0.073,1.461 0,6.647 2.93,10.153 8.056,10.153 6.519,0 10.62,-4.383 10.62,-12.198 0,-0.658 0,-1.388 -0.073,-2.119 L 0,0 z m -6.782,-8.838 49.417,-7.378 0,9.861 -15.704,2.338 c 0.145,1.314 0.219,2.629 0.219,3.871 0,13.582 -7.743,21.96 -18.947,21.96 -5.639,0 -10.318,-2.55 -13.307,-7.067 -2.261,-3.425 -2.844,-7.881 -2.844,-13.724 0,-2.63 0.365,-5.917 1.166,-9.861"
                     style="fill:#003e7e;fill-opacity:1;fill-rule:nonzero;stroke:none"
                     id="path258"
                     inkscape:connector-curvature="0" /></g><g
                   id="g260"
                   transform="translate(438.821,333.389)"
                   style="fill:#003e7e;fill-opacity:1"><path
                     d="m 0,0 c 4.032,-1.166 6.085,-3.426 6.085,-6.634 0,-3.135 -1.833,-4.812 -5.426,-4.812 -0.22,0 -0.44,0 -0.659,0 L 0,0 z m -19.501,-17.376 8.833,-1.831 c -2.339,4.979 -3.654,9 -3.654,12.281 0,5.468 2.631,8.384 7.455,8.384 0.292,0 0.657,-0.072 1.023,-0.072 l 0,-22.423 c 1.315,-0.147 2.556,-0.22 3.725,-0.22 9.669,0 15.089,5.198 15.089,14.258 0,11.373 -7.765,18.659 -18.814,18.659 -10.156,0 -16.428,-6.339 -16.428,-16.471 0,-4.521 0.948,-8.905 2.771,-12.565"
                     style="fill:#003e7e;fill-opacity:1;fill-rule:nonzero;stroke:none"
                     id="path262"
                     inkscape:connector-curvature="0" /></g><g
                   id="g264"
                   transform="translate(451.123,304.104)"
                   style="fill:#003e7e;fill-opacity:1"><path
                     d="m 0,0 0,-9.788 -4.675,0.657 c 3.44,-3.068 5.343,-5.113 5.343,-7.889 0,-1.899 -0.805,-3.944 -2.269,-6.135 l -10.319,4.747 c 1.828,1.681 2.853,3.215 2.853,4.675 0,1.899 -1.537,3.945 -4.609,5.99 l -20.148,2.995 0,9.788 L 0,0"
                     style="fill:#003e7e;fill-opacity:1;fill-rule:nonzero;stroke:none"
                     id="path266"
                     inkscape:connector-curvature="0" /></g></g></g></g></g></g></g></g></svg>