<?xml version="1.0" encoding="UTF-8" standalone="no"?>
<!-- Created with Inkscape (http://www.inkscape.org/) -->

<svg
   xmlns:dc="http://purl.org/dc/elements/1.1/"
   xmlns:cc="http://creativecommons.org/ns#"
   xmlns:rdf="http://www.w3.org/1999/02/22-rdf-syntax-ns#"
   xmlns:svg="http://www.w3.org/2000/svg"
   xmlns="http://www.w3.org/2000/svg"
   xmlns:sodipodi="http://sodipodi.sourceforge.net/DTD/sodipodi-0.dtd"
   xmlns:inkscape="http://www.inkscape.org/namespaces/inkscape"
   id="svg2"
   version="1.1"
   inkscape:version="0.48.4 r9939"
   width="274.965"
   height="62.34375"
   xml:space="preserve"
   sodipodi:docname="ST Link.svg"><metadata
     id="metadata8"><rdf:RDF><cc:Work
         rdf:about=""><dc:format>image/svg+xml</dc:format><dc:type
           rdf:resource="http://purl.org/dc/dcmitype/StillImage" /><dc:title></dc:title></cc:Work></rdf:RDF></metadata><defs
     id="defs6"><clipPath
       clipPathUnits="userSpaceOnUse"
       id="clipPath12"><path
         d="M 0,0 612,0 612,792 0,792 0,0 z"
         id="path14"
         inkscape:connector-curvature="0" /></clipPath><clipPath
       clipPathUnits="userSpaceOnUse"
       id="clipPath24"><path
         d="m -1,793 614,0 0,-794 -614,0 0,794 z"
         id="path26"
         inkscape:connector-curvature="0" /></clipPath><clipPath
       clipPathUnits="userSpaceOnUse"
       id="clipPath32"><path
         d="m 0,792.06 612,0 0,-792 -612,0 0,792 z"
         id="path34"
         inkscape:connector-curvature="0" /></clipPath><clipPath
       clipPathUnits="userSpaceOnUse"
       id="clipPath64"><path
         d="m 288.6,624 50.4,0 0,-220.8 -50.4,0 0,220.8 z"
         clip-rule="evenodd"
         id="path66"
         inkscape:connector-curvature="0" /></clipPath><clipPath
       clipPathUnits="userSpaceOnUse"
       id="clipPath72"><path
         d="m -1,793 614,0 0,-794 -614,0 0,794 z"
         id="path74"
         inkscape:connector-curvature="0" /></clipPath><clipPath
       clipPathUnits="userSpaceOnUse"
       id="clipPath80"><path
         d="m 0,792.06 612,0 0,-792 -612,0 0,792 z"
         id="path82"
         inkscape:connector-curvature="0" /></clipPath><clipPath
       clipPathUnits="userSpaceOnUse"
       id="clipPath112"><path
         d="m 144.3,624 67.2,0 0,-324 -67.2,0 0,324 z"
         clip-rule="evenodd"
         id="path114"
         inkscape:connector-curvature="0" /></clipPath><clipPath
       clipPathUnits="userSpaceOnUse"
       id="clipPath120"><path
         d="m -1,793 614,0 0,-794 -614,0 0,794 z"
         id="path122"
         inkscape:connector-curvature="0" /></clipPath><clipPath
       clipPathUnits="userSpaceOnUse"
       id="clipPath128"><path
         d="m 0,792.06 612,0 0,-792 -612,0 0,792 z"
         id="path130"
         inkscape:connector-curvature="0" /></clipPath><clipPath
       clipPathUnits="userSpaceOnUse"
       id="clipPath172"><path
         d="m -1,793 614,0 0,-794 -614,0 0,794 z"
         id="path174"
         inkscape:connector-curvature="0" /></clipPath><clipPath
       clipPathUnits="userSpaceOnUse"
       id="clipPath180"><path
         d="m 0,792.06 612,0 0,-792 -612,0 0,792 z"
         id="path182"
         inkscape:connector-curvature="0" /></clipPath><clipPath
       clipPathUnits="userSpaceOnUse"
       id="clipPath212"><path
         d="m 416.4,624 51.6,0 0,-343.2 -51.6,0 0,343.2 z"
         clip-rule="evenodd"
         id="path214"
         inkscape:connector-curvature="0" /></clipPath><clipPath
       clipPathUnits="userSpaceOnUse"
       id="clipPath220"><path
         d="m -1,793 614,0 0,-794 -614,0 0,794 z"
         id="path222"
         inkscape:connector-curvature="0" /></clipPath><clipPath
       clipPathUnits="userSpaceOnUse"
       id="clipPath228"><path
         d="m 0,792.06 612,0 0,-792 -612,0 0,792 z"
         id="path230"
         inkscape:connector-curvature="0" /></clipPath><clipPath
       clipPathUnits="userSpaceOnUse"
       id="clipPath272"><path
         d="m -1,793 614,0 0,-794 -614,0 0,794 z"
         id="path274"
         inkscape:connector-curvature="0" /></clipPath><clipPath
       clipPathUnits="userSpaceOnUse"
       id="clipPath280"><path
         d="m 0,792.06 612,0 0,-792 -612,0 0,792 z"
         id="path282"
         inkscape:connector-curvature="0" /></clipPath><clipPath
       clipPathUnits="userSpaceOnUse"
       id="clipPath292"><path
         d="m 391.136,107.45 79.16,0 0,-89.45 -79.16,0 0,89.45 z"
         clip-rule="evenodd"
         id="path294"
         inkscape:connector-curvature="0" /></clipPath><clipPath
       clipPathUnits="userSpaceOnUse"
       id="clipPath300"><path
         d="m -1,793 614,0 0,-794 -614,0 0,794 z"
         id="path302"
         inkscape:connector-curvature="0" /></clipPath><clipPath
       clipPathUnits="userSpaceOnUse"
       id="clipPath308"><path
         d="m 0,792.06 612,0 0,-792 -612,0 0,792 z"
         id="path310"
         inkscape:connector-curvature="0" /></clipPath><clipPath
       clipPathUnits="userSpaceOnUse"
       id="clipPath372"><path
         d="m -1,793 614,0 0,-794 -614,0 0,794 z"
         id="path374"
         inkscape:connector-curvature="0" /></clipPath><clipPath
       clipPathUnits="userSpaceOnUse"
       id="clipPath380"><path
         d="m 0,792.06 612,0 0,-792 -612,0 0,792 z"
         id="path382"
         inkscape:connector-curvature="0" /></clipPath></defs><sodipodi:namedview
     pagecolor="#ffffff"
     bordercolor="#666666"
     borderopacity="1"
     objecttolerance="10"
     gridtolerance="10"
     guidetolerance="10"
     inkscape:pageopacity="0"
     inkscape:pageshadow="2"
     inkscape:window-width="1920"
     inkscape:window-height="1017"
     id="namedview4"
     showgrid="false"
     inkscape:zoom="0.85025367"
     inkscape:cx="366.56016"
     inkscape:cy="87.21705"
     inkscape:window-x="-8"
     inkscape:window-y="-8"
     inkscape:window-maximized="1"
     inkscape:current-layer="g10"
     fit-margin-top="0"
     fit-margin-left="0"
     fit-margin-right="0"
     fit-margin-bottom="0" /><g
     id="g10"
     inkscape:groupmode="layer"
     inkscape:label="Sound Transit Signage Design Manual, 2004"
     transform="matrix(0,-1.25,-1.25,0,779.485,423.4675)"
     clip-path="url(#clipPath12)"><g
       id="g16"
       transform="translate(594,784)"><path
         d="M 0,0 0,0"
         style="fill:#ffffff;fill-opacity:1;fill-rule:nonzero;stroke:none"
         id="path18"
         inkscape:connector-curvature="0" /></g><g
       id="g60"
       style="fill:#003e7e;fill-opacity:1"><g
         id="g62"
         clip-path="url(#clipPath64)"
         style="fill:#003e7e;fill-opacity:1"><g
           id="g68"
           style="fill:#003e7e;fill-opacity:1"><g
             id="g70"
             clip-path="url(#clipPath72)"
             style="fill:#003e7e;fill-opacity:1"><g
               id="g76"
               style="fill:#003e7e;fill-opacity:1"><g
                 id="g78"
                 clip-path="url(#clipPath80)"
                 style="fill:#003e7e;fill-opacity:1"><g
                   id="g84"
                   transform="translate(315.944,623.588)"
                   style="fill:#003e7e;fill-opacity:1"><path
                     d="m 0,0 22.738,-2.792 0,-66.508 -5.581,0.685 0,35.918 c 0,3.808 -3.088,7.275 -6.897,7.743 -3.809,0.467 -6.897,-2.241 -6.897,-6.05 l 0.018,-5.192 c 0,-0.933 -0.757,-1.597 -1.69,-1.482 -0.934,0.114 -1.69,0.964 -1.69,1.897 L 0,0"
                     style="fill:#003e7e;fill-opacity:1;fill-rule:evenodd;stroke:none"
                     id="path86"
                     inkscape:connector-curvature="0" /></g><g
                   id="g88"
                   transform="translate(310.738,604.292)"
                   style="fill:#003e7e;fill-opacity:1"><path
                     d="m 0,0 0,-15.845 c 0,-3.809 3.087,-7.276 6.897,-7.744 3.808,-0.468 6.896,2.241 6.896,6.05 0,3.809 -0.017,4.259 -0.017,5.192 0,0.933 0.757,1.597 1.69,1.482 0.933,-0.115 1.69,-0.964 1.69,-1.897 l 0,-35.917 -11.95,1.467 0,19.872 -27.04,3.32 0,26.765 L 0,0.064 0,0"
                     style="fill:#003e7e;fill-opacity:1;fill-rule:nonzero;stroke:none"
                     id="path90"
                     inkscape:connector-curvature="0" /></g><g
                   id="g92"
                   transform="translate(338.774,526.58)"
                   style="fill:#003e7e;fill-opacity:1"><path
                     d="m 0,0 0,-10.815 -41.7,6.212 0,-22.654 -8.175,1.17 0,33.541 L 0,0"
                     style="fill:#003e7e;fill-opacity:1;fill-rule:nonzero;stroke:none"
                     id="path94"
                     inkscape:connector-curvature="0" /></g><g
                   id="g96"
                   transform="translate(322.724,490.733)"
                   style="fill:#003e7e;fill-opacity:1"><path
                     d="m 0,0 0,-9.644 -33.825,5.041 0,9.645 L 0,0 z m 14.55,-5.751 c 0,-2.84 -2.258,-5.025 -5.025,-5.025 -2.768,0 -5.025,2.257 -5.025,5.025 0,2.767 2.257,5.025 5.025,5.025 2.84,0 5.025,-2.185 5.025,-5.025"
                     style="fill:#003e7e;fill-opacity:1;fill-rule:nonzero;stroke:none"
                     id="path98"
                     inkscape:connector-curvature="0" /></g><g
                   id="g100"
                   transform="translate(322.731,473.309)"
                   style="fill:#003e7e;fill-opacity:1"><path
                     d="m 0,0 0,-9.715 -3.84,0.584 c 3.011,-3.652 4.501,-7.158 4.501,-11.246 0,-5.68 -3.48,-9.176 -9.318,-9.176 -1.096,0 -2.412,0.073 -3.727,0.291 l -21.448,3.205 0,9.914 20.425,-3.068 c 1.461,-0.219 2.484,-0.292 2.996,-0.292 2.338,0 3.654,1.242 3.654,2.922 0,2.556 -1.681,5.551 -5.043,8.619 l -22.032,3.287 0,9.715 L 0,0"
                     style="fill:#003e7e;fill-opacity:1;fill-rule:nonzero;stroke:none"
                     id="path102"
                     inkscape:connector-curvature="0" /></g><g
                   id="g104"
                   transform="translate(338.774,432.466)"
                   style="fill:#003e7e;fill-opacity:1"><path
                     d="m 0,0 0,-9.641 -30.802,4.602 14.752,-12.124 0,-11.687 -16.51,14.17 -17.315,-13.22 0,11.613 15.997,11.686 -15.997,2.41 0,9.641 L 0,0"
                     style="fill:#003e7e;fill-opacity:1;fill-rule:nonzero;stroke:none"
                     id="path106"
                     inkscape:connector-curvature="0" /></g></g></g></g></g></g></g></g></svg>