<?xml version="1.0" encoding="UTF-8"?>
<svg xmlns="http://www.w3.org/2000/svg" width="500" height="193.5" viewBox="-0.5,25 121 47">
<title>TEX partial logo</title>
<g fill="#1e2859">
 <polygon id="T" points="0,25.69 0,35.87 12.71,35.87 12.71,71.39 23.81,71.39 23.81,35.87 36.52,35.87 36.52,25.69" />
 <polygon id="E" points="41.41,25.69 41.41,71.39 75.96,71.39 75.96,61.13 52.51,61.13 52.51,52.41 73.4,52.41 73.4,43.18 
 52.51,43.18 52.51,35.17 75.36,35.17 75.36,25.69" />
 <polygon id="X" points="79.18,25.69 93.35,48.61 79.18,71.43 92.28,71.43 99.9,59.16 106.45,48.61 99.9,38.06 99.9,38.06 
 92.28,25.69" />
</g>
<g fill="#ea0029">
 <polygon id="Xlr" points="106.73,48.88 100.06,59.82 107.05,71.28 120.38,71.28" />
 <polygon id="Xur" points="106.93,25.84 100.05,37.4 106.73,48.34 120.26,25.84" />
</g>
</svg>
