<?xml version="1.0" encoding="UTF-8"?>
<svg version="1.1" viewBox="0 0 1100 250" xmlns="http://www.w3.org/2000/svg"><title>Tri-Rail</title><g><path d="m426.75 185.56 12.833 7.3941-7.0274 13.322-36.848-18.76 6.2941-40.82 15.033 2.1998-1.8943 16.866c12.588-2.9944 21.999-14.36 21.999-27.926 0-8.555-1.8333-14.299-7.6996-19.555-9.8995-11.244-15.949-25.971-15.949-42.165 0-35.137 28.537-63.614 63.675-63.614 35.137 0 63.614 28.476 63.614 63.614 0 6.7829-1.0387 13.261-2.9332 19.371l-22.427-3.7276c1.9555-4.8275 3.0555-10.083 3.0555-15.644 0-22.793-18.516-41.309-41.309-41.309-22.854 0-41.37 18.516-41.37 41.309 0 10.327 5.4387 21.693 9.9606 26.949 9.4106 10.816 13.81 21.388 13.81 34.77 0 21.755-13.627 40.392-32.815 47.725" fill="#f37014"/><path d="m538.33 160.14-0.2441-14.788 15.033-0.91634 2.8721 41.309-38.254 15.583-5.8664-13.994 15.46-7.0274c-9.1051-9.2885-23.649-11.488-35.259-4.5222-7.333 4.3998-11.366 8.983-12.833 16.744-4.5219 14.238-14.055 27.01-27.865 35.32-30.126 18.088-69.235 8.3107-87.384-21.816-18.088-30.126-8.3108-69.235 21.816-87.323 5.7442-3.4832 11.855-5.9275 18.088-7.3941l8.3717 21.082c-5.1942 0.79429-10.266 2.6276-14.971 5.4385-19.555 11.794-25.91 37.154-14.177 56.708 11.794 19.616 37.154 25.91 56.769 14.177 8.7996-5.3163 15.766-15.827 17.905-22.427 4.461-13.627 11.244-22.793 22.732-29.699 18.638-11.183 41.615-9.1051 57.808 3.5442" fill="#0299d9"/><path d="m463.35 77.947-12.527 7.8828-8.494-12.466 33.854-23.71 33.121 24.749-8.9829 12.222-13.994-9.5941c-3.2999 12.527 2.3222 26.154 14.299 32.51 7.5163 4.0331 13.505 5.133 20.899 2.3832 14.605-3.4831 30.432-1.8331 44.67 5.7442 31.043 16.499 42.837 54.997 26.338 86.101-16.499 30.982-55.058 42.776-86.101 26.276-5.9887-3.1775-11.183-7.1496-15.705-11.733l13.81-17.966c3.361 3.9719 7.5163 7.394 12.344 10.022 20.166 10.694 45.22 3.0554 55.914-17.11 10.755-20.166 3.0555-45.159-17.049-55.914-9.1051-4.8275-21.693-5.3775-28.476-3.8498-13.933 3.2387-25.299 2.1388-37.154-4.1554-19.249-10.205-29.271-30.982-26.765-51.392" fill="#91d14f"/><g fill="#00617f"><path d="m201.2 117.97h13.016c13.016 0 28.476-2.9942 28.476-24.321 0-24.382-25.971-21.388-25.971-21.388h-15.521zm-30.126-72.535h52.797s47.542 1.7111 49.009 44.853c1.2828 37.704-20.96 43.998-23.893 45.709 0 0 5.3166 4.522 10.877 10.877 6.294 7.0885 10.51 12.161 15.949 22.61 5.4385 10.45 29.332 43.142 29.332 43.142 0.55027-0.18298 0-167.19 0-167.19h29.332v170.98h-62.88s-28.904-47.114-33.915-51.086c-4.2164-3.3609-10.877-20.166-28.049-20.166h-8.4328v71.252h-30.126z"/><path d="m37.181 45.437h116.9v26.827h-42.348v144.15h-30.126v-144.15h-44.426z"/><path d="m806.59 92.551-20.41 48.642h42.348zm-157.29 25.421h13.016c12.955 0 28.476-2.9332 28.476-24.26 0-24.382-25.971-21.388-25.971-21.388h-15.521zm-30.187-72.474h52.797s47.603 1.6499 49.07 44.853c1.2217 37.704-20.96 43.998-23.893 45.648 0 0 5.3164 4.583 10.877 10.877 6.2941 7.1497 10.511 12.161 15.949 22.671 5.4386 10.449 11.427 19.066 11.427 19.066 0.55027-0.18297 60.619-143.18 60.619-143.18h21.816l75.957 170.98h-30.982l-21.816-48.153h-66.486l-20.227 48.153-34.526 0.0587s-28.965-47.176-33.915-51.147c-4.2165-3.361-10.938-20.105-28.11-20.105h-8.3717v71.252h-30.187z"/><path d="m894.65 45.437h30.065v171.04h-30.126z"/><path d="m955.21 45.62h29.882v144.4h74.796v26.399l-104.92 0.2441z"/><path d="m1038.7 42.076h-7.1497v17.171h-4.2775v-17.171h-7.1497v-2.7498h18.577z"/><path d="m1051.9 54.603c0.7942-3.3 2.0776-7.6998 4.3997-15.277h6.4776v19.921h-3.8498c0-8.0664 0-13.566 0.058-16.621h-0.058c-0.8554 3.0553-2.4444 8.3107-5.0719 16.621h-3.9722c-2.5054-8.0664-4.1553-13.566-5.0719-16.621h-0.059c0.059 3.0553 0.059 8.555 0.059 16.621h-3.7887v-19.921h6.4774c2.261 7.6385 3.6054 11.977 4.3387 15.277z"/></g></g></svg>
