<?xml version="1.0" encoding="UTF-8" standalone="no"?>
<svg
   version="1.1"
   viewBox="0 0 245.08252 225.00314"
   id="svg28"
   width="245.08252"
   height="225.00314"
   xmlns="http://www.w3.org/2000/svg"
   xmlns:svg="http://www.w3.org/2000/svg"
   xmlns:rdf="http://www.w3.org/1999/02/22-rdf-syntax-ns#"
   xmlns:cc="http://creativecommons.org/ns#"
   xmlns:dc="http://purl.org/dc/elements/1.1/">
  <defs
     id="defs32" />
  <title
     id="title2">Tri-Rail</title>
  <path
     d="m 71.841904,173.0581 12.833,7.3941 -7.0274,13.322 -36.848,-18.76 6.2941,-40.82 15.033,2.1998 -1.8943,16.866 c 12.588,-2.9944 21.999,-14.36 21.999,-27.926 0,-8.555 -1.8333,-14.299 -7.6996,-19.555 -9.8995,-11.244 -15.949,-25.971 -15.949,-42.165 0,-35.137 28.537,-63.614 63.674996,-63.614 35.137,0 63.614,28.476 63.614,63.614 0,6.7829 -1.0387,13.261 -2.9332,19.371 l -22.427,-3.7276 c 1.9555,-4.8275 3.0555,-10.083 3.0555,-15.644 0,-22.793 -18.516,-41.309 -41.309,-41.309 -22.853996,0 -41.369996,18.516 -41.369996,41.309 0,10.327 5.4387,21.693 9.9606,26.949 9.410596,10.816 13.809996,21.388 13.809996,34.77 0,21.755 -13.626996,40.392 -32.814996,47.725"
     fill="#f37014"
     id="path4" />
  <path
     d="m 183.4219,147.6381 -0.2441,-14.788 15.033,-0.91634 2.8721,41.309 -38.254,15.583 -5.8664,-13.994 15.46,-7.0274 c -9.1051,-9.2885 -23.649,-11.488 -35.259,-4.5222 -7.333,4.3998 -11.366,8.983 -12.833,16.744 -4.5219,14.238 -14.055,27.01 -27.864996,35.32 -30.126,18.088 -69.235,8.3107 -87.3840001,-21.816 -18.088,-30.126 -8.31079999,-69.235 21.8160001,-87.323 5.7442,-3.4832 11.855,-5.9275 18.088,-7.3941 l 8.3717,21.082 c -5.1942,0.79429 -10.266,2.6276 -14.971,5.4385 -19.555,11.794 -25.91,37.154 -14.177,56.708 11.794,19.616 37.154,25.91 56.769,14.177 8.7996,-5.3163 15.765996,-15.827 17.904996,-22.427 4.461,-13.627 11.244,-22.793 22.732,-29.699 18.638,-11.183 41.615,-9.1051 57.808,3.5442"
     fill="#0299d9"
     id="path6" />
  <path
     d="m 108.4419,65.4451 -12.526996,7.8828 -8.494,-12.466 33.853996,-23.71 33.121,24.749 -8.9829,12.222 -13.994,-9.5941 c -3.2999,12.527 2.3222,26.154 14.299,32.51 7.5163,4.0331 13.505,5.133 20.899,2.3832 14.605,-3.4831 30.432,-1.8331 44.67,5.7442 31.043,16.499 42.837,54.997 26.338,86.101 -16.499,30.982 -55.058,42.776 -86.101,26.276 -5.9887,-3.1775 -11.183,-7.1496 -15.705,-11.733 l 13.81,-17.966 c 3.361,3.9719 7.5163,7.394 12.344,10.022 20.166,10.694 45.22,3.0554 55.914,-17.11 10.755,-20.166 3.0555,-45.159 -17.049,-55.914 -9.1051,-4.8275 -21.693,-5.3775 -28.476,-3.8498 -13.933,3.2387 -25.299,2.1388 -37.154,-4.1554 -19.249,-10.205 -29.271,-30.982 -26.765,-51.392"
     fill="#91d14f"
     id="path8" />
  <metadata
     id="metadata849">
    <rdf:RDF>
      <cc:Work
         rdf:about="">
        <dc:title>Tri-Rail</dc:title>
      </cc:Work>
    </rdf:RDF>
  </metadata>
</svg>
