<?xml version="1.0" encoding="UTF-8" standalone="no"?>
<!DOCTYPE svg PUBLIC "-//W3C//DTD SVG 1.1//EN" "http://www.w3.org/Graphics/SVG/1.1/DTD/svg11.dtd">
<svg width="100%" height="100%" viewBox="0 0 39 27" version="1.1" xmlns="http://www.w3.org/2000/svg" xmlns:xlink="http://www.w3.org/1999/xlink" xml:space="preserve" xmlns:serif="http://www.serif.com/" style="fill-rule:evenodd;clip-rule:evenodd;stroke-linejoin:round;stroke-miterlimit:2;">
    <g id="path146" transform="matrix(1,0,0,1,-387.535,-519.209)">
        <path d="M387.535,532.241L387.535,525.309L426.255,525.309L426.255,532.214L387.535,532.241L387.535,532.241Z" style="fill:rgb(238,51,56);fill-rule:nonzero;"/>
    </g>
    <g id="path148" transform="matrix(1,0,0,1,-387.535,-519.209)">
        <rect x="387.562" y="534.876" width="38.694" height="4.379" style="fill:rgb(32,93,169);fill-rule:nonzero;"/>
    </g>
    <g id="path150" transform="matrix(1,0,0,1,-387.535,-519.209)">
        <path d="M406.828,519.209C402.179,519.209 398.068,521.654 395.73,525.308L399.117,525.308C401.024,523.213 403.764,521.895 406.828,521.895C412.605,521.895 417.28,526.572 417.28,532.348C417.28,538.127 412.605,542.8 406.828,542.8C403.712,542.8 400.917,541.43 399.009,539.254L395.65,539.254C397.961,543.016 402.099,545.515 406.828,545.515C414.109,545.515 419.968,539.603 419.968,532.348C419.968,525.094 414.109,519.209 406.828,519.209" style="fill:rgb(32,93,169);fill-rule:nonzero;"/>
    </g>
    <g id="path152" transform="matrix(1,0,0,1,-387.535,-519.209)">
        <path d="M423.246,540.759L423.434,540.759C423.434,540.867 423.46,540.947 423.514,541.002C423.568,541.054 423.675,541.082 423.783,541.082C423.864,541.082 423.944,541.054 424.025,541.002C424.079,540.974 424.105,540.92 424.105,540.839C424.105,540.732 423.998,540.651 423.757,540.598L423.729,540.598C423.568,540.544 423.434,540.49 423.381,540.437C423.327,540.409 423.299,540.329 423.299,540.222C423.299,540.114 423.327,540.007 423.407,539.925C423.514,539.873 423.622,539.819 423.757,539.819C423.918,539.819 424.025,539.873 424.106,539.953C424.213,540.007 424.239,540.114 424.239,540.249L424.079,540.249C424.079,540.168 424.025,540.088 423.972,540.06C423.918,540.006 423.864,539.979 423.757,539.979C423.675,539.979 423.595,540.006 423.542,540.034C423.488,540.088 423.46,540.114 423.46,540.195C423.46,540.302 423.568,540.383 423.783,540.437L423.89,540.437C424.025,540.49 424.132,540.518 424.186,540.57C424.213,540.598 424.239,540.624 424.267,540.679C424.267,540.705 424.294,540.759 424.294,540.813C424.294,540.947 424.239,541.054 424.159,541.135C424.052,541.189 423.918,541.243 423.783,541.243C423.622,541.243 423.488,541.189 423.38,541.108C423.299,541.028 423.245,540.92 423.245,540.759" style="fill:rgb(32,93,169);fill-rule:nonzero;"/>
    </g>
    <g id="path154" transform="matrix(1,0,0,1,-387.535,-519.209)">
        <path d="M424.67,540.06L424.67,541.217L424.509,541.217L424.509,539.873L424.776,539.873L425.1,540.894C425.126,540.92 425.126,540.947 425.126,540.947L425.126,541.002C425.154,540.974 425.154,540.947 425.154,540.947C425.154,540.92 425.154,540.894 425.18,540.894L425.503,539.873L425.771,539.873L425.771,541.217L425.61,541.217L425.61,540.06C425.584,540.088 425.584,540.088 425.584,540.114C425.584,540.14 425.584,540.168 425.556,540.168L425.207,541.217L425.046,541.217L424.724,540.168C424.698,540.168 424.698,540.14 424.698,540.114C424.698,540.114 424.698,540.088 424.67,540.06" style="fill:rgb(32,93,169);fill-rule:nonzero;"/>
    </g>
</svg>
