<?xml version="1.0" encoding="UTF-8" standalone="no"?><!DOCTYPE svg PUBLIC "-//W3C//DTD SVG 1.1//EN" "http://www.w3.org/Graphics/SVG/1.1/DTD/svg11.dtd"><svg width="100%" height="100%" viewBox="0 0 2165 962" version="1.1" xmlns="http://www.w3.org/2000/svg" xmlns:xlink="http://www.w3.org/1999/xlink" xml:space="preserve" xmlns:serif="http://www.serif.com/" style="fill-rule:evenodd;clip-rule:evenodd;stroke-linejoin:round;stroke-miterlimit:1.41421;"><path d="M859.503,588.6l337.678,-588.6l391.881,0l0,588.6l-235.447,0l0,-391.884l-233.887,391.884l-260.225,0Z" style="fill:#ffcb05;"/><path d="M734.034,0l-337.659,588.6l-391.882,0l0,-588.6l235.438,0l0,391.881l233.881,-391.881l260.222,0Z" style="fill:#ffcb05;"/><path d="M826.978,0l278.809,0l-342.322,588.6l-278.815,0l342.328,-588.6Z" style="fill:#ffcb05;"/><path d="M1930.01,587.525c0,0 -3.566,-131.403 -3.566,-141.022c-0.025,-9.587 4.785,-10.962 12.328,-7.525l114.088,25.353c0,0 -13.781,-45.928 -15.844,-52.784c-2.062,-6.859 0,-13.716 6.153,-20.588c6.166,-6.84 121.266,-106.487 121.266,-106.487c0,0 -25.05,-19.213 -31.225,-23.994c-6.178,-4.815 -6.263,-12.487 -3.113,-19.212c5.128,-10.982 28.625,-60.463 28.625,-60.463c0,0 -53.209,13.366 -64.978,16.272c-7.203,1.781 -14.734,0.25 -18.237,-6.737c-3.516,-6.994 -17.528,-35.291 -17.528,-35.291l0.121,0.147c0,0 -32.153,30.097 -58.85,54.528c-9.593,8.922 -17.296,0.006 -15.246,-8.906c2.037,-8.919 28.65,-127.766 28.65,-127.766c0,0 -38.991,10.388 -46.619,12.072c-7.619,1.697 -13.588,-3.15 -16.747,-9.869c-5.213,-10.969 -38.869,-75.237 -38.869,-75.237c0,0 -33.556,64.268 -38.709,75.237c-3.175,6.719 -9.094,11.566 -16.747,9.869c-7.641,-1.684 -46.631,-12.072 -46.631,-12.072c0,0 26.868,118.847 28.918,127.766c2.075,8.912 -5.615,17.828 -15.221,8.906c-26.769,-24.431 -58.947,-54.528 -58.947,-54.528l0.109,-0.147c0,0 -13.953,28.297 -17.444,35.291c-3.503,6.987 -11.034,8.521 -18.237,6.737c-11.756,-2.906 -65.003,-16.272 -65.003,-16.272c0,0 23.609,49.481 28.759,60.463c3.15,6.725 3.113,14.397 -3.062,19.212c-6.179,4.778 -31.179,23.994 -31.179,23.994c0,0 115.297,99.647 121.485,106.487c6.178,6.872 8.24,13.729 6.187,20.588c-2.05,6.853 -15.697,52.784 -15.697,52.784l114.013,-25.353c7.544,-3.437 12.316,-2.062 12.353,7.525c0.013,9.619 -3.297,141.022 -3.297,141.022l37.941,0Z" style="fill:#ed1c24;"/><path d="M324.89,952.784c-9.465,-2.953 -17.634,-9.643 -17.634,-30.15l0,-160.912c0,-20.51 8.165,-27.172 17.634,-30.128c6.038,-1.903 6.928,-4.663 0,-4.663l-64.05,0c-6.934,0 -6.056,2.76 0,4.663c9.966,3.1 15.131,8.644 15.131,30.809l0,159.569c0,22.169 -5.162,27.684 -15.131,30.809c-6.044,1.881 -6.934,4.663 0,4.663l64.05,0c6.928,0.003 6.044,-2.781 0,-4.66Z"/><path d="M244.343,726.759c9.297,0.391 1.1,4.322 1.1,4.322c-5.531,1.832 -10.765,4.981 -10.765,4.981c-12.282,5.81 -24.103,38.282 -24.103,38.282c-26.513,60.328 -80.238,177.856 -82.622,181.153c-2.385,3.297 -3.772,4.834 -6.666,4.834c-4.822,0 -8.228,-1.293 -12.078,-11.278c-18.328,-51.465 -58.434,-150.512 -66.797,-169.481c-12.537,-27.369 -11.128,-39.134 -36.653,-46.85c-2.459,-0.756 -10.875,-4.053 -1.263,-5.809c0.641,-0.122 38.488,0.171 59.388,0.171l38.494,0.072c7.397,1.71 -6.06,5.885 -6.06,5.885c-17.815,4.347 -24.084,14.697 -24.084,26.172c0,7.421 2.247,13.209 11.262,35.718c16.072,39.916 32.466,80.128 46.607,119.703c0,0 15.784,-35.4 22.215,-48.925l37.257,-84.278c3.862,-9.009 8.356,-20.606 8.356,-29.272c0,-9.446 -8.428,-18.993 -14.631,-19.896c0,0 -13.082,-3.222 -2.844,-5.322c0,0 26.044,0.34 27.65,0.34c10.303,0 26.69,-0.659 36.656,-0.34l235.859,130.565c-10.937,0.635 -22.187,1.294 -33.131,1.294c-1.928,0 -22.815,0 -33.1,-1.294l34.075,-85.034l32.153,85.034l-236.275,-130.747Zm98.682,225.878c-8.919,4.175 -2.094,4.982 -2.094,4.982c0,0 55.278,0.147 63.087,0c7.747,-0.172 3.325,-4.369 3.325,-4.369c-12.89,-2.663 -18.031,-14.991 -18.031,-21.291c0,-5.468 4.497,-17.7 7.069,-24.437c3.856,-10.619 8.037,-21.241 12.219,-32.178c14.471,-0.635 25.396,-0.953 37.934,-0.953c13.178,0 26.356,0.634 39.537,0.953c4.822,13.525 13.179,34.74 18.007,48.584c0.959,3.197 1.922,6.422 1.922,9.963c0,3.1 -0.654,5.443 -2.1,7.203c0,0 -2.113,7.275 -13.11,10.303c0,0 -9.369,3.419 -5.194,5.884l5.957,0.635c16.356,-0.319 28.222,-0.219 44.634,-0.219c8.209,0 16.425,-0.147 24.647,0.147l9.291,-0.197c8.721,-1.709 -3.216,-5.297 -3.216,-5.297c-15.931,-3.809 -21.691,-12.403 -23.975,-16.528c-2.581,-4.494 -3.528,-7.397 -10.609,-26.05l-67.182,-176.075c-1.928,-5.469 -2.247,-6.763 -6.434,-6.763c-5.456,0 -5.456,0.319 -8.025,6.763l-61.078,151.953c-15.869,38.306 -22.181,49.416 -29.894,56.322c-10.494,9.397 -16.687,10.666 -16.687,10.666Z"/><path d="M969.446,942.213c-1.934,3.053 -5.534,7.471 -12.7,7.471c-8.528,0 -13.996,-6.665 -13.996,-18.846c0,-6.713 0,-59.572 0,-73.194c0,-16.113 4.103,-45.557 -50.979,-45.557c-27.996,0 -52.831,9.4 -52.831,25.197c0,9.35 7.275,14.382 13.256,14.382c25.197,0 7.838,-32.863 35.657,-32.863c22.156,0 25.39,21.728 25.39,30.809c0,15.966 -0.859,21.682 -10.822,27.272c-19.984,11.207 -69.825,3.344 -69.825,45.922c0,32.228 33.85,36.206 47.222,36.206c14.753,0 23.907,-5.59 34.175,-13.621c11.682,10.521 17.06,14.012 33.416,14.012c14.916,0 23.112,-5.666 27.253,-13.453c2.25,-4.203 -3.066,-7.106 -5.216,-3.738Zm-56.396,-21.29c0,20.728 -14.697,30.25 -26.5,30.25c-10.463,0 -23.707,-7.203 -23.707,-23.144c0,-25.903 25.575,-35.106 42.932,-44.069c0.971,-0.487 3.181,-1.49 4.487,-2.221c2.306,-1.319 2.791,-0.366 2.791,3.906c-0.003,3.003 -0.003,27.272 -0.003,35.278Z"/><path d="M991.646,747.338c0,-9.694 8.063,-17.75 17.732,-17.75c9.662,0 17.731,8.056 17.731,17.75c0,9.962 -8.069,17.699 -17.731,17.699c-4.51,0 -9.344,-1.928 -12.572,-5.149c-3.225,-3.222 -5.16,-7.738 -5.16,-12.55Z"/><path d="M1045.83,952.806c-9.46,-2.953 -18.11,-10.106 -18.11,-30.615c0,-9.522 0,-66.479 0,-72.463l-0.078,0c0,-12.597 0,-22.9 0,-24.025c0,-8.253 0.806,-11.181 -7.281,-10.084c-5.975,0.731 -43.688,2.612 -48.919,3.368c-6.012,0.854 -2.619,3.713 2.619,3.713c15.856,0 21.562,15.697 22.853,33.691c0,16.893 0,57.69 0,65.625c0,22.143 -5.162,27.684 -15.125,30.787c-6.05,1.903 -6.922,4.688 0,4.688l64.044,0c6.928,0.003 6.037,-2.779 -0.003,-4.685Z"/><path d="M1126.21,952.637c-9.459,-2.953 -18.303,-10.303 -18.303,-30.809c0,-7.519 0,-44.628 0,-62.841l0.09,0c0.05,-34.593 -0.146,-62.231 0.129,-84.228l-0.11,0c0,-17.603 0,-34.962 0,-36.45c0,-8.228 0.819,-11.181 -7.275,-10.084c-5.981,0.756 -43.687,2.613 -48.912,3.369c-6.019,0.853 -2.632,3.734 2.612,3.734c18.425,0 23.175,21.166 23.175,42.506l0.091,0c0.031,8.985 -0.319,20.288 -0.319,27.932l0,43.603l-0.091,0c0,5.956 0,62.94 0,72.462c0,22.144 -5.175,27.71 -15.131,30.81c-6.044,1.881 -6.922,4.662 0,4.662l64.044,0c6.934,-0.003 6.056,-2.787 0,-4.666Z"/><path d="M836.831,953.197c-9.46,-2.953 -23.053,-4.078 -43.525,-30.809l-0.2,0.025c-2.8,-3.369 -5.91,-7.179 -9.466,-11.547c-4.822,-5.81 -39.106,-51.147 -46.812,-60.744c24.409,-6.691 40.168,-13.991 51.734,-31.397c1.922,-2.906 7.397,-11.937 7.397,-26.466c0,-28.712 -18.963,-44.825 -30.534,-52.246c-14.472,-9.01 -32.122,-13.404 -53.316,-13.404c0,0 -31.628,-0.243 -36.622,-0.096c-4.981,0.171 -43.928,2.221 -49.156,2.978c-6.019,0.853 -2.625,4.834 2.612,4.834c17.388,0 21.966,20.728 22.438,40.772c0,0.853 0,1.684 0,2.587c0,37.988 0,66.894 -0.044,89.16l0.147,0c0,19.556 -2.138,47.509 -2.138,53.465c0,22.169 -5.175,29.444 -15.131,32.544c-6.05,1.903 -6.928,4.663 0,4.663l66.181,0c6.929,0 6.057,-2.76 0,-4.663c-9.453,-2.953 -18.103,-11.84 -18.103,-32.372c0,-6.25 0,-33.031 0,-52.318l0.185,0c0.056,-5.175 0.09,-10.01 0.09,-14.235c21.185,-0.319 22.157,1.294 37.891,20.9c10.272,12.866 56.206,74.269 62.647,81.25c1.275,1.588 1.915,1.903 3.522,1.903c5.103,0 10.2,-0.172 15.29,-0.269l34.919,0.147c6.925,0.004 6.034,-2.756 -0.006,-4.662Zm-133.081,-109.641c-7.057,0 -14.119,-0.318 -21.185,-1.293l0,-102.882c8.344,-0.659 13.806,-0.978 20.869,-0.978c15.741,0 32.434,1.928 43.666,13.231c9.312,9.669 14.781,25.463 14.781,39.332c-0.003,29.687 -17.985,52.59 -58.131,52.59Z"/><path d="M1823.67,941.356c-1.94,3.053 -5.54,7.472 -12.706,7.472c-8.522,0 -13.99,-6.665 -13.99,-18.847c0,-6.737 0,-59.572 0,-73.194c0,-16.112 4.103,-45.556 -50.979,-45.556c-28.003,0 -52.843,9.4 -52.843,25.219c0,9.325 7.287,14.356 13.268,14.356c25.197,0 7.825,-32.862 35.657,-32.862c22.156,0 25.39,21.728 25.39,30.809c0,15.966 -0.865,21.681 -10.84,27.272c-19.972,11.206 -69.813,3.344 -69.813,45.922c0,32.228 33.838,36.206 47.228,36.206c14.747,0 23.9,-5.591 34.169,-13.622c11.681,10.522 17.066,14.013 33.422,14.013c14.916,0 23.109,-5.666 27.259,-13.453c2.222,-4.197 -3.087,-7.104 -5.222,-3.735Zm-56.396,-21.287c0,20.728 -14.697,30.25 -26.5,30.25c-10.463,0 -23.719,-7.203 -23.719,-23.144c0,-25.903 25.587,-35.106 42.931,-44.069c0.978,-0.487 3.188,-1.49 4.481,-2.247c2.307,-1.318 2.807,-0.34 2.807,3.932c0,2.978 0,27.246 0,35.278Z"/><path d="M1559.12,814.038c-3.931,0.709 -34.9,5.25 -38.268,5.615c-5.641,0.635 -5.263,4.86 0,4.86c14.453,0 18.665,17.481 18.665,27.44c0,5.981 0,59.938 0,69.46c0,22.143 -5.162,27.684 -15.112,30.787c-6.057,1.903 -6.935,4.687 0,4.687l62.172,0c6.934,0 6.043,-2.784 0,-4.687c-9.46,-2.953 -18.297,-10.278 -18.297,-30.788c0,-9.521 0,-39.209 0,-45.19c0,-42.822 17.493,-52.831 37.147,-52.831c22.656,0 27.087,18.165 27.087,37.89c0,5.981 0,50.61 0,60.131c0,22.144 -5.162,27.685 -15.125,30.788c-6.056,1.903 -6.947,4.687 0,4.687l64.038,0c6.921,0 6.043,-2.784 0,-4.687c-9.46,-2.953 -18.297,-10.278 -18.297,-30.788c0,-9.521 0,-54.149 0,-60.131c0,-24.828 -4.175,-47.412 -41.638,-47.412c-19.897,0 -36.109,4.347 -46.3,12.697c-4.112,3.368 -6.275,5.15 -7.103,0.365c-1.681,-9.694 -1.509,-14.212 -8.969,-12.894Z"/><path d="M1515.99,941.356c-1.953,3.053 -5.531,7.472 -12.706,7.472c-8.522,0 -14,-6.665 -14,-18.847c0,-6.737 0,-59.572 0,-73.194c0,-16.112 4.103,-45.556 -50.978,-45.556c-27.991,0 -52.831,9.4 -52.831,25.219c0,9.325 7.287,14.356 13.256,14.356c25.206,0 7.85,-32.862 35.669,-32.862c22.156,0 25.39,21.728 25.39,30.809c0,15.966 -0.865,21.681 -10.84,27.272c-19.972,11.206 -69.813,3.344 -69.813,45.922c0,32.228 33.85,36.206 47.216,36.206c14.759,0 23.912,-5.591 34.181,-13.622c11.681,10.522 17.066,14.013 33.422,14.013c14.906,0 23.097,-5.666 27.259,-13.453c2.232,-4.197 -3.09,-7.104 -5.225,-3.735Zm-56.397,-21.287c0,20.728 -14.696,30.25 -26.512,30.25c-10.45,0 -23.706,-7.203 -23.706,-23.144c0,-25.903 25.575,-35.106 42.943,-44.069c0.954,-0.487 3.175,-1.49 4.482,-2.247c2.306,-1.318 2.797,-0.34 2.797,3.932c-0.004,2.978 -0.004,27.246 -0.004,35.278Z"/><path d="M1984.66,948.681c-11.01,-0.903 -18.872,-12.647 -18.872,-32.3c0,-9.887 0,-173.803 0,-179.59c0,-8.229 0.819,-11.182 -7.275,-10.085c-5.981,0.731 -43.688,2.613 -48.925,3.344c-6.006,0.878 -2.625,3.734 2.612,3.734c18.432,0 23.732,14.503 23.732,35.866c0,11.378 0,45.922 0,49.097c0,3.175 -0.757,6.153 -4.31,3.54c-3.553,-2.612 -16.981,-11.378 -30.797,-11.378c-49.156,0 -76.55,33.107 -76.55,72.047c0,51.416 31.482,75.441 75.61,75.441c13.378,0 27.881,-7.031 32.862,-11.035c1.869,-1.465 3.932,-1.856 4.663,2.807c1.062,6.615 0.256,9.203 8.606,8.031c8.009,-1.122 34.156,-5.028 38.075,-5.028c4.853,0.003 4.306,-4.172 0.569,-4.491Zm-81.591,2.247c-39.772,0 -46.312,-48.412 -46.312,-65.894c0,-48.853 27.075,-66.284 44.068,-66.284c14.55,0 28.369,10.253 32.863,29.859c2.037,8.888 2.991,28.979 2.991,49.66c-0.004,15.062 -3.313,52.659 -33.61,52.659Z"/><path d="M2051.36,795.263c0,0 -0.366,-13.404 -0.366,-14.404c0,-0.978 0.488,-1.1 1.269,-0.756l11.634,2.588c0,0 -1.403,-4.688 -1.625,-5.397c-0.197,-0.685 0,-1.391 0.647,-2.1c0.622,-0.71 12.378,-10.866 12.378,-10.866c0,0 -2.562,-1.978 -3.187,-2.465c-0.635,-0.488 -0.647,-1.269 -0.319,-1.954c0.525,-1.121 2.919,-6.178 2.919,-6.178c0,0 -5.431,1.369 -6.641,1.66c-0.719,0.197 -1.49,0.025 -1.856,-0.685c-0.366,-0.709 -1.806,-3.587 -1.806,-3.587l0.025,0c0,0 -3.285,3.075 -6.007,5.565c-0.978,0.904 -1.759,0 -1.55,-0.903c0.21,-0.903 2.932,-13.062 2.932,-13.062c0,0 -3.991,1.075 -4.772,1.244c-0.781,0.168 -1.391,-0.319 -1.71,-1c-0.525,-1.122 -3.978,-7.691 -3.978,-7.691c0,0 -3.418,6.569 -3.943,7.691c-0.319,0.684 -0.929,1.171 -1.71,1c-0.781,-0.172 -4.759,-1.244 -4.759,-1.244c0,0 2.734,12.159 2.953,13.062c0.206,0.903 -0.575,1.807 -1.55,0.903c-2.747,-2.49 -6.019,-5.565 -6.019,-5.565l0.013,0c0,0 -1.441,2.881 -1.794,3.587c-0.353,0.707 -1.122,0.878 -1.856,0.685c-1.21,-0.294 -6.641,-1.66 -6.641,-1.66c0,0 2.416,5.053 2.941,6.178c0.328,0.685 0.318,1.466 -0.319,1.954c-0.638,0.487 -3.188,2.465 -3.188,2.465c0,0 11.769,10.156 12.416,10.866c0.622,0.709 0.844,1.415 0.622,2.1c-0.206,0.709 -1.6,5.397 -1.6,5.397l11.647,-2.588c0.769,-0.341 1.256,-0.219 1.256,0.756c0,1 -0.328,14.404 -0.328,14.404l3.872,0Z" style="fill:#ed1c24;"/><rect x="1982.03" y="728.566" width="34.353" height="72.069" style="fill:#ed1c24;"/><rect x="2081.73" y="728.566" width="34.35" height="72.069" style="fill:#ed1c24;"/><path d="M1357.46,729.859c-2.294,5.713 -2.259,6.91 -7.653,6.91c-8.531,0 -23.756,-12.013 -53.331,-12.013c-68.994,0 -115.944,56.128 -115.944,122.828c0,59.447 44.762,114.21 109.375,114.21c47.74,0 77.331,-27.516 87.206,-69.628c1.491,-8.838 -6.825,-11.278 -8.741,-2.613c-9.778,40.991 -34.656,60.572 -67.846,60.572c-50.219,0 -76.782,-39.134 -76.782,-99c0,-86.4 41.7,-117.384 72.753,-117.384c43.275,0 52.394,35.106 63.857,63.672c1.368,4.759 2.406,9.571 6.859,9.034c3.234,-0.391 2.953,-0.563 2.953,-7.35c0,-12.328 -4.103,-54.15 -4.103,-64.234c0.003,-10.057 -7.125,-8.91 -8.603,-5.004Z"/><path d="M2130.97,945.094c2.247,-4.2 -3.075,-7.103 -5.225,-3.735c-1.94,3.053 -5.531,7.472 -12.706,7.472c-8.522,0 -14,-6.665 -14,-18.847c0,-6.737 0,-59.571 0,-73.193c0,-16.113 4.113,-45.557 -50.965,-45.557c-28.004,0 -52.832,9.4 -52.832,25.219c0,9.325 7.275,14.356 13.257,14.356c25.206,0 7.837,-32.862 35.656,-32.862c22.156,0 25.403,21.728 25.403,30.809c0,15.966 -0.891,21.681 -10.841,27.272c-19.984,11.206 -69.825,3.344 -69.825,45.922c0,32.228 33.85,36.206 47.241,36.206c14.747,0 23.891,-5.59 34.156,-13.622c11.694,10.522 17.078,14.013 33.422,14.013c14.916,-0.003 23.097,-5.666 27.259,-13.453Zm-61.609,-25.025c0,20.728 -14.709,30.25 -26.512,30.25c-10.45,0 -23.707,-7.203 -23.707,-23.144c0,-25.903 25.575,-35.106 42.932,-44.069c0.978,-0.487 3.175,-1.49 4.481,-2.247c2.306,-1.318 2.806,-0.34 2.806,3.932c0,2.978 0,27.246 0,35.278Z"/></svg>