<?xml version="1.0" encoding="UTF-8" standalone="no"?>
<svg
   width="2159.9419"
   height="588.59998"
   viewBox="0 0 2159.9419 588.59998"
   version="1.1"
   xml:space="preserve"
   style="clip-rule:evenodd;fill-rule:evenodd;stroke-linejoin:round;stroke-miterlimit:1.41421"
   id="svg42"
   xmlns="http://www.w3.org/2000/svg"
   xmlns:svg="http://www.w3.org/2000/svg"><defs
     id="defs46" /><path
     d="M 855.01,588.6 1192.688,0 h 391.881 V 588.6 H 1349.122 V 196.716 L 1115.235,588.6 Z"
     style="fill:#ffcb05"
     id="path2" /><path
     d="M 729.541,0 391.882,588.6 H 0 V 0 H 235.438 V 391.881 L 469.319,0 Z"
     style="fill:#ffcb05"
     id="path4" /><path
     d="m 822.485,0 h 278.809 L 758.972,588.6 H 480.157 Z"
     style="fill:#ffcb05"
     id="path6" /><path
     d="m 1925.517,587.525 c 0,0 -3.566,-131.403 -3.566,-141.022 -0.025,-9.587 4.785,-10.962 12.328,-7.525 l 114.088,25.353 c 0,0 -13.781,-45.928 -15.844,-52.784 -2.062,-6.859 0,-13.716 6.153,-20.588 6.166,-6.84 121.266,-106.487 121.266,-106.487 0,0 -25.05,-19.213 -31.225,-23.994 -6.178,-4.815 -6.263,-12.487 -3.113,-19.212 5.128,-10.982 28.625,-60.463 28.625,-60.463 0,0 -53.209,13.366 -64.978,16.272 -7.203,1.781 -14.734,0.25 -18.237,-6.737 -3.516,-6.994 -17.528,-35.291 -17.528,-35.291 l 0.121,0.147 c 0,0 -32.153,30.097 -58.85,54.528 -9.593,8.922 -17.296,0.006 -15.246,-8.906 2.037,-8.919 28.65,-127.766 28.65,-127.766 0,0 -38.991,10.388 -46.619,12.072 -7.619,1.697 -13.588,-3.15 -16.747,-9.869 -5.213,-10.969 -38.869,-75.237 -38.869,-75.237 0,0 -33.556,64.268 -38.709,75.237 -3.175,6.719 -9.094,11.566 -16.747,9.869 -7.641,-1.684 -46.631,-12.072 -46.631,-12.072 0,0 26.868,118.847 28.918,127.766 2.075,8.912 -5.615,17.828 -15.221,8.906 -26.769,-24.431 -58.947,-54.528 -58.947,-54.528 l 0.109,-0.147 c 0,0 -13.953,28.297 -17.444,35.291 -3.503,6.987 -11.034,8.521 -18.237,6.737 -11.756,-2.906 -65.003,-16.272 -65.003,-16.272 0,0 23.609,49.481 28.759,60.463 3.15,6.725 3.113,14.397 -3.062,19.212 -6.179,4.778 -31.179,23.994 -31.179,23.994 0,0 115.297,99.647 121.485,106.487 6.178,6.872 8.24,13.729 6.187,20.588 -2.05,6.853 -15.697,52.784 -15.697,52.784 l 114.013,-25.353 c 7.544,-3.437 12.316,-2.062 12.353,7.525 0.013,9.619 -3.297,141.022 -3.297,141.022 z"
     style="fill:#ed1c24"
     id="path8" /></svg>
