<?xml version="1.0" encoding="UTF-8" standalone="no"?>
<!-- Generator: Adobe Illustrator 14.0.0, SVG Export Plug-In . SVG Version: 6.00 Build 43363)  -->

<svg
   version="1.1"
   id="Layer_1"
   x="0px"
   y="0px"
   width="230.43401"
   height="239.99899"
   viewBox="0 0 230.43401 239.99899"
   enable-background="new 0 0 250 250"
   xml:space="preserve"
   xmlns="http://www.w3.org/2000/svg"
   xmlns:svg="http://www.w3.org/2000/svg"><defs
   id="defs25" />
<path
   fill="#004683"
   d="M 115.217,7.478 223.322,119.952 115.217,232.492 7.192,119.952 Z M 0,119.952 115.217,0 230.434,119.952 115.217,239.999 Z"
   id="path2" />
<polygon
   fill="#ffffff"
   points="13.835,125.48 125.416,9.307 237.029,125.48 125.416,241.749 "
   id="polygon4"
   transform="translate(-10.199,-5.528)" />
<polygon
   fill="#ee3e42"
   points="17.873,125.477 125.411,13.517 233.104,125.477 125.411,237.54 "
   id="polygon6"
   transform="translate(-10.199,-5.528)" />
<path
   fill="#ffffff"
   d="m 31.33,119.949 c 0,-30.886 37.536,-55.888 83.882,-55.888 46.431,0 83.949,25.001 83.949,55.888 0,30.836 -37.519,55.871 -83.949,55.871 -46.345,0 -83.882,-25.035 -83.882,-55.871"
   id="path8" />
<polygon
   fill="#231f20"
   points="109.424,100.646 93.812,100.646 82.96,131.906 72.45,100.646 54.762,100.646 74.065,151.312 90.138,151.312 "
   id="polygon10"
   transform="translate(-10.199,-5.528)" />
<polygon
   fill="#231f20"
   points="197.762,140.479 175.992,140.479 175.992,130.92 195.687,130.92 195.687,120.664 175.992,120.664 175.992,111.259 196.911,111.259 196.911,100.646 160.209,100.646 160.209,151.312 197.762,151.312 "
   id="polygon12"
   transform="translate(-10.199,-5.528)" />
<path
   fill="#231f20"
   d="m 98.477,145.784 h 16.225 v -20.953 h 4.693 c 5.614,0 8.794,3.061 11.702,11.785 l 2.925,9.168 h 16.174 l -5.051,-13.81 c -2.959,-8.181 -7.652,-10.8 -7.652,-10.8 0,0 7.652,-5.069 7.652,-11.804 0,-8.725 -7.178,-14.252 -20.068,-14.252 h -26.6 v 50.666 m 16.225,-42.026 h 3.709 c 5.307,0 10.17,0.647 10.17,6.515 0,5.731 -5.681,5.646 -10.17,5.646 h -3.709 z"
   id="path14" />
<g
   id="g20"
   transform="translate(-10.199,-5.528)">
	<path
   d="m 163.534,223.602 v -7.137 h -2.881 v -1.453 h 7.716 v 1.453 h -2.875 v 7.137 z"
   id="path16" />
	<path
   d="m 169.607,223.602 v -8.59 h 2.934 l 1.762,5.859 1.742,-5.859 h 2.94 v 8.59 h -1.821 v -6.762 l -1.928,6.762 h -1.887 l -1.921,-6.762 v 6.762 z"
   id="path18" />
</g>
</svg>
