<?xml version="1.0" encoding="utf-8"?>
<!-- Generator: Adobe Illustrator 14.0.0, SVG Export Plug-In . SVG Version: 6.00 Build 43363)  -->
<!DOCTYPE svg PUBLIC "-//W3C//DTD SVG 1.1//EN" "http://www.w3.org/Graphics/SVG/1.1/DTD/svg11.dtd">
<svg version="1.1" id="Layer_1" xmlns="http://www.w3.org/2000/svg" xmlns:xlink="http://www.w3.org/1999/xlink" x="0px" y="0px"
	 width="250px" height="250px" viewBox="0 0 250 250" enable-background="new 0 0 250 250" xml:space="preserve">
<path fill="#004683" d="M125.416,13.006L233.521,125.48L125.416,238.02L17.391,125.48L125.416,13.006z M10.199,125.48L125.416,5.528
	L240.633,125.48L125.416,245.527L10.199,125.48z"/>
<polygon fill="#FFFFFF" points="237.029,125.48 125.416,241.749 13.835,125.48 125.416,9.307 "/>
<polygon fill="#EE3E42" points="233.104,125.477 125.411,237.54 17.873,125.477 125.411,13.517 "/>
<path fill="#FFFFFF" d="M41.529,125.477c0-30.886,37.536-55.888,83.882-55.888c46.431,0,83.949,25.001,83.949,55.888
	c0,30.836-37.519,55.871-83.949,55.871C79.066,181.348,41.529,156.313,41.529,125.477"/>
<polygon fill="#231F20" points="74.065,151.312 90.138,151.312 109.424,100.646 93.812,100.646 82.96,131.906 72.45,100.646 
	54.762,100.646 "/>
<polygon fill="#231F20" points="160.209,151.312 197.762,151.312 197.762,140.479 175.992,140.479 175.992,130.92 195.687,130.92 
	195.687,120.664 175.992,120.664 175.992,111.259 196.911,111.259 196.911,100.646 160.209,100.646 "/>
<path fill="#231F20" d="M108.676,151.312h16.225v-20.953h4.693c5.614,0,8.794,3.061,11.702,11.785l2.925,9.168h16.174l-5.051-13.81
	c-2.959-8.181-7.652-10.8-7.652-10.8s7.652-5.069,7.652-11.804c0-8.725-7.178-14.252-20.068-14.252h-26.6V151.312 M124.901,109.286
	h3.709c5.307,0,10.17,0.647,10.17,6.515c0,5.731-5.681,5.646-10.17,5.646h-3.709V109.286z"/>
<g>
	<path d="M163.534,223.602v-7.137h-2.881v-1.453h7.716v1.453h-2.875v7.137H163.534z"/>
	<path d="M169.607,223.602v-8.59h2.934l1.762,5.859l1.742-5.859h2.94v8.59h-1.821v-6.762l-1.928,6.762h-1.887l-1.921-6.762v6.762
		H169.607z"/>
</g>
</svg>
