<?xml version="1.0" encoding="UTF-8" standalone="no"?>
<svg
   xmlns:dc="http://purl.org/dc/elements/1.1/"
   xmlns:cc="http://creativecommons.org/ns#"
   xmlns:rdf="http://www.w3.org/1999/02/22-rdf-syntax-ns#"
   xmlns:svg="http://www.w3.org/2000/svg"
   xmlns="http://www.w3.org/2000/svg"
   viewBox="0 0 335.34668 79.493332"
   height="79.493332"
   width="335.34668"
   xml:space="preserve"
   id="svg2"
   version="1.1"><metadata
     id="metadata8"><rdf:RDF><cc:Work
         rdf:about=""><dc:format>image/svg+xml</dc:format><dc:type
           rdf:resource="http://purl.org/dc/dcmitype/StillImage" /></cc:Work></rdf:RDF></metadata><defs
     id="defs6" /><g
     transform="matrix(1.3333333,0,0,-1.3333333,0,79.493333)"
     id="g10"><g
       transform="scale(0.1)"
       id="g12"><path
         id="path14"
         style="fill:#214e8d;fill-opacity:1;fill-rule:nonzero;stroke:none"
         d="m 1250.67,358.438 h -37.03 v 17.078 h 92.85 v -17.078 h -36.54 V 244.23 h -19.28 v 114.208" /><path
         id="path16"
         style="fill:#214e8d;fill-opacity:1;fill-rule:nonzero;stroke:none"
         d="m 1317.25,344.738 h 18.3 v -17.484 c 0,-4.172 -0.39,-7.547 -0.39,-7.547 h 0.39 c 4.48,14.699 15.97,26.223 31.15,26.223 2.53,0 4.87,-0.395 4.87,-0.395 v -19.07 c 0,0 -2.54,0.594 -5.45,0.594 -12.07,0 -23.17,-8.743 -27.65,-23.637 -1.75,-5.762 -2.34,-11.918 -2.34,-18.074 V 244.23 h -18.88 v 100.508" /><path
         id="path18"
         style="fill:#214e8d;fill-opacity:1;fill-rule:nonzero;stroke:none"
         d="m 1419.71,257.336 c 15.96,0 26.28,17.082 26.28,31.98 v 3.184 h -4.87 c -14.21,0 -39.91,-0.996 -39.91,-19.07 0,-8.149 6.23,-16.094 18.5,-16.094 z m 21.8,49.66 h 4.29 v 1.789 c 0,16.485 -9.16,22.043 -21.62,22.043 -15.18,0 -27.45,-9.73 -27.45,-9.73 l -7.78,14.101 c 0,0 14.21,11.918 36.79,11.918 24.92,0 38.94,-13.902 38.94,-39.328 V 244.23 h -17.53 v 9.536 c 0,4.566 0.4,7.941 0.4,7.941 h -0.4 c 0,0 -7.98,-19.863 -31.53,-19.863 -16.94,0 -33.49,10.527 -33.49,30.59 0,33.171 42.83,34.562 59.38,34.562" /><path
         id="path20"
         style="fill:#214e8d;fill-opacity:1;fill-rule:nonzero;stroke:none"
         d="m 1491.5,344.738 h 18.3 V 331.43 c 0,-3.977 -0.39,-7.352 -0.39,-7.352 h 0.39 c 3.9,8.742 15.57,23.039 36.99,23.039 23.17,0 33.88,-12.906 33.88,-38.531 V 244.23 h -18.89 v 59.985 c 0,14.101 -2.92,25.226 -18.69,25.226 -14.99,0 -27.06,-10.128 -31.15,-24.632 -1.17,-3.969 -1.55,-8.539 -1.55,-13.508 V 244.23 h -18.89 v 100.508" /><path
         id="path22"
         style="fill:#214e8d;fill-opacity:1;fill-rule:nonzero;stroke:none"
         d="m 1609.91,270.25 c 0,0 11.1,-11.719 28.24,-11.719 8.17,0 16.35,4.371 16.35,12.512 0,18.477 -50.62,14.699 -50.62,47.477 0,18.269 15.97,28.597 35.63,28.597 21.61,0 31.73,-11.121 31.73,-11.121 l -7.59,-14.496 c 0,0 -8.76,8.934 -24.34,8.934 -8.17,0 -16.16,-3.575 -16.16,-12.317 0,-18.07 50.62,-14.101 50.62,-47.074 0,-16.68 -14.01,-29.199 -35.62,-29.199 -24.15,0 -37.39,14.703 -37.39,14.703 l 9.15,13.703" /><path
         id="path24"
         style="fill:#214e8d;fill-opacity:1;fill-rule:nonzero;stroke:none"
         d="m 1743.21,258.332 c 15.57,0 28.42,13.106 28.42,35.949 0,21.852 -11.48,35.953 -27.84,35.953 -14.8,0 -28.42,-10.527 -28.42,-36.152 0,-17.871 9.73,-35.75 27.84,-35.75 z m -46.15,86.406 h 17.33 v -8.543 c 0,-3.976 -0.38,-7.351 -0.38,-7.351 h 0.38 c 0,0 8.38,18.273 33.1,18.273 26.48,0 43.22,-21.445 43.22,-52.633 0,-31.98 -18.89,-52.64 -44.58,-52.64 -21.61,0 -30.18,16.488 -30.18,16.488 h -0.39 c 0,0 0.39,-3.574 0.39,-8.742 v -35.199 h -18.89 v 130.347" /><path
         id="path26"
         style="fill:#214e8d;fill-opacity:1;fill-rule:nonzero;stroke:none"
         d="m 1858.42,258.531 c 18.69,0 33.87,15.094 33.87,36.153 0,20.851 -15.18,35.75 -33.87,35.75 -18.49,0 -33.88,-14.899 -33.88,-35.75 0,-21.059 15.39,-36.153 33.88,-36.153 z m 0,88.586 c 29.4,0 53.15,-22.043 53.15,-52.433 0,-30.59 -23.75,-52.84 -53.15,-52.84 -29.4,0 -53.15,22.25 -53.15,52.84 0,30.39 23.75,52.433 53.15,52.433" /><path
         id="path28"
         style="fill:#214e8d;fill-opacity:1;fill-rule:nonzero;stroke:none"
         d="m 1929.9,344.738 h 18.31 v -17.484 c 0,-4.172 -0.39,-7.547 -0.39,-7.547 h 0.39 c 4.47,14.699 15.96,26.223 31.15,26.223 2.53,0 4.87,-0.395 4.87,-0.395 v -19.07 c 0,0 -2.54,0.594 -5.45,0.594 -12.08,0 -23.17,-8.743 -27.65,-23.637 -1.76,-5.762 -2.34,-11.918 -2.34,-18.074 V 244.23 h -18.89 v 100.508" /><path
         id="path30"
         style="fill:#214e8d;fill-opacity:1;fill-rule:nonzero;stroke:none"
         d="m 2014.65,327.855 h -12.86 v 15.493 h 13.44 v 29 h 18.3 v -29 h 23.75 v -15.493 h -23.75 V 283.16 c 0,-20.062 13.82,-22.644 21.02,-22.644 2.73,0 4.49,0.394 4.49,0.394 v -17.074 c 0,0 -2.73,-0.402 -6.63,-0.402 -12.65,0 -37.76,3.968 -37.76,37.543 v 46.878" /><path
         id="path32"
         style="fill:#214e8d;fill-opacity:1;fill-rule:nonzero;stroke:none"
         d="m 2114.25,257.336 c 15.97,0 26.29,17.082 26.29,31.98 v 3.184 h -4.87 c -14.21,0 -39.91,-0.996 -39.91,-19.07 0,-8.149 6.23,-16.094 18.49,-16.094 z m 21.81,49.66 h 4.29 v 1.789 c 0,16.485 -9.16,22.043 -21.62,22.043 -15.18,0 -27.45,-9.73 -27.45,-9.73 l -7.78,14.101 c 0,0 14.21,11.918 36.79,11.918 24.92,0 38.94,-13.902 38.94,-39.328 V 244.23 h -17.53 v 9.536 c 0,4.566 0.4,7.941 0.4,7.941 h -0.4 c 0,0 -7.98,-19.863 -31.53,-19.863 -16.94,0 -33.49,10.527 -33.49,30.59 0,33.171 42.83,34.562 59.38,34.562" /><path
         id="path34"
         style="fill:#214e8d;fill-opacity:1;fill-rule:nonzero;stroke:none"
         d="m 2189.56,327.855 h -12.86 v 15.493 h 13.44 v 29 h 18.3 v -29 h 23.76 v -15.493 h -23.76 V 283.16 c 0,-20.062 13.82,-22.644 21.03,-22.644 2.73,0 4.48,0.394 4.48,0.394 v -17.074 c 0,0 -2.73,-0.402 -6.62,-0.402 -12.66,0 -37.77,3.968 -37.77,37.543 v 46.878" /><path
         id="path36"
         style="fill:#214e8d;fill-opacity:1;fill-rule:nonzero;stroke:none"
         d="m 2258.91,344.738 h 18.89 V 244.23 h -18.89 z m -0.19,39.723 h 19.08 v -19.664 h -19.08 v 19.664" /><path
         id="path38"
         style="fill:#214e8d;fill-opacity:1;fill-rule:nonzero;stroke:none"
         d="m 2353.19,258.531 c 18.69,0 33.87,15.094 33.87,36.153 0,20.851 -15.18,35.75 -33.87,35.75 -18.49,0 -33.88,-14.899 -33.88,-35.75 0,-21.059 15.39,-36.153 33.88,-36.153 z m 0,88.586 c 29.4,0 53.15,-22.043 53.15,-52.433 0,-30.59 -23.75,-52.84 -53.15,-52.84 -29.4,0 -53.15,22.25 -53.15,52.84 0,30.39 23.75,52.433 53.15,52.433" /><path
         id="path40"
         style="fill:#214e8d;fill-opacity:1;fill-rule:nonzero;stroke:none"
         d="m 2425.93,344.738 h 18.3 V 331.43 c 0,-3.977 -0.39,-7.352 -0.39,-7.352 h 0.39 c 3.89,8.742 15.57,23.039 36.99,23.039 23.17,0 33.87,-12.906 33.87,-38.531 V 244.23 h -18.88 v 59.985 c 0,14.101 -2.92,25.226 -18.69,25.226 -14.99,0 -27.06,-10.128 -31.15,-24.632 -1.17,-3.969 -1.56,-8.539 -1.56,-13.508 V 244.23 h -18.88 v 100.508" /><path
         id="path42"
         style="fill:#214e8d;fill-opacity:1;fill-rule:nonzero;stroke:none"
         d="m 1418.21,148.723 c 0,0 -4.96,-9.664 -7.35,-16.457 l -13.9,-36.8793 h 42.51 l -13.96,38.0623 c -2.39,6.789 -6.89,15.274 -6.89,15.274 z m 26.43,-68.8011 h -52.84 l -13.91,-38.2891 h -20.26 l 51.01,135.7222 19.88,-0.199 50.68,-135.5232 h -20.46 l -14.1,38.2891" /><path
         id="path44"
         style="fill:#214e8d;fill-opacity:1;fill-rule:nonzero;stroke:none"
         d="m 1497,142.223 h 19.27 V 82.2344 c 0,-13.9063 2.78,-25.0274 18.86,-25.0274 20.46,0 32.58,18.0703 32.58,37.9375 v 47.0785 h 19.26 V 41.7148 h -18.66 v 13.3047 c 0,4.1719 0.39,7.3516 0.39,7.3516 h -0.39 c -4.17,-9.9297 -17.29,-23.043 -36.95,-23.043 -22.65,0 -34.36,11.9219 -34.36,38.5352 v 64.3597" /><path
         id="path46"
         style="fill:#214e8d;fill-opacity:1;fill-rule:nonzero;stroke:none"
         d="m 1622.81,125.34 h -13.11 v 15.492 h 13.71 v 29 h 18.67 v -29 h 24.23 V 125.34 h -24.23 V 80.6445 C 1642.08,60.582 1656.18,58 1663.53,58 c 2.78,0 4.57,0.3945 4.57,0.3945 V 41.3203 c 0,0 -2.78,-0.4023 -6.75,-0.4023 -12.92,0 -38.54,3.9687 -38.54,37.5429 V 125.34" /><path
         id="path48"
         style="fill:#214e8d;fill-opacity:1;fill-rule:nonzero;stroke:none"
         d="m 1692.25,169.832 h 19.27 V 130.5 c 0,-4.766 -0.4,-8.344 -0.4,-8.344 h 0.4 c 4.37,9.735 17.08,22.446 37.15,22.446 23.63,0 34.56,-12.907 34.56,-38.532 V 41.7148 h -19.27 v 59.9842 c 0,14.102 -2.98,25.227 -19.07,25.227 -15.09,0 -27.61,-10.328 -31.78,-24.824 -1.19,-3.977 -1.59,-8.5434 -1.59,-13.3168 V 41.7148 h -19.27 V 169.832" /><path
         id="path50"
         style="fill:#214e8d;fill-opacity:1;fill-rule:nonzero;stroke:none"
         d="m 1854.94,56.0156 c 19.06,0 34.56,15.0938 34.56,36.1524 0,20.855 -15.5,35.754 -34.56,35.754 -18.87,0 -34.57,-14.899 -34.57,-35.754 0,-21.0586 15.7,-36.1524 34.57,-36.1524 z m 0,88.5864 c 29.99,0 54.22,-22.043 54.22,-52.434 0,-30.5899 -24.23,-52.8399 -54.22,-52.8399 -30,0 -54.23,22.25 -54.23,52.8399 0,30.391 24.23,52.434 54.23,52.434" /><path
         id="path52"
         style="fill:#214e8d;fill-opacity:1;fill-rule:nonzero;stroke:none"
         d="m 1928.03,142.223 h 18.68 v -17.485 c 0,-4.172 -0.4,-7.547 -0.4,-7.547 h 0.4 c 4.56,14.7 16.29,26.219 31.78,26.219 2.58,0 4.97,-0.39 4.97,-0.39 v -19.071 c 0,0 -2.58,0.594 -5.57,0.594 -12.31,0 -23.64,-8.742 -28.2,-23.641 -1.79,-5.7575 -2.39,-11.9137 -2.39,-18.07 V 41.7148 h -19.27 V 142.223" /><path
         id="path54"
         style="fill:#214e8d;fill-opacity:1;fill-rule:nonzero;stroke:none"
         d="m 2060.12,125.34 h -13.1 v 15.492 h 13.71 v 29 h 18.66 v -29 h 24.24 V 125.34 h -24.24 V 80.6445 C 2079.39,60.582 2093.5,58 2100.85,58 c 2.78,0 4.56,0.3945 4.56,0.3945 V 41.3203 c 0,0 -2.78,-0.4023 -6.75,-0.4023 -12.91,0 -38.54,3.9687 -38.54,37.5429 V 125.34" /><path
         id="path56"
         style="fill:#214e8d;fill-opacity:1;fill-rule:nonzero;stroke:none"
         d="m 2127.01,20.8594 c 0,0 5.56,-4.1758 11.72,-4.1758 7.75,0 14.3,5.5664 18.07,14.7031 l 4.97,11.5156 -42.11,99.3207 h 21.65 l 25.22,-65.7464 c 2,-5.168 3.78,-12.1172 3.78,-12.1172 h 0.39 c 0,0 1.6,6.75 3.39,11.914 l 24.43,65.9496 h 20.86 L 2172.3,23.6406 C 2166.14,8.14844 2153.82,0 2139.72,0 c -11.32,0 -19.46,6.15625 -19.46,6.15625 l 6.75,14.70315" /><path
         id="path58"
         style="fill:#214e8d;fill-opacity:1;fill-rule:nonzero;stroke:none"
         d="m 2003.73,142.223 h 18.89 V 41.7148 h -18.89 z m -0.19,39.722 h 19.08 v -19.664 h -19.08 v 19.664" /><path
         id="path60"
         style="fill:#214e8d;fill-opacity:1;fill-rule:nonzero;stroke:none"
         d="m 1094.92,580.473 h 21.25 l 31.47,-89.852 c 2.58,-7.551 5.36,-19.266 5.36,-19.266 h 0.4 c 0,0 2.77,11.715 5.36,19.266 l 31.8,89.531 h 20.86 l -48.29,-130.64 h -19.67 l -48.54,130.961" /><path
         id="path62"
         style="fill:#214e8d;fill-opacity:1;fill-rule:nonzero;stroke:none"
         d="m 1246.37,462.617 c 16.29,0 26.81,17.082 26.81,31.977 v 3.176 h -4.96 c -14.5,0 -40.72,-0.993 -40.72,-19.063 0,-8.141 6.36,-16.09 18.87,-16.09 z m 22.24,49.649 h 4.37 v 1.789 c 0,16.484 -9.33,22.047 -22.04,22.047 -15.49,0 -28,-9.731 -28,-9.731 l -7.95,14.098 c 0,0 14.5,11.914 37.54,11.914 25.42,0 39.72,-13.899 39.72,-39.32 v -63.551 h -17.88 v 9.535 c 0,4.562 0.4,7.941 0.4,7.941 h -0.4 c 0,0 -8.14,-19.855 -32.17,-19.855 -17.28,0 -34.16,10.519 -34.16,30.582 0,33.164 43.7,34.551 60.57,34.551" /><path
         id="path64"
         style="fill:#214e8d;fill-opacity:1;fill-rule:nonzero;stroke:none"
         d="m 1316.6,579.832 h 19.27 v -99.543 c 0,-12.109 4.76,-14.293 10.72,-14.293 1.79,0 3.38,0.195 3.38,0.195 v -17.074 c 0,0 -2.98,-0.402 -6.36,-0.402 -10.92,0 -27.01,2.98 -27.01,28.203 v 102.914" /><path
         id="path66"
         style="fill:#214e8d;fill-opacity:1;fill-rule:nonzero;stroke:none"
         d="m 1375.72,579.832 h 19.26 v -99.543 c 0,-12.109 4.77,-14.293 10.73,-14.293 1.79,0 3.37,0.195 3.37,0.195 v -17.074 c 0,0 -2.98,-0.402 -6.35,-0.402 -10.92,0 -27.01,2.98 -27.01,28.203 v 102.914" /><path
         id="path68"
         style="fill:#214e8d;fill-opacity:1;fill-rule:nonzero;stroke:none"
         d="m 1496.45,511.473 c -0.59,17.281 -11.31,25.625 -24.23,25.625 -14.69,0 -26.61,-9.141 -29.39,-25.625 z m -23.83,40.91 c 28.4,0 43.49,-21.047 43.49,-47.067 0,-2.582 -0.59,-8.336 -0.59,-8.336 h -73.28 c 0.99,-22.046 16.68,-33.167 34.55,-33.167 17.28,0 29.79,11.718 29.79,11.718 l 7.95,-14.105 c 0,0 -14.9,-14.293 -38.93,-14.293 -31.58,0 -53.22,22.836 -53.22,52.621 0,31.976 21.64,52.629 50.24,52.629" /><path
         id="path70"
         style="fill:#214e8d;fill-opacity:1;fill-rule:nonzero;stroke:none"
         d="m 1531.74,428.66 c 0,0 5.56,-4.176 11.71,-4.176 7.75,0 14.3,5.563 18.07,14.696 l 4.97,11.523 -42.11,99.301 h 21.66 l 25.21,-65.734 c 1.99,-5.168 3.78,-12.118 3.78,-12.118 h 0.4 c 0,0 1.58,6.75 3.37,11.914 l 24.43,65.938 h 20.85 l -47.07,-118.563 c -6.15,-15.492 -18.47,-23.636 -32.56,-23.636 -11.33,0 -19.47,6.16 -19.47,6.16 l 6.76,14.695" /><path
         id="path72"
         style="fill:#5db9e8;fill-opacity:1;fill-rule:nonzero;stroke:none"
         d="M 1242.45,72.8359 C 1180.25,170.18 996.766,457.344 996.766,457.344 942.02,542.156 879.527,586.324 805.121,596.043 c -11.172,1.461 -17.953,-12.035 -10.449,-20.438 36.547,-40.929 43.926,-78.195 -2.867,-156.652 h 114.258 c 12.046,0 19.613,-12.996 13.667,-23.473 l -1.511,-2.667 C 888.965,337.832 825.84,309.316 777.129,309.316 h -55.055 l -99.094,-155 c -32.937,-51.554 4.102,-119.148 65.278,-119.1441 26.144,0 50.789,0 68.629,0 17.422,0 33.636,8.7851 43.176,23.3633 l 93.109,142.3088 c 6.398,9.781 20.738,9.781 27.137,0 L 1009.46,64.5586 c 9.54,-14.5781 25.77,-23.3672 43.19,-23.3672 42.14,0 122.42,0 172.46,0 16.27,0 26.09,17.9375 17.34,31.6445" /><path
         id="path74"
         style="fill:#214e8d;fill-opacity:1;fill-rule:nonzero;stroke:none"
         d="m 511.637,309.316 h -84.41 c -12.047,0 -19.614,12.997 -13.668,23.477 l 39.859,70.238 c 5.582,9.84 16.023,15.922 27.34,15.922 h 100.926 l 62.48,97.801 c 21.949,34.355 -2.707,79.398 -43.473,79.398 -41.57,0 -87.359,0 -115.828,0 -17.422,0 -33.636,-8.789 -43.175,-23.367 L 352.535,436.504 c -6.398,-9.789 -20.738,-9.789 -27.137,-0.004 l -89.156,136.285 c -9.539,14.578 -25.762,23.367 -43.183,23.367 -42.137,0 -122.3871,0 -172.4262,0 -16.28124,0 -26.12108,-17.957 -17.35546,-31.675 C 65.4961,467.102 248.941,180 248.941,180 303.688,95.1836 366.18,51.0156 440.586,41.3008 c 11.172,-1.461 17.953,12.0351 10.449,20.4375 -38.383,42.9847 -44.734,81.8167 10.195,168.6877 l 50.407,78.89" /></g></g></svg>