<?xml version="1.0" encoding="UTF-8" standalone="no"?>
<!-- Created with Inkscape (http://www.inkscape.org/) -->
<svg
   xmlns:svg="http://www.w3.org/2000/svg"
   xmlns="http://www.w3.org/2000/svg"
   version="1.0"
   width="390"
   height="390"
   id="svg2">
  <defs
     id="defs4" />
  <g
     transform="translate(-199.53639,-229.97039)"
     id="layer1">
    <path
       d="M 216.49186,229.97039 L 572.58092,229.97039 C 581.97425,229.97039 589.53639,235.88197 589.53639,243.22507 L 589.53639,606.71572 C 589.53639,614.0588 581.97425,619.97039 572.58092,619.97039 L 216.49186,619.97039 C 207.09853,619.97039 199.53639,614.0588 199.53639,606.71572 L 199.53639,243.22507 C 199.53639,235.88197 207.09853,229.97039 216.49186,229.97039 z "
       style="fill:#231f20;fill-opacity:1;fill-rule:evenodd;stroke:none;stroke-width:5;stroke-linecap:square;stroke-linejoin:miter;stroke-miterlimit:4;stroke-dashoffset:0;stroke-opacity:1"
       id="path2182" />
    <path
       d="M 231.56764,261.50164 L 231.56764,424.97039 L 231.56764,588.43914 L 264.16139,588.43914 L 296.75514,588.43914 L 296.81764,474.84539 L 296.91139,361.28289 L 327.78639,469.15789 C 344.77761,528.48562 359.43739,579.585 360.34889,582.72039 L 362.00514,588.43914 L 394.53639,588.43914 L 427.06764,588.43914 L 428.72389,582.72039 C 429.63538,579.58499 444.29514,528.48563 461.28639,469.15789 L 492.16139,361.28289 L 492.22389,474.84539 L 492.31764,588.43914 L 524.91139,588.43914 L 557.50514,588.43914 L 557.50514,424.97039 L 557.50514,261.50164 L 508.59889,261.50164 L 459.72389,261.53289 L 427.22389,370.06414 C 409.35625,429.76726 394.69872,478.71144 394.63014,478.81414 C 394.56153,478.9169 379.826,430.05662 361.91139,370.25164 L 329.34889,261.53289 L 280.47389,261.50164 L 231.56764,261.50164 z "
       style="fill:#ffffff;fill-opacity:1;fill-rule:evenodd;stroke:none;stroke-width:5;stroke-linecap:square;stroke-linejoin:miter;stroke-miterlimit:4;stroke-dashoffset:0;stroke-opacity:1"
       id="path2173" />
  </g>
</svg>
