<?xml version="1.0" standalone="no"?>
<!DOCTYPE svg PUBLIC "-//W3C//DTD SVG 20010904//EN"
 "http://www.w3.org/TR/2001/REC-SVG-20010904/DTD/svg10.dtd">
<svg version="1.0" xmlns="http://www.w3.org/2000/svg"
 width="1040.000000pt" height="1280.000000pt" viewBox="0 0 1040.000000 1280.000000"
 preserveAspectRatio="xMidYMid meet">
<metadata>
Created by potrace 1.15, written by Peter Selinger 2001-2017
</metadata>
<g transform="translate(0.000000,1280.000000) scale(0.100000,-0.100000)"
fill="#000000" stroke="none">
<path d="M4205 12793 c-472 -56 -854 -285 -1079 -646 -169 -270 -217 -611
-130 -914 34 -121 120 -291 198 -395 76 -100 201 -219 294 -281 l64 -42 -4
-1790 c-3 -1713 -2 -1793 15 -1849 45 -145 126 -257 242 -335 42 -28 106 -61
143 -73 l67 -23 1473 -5 1474 -5 613 -1315 c338 -723 626 -1340 642 -1370 75
-148 237 -250 398 -250 76 0 214 27 286 56 252 102 1205 502 1251 525 114 57
212 188 239 317 39 192 -69 396 -243 458 -63 22 -200 20 -274 -5 -32 -11 -225
-89 -429 -174 -203 -85 -373 -152 -376 -148 -4 3 -276 582 -604 1286 -328 704
-612 1308 -631 1342 -80 144 -169 221 -312 266 -42 14 -88 29 -102 33 -14 5
-592 11 -1285 14 l-1260 5 -3 518 -2 517 912 0 c999 0 977 -1 1097 60 70 35
172 126 195 174 13 27 16 69 16 209 0 97 -4 187 -10 201 -27 71 -155 172 -274
215 l-71 26 -932 3 -933 3 0 485 0 484 28 12 c218 91 359 183 502 327 119 120
180 206 250 353 308 652 -64 1414 -812 1662 -186 61 -456 91 -633 69z"/>
<path d="M3085 10065 c-532 -104 -1162 -392 -1640 -750 -317 -238 -552 -490
-790 -849 -533 -804 -749 -1753 -615 -2706 161 -1145 812 -2166 1800 -2825
495 -330 974 -537 1570 -679 184 -44 402 -80 660 -108 153 -16 697 -16 865 0
729 72 1362 271 1965 617 371 213 758 519 1024 809 l89 96 -228 478 c-125 262
-232 481 -236 487 -6 5 -31 -12 -67 -46 -171 -165 -448 -379 -682 -526 -617
-390 -1287 -620 -1992 -684 -170 -15 -664 -6 -818 15 -786 110 -1442 424
-1967 944 -702 695 -985 1602 -782 2515 149 675 616 1345 1239 1779 170 118
440 258 671 348 l86 34 7 286 c3 157 9 399 13 538 l6 252 -29 -1 c-16 0 -83
-11 -149 -24z"/>
<path d="M9150 775 l0 -175 600 0 600 0 0 175 0 175 -600 0 -600 0 0 -175z"/>
</g>
</svg>
