<?xml version="1.0" encoding="UTF-8" standalone="no"?>
<svg
   viewBox="0 0 512 256"
   version="1.1"
   id="svg4"
   width="512"
   height="256"
   xmlns="http://www.w3.org/2000/svg"
   xmlns:svg="http://www.w3.org/2000/svg">
  <defs
     id="defs8" />
  <!-- Copyright 2022 Nathanael Nerode.  Part of timetable_kit, licensed under Affero GPL v3. -->
  <g
     id="layer1">
    <path
       id="rect1006"
       style="fill:#000000;stroke:#000000;stroke-width:0;stroke-miterlimit:4;stroke-dasharray:none;stroke-opacity:1"
       d="M 48,0 C 15.878273,0.04273312 -0.35906908,17.805889 0,48 v 160 h 96 c 2e-6,26.4992 21.49047,48 48,48 26.50953,0 48,-21.5008 48,-48 h 176 c 0,26.4992 21.49048,48 48,48 26.50953,0 48.00026,-21.5008 48.00026,-48 H 512 V 48 C 511.12237,19.446013 502.17445,0 464,0 326.27586,-0.01949806 181.60248,-0.16009318 48,0 Z m 0,48 H 96 V 160 H 48 Z m 96,0 h 80 v 64 h -80 z m 128,0 h 80 v 64 h -80 z m 128,0 h 64.00026 v 64 H 400 Z" />
  </g>
</svg>
