<?xml version="1.0" encoding="UTF-8" standalone="no"?>
<svg
   viewBox="0 0 768 512"
   version="1.1"
   id="svg4"
   width="768"
   height="512"
   xmlns="http://www.w3.org/2000/svg"
   xmlns:svg="http://www.w3.org/2000/svg">
  <defs
     id="defs8" />
  <!-- Copyright 2022 Nathanael Nerode.  Part of timetable_kit, licensed under Affero GPL v3. -->
  <g
     id="layer1">
    <path
       id="rect1006"
       style="fill:#000000;stroke:#000000;stroke-width:0;stroke-miterlimit:4;stroke-dasharray:none;stroke-opacity:1"
       d="M 384.00195 -0.09765625 C 303.84589 -0.11432941 223.68933 -0.06464779 96.003906 0.1015625 C 31.760839 0.18702871 -0.71227445 35.674295 0.005859375 96.0625 L 0.005859375 415.9375 L 192.00391 415.9375 A 95.998909 95.962059 0 0 0 288.00195 511.89844 A 95.998909 95.962059 0 0 0 384.00195 415.9375 L 480 415.9375 A 95.998909 95.962059 0 0 0 575.99805 511.89844 A 95.998909 95.962059 0 0 0 671.99805 415.9375 L 768 415.9375 L 768 96.0625 C 769.34658 40.470677 728.6083 0.07128906 672 0.1015625 C 544.3144 0.002044845 464.15801 -0.080983091 384.00195 -0.09765625 z M 96 96 L 192 96 L 192 319.91211 L 96 319.91211 L 96 96 z M 288.00195 96 L 448.00195 96 L 448.00195 223.94922 L 288.00195 223.94922 L 288.00195 96 z M 512 96.0625 L 671.99805 96.0625 L 671.99805 224.01172 L 512 224.01172 L 512 96.0625 z " />
  </g>
</svg>
