<?xml version="1.0" encoding="UTF-8"?>
<!-- Generator: Adobe Illustrator 16.0.3, SVG Export Plug-In . SVG Version: 6.00 Build 0)  -->
<!DOCTYPE svg PUBLIC "-//W3C//DTD SVG 1.1//EN" "http://www.w3.org/Graphics/SVG/1.1/DTD/svg11.dtd">
<svg version="1.1" xmlns="http://www.w3.org/2000/svg" xmlns:xlink="http://www.w3.org/1999/xlink" x="0px" y="0px" width="487.615px" height="487.615px" viewBox="0 0 487.615 487.615" enable-background="new 0 0 487.615 487.615" xml:space="preserve">
<g id="Layer_2">
	<path fill="#FFFFFF" d="M438.468,243.417c0,45.24-15.45,86.85-41.3,119.94c-9.851,12.601-21.2,23.96-33.811,33.8   c-33.09,25.851-74.7,41.301-119.94,41.301c-107.72,0-195.05-87.32-195.05-195.041c0-45.24,15.45-86.85,41.3-119.94   c9.85-12.61,21.2-23.96,33.8-33.81c33.09-25.85,74.7-41.3,119.95-41.3C351.137,48.368,438.468,135.698,438.468,243.417z"/>
</g>
<g id="Layer_1">
	<g>
		<path d="M299.878,87.487c6.514-4.578,15.255-7.181,24.615-5.506c6.435,1.151,11.549,3.94,15.708,7.773    c6.207,5.721,10.308,13.765,10.524,23.481c0.43,19.043-14.554,34.167-34.979,32.873c-9.737-0.615-16.768-4.873-22.348-11.497    c-3.754-4.458-6.116-8.873-7.288-16.033C283.865,104.826,291.663,93.262,299.878,87.487z"/>
		<path d="M135.996,236.958c12.584-11.922,27.671-21.018,47.448-25.101c1.32-0.272,2.898-0.163,4.049-0.647    c1.328-0.561,3.535-3.959,4.373-4.858c15.207-16.332,29.286-33.269,44.048-49.878c-8.773-5.476-17.96-10.542-27.044-15.708    c-10.643,8.878-20.538,18.48-31.254,27.854c-4.867,4.257-13.048,8.963-21.862,5.344c-7.361-3.022-12.955-10.364-12.307-20.242    c0.54-8.255,6.884-12.681,12.144-17.49c10.774-9.851,21.863-19.954,33.035-29.635c3.831-3.318,7.408-7.227,13.28-8.583    c0.69-0.159,1.79,0.1,2.268-0.81c0.248,0.788,2.525,0.178,4.21,0.324c4.976,0.434,9.237,3.513,13.279,5.83    c20.061,11.497,40.45,23.297,60.728,34.817c3.936,2.236,7.979,4.623,11.984,7.126c4.021,2.516,8.585,4.272,12.146,6.963    c7.136,5.396,10.396,17.441,6.314,26.721c-2.52,5.729-7.589,10.148-11.66,14.898c-9.374,10.935-19.514,22.234-29.147,33.359    c20.239-0.815,43.084-2.331,62.67-3.886c2.923,0.421,6.294-0.203,9.88,0.485c9.6,1.843,16.476,10.048,15.383,22.023    c-2.638,28.924-4.771,59.805-7.126,90.363c-0.645,8.389-1.024,14.461-5.344,19.434c-4.505,5.184-13.457,8.939-21.699,5.505    c-6.821-2.843-12.613-9.081-12.471-18.3c0.07-4.426,0.835-9.309,1.134-14.09c1.315-21.064,3.687-44.681,5.021-65.1    c-7.636,0.012-17.509,1.067-25.75,1.297c7.646,15.717,12.425,39.03,8.259,62.021c-3.682,20.313-13.332,37.419-25.423,49.392    c-8.542-8.138-16.769-16.594-25.265-24.776c6.515-7.119,12.316-16.724,14.897-27.529c2.636-11.025,2.405-22.421-0.81-33.36    c-8.994-26.51-29.604-45.048-63.156-45.665c-8.115-0.15-16.805,2.404-23.319,5.342c-6.921,3.123-12.548,6.807-17.976,11.338    C152.482,253.614,144.504,245.021,135.996,236.958z"/>
		<path d="M239.797,361.651c6.752,5.877,13.025,12.539,19.435,18.947c2.106,2.107,4.605,3.854,6.153,6.316    c-17.126,13.229-40.74,22.374-69.474,20.565c-10.502-0.66-19.859-3.52-28.339-6.479c-2.598-0.906-5.098-2.268-7.449-3.398    c-5.216-2.516-10.367-5.227-14.735-8.421c-4.482-3.281-8.373-7.097-12.309-10.853c-14.61-13.94-26.484-36.703-28.177-62.508    c-0.822-12.524,0.89-26.858,4.696-38.056c3.881-11.418,9.424-20.729,15.869-29.637c6.504,5.699,12.494,12.143,18.785,18.301    c2.151,2.105,4.457,4.17,6.315,6.479c0.849,0.832-0.731,2.321-1.294,3.237c-4.753,7.725-8.271,17.578-9.069,29.15    c-0.932,13.512,2.862,26.037,8.421,35.301c5.241,8.736,12.518,16.621,21.7,22.349c9.109,5.683,20.797,9.731,33.521,9.717    C218.707,372.647,230.218,367.8,239.797,361.651z"/>
	</g>
	<g>
		<g>
			<path fill="#B7202E" d="M243.807-0.002c134.65,0,243.81,109.16,243.81,243.81c0,134.65-109.159,243.81-243.81,243.81     c-134.65,0-243.81-109.159-243.81-243.81C-0.003,109.158,109.157-0.002,243.807-0.002z M397.168,363.357     c25.85-33.09,41.3-74.7,41.3-119.94c0-107.72-87.33-195.05-195.05-195.05c-45.25,0-86.86,15.45-119.95,41.3     c-12.6,9.85-23.95,21.2-33.8,33.81c-25.85,33.09-41.3,74.7-41.3,119.94c0,107.72,87.33,195.041,195.05,195.041     c45.24,0,86.85-15.45,119.94-41.301C375.968,387.317,387.317,375.958,397.168,363.357z"/>
		</g>
		<path fill="#B7202E" d="M89.671,123.473l273.69,273.688c12.604-9.848,23.957-21.2,33.803-33.803L123.47,89.672    C110.867,99.518,99.517,110.871,89.671,123.473z"/>
	</g>
</g>
</svg>