<?xml version="1.0" encoding="UTF-8"?>
<svg width="287px" height="42px" viewBox="0 0 287 42" version="1.1" xmlns="http://www.w3.org/2000/svg" xmlns:xlink="http://www.w3.org/1999/xlink">
    <!-- Generator: Sketch 52.6 (67491) - http://www.bohemiancoding.com/sketch -->
    <title>Group 4</title>
    <desc>Created with Sketch.</desc>
    <defs>
        <polygon id="path-1" points="-1.42108547e-14 34.8792708 192.816402 34.8792708 192.816402 0.000272627067 -1.42108547e-14 0.000272627067"></polygon>
        <polygon id="path-3" points="0.00035 -0.000116666667 81.5243333 -0.000116666667 81.5243333 41.8657167 0.00035 41.8657167"></polygon>
    </defs>
    <g id="Design" stroke="none" stroke-width="1" fill="none" fill-rule="evenodd">
        <g id="Home-(alt.-stats-layout)" transform="translate(-30.000000, -24.000000)">
            <g id="header">
                <g id="Group" transform="translate(30.000000, 24.000000)">
                    <g id="Group-4" transform="translate(0.000000, 0.000000)">
                        <g id="Group-40" transform="translate(94.043478, 3.652174)">
                            <path d="M1.6888338,8.6038376 L6.26896852,8.6038376 C6.86693056,8.6038376 7.40491464,8.5511297 7.88110325,8.44662266 C8.35729186,8.34120686 8.76077991,8.15672921 9.09247618,7.89046344 C9.42326369,7.62419767 9.67317183,7.26614746 9.84401813,6.81540404 C10.0130469,6.36375187 10.0975613,5.79214378 10.0975613,5.09967103 C10.0975613,4.3099613 9.98487544,3.6901891 9.75859498,3.23853693 C9.53322327,2.78779351 9.2333335,2.44973595 8.86165193,2.22345548 C8.48997036,1.99808377 8.06921592,1.85722645 7.60211488,1.79997477 C7.13319633,1.7445406 6.64792015,1.71546038 6.14810386,1.71546038 L1.6888338,1.71546038 L1.6888338,8.6038376 Z M1.6888338,17.7141254 L0.166666013,17.7141254 L0.166666013,0.19329259 L6.23261825,0.19329259 C8.13192015,0.19329259 9.50596056,0.620408328 10.3520132,1.4746398 C11.1971571,2.32887128 11.6206378,3.55296681 11.6206378,5.14783515 C11.6206378,6.34012419 11.350737,7.36247569 10.8100267,8.21670716 C10.2711339,9.07093864 9.38055211,9.65072554 8.14191647,9.95697661 L12.8292845,17.7141254 L11.0408509,17.7141254 L6.44163233,10.1260054 L1.6888338,10.1260054 L1.6888338,17.7141254 Z" id="Fill-1" fill="#083855"></path>
                            <path d="M20.9972823,2.41692982 L18.1701396,10.8265661 L23.7998885,10.8265661 L20.9972823,2.41692982 Z M15.7782915,17.7140345 L14.1825144,17.7140345 L20.2730031,0.193201715 L21.7224703,0.193201715 L27.7629773,17.7140345 L26.1453901,17.7140345 L24.2351831,12.3487339 L17.7103086,12.3487339 L15.7782915,17.7140345 Z" id="Fill-3" fill="#083855"></path>
                            <mask id="mask-2" fill="white">
                                <use xlink:href="#path-1"></use>
                            </mask>
                            <g id="Clip-6"></g>
                            <polygon id="Fill-5" fill="#083855" mask="url(#mask-2)" points="30.5678555 17.7146707 32.090932 17.7146707 32.090932 0.170210165 30.5678555 0.170210165"></polygon>
                            <polygon id="Fill-7" fill="#083855" mask="url(#mask-2)" points="46.4429296 17.7144889 36.1249039 17.7144889 36.1249039 0.193656093 37.6470716 0.193656093 37.6470716 16.1914124 46.4429296 16.1914124"></polygon>
                            <path d="M57.3652786,2.63484972 L53.9110937,2.63484972 L53.9110937,8.04831451 L57.3652786,8.04831451 C58.3167471,8.04831451 59.0492051,7.83657416 59.5653791,7.41309345 C60.0797355,6.98961274 60.3387312,6.29986626 60.3387312,5.34112774 C60.3387312,4.38329798 60.1115419,3.69264274 59.6607985,3.27007079 C59.2109639,2.84659008 58.4448818,2.63484972 57.3652786,2.63484972 Z M51.4456363,0.193019963 L57.3652786,0.193019963 C59.2818469,0.193019963 60.6677012,0.604686834 61.5219326,1.4252943 C62.3761641,2.24771929 62.8032799,3.55269418 62.8032799,5.34112774 C62.8032799,7.12865254 62.3479927,8.43453619 61.4374182,9.25605242 C60.5277526,10.0775686 59.1691611,10.4883268 57.3652786,10.4883268 L53.9110937,10.4883268 L53.9110937,17.7147615 L51.4456363,17.7147615 L51.4456363,0.193019963 Z" id="Fill-8" fill="#083855" mask="url(#mask-2)"></path>
                            <path d="M70.7543574,10.1019233 L69.0140879,4.85748732 L67.2247456,10.1019233 L70.7543574,10.1019233 Z M64.5911682,17.7145798 L62.0057548,17.7145798 L68.0471706,0.193746969 L69.9564688,0.193746969 L75.9978846,17.7145798 L73.3879348,17.7145798 L71.5995013,12.5428443 L66.3805105,12.5428443 L64.5911682,17.7145798 Z" id="Fill-9" fill="#083855" mask="url(#mask-2)"></path>
                            <path d="M87.2123081,12.8086557 C87.2123081,11.8899025 86.9215059,11.2137874 86.341719,10.7784928 C85.7619321,10.344107 84.8440877,10.0623924 83.5872769,9.93244017 C82.7330454,9.85246957 81.9524233,9.69525462 81.2426841,9.4617041 C80.532945,9.22815358 79.9258954,8.90645364 79.4188091,8.49478677 C78.9099052,8.08402866 78.5164135,7.58512113 78.2346988,6.99624666 C77.9529842,6.40828096 77.8112181,5.72035199 77.8112181,4.93064225 C77.8112181,3.25489455 78.3428409,2.0144414 79.4069952,1.20837404 C80.469332,0.403215432 81.8960803,-0.000272627067 83.6836051,-0.000272627067 C84.2470344,-0.000272627067 84.8195513,0.0560703001 85.3993382,0.167847397 C85.979125,0.279624495 86.5271055,0.478642254 87.0423706,0.76580943 C87.5576358,1.05297661 88.0283718,1.43647201 88.4563963,1.91629565 C88.8826033,2.39521053 89.2333835,3.00498641 89.5069193,3.74562327 L87.2840999,4.76070472 C86.9796664,3.93918849 86.5134741,3.34758775 85.8873406,2.98499375 C85.2612071,2.62239976 84.5296578,2.44155713 83.695419,2.44155713 C82.6203596,2.44155713 81.781577,2.63148732 81.1790712,3.0113477 C80.5774741,3.39211684 80.2757668,4.02733791 80.2757668,4.91791966 C80.2757668,5.3386741 80.36846,5.70308561 80.5529377,6.01115419 C80.7374153,6.31831402 80.9918672,6.57367471 81.3126584,6.77541874 C81.6343584,6.97807152 82.0042224,7.13619522 82.4213418,7.24978983 C82.8384612,7.36156693 83.2892047,7.44335505 83.7717546,7.49242792 C84.9440509,7.60511378 85.911877,7.82230667 86.6752328,8.14491537 C87.4394974,8.46661531 88.0456382,8.86555958 88.4963816,9.34083944 C88.9453075,9.81611929 89.2542849,10.3513771 89.4233137,10.9475216 C89.5923424,11.5436661 89.6768568,12.1643471 89.6768568,12.8086557 C89.6768568,13.6465296 89.5359995,14.3835314 89.2542849,15.0196612 C88.9725702,15.6566998 88.5690822,16.1883226 88.0456382,16.6145296 C87.5212855,17.0425541 86.8896994,17.364254 86.1481538,17.5805382 C85.4066082,17.7986398 84.5860007,17.9076906 83.6836051,17.9076906 C83.1038182,17.9076906 82.5203963,17.8513477 81.9306131,17.7386618 C81.3435562,17.625976 80.7828532,17.4287758 80.2512304,17.1461524 C79.7205164,16.8644377 79.2252438,16.4936649 78.7654129,16.0347427 C78.3055819,15.5758205 77.923904,14.9996686 77.6176529,14.3071958 L79.7450528,13.1467133 C80.099468,13.936423 80.6138244,14.5207537 81.291757,14.8987966 C81.9678721,15.2777482 82.7648519,15.4667696 83.6836051,15.4667696 C84.7477595,15.4667696 85.6001734,15.2613906 86.2462996,14.8506325 C86.8896994,14.4389656 87.2123081,13.7592154 87.2123081,12.8086557" id="Fill-10" fill="#083855" mask="url(#mask-2)"></path>
                            <path d="M101.857562,12.8086557 C101.857562,11.8899025 101.566759,11.2137874 100.986972,10.7784928 C100.406277,10.344107 99.4884323,10.0623924 98.2325303,9.93244017 C97.3782988,9.85246957 96.5967679,9.69525462 95.8879375,9.4617041 C95.1781984,9.22815358 94.57024,8.90645364 94.0640625,8.49478677 C93.5551586,8.08402866 93.1607581,7.58512113 92.8790435,6.99624666 C92.5973288,6.40828096 92.4555628,5.72035199 92.4555628,4.93064225 C92.4555628,3.25489455 92.9871855,2.0144414 94.0513399,1.20837404 C95.1145854,0.403215432 96.540425,-0.000272627067 98.3279498,-0.000272627067 C98.8913791,-0.000272627067 99.4638959,0.0560703001 100.043683,0.167847397 C100.624378,0.279624495 101.172359,0.478642254 101.686715,0.76580943 C102.202889,1.05297661 102.673625,1.43647201 103.10165,1.91629565 C103.527857,2.39521053 103.877728,3.00498641 104.151264,3.74562327 L101.929353,4.76070472 C101.62492,3.93918849 101.158727,3.34758775 100.532594,2.98499375 C99.9055517,2.62239976 99.1749112,2.44155713 98.3406724,2.44155713 C97.265613,2.44155713 96.4268304,2.63148732 95.8234158,3.0113477 C95.2227275,3.39211684 94.9210202,4.02733791 94.9210202,4.91791966 C94.9210202,5.3386741 95.0137134,5.70308561 95.1981911,6.01115419 C95.3826687,6.31831402 95.6362119,6.57367471 95.9579118,6.77541874 C96.278703,6.97807152 96.6494758,7.13619522 97.0665952,7.24978983 C97.4837146,7.36156693 97.9344581,7.44335505 98.4160992,7.49242792 C99.5883956,7.60511378 100.55713,7.82230667 101.319577,8.14491537 C102.084751,8.46661531 102.689983,8.86555958 103.140726,9.34083944 C103.589652,9.81611929 103.899538,10.3513771 104.068567,10.9475216 C104.237596,11.5436661 104.32211,12.1643471 104.32211,12.8086557 C104.32211,13.6465296 104.181253,14.3835314 103.899538,15.0196612 C103.617824,15.6566998 103.214336,16.1883226 102.689983,16.6145296 C102.166539,17.0425541 101.534953,17.364254 100.793407,17.5805382 C100.051862,17.7986398 99.2312541,17.9076906 98.3279498,17.9076906 C97.7481629,17.9076906 97.164741,17.8513477 96.5758665,17.7386618 C95.9888096,17.625976 95.4281066,17.4287758 94.8964838,17.1461524 C94.364861,16.8644377 93.8704972,16.4936649 93.4106663,16.0347427 C92.9508353,15.5758205 92.5682486,14.9996686 92.2629063,14.3071958 L94.3893974,13.1467133 C94.7438126,13.936423 95.2590778,14.5207537 95.9361017,14.8987966 C96.6122168,15.2777482 97.4101053,15.4667696 98.3279498,15.4667696 C99.3930129,15.4667696 100.245427,15.2613906 100.890644,14.8506325 C101.534953,14.4389656 101.857562,13.7592154 101.857562,12.8086557" id="Fill-11" fill="#083855" mask="url(#mask-2)"></path>
                            <polygon id="Fill-12" fill="#083855" mask="url(#mask-2)" points="118.69928 2.63484972 109.855258 2.63484972 109.855258 7.41945475 116.161122 7.41945475 116.161122 9.86037575 109.855258 9.86037575 109.855258 15.2738405 118.69928 15.2738405 118.69928 17.7147615 107.389801 17.7147615 107.389801 0.193019963 118.69928 0.193019963"></polygon>
                            <polygon id="Fill-13" fill="#083855" mask="url(#mask-2)" points="123.992971 5.38947361 123.992971 17.7149433 121.528422 17.7149433 121.528422 0.193201715 123.653096 0.193201715 131.096724 12.4705073 131.096724 0.193201715 133.562181 0.193201715 133.562181 17.7149433 131.430237 17.7149433"></polygon>
                            <path d="M136.849155,4.73716791 C136.849155,3.91474293 137.005461,3.20591255 137.3208,2.61067679 C137.634321,2.01453227 138.059619,1.52198604 138.59215,1.13576436 C139.124682,0.749542682 139.748998,0.463284262 140.467825,0.278806614 C141.186651,0.0925114513 141.957277,-0.000181751378 142.780611,-0.000181751378 C143.394022,-0.000181751378 143.995619,0.0607049602 144.584493,0.18066087 C145.174277,0.299708022 145.724074,0.495090753 146.23207,0.765900306 C146.740973,1.03761862 147.208074,1.39566883 147.636099,1.84368598 C148.064123,2.29079437 148.423082,2.84422731 148.713885,3.50489357 L146.418365,4.42273803 C146.048501,3.64938592 145.544141,3.1268507 144.908011,2.85149737 C144.270972,2.5788703 143.558507,2.44164801 142.768797,2.44164801 C141.754624,2.44164801 140.924929,2.62703442 140.278803,2.99780723 C139.635403,3.36948879 139.313703,3.94200563 139.313703,4.71717526 L139.313703,13.1667968 C139.313703,13.618449 139.417302,13.9901306 139.628133,14.280024 C139.836239,14.5708262 140.107048,14.8052855 140.437836,14.9824931 C140.766806,15.1606094 141.137578,15.2860179 141.549245,15.3587184 C141.960003,15.4305102 142.366218,15.4668605 142.768797,15.4668605 C143.799327,15.4668605 144.63811,15.2732953 145.282419,14.8870736 C145.925818,14.4999432 146.249336,13.9283351 146.249336,13.1713406 L146.249336,10.5850185 L142.647932,10.5850185 L142.647932,8.14500625 L148.713885,8.14500625 L148.713885,13.1713406 C148.713885,13.9446927 148.564848,14.6289867 148.265867,15.2251312 C147.965978,15.8212757 147.55522,16.3165482 147.031776,16.7118574 C146.506514,17.1062579 145.880381,17.4043302 145.154284,17.6051655 C144.428187,17.8069095 143.63666,17.9077815 142.780611,17.9077815 C141.910022,17.9077815 141.110316,17.8069095 140.384219,17.6051655 C139.656305,17.4043302 139.031989,17.1017141 138.506727,16.7000436 C137.982375,16.2965555 137.575251,15.801283 137.284449,15.2124086 C136.993647,14.6253516 136.849155,13.9446927 136.849155,13.1713406 L136.849155,4.73716791 Z" id="Fill-14" fill="#083855" mask="url(#mask-2)"></path>
                            <polygon id="Fill-15" fill="#083855" mask="url(#mask-2)" points="163.309974 2.63484972 154.465952 2.63484972 154.465952 7.41945475 160.771816 7.41945475 160.771816 9.86037575 154.465952 9.86037575 154.465952 15.2738405 163.309974 15.2738405 163.309974 17.7147615 152.001404 17.7147615 152.001404 0.193019963 163.309974 0.193019963"></polygon>
                            <path d="M172.056759,7.80603993 C173.008228,7.80603993 173.740686,7.61520098 174.25686,7.23079682 C174.771216,6.84821017 175.030212,6.17754758 175.030212,5.22062658 C175.030212,4.24643919 174.779395,3.57214158 174.281396,3.19773374 C173.78158,2.82241715 173.040943,2.63521323 172.056759,2.63521323 L168.602574,2.63521323 L168.602574,7.80603993 L172.056759,7.80603993 Z M179.137793,17.7142163 L176.335187,17.7142163 L171.838658,10.2469609 L168.602574,10.2469609 L168.602574,17.7142163 L166.137117,17.7142163 L166.137117,0.193383466 L172.056759,0.193383466 C173.814295,0.193383466 175.158347,0.579605144 176.092549,1.35295726 C177.02766,2.12630937 177.494761,3.41583539 177.494761,5.22062658 C177.494761,7.749697 176.504216,9.32820772 174.521308,9.95706748 L179.137793,17.7142163 Z" id="Fill-16" fill="#083855" mask="url(#mask-2)"></path>
                            <path d="M190.351308,12.8086557 C190.351308,11.8899025 190.060506,11.2137874 189.480719,10.7784928 C188.900023,10.344107 187.982179,10.0623924 186.726277,9.93244017 C185.872045,9.85246957 185.090514,9.69525462 184.381684,9.4617041 C183.671945,9.22815358 183.063986,8.90645364 182.557809,8.49478677 C182.048905,8.08402866 181.654504,7.58512113 181.37279,6.99624666 C181.091984,6.40828096 180.949309,5.72035199 180.949309,4.93064225 C180.949309,3.25489455 181.480932,2.0144414 182.545086,1.20837404 C183.608332,0.403215432 185.034171,-0.000272627067 186.821696,-0.000272627067 C187.385125,-0.000272627067 187.957642,0.0560703001 188.537429,0.167847397 C189.118125,0.279624495 189.666105,0.478642254 190.18137,0.76580943 C190.696635,1.05297661 191.167371,1.43647201 191.595396,1.91629565 C192.021603,2.39521053 192.371474,3.00498641 192.645919,3.74562327 L190.4231,4.76070472 C190.118666,3.93918849 189.652474,3.34758775 189.02634,2.98499375 C188.399298,2.62239976 187.668657,2.44155713 186.834419,2.44155713 C185.759359,2.44155713 184.920577,2.63148732 184.317162,3.0113477 C183.716474,3.39211684 183.414766,4.02733791 183.414766,4.91791966 C183.414766,5.3386741 183.50746,5.70308561 183.691937,6.01115419 C183.876415,6.31831402 184.129958,6.57367471 184.451658,6.77541874 C184.772449,6.97807152 185.143222,7.13619522 185.560341,7.24978983 C185.977461,7.36156693 186.428204,7.44335505 186.909845,7.49242792 C188.082142,7.60511378 189.050877,7.82230667 189.814232,8.14491537 C190.578497,8.46661531 191.184638,8.86555958 191.634473,9.34083944 C192.083398,9.81611929 192.393285,10.3513771 192.562313,10.9475216 C192.731342,11.5436661 192.815856,12.1643471 192.815856,12.8086557 C192.815856,13.6465296 192.674999,14.3835314 192.393285,15.0196612 C192.11157,15.6566998 191.708082,16.1883226 191.184638,16.6145296 C190.660285,17.0425541 190.028699,17.364254 189.287153,17.5805382 C188.545608,17.7986398 187.725,17.9076906 186.821696,17.9076906 C186.241909,17.9076906 185.658487,17.8513477 185.069613,17.7386618 C184.482556,17.625976 183.921853,17.4287758 183.39023,17.1461524 C182.858607,16.8644377 182.364243,16.4936649 181.904412,16.0347427 C181.444582,15.5758205 181.061995,14.9996686 180.756653,14.3071958 L182.883144,13.1467133 C183.237559,13.936423 183.752824,14.5207537 184.429848,14.8987966 C185.105963,15.2777482 185.903852,15.4667696 186.821696,15.4667696 C187.886759,15.4667696 188.739173,15.2613906 189.38439,14.8506325 C190.028699,14.4389656 190.351308,13.7592154 190.351308,12.8086557" id="Fill-17" fill="#083855" mask="url(#mask-2)"></path>
                            <path d="M3.44955028,27.2856982 L2.08641494,31.3469328 L4.80268928,31.3469328 L3.44955028,27.2856982 Z M0.930476179,34.6720742 L0.159850337,34.6720742 L3.10058763,26.2124563 L3.80123919,26.2124563 L6.71925756,34.6720742 L5.93500037,34.6720742 L5.01352088,32.0821171 L1.86195199,32.0821171 L0.930476179,34.6720742 Z" id="Fill-18" fill="#083855" mask="url(#mask-2)"></path>
                            <path d="M2.24390251,31.2331564 L4.64574697,31.2331564 L3.44891415,27.6435667 L2.24390251,31.2331564 Z M4.96017685,31.4603456 L1.92765511,31.4603456 L3.4498229,26.9274663 L4.96017685,31.4603456 Z M6.0152436,34.5592066 L6.55958898,34.5592066 L3.7197237,26.3258692 L3.18083086,26.3258692 L0.319155419,34.5592066 L0.8507782,34.5592066 L1.78225401,31.9692495 L5.09376412,31.9692495 L6.0152436,34.5592066 Z M6.87856265,34.7863958 L5.85530239,34.7863958 L4.93291415,32.1964387 L1.94219522,32.1964387 L1.01071941,34.7863958 L0.000181751378,34.7863958 L3.01998089,26.09868 L3.88148242,26.09868 L3.90874513,26.1759243 L6.87856265,34.7863958 Z" id="Fill-19" fill="#083855" mask="url(#mask-2)"></path>
                            <path d="M13.0997306,29.8872874 C13.5522915,29.9354516 13.9585058,30.0172397 14.3201911,30.1335606 C14.6818763,30.2489727 14.9881274,30.4098227 15.2416705,30.6115667 C15.4952137,30.8142195 15.6860527,31.0668539 15.8196399,31.3703787 C15.9523184,31.6729947 16.0177489,32.0401325 16.0177489,32.4663395 C16.0177489,32.8952727 15.9423221,33.2551405 15.7887422,33.5459427 C15.6387973,33.8376536 15.4297832,34.0757479 15.1662437,34.2584081 C14.899978,34.441977 14.5891831,34.5719292 14.2329504,34.6491735 C13.8730827,34.7264179 13.4895873,34.7654944 13.0770116,34.7654944 C12.7807569,34.7654944 12.4899547,34.7427755 12.20097,34.6964289 C11.9147116,34.6509911 11.6429933,34.5755642 11.3894501,34.4728747 C11.1386332,34.3701852 10.9123527,34.2293279 10.7142437,34.0521203 C10.5161347,33.8740039 10.3525585,33.656811 10.2298763,33.4005416 L10.9050827,33.0861117 C10.9377979,33.163356 10.9932321,33.2560492 11.0713852,33.3660088 C11.1459032,33.4750596 11.2694942,33.5777492 11.4330704,33.6740774 C11.5957379,33.7722231 11.812022,33.85492 12.0801053,33.9258031 C12.3463711,33.9957773 12.6807936,34.0312189 13.0770116,34.0312189 C13.7776632,34.0312189 14.3201911,33.9158067 14.7045952,33.6858912 C15.0889994,33.4559758 15.2816558,33.0524877 15.2816558,32.4763358 C15.2816558,32.1491833 15.2344005,31.8765563 15.1362547,31.6575459 C15.038109,31.440353 14.8954342,31.2613279 14.7045952,31.1204705 C14.5137563,30.9814307 14.2774795,30.8732887 13.9984911,30.7987706 C13.7176852,30.7251613 13.3987116,30.6688184 13.0424789,30.6297418 C12.5526589,30.5752164 12.1282694,30.4952458 11.7693105,30.38983 C11.412169,30.285323 11.1186405,30.1408306 10.8896338,29.9581705 C10.6588096,29.7746016 10.4906895,29.5510474 10.3798212,29.2856904 C10.2725879,29.0212421 10.2171537,28.6968159 10.2171537,28.3160468 C10.2171537,27.9261901 10.2844017,27.5908588 10.4234415,27.3109617 C10.5588463,27.029247 10.7496852,26.8020578 11.0005021,26.6266677 C11.2485928,26.4521864 11.5475738,26.3231429 11.8974452,26.2413548 C12.2482254,26.1595667 12.6408083,26.1186726 13.0770116,26.1186726 C13.356,26.1186726 13.6368059,26.139574 13.9157942,26.1822856 C14.1975089,26.2259059 14.4610484,26.3013328 14.7045952,26.4103836 C14.9508683,26.5194344 15.1662437,26.6657443 15.3570827,26.8474957 C15.5479216,27.0310645 15.6915052,27.2582538 15.7841984,27.5308808 L15.1062658,27.8453107 C15.0989957,27.7998729 15.0708242,27.7217198 15.0208426,27.612669 C14.9681347,27.5027094 14.8727152,27.3927498 14.7273141,27.2791552 C14.5837306,27.1664693 14.3810778,27.0674148 14.114812,26.9819917 C13.8503637,26.8965685 13.5041274,26.853857 13.0770116,26.853857 C12.5472064,26.853857 12.1382658,26.9120174 11.8520073,27.0283383 C11.5630227,27.1446592 11.3549173,27.2818814 11.2213301,27.4381876 C11.0886516,27.5935851 11.0104985,27.754435 10.9877795,27.9207375 C10.9650606,28.0888576 10.9532468,28.2188098 10.9532468,28.3133205 C10.9532468,28.6004877 10.9959584,28.834947 11.0804727,29.0185159 C11.1668047,29.2020848 11.2994832,29.3511209 11.4775995,29.4683505 C11.6557159,29.5846714 11.8819963,29.6737296 12.1482621,29.7364338 C12.4172541,29.7982293 12.7335015,29.8491197 13.0997306,29.8872874" id="Fill-20" fill="#083855" mask="url(#mask-2)"></path>
                            <path d="M10.3845467,33.4539765 C10.4926888,33.650268 10.6290023,33.8229318 10.7898523,33.9674241 C10.977965,34.1355442 11.1942491,34.2700402 11.4323434,34.3672772 C11.6795253,34.4681492 11.9448823,34.5408497 12.2184181,34.5844701 C12.8827194,34.6926121 13.6042724,34.6680757 14.2085957,34.5381235 C14.5484708,34.4645141 14.8492693,34.3391057 15.1019037,34.1646244 C15.3499944,33.9937781 15.5471946,33.7674976 15.6880519,33.4939618 C15.8316355,33.2222435 15.9043361,32.8769159 15.9043361,32.4670665 C15.9043361,32.0535821 15.8407231,31.7009844 15.7153146,31.4156348 C15.5880887,31.1248326 15.4099723,30.8912821 15.1709693,30.7004431 C14.9256049,30.5050604 14.6275326,30.3505717 14.28584,30.2415209 C13.9350599,30.128835 13.5315718,30.0470469 13.0880985,30.0007003 C12.7200519,29.9616238 12.3956257,29.9107334 12.1229987,29.8480291 C11.837649,29.7798724 11.5995547,29.6844529 11.415077,29.5626795 C11.2187855,29.4345448 11.0715669,29.2673335 10.977965,29.0664982 C10.8861805,28.869298 10.8389252,28.6157548 10.8389252,28.3131388 C10.8389252,28.2177193 10.850739,28.0886758 10.8752754,27.9060157 C10.9007206,27.717903 10.9888701,27.5361516 11.1351799,27.3643966 C11.2814898,27.1926415 11.5077702,27.0445141 11.8094775,26.9227407 C12.1102761,26.8000585 12.525578,26.7400806 13.0771934,26.7400806 C13.5152142,26.7400806 13.8759907,26.7855184 14.1495265,26.8736679 C14.4248799,26.9618173 14.6429815,27.0690506 14.7974702,27.1899152 C14.9546851,27.3116887 15.0610097,27.4334621 15.1228051,27.5634143 C15.1446153,27.6088522 15.1618817,27.650655 15.1764218,27.687914 L15.6417053,27.4716299 C15.5553734,27.2607983 15.4345088,27.0790469 15.2791113,26.9300108 C15.0946337,26.7537119 14.8910721,26.6183072 14.6584304,26.5147089 C14.4285149,26.4111106 14.1722454,26.3365925 13.8987096,26.2947897 C13.2062369,26.1875564 12.4865014,26.2211804 11.9230721,26.3520414 C11.5913759,26.4292857 11.3032999,26.5528767 11.0661144,26.7200879 C10.8307464,26.8845729 10.6535388,27.093587 10.525404,27.3598528 C10.3963606,27.6224835 10.3300213,27.9432747 10.3300213,28.315865 C10.3300213,28.678459 10.3827292,28.9901626 10.4854187,29.2427971 C10.5899258,29.493614 10.7453232,29.6980843 10.9606986,29.8689306 C11.1769827,30.0425031 11.4596061,30.1806342 11.8012987,30.2805974 C12.1529876,30.3841957 12.5755596,30.4632576 13.0544745,30.5168742 C13.4161597,30.5568595 13.7433122,30.6141112 14.0277531,30.689538 C14.3194641,30.7667824 14.5693722,30.880377 14.772025,31.0285043 C14.9755865,31.179358 15.1337102,31.3747407 15.2400348,31.6110175 C15.3445418,31.844568 15.3954322,32.1281002 15.3954322,32.4761541 C15.3954322,33.0922912 15.1827831,33.5321296 14.7629374,33.7829465 C14.3621756,34.0228583 13.7951113,34.1446317 13.0771934,34.1446317 C12.6709791,34.1446317 12.3256514,34.1073727 12.0512069,34.0355809 C11.766766,33.9610628 11.545938,33.8747309 11.374183,33.7720414 C11.1933404,33.6648081 11.0597531,33.549396 10.9770562,33.4303488 C10.9270746,33.3594658 10.8852718,33.294944 10.8525565,33.2358748 L10.3845467,33.4539765 Z M13.0771934,34.8789073 C12.7745773,34.8789073 12.4728701,34.8552796 12.1829766,34.808933 C11.8921744,34.7625864 11.6104598,34.6844333 11.3469203,34.5781088 C11.0842895,34.4699667 10.8461952,34.3218393 10.6389987,34.1364529 C10.4272583,33.9465227 10.2545945,33.7156985 10.1273685,33.4503415 L10.0773869,33.3458344 L10.9634249,32.9332588 L11.0097715,33.0414009 C11.0388517,33.1104664 11.0906508,33.197707 11.1633514,33.2994878 C11.2278731,33.3939985 11.3378327,33.4866917 11.4905039,33.5766587 C11.6413575,33.6675344 11.8494628,33.747505 12.1093673,33.8156617 C12.364728,33.8829097 12.6909717,33.9174425 13.0771934,33.9174425 C13.7533085,33.9174425 14.2812963,33.8065742 14.6466165,33.5875637 C14.9973967,33.3785497 15.168243,33.0141382 15.168243,32.4761541 C15.168243,32.1653592 15.1228051,31.904546 15.0328382,31.7046195 C14.9428713,31.504693 14.809284,31.3383904 14.637529,31.2120732 C14.4575951,31.0812122 14.2331321,30.9785227 13.9695927,30.9085484 C13.6969656,30.8367566 13.3807182,30.7813225 13.029938,30.7422459 C12.5373918,30.6886293 12.1020972,30.6059324 11.736777,30.4986991 C11.3669129,30.390557 11.0579356,30.2378859 10.8189325,30.0461382 C10.5762944,29.8543904 10.3936343,29.6126611 10.2754959,29.3300377 C10.1609925,29.0492318 10.1028321,28.708448 10.1028321,28.315865 C10.1028321,27.9078332 10.1764414,27.553418 10.3218425,27.2607983 C10.4645173,26.9636348 10.6708051,26.7182704 10.9352534,26.5337928 C11.1969754,26.3502239 11.5114053,26.2148191 11.871273,26.1303047 C12.4637825,25.9930824 13.2107806,25.9594584 13.9332424,26.0703268 C14.2276796,26.1157646 14.5030329,26.1957352 14.7511236,26.3066036 C15.003758,26.4192894 15.2345822,26.5737781 15.4363263,26.7655258 C15.6407966,26.962726 15.7943765,27.2071816 15.8916135,27.4943488 L15.9243287,27.590677 L15.0182981,28.0114315 L14.9937617,27.8642129 C14.9910354,27.8460377 14.9783128,27.7906036 14.9174261,27.6597426 C14.872897,27.5661406 14.7847476,27.4679949 14.6575216,27.3689404 C14.5239344,27.2635246 14.3294604,27.1699226 14.0795522,27.0908607 C13.8287353,27.0090726 13.4906778,26.9672698 13.0771934,26.9672698 C12.562837,26.9672698 12.1648015,27.0236127 11.8949007,27.1335723 C11.6277261,27.2417144 11.4296171,27.3689404 11.3078437,27.5116152 C11.1878878,27.6515637 11.1206398,27.7906036 11.1006472,27.9360047 C11.0770195,28.1086685 11.0661144,28.2286244 11.0661144,28.3131388 C11.0661144,28.5821308 11.1060997,28.8029587 11.183344,28.97017 C11.2587709,29.1319287 11.3787268,29.2673335 11.5395767,29.3727493 C11.7022442,29.4799826 11.9158021,29.5654058 12.173889,29.6262925 C12.4374285,29.6862704 12.7527672,29.7362521 13.1117261,29.7744198 C13.5715571,29.822584 13.9895853,29.9080071 14.3558143,30.0252367 C14.7229521,30.1424664 15.0446521,30.3105864 15.3127353,30.5232355 C15.5771836,30.7340671 15.7825626,31.0039679 15.92342,31.3247591 C16.061551,31.6382802 16.1315253,32.0226844 16.1315253,32.4670665 C16.1315253,32.9141749 16.0497372,33.294944 15.889796,33.5993776 C15.7316723,33.9056287 15.5099356,34.1591718 15.2309472,34.3518283 C14.9528676,34.543576 14.6257151,34.6807983 14.2567598,34.7598601 C13.8905308,34.838922 13.493404,34.8789073 13.0771934,34.8789073 Z" id="Fill-21" fill="#083855" mask="url(#mask-2)"></path>
                            <path d="M22.8685036,29.8872874 C23.3210645,29.9354516 23.7272789,30.0172397 24.0889641,30.1335606 C24.4506494,30.2489727 24.7569004,30.4098227 25.0104436,30.6115667 C25.2639868,30.8142195 25.4548257,31.0668539 25.588413,31.3703787 C25.7210915,31.6729947 25.786522,32.0401325 25.786522,32.4663395 C25.786522,32.8952727 25.7110952,33.2551405 25.5575152,33.5459427 C25.4075704,33.8376536 25.1985563,34.0757479 24.9350168,34.2584081 C24.668751,34.441977 24.3579562,34.5719292 24.0008147,34.6491735 C23.6418557,34.7264179 23.2574516,34.7654944 22.8457847,34.7654944 C22.5495299,34.7654944 22.2587277,34.7427755 21.969743,34.6964289 C21.6834846,34.6509911 21.4117663,34.5755642 21.1582231,34.4728747 C20.9074062,34.3701852 20.6811258,34.2293279 20.4830168,34.0521203 C20.2849078,33.8740039 20.1213315,33.656811 19.9986494,33.4005416 L20.6738557,33.0861117 C20.706571,33.163356 20.7620051,33.2560492 20.8392495,33.3660088 C20.9146763,33.4750596 21.0373585,33.5777492 21.2009347,33.6740774 C21.364511,33.7722231 21.5807951,33.85492 21.8488784,33.9258031 C22.1151442,33.9957773 22.4495667,34.0312189 22.8457847,34.0312189 C23.5464363,34.0312189 24.0889641,33.9158067 24.4733683,33.6858912 C24.8568637,33.4559758 25.0504289,33.0524877 25.0504289,32.4763358 C25.0504289,32.1491833 25.0031735,31.8765563 24.9050278,31.6575459 C24.8068821,31.440353 24.6642072,31.2613279 24.4733683,31.1204705 C24.2825293,30.9814307 24.0462525,30.8732887 23.7672642,30.7987706 C23.4864583,30.7251613 23.1674846,30.6688184 22.8112519,30.6297418 C22.3205232,30.5752164 21.8970425,30.4952458 21.5380835,30.38983 C21.1809421,30.285323 20.8874136,30.1408306 20.6584069,29.9581705 C20.4275826,29.7746016 20.2594626,29.5510474 20.1485942,29.2856904 C20.0413609,29.0212421 19.9859268,28.6968159 19.9859268,28.3160468 C19.9859268,27.9261901 20.0531748,27.5908588 20.1913058,27.3109617 C20.3276194,27.029247 20.5184583,26.8020578 20.7692752,26.6266677 C21.0173658,26.4521864 21.3163468,26.3231429 21.6653095,26.2413548 C22.0169984,26.1595667 22.4086726,26.1186726 22.8457847,26.1186726 C23.1247731,26.1186726 23.4055789,26.139574 23.6845673,26.1822856 C23.9662819,26.2259059 24.2298214,26.3013328 24.4733683,26.4103836 C24.7196414,26.5194344 24.9350168,26.6657443 25.1258557,26.8474957 C25.3166947,27.0310645 25.4602783,27.2582538 25.5529715,27.5308808 L24.8750388,27.8453107 C24.8677688,27.7998729 24.8395973,27.7217198 24.7896157,27.612669 C24.7369078,27.5027094 24.6414883,27.3927498 24.4960872,27.2791552 C24.3525036,27.1664693 24.1489421,27.0674148 23.8826763,26.9819917 C23.6191368,26.8965685 23.2729004,26.853857 22.8457847,26.853857 C22.3159794,26.853857 21.9070388,26.9120174 21.6198716,27.0283383 C21.3317957,27.1446592 21.1236904,27.2818814 20.9901031,27.4381876 C20.8574246,27.5935851 20.7792715,27.754435 20.7565526,27.9207375 C20.7338337,28.0888576 20.7211111,28.2188098 20.7211111,28.3133205 C20.7211111,28.6004877 20.7647314,28.834947 20.8492458,29.0185159 C20.934669,29.2020848 21.0682562,29.3511209 21.2463726,29.4683505 C21.4244889,29.5846714 21.6507694,29.6737296 21.9170352,29.7364338 C22.1860272,29.7982293 22.5022746,29.8491197 22.8685036,29.8872874" id="Fill-22" fill="#083855" mask="url(#mask-2)"></path>
                            <path d="M20.1533198,33.4539765 C20.2614618,33.650268 20.3977754,33.8229318 20.5586254,33.9674241 C20.746738,34.1355442 20.9630222,34.2700402 21.2011165,34.3672772 C21.4482983,34.4681492 21.7136554,34.5408497 21.9871912,34.5844701 C22.6505837,34.6926121 23.3730454,34.6680757 23.9773688,34.5381235 C24.3172438,34.4645141 24.6180424,34.3391057 24.8706768,34.1646244 C25.1187674,33.9937781 25.3159677,33.7674976 25.456825,33.4939618 C25.6004086,33.2213347 25.6731091,32.8760071 25.6731091,32.4670665 C25.6731091,32.0535821 25.6094961,31.7009844 25.4840877,31.4156348 C25.3568617,31.1248326 25.1787454,30.8912821 24.9397423,30.7004431 C24.694378,30.5050604 24.3963057,30.3505717 24.0546131,30.2415209 C23.7038329,30.128835 23.3003449,30.0470469 22.8568715,30.0007003 C22.488825,29.9616238 22.1643988,29.9107334 21.8917717,29.8480291 C21.6073308,29.7807811 21.3692365,29.6844529 21.1838501,29.5626795 C20.9866498,29.4345448 20.8394312,29.2673335 20.746738,29.0664982 C20.6540448,28.8683892 20.6076982,28.6148461 20.6076982,28.3131388 C20.6076982,28.2195368 20.6186033,28.0941284 20.6440485,27.9060157 C20.6694937,27.717903 20.7576431,27.5361516 20.903953,27.3643966 C21.0493541,27.1935503 21.2765433,27.0445141 21.5773418,26.9227407 C21.8790491,26.8000585 22.294351,26.7400806 22.8459664,26.7400806 C23.2839873,26.7400806 23.6447637,26.7855184 23.9182996,26.8745766 C24.1936529,26.9618173 24.4126633,27.0690506 24.5662432,27.1899152 C24.7234582,27.3125974 24.8297827,27.4343709 24.8915782,27.5634143 C24.9133884,27.6088522 24.9306547,27.650655 24.9451949,27.687914 L25.4104784,27.4716299 C25.3241465,27.2607983 25.2032818,27.0790469 25.0478844,26.9300108 C24.862498,26.7537119 24.6598452,26.6183072 24.4272034,26.5147089 C24.1963792,26.4111106 23.9401097,26.3365925 23.6674827,26.2947897 C22.9750099,26.1866476 22.2552745,26.2202716 21.6909364,26.3520414 C21.3601489,26.4292857 21.072073,26.5528767 20.8348874,26.7200879 C20.5995194,26.8845729 20.4223118,27.093587 20.2941771,27.3598528 C20.1642249,27.6224835 20.0987944,27.9441835 20.0987944,28.315865 C20.0987944,28.678459 20.1515023,28.9901626 20.2541918,29.2427971 C20.3586988,29.493614 20.5140963,29.6980843 20.7294716,29.8689306 C20.9457558,30.0425031 21.2283792,30.1806342 21.5700718,30.2805974 C21.9226694,30.3841957 22.3443326,30.4632576 22.8232475,30.5168742 C23.184024,30.5568595 23.5120852,30.6141112 23.7965261,30.689538 C24.0873284,30.7667824 24.3372365,30.880377 24.5398893,31.0285043 C24.7443596,31.179358 24.9024833,31.3747407 25.0088078,31.6110175 C25.1133149,31.844568 25.1642053,32.1281002 25.1642053,32.4761541 C25.1642053,33.0922912 24.9515562,33.5312208 24.5308017,33.7829465 C24.1309487,34.0228583 23.5638844,34.1446317 22.8459664,34.1446317 C22.4397521,34.1446317 22.0944245,34.1073727 21.8199799,34.0355809 C21.535539,33.9610628 21.3147111,33.8747309 21.142956,33.7720414 C20.9621134,33.6648081 20.8285261,33.5503047 20.7458293,33.4303488 C20.6949389,33.358557 20.6540448,33.2940353 20.6213296,33.2358748 L20.1533198,33.4539765 Z M22.8459664,34.8789073 C22.5433504,34.8789073 22.2416431,34.8552796 21.9517497,34.808933 C21.6609475,34.7625864 21.3792328,34.6844333 21.1156933,34.5781088 C20.8530626,34.4699667 20.6149683,34.3218393 20.4077717,34.1364529 C20.1960314,33.9465227 20.0233675,33.7156985 19.8961416,33.4503415 L19.84616,33.3458344 L20.7331067,32.93235 L20.7785445,33.0414009 C20.806716,33.1104664 20.8566976,33.194072 20.9321244,33.3003966 C20.9966462,33.3939985 21.1066058,33.4866917 21.2583682,33.5766587 C21.4101306,33.6675344 21.6182359,33.747505 21.8772316,33.8156617 C22.133501,33.8829097 22.458836,33.9174425 22.8459664,33.9174425 C23.5220816,33.9174425 24.0500693,33.8065742 24.4144808,33.5875637 C24.7661697,33.3776409 24.937016,33.0141382 24.937016,32.4761541 C24.937016,32.1653592 24.8915782,31.904546 24.8016113,31.7046195 C24.7098268,31.5019667 24.5807833,31.340208 24.4053933,31.2120732 C24.2263682,31.0812122 24.0019052,30.9785227 23.7383657,30.9085484 C23.4648299,30.8367566 23.1485825,30.7813225 22.7987111,30.7422459 C22.3061648,30.6886293 21.8708703,30.6059324 21.50555,30.4986991 C21.135686,30.390557 20.8267086,30.2378859 20.5877056,30.0461382 C20.3450675,29.8543904 20.1624073,29.6126611 20.044269,29.3300377 C19.9297656,29.0492318 19.8716051,28.708448 19.8716051,28.315865 C19.8716051,27.9087419 19.9452145,27.553418 20.0897068,27.2607983 C20.2332904,26.9636348 20.4395782,26.7182704 20.7040265,26.5337928 C20.9657484,26.3502239 21.2801783,26.2148191 21.6400461,26.1303047 C22.2325555,25.9921737 22.9804625,25.9585497 23.7020154,26.0703268 C23.9955439,26.1157646 24.2708972,26.1957352 24.5198966,26.3066036 C24.772531,26.4192894 25.0033553,26.5737781 25.2050993,26.7655258 C25.4095696,26.962726 25.5631495,27.2071816 25.6603865,27.4943488 L25.6931018,27.590677 L24.7870712,28.0114315 L24.7625347,27.8642129 C24.7607172,27.8496727 24.7479946,27.7933298 24.6861991,27.6606513 C24.6416701,27.5661406 24.5535206,27.4679949 24.4262947,27.3689404 C24.2927074,27.2635246 24.0982334,27.1699226 23.8483253,27.0908607 C23.5975084,27.0090726 23.2603596,26.9672698 22.8459664,26.9672698 C22.33161,26.9672698 21.9335745,27.0236127 21.6636737,27.1335723 C21.3955904,27.2417144 21.1983902,27.3689404 21.0766168,27.5116152 C20.9566609,27.6515637 20.8894129,27.7906036 20.8694202,27.9360047 C20.8457925,28.1113947 20.8348874,28.2304419 20.8348874,28.3131388 C20.8348874,28.581222 20.873964,28.8029587 20.9521171,28.97017 C21.0275439,29.1319287 21.1474998,29.2673335 21.3083498,29.3727493 C21.471926,29.4799826 21.6854839,29.5654058 21.9426621,29.6262925 C22.2062016,29.6862704 22.5215402,29.7362521 22.8804992,29.7744198 C23.3403302,29.822584 23.7583584,29.9080071 24.1245874,30.0252367 C24.4917252,30.1424664 24.8143339,30.3105864 25.0815084,30.5232355 C25.3459566,30.7340671 25.5513357,31.0039679 25.692193,31.3247591 C25.8303241,31.6382802 25.9002983,32.0226844 25.9002983,32.4670665 C25.9002983,32.9132661 25.8185102,33.2940353 25.658569,33.5993776 C25.5004453,33.9056287 25.2787086,34.1591718 24.9997203,34.3518283 C24.7216407,34.543576 24.3944882,34.6807983 24.0246241,34.7598601 C23.6593039,34.838922 23.2621771,34.8789073 22.8459664,34.8789073 Z" id="Fill-23" fill="#083855" mask="url(#mask-2)"></path>
                            <path d="M34.9223459,32.593202 L34.9223459,28.2802418 C34.9223459,28.178461 34.9096233,28.0485088 34.8823606,27.8885675 C34.8541891,27.7286263 34.7742185,27.5723201 34.6388137,27.4205577 C34.5006827,27.2687953 34.2871248,27.1370256 33.9954138,27.023431 C33.7046116,26.9107451 33.2929448,26.8544022 32.764957,26.8544022 C32.2278817,26.8544022 31.8134885,26.9107451 31.5217776,27.023431 C31.2309754,27.1370256 31.0146912,27.2706129 30.8792865,27.4260103 C30.7438817,27.5823165 30.6630023,27.7422577 30.6411922,27.9058339 C30.6184732,28.0694102 30.6057506,28.1993624 30.6057506,28.2920556 L30.6057506,32.5804794 C30.6057506,32.6749901 30.6184732,32.8031248 30.6411922,32.9676098 C30.6630023,33.1302773 30.7438817,33.2902185 30.8792865,33.4456159 C31.0146912,33.6028309 31.2309754,33.7382356 31.5217776,33.8554653 C31.8134885,33.9717862 32.2278817,34.0308554 32.764957,34.0308554 C33.2929448,34.0308554 33.7046116,33.9745124 33.9954138,33.8618266 C34.2871248,33.748232 34.5006827,33.6146447 34.6388137,33.4583385 C34.7742185,33.3029411 34.8541891,33.1420911 34.8823606,32.9785149 C34.9096233,32.8158474 34.9223459,32.6868039 34.9223459,32.593202 M35.6584389,28.312957 L35.6584389,32.5486729 C35.6584389,33.2874922 35.4121658,33.8427427 34.9178021,34.211698 C34.4225296,34.581562 33.7073379,34.7660397 32.764957,34.7660397 C31.8234849,34.7660397 31.1055669,34.581562 30.6102944,34.211698 C30.118657,33.8427427 29.8696576,33.2874922 29.8696576,32.5486729 L29.8696576,28.312957 C29.8696576,27.5968566 30.118657,27.0525112 30.6102944,26.6781034 C31.1055669,26.305513 31.8234849,26.1183091 32.764957,26.1183091 C33.7073379,26.1183091 34.4225296,26.301878 34.9178021,26.6671983 C35.4121658,27.0325186 35.6584389,27.580499 35.6584389,28.312957" id="Fill-24" fill="#083855" mask="url(#mask-2)"></path>
                            <path d="M32.7654114,26.9675424 C32.2446937,26.9675424 31.8393881,27.0220679 31.563126,27.1293012 C31.2877727,27.2365345 31.0860287,27.3619429 30.965164,27.5009827 C30.8433906,27.6400225 30.7725075,27.7817886 30.7534236,27.9217372 C30.729796,28.0889484 30.7188909,28.2098131 30.7188909,28.2916012 L30.7188909,32.5809337 C30.7188909,32.6636306 30.729796,32.7808603 30.7534236,32.9517066 C30.7725075,33.0907464 30.8433906,33.2325124 30.965164,33.3715522 C31.0860287,33.5115008 31.2886814,33.6387268 31.5640348,33.7495951 C31.8421144,33.8604634 32.2465112,33.9168064 32.7654114,33.9168064 C33.2779503,33.9168064 33.6778033,33.862281 33.9549742,33.7550476 C34.2257837,33.6505406 34.4275277,33.5251321 34.5529362,33.3833661 C34.6728921,33.2461438 34.7455927,33.103469 34.7701291,32.9598854 C34.7955743,32.811758 34.8092056,32.6854408 34.8092056,32.5927476 L34.8092056,28.2806961 C34.8092056,28.1798241 34.7955743,28.0544157 34.7701291,27.9081058 C34.7465014,27.7681573 34.6728921,27.6300262 34.5538449,27.4955302 C34.4293453,27.3592167 34.2276012,27.234717 33.9549742,27.1293012 C33.6778033,27.0220679 33.2779503,26.9675424 32.7654114,26.9675424 M32.7654114,34.1439956 C32.2165222,34.1439956 31.7848627,34.0831089 31.4795204,33.9604267 C31.1650905,33.8341095 30.9406276,33.6905259 30.7934089,33.5205884 C30.6434641,33.3479246 30.5534971,33.1670819 30.5280519,32.983513 C30.5026067,32.7990354 30.4917017,32.6754445 30.4917017,32.5809337 L30.4917017,28.2916012 C30.4917017,28.1979993 30.5035155,28.0707733 30.5280519,27.8908394 C30.5534971,27.7063618 30.6434641,27.5246104 30.7934089,27.3519466 C30.9397188,27.1838266 31.170543,27.0384255 31.4804291,26.9175608 C31.7884977,26.7985137 32.2083434,26.7403532 32.7654114,26.7403532 C33.3061217,26.7403532 33.7341462,26.7994224 34.0367623,26.9175608 C34.3466484,27.0384255 34.5711113,27.1774653 34.721965,27.3437678 C34.8710011,27.5109791 34.9627855,27.6872779 34.9936833,27.869938 C35.0218547,28.0280617 35.0363949,28.1661928 35.0363949,28.2806961 L35.0363949,32.5927476 C35.0363949,32.6990721 35.0218547,32.8353857 34.9936833,32.9980532 C34.9627855,33.1834396 34.8719099,33.3633734 34.7237825,33.533311 C34.5729288,33.7032485 34.3421046,33.8486496 34.0367623,33.9676968 C33.7341462,34.0849264 33.3061217,34.1439956 32.7654114,34.1439956 M32.7654114,26.2314494 C31.8539282,26.2314494 31.1514592,26.412292 30.6789056,26.7685247 C30.2172571,27.1193048 29.9827978,27.6391138 29.9827978,28.3125026 L29.9827978,32.5482185 C29.9827978,33.245235 30.2172571,33.7750403 30.6789056,34.1212767 C31.1514592,34.4729656 31.8530195,34.6519907 32.7654114,34.6519907 C33.6759858,34.6519907 34.3766374,34.4729656 34.8491909,34.1212767 C35.3172007,33.7714053 35.54439,33.2570489 35.54439,32.5482185 L35.54439,28.3125026 C35.54439,27.6118511 35.3172007,27.103856 34.8500997,26.7585284 C34.3766374,26.408657 33.675077,26.2314494 32.7654114,26.2314494 M32.7654114,34.8791799 C31.8030378,34.8791799 31.0551309,34.6856147 30.542592,34.303028 C30.0200568,33.9113538 29.7556086,33.3206618 29.7556086,32.5482185 L29.7556086,28.3125026 C29.7556086,27.5645957 30.0200568,26.9848088 30.5416833,26.5876821 C31.0551309,26.2005516 31.8030378,26.0042601 32.7654114,26.0042601 C33.7250587,26.0042601 34.4720568,26.1969166 34.9845957,26.5749595 C35.5071309,26.9611811 35.7715792,27.5464206 35.7715792,28.3125026 L35.7715792,32.5482185 C35.7715792,33.3233881 35.5071309,33.9131713 34.9855045,34.303028 C34.4729656,34.6856147 33.7259674,34.8791799 32.7654114,34.8791799" id="Fill-25" fill="#083855" mask="url(#mask-2)"></path>
                            <path d="M40.0927182,28.300507 C40.0927182,27.9124679 40.168145,27.5798628 40.3162724,27.3036007 C40.4616735,27.0273386 40.665235,26.8010582 40.9215045,26.6265769 C41.1777739,26.4511868 41.484025,26.3230521 41.8384402,26.2412639 C42.1928554,26.1594758 42.5736245,26.1185818 42.9889264,26.1185818 C43.5859797,26.1185818 44.1185112,26.2085487 44.5801597,26.386665 C45.042717,26.5665989 45.4116723,26.8892076 45.6824818,27.3563086 L45.0172718,27.6825524 C44.8391554,27.3472211 44.5701634,27.1263931 44.2139307,27.0173423 C43.8549717,26.9082915 43.4451224,26.8537661 42.9889264,26.8537661 C42.6772228,26.8537661 42.3882381,26.8792113 42.1246986,26.9291929 C41.8584328,26.980992 41.6321524,27.0627802 41.4413134,27.175466 C41.2504745,27.2881519 41.0996208,27.4362792 40.9914788,27.6198481 C40.8842454,27.8015995 40.8288113,28.0306062 40.8288113,28.3023246 L40.8288113,32.5698469 C40.8288113,32.8579228 40.8942418,33.0951084 41.0214677,33.2823123 C41.1505112,33.4695162 41.315905,33.6194611 41.5240103,33.7339645 C41.7302981,33.8466503 41.9611224,33.9238947 42.2173918,33.9666062 C42.4736612,34.0093178 42.7299307,34.031128 42.9889264,34.031128 C43.4551187,34.031128 43.8595155,33.9775113 44.2012081,33.8675517 C44.5429007,33.7585009 44.8164365,33.5358555 45.0172718,33.2023417 L45.6597629,33.5522131 C45.4189423,33.9929602 45.0627096,34.3055726 44.5928823,34.490959 C44.1212375,34.6736191 43.5859797,34.7654036 42.9889264,34.7654036 C42.5663544,34.7654036 42.179224,34.7217832 41.8257176,34.6309075 C41.4713024,34.5418494 41.1677776,34.4073533 40.9115081,34.229237 C40.6525124,34.0502119 40.4544034,33.8212051 40.3090023,33.5403993 C40.1663275,33.2605021 40.0927182,32.9333497 40.0927182,32.5607593 L40.0927182,28.300507 Z" id="Fill-26" fill="#083855" mask="url(#mask-2)"></path>
                            <path d="M42.988472,26.2319037 C42.5877102,26.2319037 42.2096674,26.271889 41.8643397,26.3518596 C41.5235559,26.4300127 41.2282099,26.5545124 40.9855718,26.7208149 C40.7438425,26.8852999 40.5520948,27.0997666 40.41669,27.356036 C40.2767415,27.6168492 40.2058584,27.9349141 40.2058584,28.3002344 L40.2058584,32.5604867 C40.2058584,32.9112669 40.2749239,33.2238792 40.4103287,33.4883275 C40.5484598,33.755502 40.7338462,33.9681511 40.9764843,34.1362712 C41.2218486,34.3071175 41.5171946,34.4361609 41.8534347,34.5215841 C42.1933097,34.607916 42.5749876,34.6524451 42.988472,34.6524451 C43.5691677,34.6524451 44.0944291,34.5624781 44.5515339,34.3843618 C44.958657,34.2244206 45.2785394,33.9599723 45.5030023,33.5964696 L45.0558939,33.3529227 C44.8477886,33.6591738 44.5724353,33.8681879 44.2361952,33.9763299 C43.8863238,34.088107 43.4664781,34.14445 42.988472,34.14445 C42.7249325,34.14445 42.4595755,34.1226398 42.1987623,34.0790195 C41.9315878,34.0344904 41.6862234,33.9517935 41.4699393,33.8336551 C41.2445675,33.7091554 41.06736,33.550123 40.9283201,33.3474702 C40.7865541,33.1402736 40.715671,32.8785516 40.715671,32.5695743 L40.715671,28.3029607 C40.715671,28.0112497 40.775649,27.7622503 40.8937874,27.5614151 C41.011017,27.3633061 41.175502,27.2006386 41.3826986,27.0779564 C41.5880776,26.9570917 41.8234457,26.8716686 42.102434,26.8180519 C42.3732436,26.7662528 42.6713159,26.7408076 42.988472,26.7408076 C43.4564818,26.7408076 43.8790538,26.7971505 44.2461915,26.9089276 C44.5978805,27.0161609 44.872325,27.2260838 45.063164,27.5341524 L45.5211775,27.3096894 C45.2712693,26.9234677 44.9413906,26.6490231 44.53972,26.492717 C44.0898854,26.3200532 43.5682589,26.2319037 42.988472,26.2319037 M42.988472,34.8796343 C42.5559037,34.8796343 42.1551419,34.8323789 41.7970917,34.7415032 C41.4354065,34.6497188 41.1146153,34.5088615 40.846532,34.3225663 C40.5729962,34.1326361 40.3639821,33.8945418 40.2076759,33.5928345 C40.0559135,33.2947623 39.9786692,32.9476171 39.9786692,32.5604867 L39.9786692,28.3002344 C39.9786692,27.8967464 40.0586398,27.5432399 40.2158547,27.2497115 C40.3694347,26.959818 40.58481,26.7189974 40.8574371,26.5327023 C41.1227941,26.3509509 41.4444941,26.2155461 41.8125406,26.1310317 C42.1742258,26.0465173 42.5704438,26.0047145 42.988472,26.0047145 C43.5955216,26.0047145 44.1453195,26.0974077 44.6215081,26.2809766 C45.1086018,26.4709068 45.4993673,26.8135081 45.7810819,27.2996931 L45.8419686,27.4051089 L44.9686533,27.8331334 L44.9168541,27.7358964 C44.7523691,27.426919 44.5115486,27.2269925 44.1807611,27.1261205 C43.8354334,27.0207047 43.4337629,26.9679968 42.988472,26.9679968 C42.685856,26.9679968 42.4014151,26.9925333 42.1460544,27.0406974 C41.8925112,27.0897702 41.6807709,27.1661058 41.4990195,27.2733391 C41.3245382,27.3760287 41.1873159,27.5123422 41.0891701,27.6777359 C40.9919331,27.8422209 40.9428603,28.0521438 40.9428603,28.3029607 L40.9428603,32.5695743 C40.9428603,32.832205 41.0001119,33.0503067 41.1155241,33.2184267 C41.2345712,33.3919993 41.3854249,33.527404 41.5789901,33.6346374 C41.7734641,33.7400532 41.994292,33.8145712 42.2360213,33.8545565 C42.4841119,33.8963593 42.7376551,33.9172607 42.988472,33.9172607 C43.4428505,33.9172607 43.8399772,33.8645528 44.1662209,33.7600458 C44.4815596,33.6591738 44.7351028,33.4519772 44.9195804,33.1439086 L44.9759233,33.0503067 L45.8147059,33.5074114 L45.7601805,33.6073746 C45.5066374,34.0690231 45.1285945,34.4025369 44.6351395,34.5961021 C44.1507721,34.7842148 43.5964304,34.8796343 42.988472,34.8796343" id="Fill-27" fill="#083855" mask="url(#mask-2)"></path>
                            <polygon id="Fill-28" fill="#083855" mask="url(#mask-2)" points="49.7653448 34.6720742 50.5014378 34.6720742 50.5014378 26.1997337 49.7653448 26.1997337"></polygon>
                            <path d="M49.8885426,34.5584796 L50.4168445,34.5584796 L50.4168445,26.3133284 L49.8885426,26.3133284 L49.8885426,34.5584796 Z M49.6517502,34.7856688 L50.6517502,34.7856688 L50.6517502,26.0861391 L49.6517502,26.0861391 L49.6517502,34.7856688 Z" id="Fill-29" fill="#083855" mask="url(#mask-2)"></path>
                            <path d="M57.6563535,27.2856982 L56.2932181,31.3469328 L59.0094925,31.3469328 L57.6563535,27.2856982 Z M55.1372794,34.6720742 L54.3666535,34.6720742 L57.3073908,26.2124563 L58.0080424,26.2124563 L60.9260607,34.6720742 L60.1418036,34.6720742 L59.2212328,32.0821171 L56.0687552,32.0821171 L55.1372794,34.6720742 Z" id="Fill-30" fill="#083855" mask="url(#mask-2)"></path>
                            <path d="M56.4507966,31.2331564 L58.852641,31.2331564 L57.6558082,27.6435667 L56.4507966,31.2331564 Z M59.1670709,31.4603456 L56.1345492,31.4603456 L57.656717,26.9274663 L59.1670709,31.4603456 Z M60.2221377,34.5592066 L60.766483,34.5592066 L57.9266178,26.3258692 L57.3877249,26.3258692 L54.5260495,34.5592066 L55.0576723,34.5592066 L55.9891481,31.9692495 L59.3015669,31.9692495 L60.2221377,34.5592066 Z M61.0854567,34.7863958 L60.0621964,34.7863958 L59.140717,32.1964387 L56.1490893,32.1964387 L55.2176135,34.7863958 L54.2070758,34.7863958 L57.226875,26.09868 L58.0883765,26.09868 L58.1156392,26.1759243 L61.0854567,34.7863958 Z" id="Fill-31" fill="#083855" mask="url(#mask-2)"></path>
                            <polygon id="Fill-32" fill="#083855" mask="url(#mask-2)" points="68.9163966 26.9467319 66.3273482 26.9467319 66.3273482 34.6720742 65.5912551 34.6720742 65.5912551 26.9467319 63.0231081 26.9467319 63.0231081 26.2124563 68.9163966 26.2124563"></polygon>
                            <path d="M65.7051224,34.558934 L66.2140262,34.558934 L66.2140262,26.8335917 L68.8030746,26.8335917 L68.8030746,26.3255966 L63.1360666,26.3255966 L63.1360666,26.8335917 L65.7051224,26.8335917 L65.7051224,34.558934 Z M66.4412154,34.7861232 L65.4779331,34.7861232 L65.4779331,27.0607809 L62.9088774,27.0607809 L62.9088774,26.0984073 L69.0302638,26.0984073 L69.0302638,27.0607809 L66.4412154,27.0607809 L66.4412154,34.7861232 Z" id="Fill-33" fill="#083855" mask="url(#mask-2)"></path>
                            <polygon id="Fill-34" fill="#083855" mask="url(#mask-2)" points="72.417019 34.6720742 73.1531121 34.6720742 73.1531121 26.1997337 72.417019 26.1997337"></polygon>
                            <path d="M72.5392734,34.5584796 L73.0675753,34.5584796 L73.0675753,26.3133284 L72.5392734,26.3133284 L72.5392734,34.5584796 Z M72.3034244,34.7856688 L73.3034244,34.7856688 L73.3034244,26.0861391 L72.3034244,26.0861391 L72.3034244,34.7856688 Z" id="Fill-35" fill="#083855" mask="url(#mask-2)"></path>
                            <path d="M82.652984,32.593202 L82.652984,28.2802418 C82.652984,28.178461 82.6402614,28.0485088 82.6129987,27.8885675 C82.5848272,27.7286263 82.5048566,27.5723201 82.3694518,27.4205577 C82.2313208,27.2687953 82.0177629,27.1370256 81.7260519,27.023431 C81.4352497,26.9107451 81.0235829,26.8544022 80.4955951,26.8544022 C79.9585198,26.8544022 79.5441266,26.9107451 79.2524157,27.023431 C78.9616135,27.1370256 78.7453293,27.2706129 78.6099246,27.4260103 C78.4745198,27.5823165 78.3936404,27.7422577 78.3718303,27.9058339 C78.3491113,28.0694102 78.3363887,28.1993624 78.3363887,28.2920556 L78.3363887,32.5804794 C78.3363887,32.6749901 78.3491113,32.8031248 78.3718303,32.9676098 C78.3936404,33.1302773 78.4745198,33.2902185 78.6099246,33.4456159 C78.7453293,33.6028309 78.9616135,33.7382356 79.2524157,33.8554653 C79.5441266,33.9717862 79.9585198,34.0308554 80.4955951,34.0308554 C81.0235829,34.0308554 81.4352497,33.9745124 81.7260519,33.8618266 C82.0177629,33.748232 82.2313208,33.6146447 82.3694518,33.4583385 C82.5048566,33.3029411 82.5848272,33.1420911 82.6129987,32.9785149 C82.6402614,32.8158474 82.652984,32.6868039 82.652984,32.593202 M83.389077,28.312957 L83.389077,32.5486729 C83.389077,33.2874922 83.1428039,33.8427427 82.6475314,34.211698 C82.1531677,34.581562 81.437976,34.7660397 80.4955951,34.7660397 C79.554123,34.7660397 78.8352963,34.581562 78.3409325,34.211698 C77.8483863,33.8427427 77.6002957,33.2874922 77.6002957,32.5486729 L77.6002957,28.312957 C77.6002957,27.5968566 77.8483863,27.0525112 78.3409325,26.6781034 C78.8352963,26.305513 79.554123,26.1183091 80.4955951,26.1183091 C81.437976,26.1183091 82.1531677,26.301878 82.6475314,26.6671983 C83.1428039,27.0325186 83.389077,27.580499 83.389077,28.312957" id="Fill-36" fill="#083855" mask="url(#mask-2)"></path>
                            <path d="M80.4955042,26.9675424 C79.9738778,26.9675424 79.569481,27.0220679 79.2941276,27.1293012 C79.0187743,27.2356257 78.8170303,27.3610342 78.6952568,27.5009827 C78.5734834,27.6409313 78.5026004,27.7817886 78.4844252,27.9208284 C78.4607976,28.0889484 78.4498925,28.2098131 78.4498925,28.2916012 L78.4498925,32.5809337 C78.4498925,32.6636306 78.4607976,32.7808603 78.4844252,32.9517066 C78.5026004,33.0907464 78.5734834,33.2316037 78.6952568,33.3715522 C78.8170303,33.5124096 79.0187743,33.6387268 79.2950364,33.7495951 C79.5722072,33.8604634 79.976604,33.9168064 80.4955042,33.9168064 C81.0080431,33.9168064 81.4088049,33.862281 81.685067,33.7550476 C81.9567853,33.6505406 82.1585293,33.5251321 82.2839378,33.3833661 C82.4029849,33.2461438 82.4765942,33.103469 82.5011307,32.9598854 C82.5256671,32.8090317 82.5392985,32.6827145 82.5392985,32.5927476 L82.5392985,28.2806961 C82.5392985,28.1816416 82.5265759,28.0571419 82.5011307,27.9081058 C82.4765942,27.7681573 82.4038937,27.6300262 82.2839378,27.4955302 C82.1594381,27.3592167 81.9576941,27.234717 81.685067,27.1293012 C81.4088049,27.0220679 81.0080431,26.9675424 80.4955042,26.9675424 M80.4955042,34.1439956 C79.9466151,34.1439956 79.5149555,34.0831089 79.210522,33.9604267 C78.8960921,33.8350182 78.6716291,33.6905259 78.5244105,33.5205884 C78.3726481,33.3470158 78.28359,33.1661732 78.2590535,32.983513 C78.2336083,32.7990354 78.2227032,32.6754445 78.2227032,32.5809337 L78.2227032,28.2916012 C78.2227032,28.1979993 78.2336083,28.0707733 78.2590535,27.8908394 C78.28359,27.7072705 78.3726481,27.5255192 78.5244105,27.3519466 C78.6707204,27.1838266 78.9015446,27.0375167 79.2114307,26.9175608 C79.5140468,26.7994224 79.9466151,26.7403532 80.4955042,26.7403532 C81.0371233,26.7403532 81.4642391,26.7994224 81.7668551,26.9175608 C82.07765,27.0384255 82.3021129,27.1774653 82.4529666,27.3437678 C82.6020027,27.5109791 82.6928784,27.6872779 82.7246849,27.869938 C82.7519476,28.030788 82.7664877,28.168919 82.7664877,28.2806961 L82.7664877,32.5927476 C82.7664877,32.6963459 82.7519476,32.8326594 82.7246849,32.9980532 C82.6928784,33.1834396 82.6020027,33.3633734 82.4547841,33.533311 C82.3039304,33.7032485 82.0721974,33.8486496 81.7668551,33.9676968 C81.4642391,34.0849264 81.0371233,34.1439956 80.4955042,34.1439956 M80.4955042,26.2314494 C79.5840211,26.2314494 78.881552,26.412292 78.4099072,26.7685247 C77.9482587,27.1193048 77.7137994,27.6391138 77.7137994,28.3125026 L77.7137994,32.5482185 C77.7137994,33.2461438 77.9473499,33.7750403 78.4099072,34.1212767 C78.881552,34.4729656 79.5831123,34.6519907 80.4955042,34.6519907 C81.4060786,34.6519907 82.1067302,34.4729656 82.5792838,34.1212767 C83.0472936,33.7714053 83.2753915,33.2570489 83.2753915,32.5482185 L83.2753915,28.3125026 C83.2753915,27.6118511 83.0482023,27.103856 82.5801925,26.7585284 C82.1067302,26.408657 81.4051699,26.2314494 80.4955042,26.2314494 M80.4955042,34.8791799 C79.5331307,34.8791799 78.7852238,34.6856147 78.2735936,34.303028 C77.7510584,33.9113538 77.4866102,33.3215706 77.4866102,32.5482185 L77.4866102,28.3125026 C77.4866102,27.5645957 77.7510584,26.9839001 78.2726849,26.5876821 C78.7852238,26.2005516 79.5331307,26.0042601 80.4955042,26.0042601 C81.4551515,26.0042601 82.2021497,26.1969166 82.7146885,26.5749595 C83.2372238,26.9611811 83.5025808,27.5455118 83.5025808,28.3125026 L83.5025808,32.5482185 C83.5025808,33.3233881 83.2381325,33.9131713 82.7155973,34.303028 C82.2030584,34.6856147 81.4560603,34.8791799 80.4955042,34.8791799" id="Fill-37" fill="#083855" mask="url(#mask-2)"></path>
                            <polygon id="Fill-38" fill="#083855" mask="url(#mask-2)" points="87.8210844 34.6725286 87.8210844 26.212002 88.6144291 26.212002 92.9691922 33.3539224 92.9691922 26.212002 93.702559 26.212002 93.702559 34.6725286 92.8955829 34.6725286 88.5571775 27.5306082 88.5571775 34.6725286"></polygon>
                            <path d="M92.9599228,34.558934 L93.5887826,34.558934 L93.5887826,26.3255966 L93.082605,26.3255966 L93.082605,33.7592279 L88.5506344,26.3255966 L87.9344972,26.3255966 L87.9344972,34.558934 L88.4434011,34.558934 L88.4434011,27.1253026 L92.9599228,34.558934 Z M93.8159718,34.7861232 L92.8317881,34.7861232 L88.6705903,27.9359138 L88.6705903,34.7861232 L87.707308,34.7861232 L87.707308,26.0984073 L88.6787691,26.0984073 L92.8554158,32.9495255 L92.8554158,26.0984073 L93.8159718,26.0984073 L93.8159718,34.7861232 Z" id="Fill-39" fill="#083855" mask="url(#mask-2)"></path>
                        </g>
                        <g id="Group-3" transform="translate(0.000000, 0.000000)">
                            <mask id="mask-4" fill="white">
                                <use xlink:href="#path-3"></use>
                            </mask>
                            <g id="Clip-2"></g>
                            <path d="M78.66985,36.15605 C78.66985,37.73105 77.38885,39.0108833 75.8150167,39.0108833 L30.2835167,39.0108833 L2.85518333,11.58255 L2.85518333,5.70955 C2.85518333,4.13571667 4.13501667,2.85471667 5.71001667,2.85471667 L75.8150167,2.85471667 C77.38885,2.85471667 78.66985,4.13571667 78.66985,5.70955 L78.66985,36.15605 Z M2.85518333,36.15605 L2.85518333,26.6663833 L15.1996833,39.0108833 L5.71001667,39.0108833 C4.13501667,39.0108833 2.85518333,37.73105 2.85518333,36.15605 Z M2.85518333,16.7742167 L25.09185,39.0108833 L20.39135,39.0108833 L2.85518333,21.4747167 L2.85518333,16.7742167 Z M75.8150167,-0.000116666667 L5.71001667,-0.000116666667 C2.56118333,-0.000116666667 0.00035,2.56188333 0.00035,5.70955 L0.00035,36.15605 C0.00035,39.3037167 2.56118333,41.8657167 5.71001667,41.8657167 L75.8150167,41.8657167 C78.9626833,41.8657167 81.5246833,39.3037167 81.5246833,36.15605 L81.5246833,5.70955 C81.5246833,2.56188333 78.9626833,-0.000116666667 75.8150167,-0.000116666667 Z" id="Fill-1" fill="#083855" mask="url(#mask-4)"></path>
                        </g>
                    </g>
                </g>
            </g>
        </g>
    </g>
</svg>