<?xml version="1.0" encoding="UTF-8"?>
<!-- Generator: Adobe Illustrator 15.0.0, SVG Export Plug-In . SVG Version: 6.00 Build 0)  -->
<!DOCTYPE svg PUBLIC "-//W3C//DTD SVG 1.1//EN" "http://www.w3.org/Graphics/SVG/1.1/DTD/svg11.dtd">
<svg version="1.1" id="svg2" sodipodi:docname="Wheelchair user Accessible sign (Outline).svg" inkscape:version="0.44" sodipodi:version="0.32" xmlns:inkscape="http://www.inkscape.org/namespaces/inkscape" xmlns:sodipodi="http://sodipodi.sourceforge.net/DTD/sodipodi-0.dtd" xmlns:rdf="http://www.w3.org/1999/02/22-rdf-syntax-ns#" xmlns:svg="http://www.w3.org/2000/svg" xmlns:cc="http://web.resource.org/cc/" xmlns:dc="http://purl.org/dc/elements/1.1/" xmlns="http://www.w3.org/2000/svg" xmlns:xlink="http://www.w3.org/1999/xlink" x="0px" y="0px" width="451px" height="451px" viewBox="0 0 451 451" enable-background="new 0 0 451 451" xml:space="preserve">
<sodipodi:namedview height="451px" width="451px" borderopacity="1.0" id="base" objecttolerance="10" bordercolor="#666666" pagecolor="transparent" gridtolerance="10000" guidetolerance="10" inkscape:pageopacity="0.0" inkscape:pageshadow="2" inkscape:window-width="1280" inkscape:window-height="968" inkscape:zoom="1.7117517" inkscape:cx="225.5" inkscape:cy="225.5" inkscape:window-x="-4" inkscape:window-y="-4" inkscape:current-layer="layer1" inkscape:document-units="px">
	</sodipodi:namedview>
<g>
	<path fill-rule="evenodd" clip-rule="evenodd" fill="#000000" d="M299.817,44.264c7.569-5.321,17.729-8.346,28.609-6.4   c7.479,1.338,13.424,4.58,18.258,9.035c7.214,6.649,11.979,15.999,12.233,27.292c0.499,22.133-16.917,39.711-40.654,38.208   c-11.318-0.716-19.489-5.664-25.975-13.363c-4.363-5.181-7.109-10.312-8.47-18.634C281.206,64.417,290.27,50.976,299.817,44.264z"/>
	<path fill-rule="evenodd" clip-rule="evenodd" fill="#000000" d="M109.34,217.991c14.626-13.856,32.161-24.429,55.148-29.175   c1.534-0.316,3.369-0.188,4.706-0.752c1.543-0.652,4.108-4.602,5.082-5.646c17.673-18.982,34.038-38.667,51.196-57.972   c-10.198-6.364-20.875-12.252-31.433-18.257c-12.37,10.319-23.871,21.479-36.326,32.374c-5.657,4.948-15.165,10.418-25.41,6.211   c-8.557-3.513-15.057-12.045-14.304-23.527c0.628-9.595,8.002-14.739,14.116-20.328c12.522-11.449,25.411-23.192,38.396-34.445   c4.452-3.856,8.609-8.4,15.435-9.976c0.802-0.185,2.08,0.116,2.635-0.941c0.288,0.916,2.936,0.206,4.894,0.377   c5.782,0.504,10.736,4.083,15.434,6.776c23.316,13.362,47.015,27.078,70.582,40.467c4.574,2.599,9.273,5.373,13.929,8.282   c4.675,2.924,9.979,4.966,14.116,8.093c8.295,6.271,12.083,20.271,7.34,31.057c-2.927,6.659-8.819,11.796-13.552,17.316   c-10.895,12.71-22.68,25.843-33.879,38.773c23.524-0.947,50.077-2.709,72.841-4.517c3.396,0.49,7.315-0.235,11.482,0.564   c11.157,2.143,19.149,11.679,17.88,25.598c-3.065,33.617-5.544,69.509-8.282,105.027c-0.75,9.749-1.192,16.809-6.211,22.587   c-5.236,6.025-15.641,10.39-25.221,6.399c-7.929-3.305-14.661-10.555-14.494-21.27c0.081-5.145,0.971-10.818,1.318-16.375   c1.528-24.485,4.284-51.931,5.835-75.664c-8.874,0.014-20.349,1.24-29.928,1.506c8.887,18.267,14.441,45.366,9.599,72.088   c-4.277,23.608-15.495,43.49-29.549,57.406c-9.928-9.458-19.488-19.286-29.363-28.798c7.571-8.275,14.315-19.437,17.316-31.997   c3.063-12.814,2.794-26.058-0.94-38.773c-10.455-30.812-34.41-52.358-73.406-53.077c-9.432-0.174-19.531,2.795-27.104,6.21   c-8.044,3.63-14.584,7.909-20.892,13.176C128.502,237.35,119.23,227.361,109.34,217.991z"/>
	<path fill-rule="evenodd" clip-rule="evenodd" fill="#000000" d="M229.987,362.92c7.847,6.831,15.138,14.572,22.587,22.021   c2.449,2.45,5.354,4.478,7.153,7.341c-19.905,15.379-47.352,26.005-80.747,23.904c-12.206-0.768-23.082-4.09-32.938-7.529   c-3.02-1.054-5.926-2.636-8.658-3.951c-6.062-2.923-12.049-6.073-17.128-9.788c-5.209-3.812-9.731-8.247-14.305-12.611   c-16.981-16.206-30.782-42.661-32.75-72.653c-0.955-14.557,1.035-31.216,5.458-44.23c4.511-13.272,10.954-24.095,18.446-34.445   c7.558,6.623,14.521,14.112,21.834,21.27c2.5,2.447,5.179,4.847,7.34,7.529c0.987,0.967-0.851,2.699-1.505,3.765   c-5.525,8.976-9.613,20.43-10.54,33.88c-1.083,15.705,3.326,30.263,9.787,41.029c6.092,10.155,14.549,19.32,25.221,25.976   c10.588,6.603,24.173,11.311,38.962,11.293C205.474,375.699,218.852,370.066,229.987,362.92z"/>
</g>
</svg>